<svg width="55" height="53" viewBox="0 0 55 53" fill="none" xmlns="http://www.w3.org/2000/svg">
<path d="M27.424 3.83496C22.783 3.83422 18.2459 5.16219 14.3865 7.65096C10.5271 10.1397 7.51874 13.6775 5.74172 17.817C3.9647 21.9565 3.49886 26.5118 4.40311 30.9069C5.30736 35.302 7.54109 39.3395 10.8219 42.5089C14.1026 45.6783 18.2831 47.8374 22.8347 48.713C27.3862 49.5886 32.1045 49.1414 36.3929 47.4281C40.6813 45.7147 44.3472 42.8121 46.9271 39.0873C49.507 35.3624 50.885 30.9826 50.8869 26.5017C50.8882 23.5258 50.2823 20.5788 49.1038 17.8291C47.9253 15.0793 46.1973 12.5806 44.0184 10.4758C41.8396 8.3709 39.2527 6.70106 36.4054 5.56162C33.5581 4.42217 30.5062 3.83545 27.424 3.83496Z" fill="#1A4066"/>
<path d="M1.8672 30.4404L0.647069 34.8838C0.0772033 36.9572 0.383424 39.1642 1.49841 41.0197C2.6134 42.8752 4.44589 44.2273 6.59304 44.7787L11.346 46.0015C6.27382 42.149 2.89091 36.5931 1.87107 30.4404H1.8672Z" fill="#1A4066"/>
<path d="M23.7154 1.89214L18.7362 0.637549C17.6726 0.36492 16.5638 0.297254 15.4732 0.438415C14.3825 0.579575 13.3313 0.926798 12.3796 1.46025C11.4279 1.99371 10.5944 2.70294 9.92668 3.54745C9.25893 4.39196 8.77002 5.35521 8.48789 6.38217L7.23682 10.917C11.3366 5.98881 17.2325 2.76017 23.7173 1.89214H23.7154Z" fill="#1A4066"/>
<path d="M48.2517 8.20628L42.9207 6.83594C45.615 8.83629 47.8709 11.3336 49.5571 14.1828C51.2434 17.0321 52.3266 20.1764 52.7436 23.4332L54.2093 18.0769C54.7711 16.0048 54.459 13.8022 53.3415 11.952C52.224 10.1017 50.3923 8.75472 48.2479 8.20628H48.2517Z" fill="#1A4066"/>
<path d="M31.0092 51.0341L36.116 52.3634C38.2635 52.9131 40.5491 52.6172 42.4707 51.5407C44.3924 50.4643 45.7928 48.6953 46.3643 46.6225L47.8068 41.395C43.7428 46.6233 37.704 50.0898 31.0054 51.0397L31.0092 51.0341Z" fill="#1A4066"/>
<path d="M40.7104 37.8348C40.3956 39.4132 39.4839 40.8221 38.1527 41.7874C36.8216 42.7527 35.1661 43.2054 33.5083 43.0575C31.8506 42.9095 30.3091 42.1715 29.1838 40.9869C28.0584 39.8024 27.4296 38.256 27.4198 36.6487C27.4099 35.0413 28.0197 33.4879 29.1305 32.2905C30.2412 31.0932 31.7735 30.3376 33.4294 30.1707C35.0852 30.0039 36.7461 30.4376 38.089 31.3877C39.4319 32.3377 40.3608 33.736 40.695 35.3107C40.8717 36.143 40.877 37.0006 40.7104 37.8348Z" fill="#BACEE6"/>
<path d="M23.8856 34.7161C23.5681 36.2924 22.6548 37.6983 21.3232 38.6605C19.9916 39.6226 18.337 40.0722 16.6811 39.9218C15.0252 39.7713 13.4865 39.0317 12.3641 37.8466C11.2418 36.6615 10.6161 35.1157 10.6087 33.5099C10.6013 31.9041 11.2128 30.353 12.3242 29.1584C13.4356 27.9637 14.9675 27.2109 16.6219 27.0463C18.2764 26.8817 19.9351 27.3171 21.2755 28.2678C22.6158 29.2185 23.5421 30.6166 23.874 32.1901C24.0498 33.0232 24.0537 33.8815 23.8856 34.7161Z" fill="#BACEE6"/>
<path d="M26.728 29.4751C26.0018 29.3361 25.3552 28.9411 24.9139 28.3672C24.4727 27.7932 24.2683 27.0813 24.3407 26.3699C24.4131 25.6585 24.7569 24.9986 25.3054 24.5185C25.8539 24.0384 26.5678 23.7725 27.3081 23.7725C28.0484 23.7725 28.7623 24.0384 29.3108 24.5185C29.8593 24.9986 30.2032 25.6585 30.2755 26.3699C30.3479 27.0813 30.1436 27.7932 29.7023 28.3672C29.261 28.9411 28.6144 29.3361 27.8882 29.4751C27.5052 29.5486 27.111 29.5486 26.728 29.4751Z" fill="#BACEE6"/>
<path d="M14.1344 15.1387C14.448 13.557 15.3599 12.1446 16.6925 11.1762C18.0252 10.2079 19.6833 9.7528 21.3442 9.89956C23.0052 10.0463 24.5502 10.7844 25.6786 11.9703C26.8071 13.1561 27.4382 14.7049 27.4493 16.3152C27.4605 17.9255 26.8507 19.4823 25.7387 20.6825C24.6267 21.8827 23.092 22.6407 21.4332 22.8088C19.7744 22.9769 18.1102 22.5431 16.7643 21.592C15.4185 20.6408 14.4872 19.2403 14.1518 17.6628C13.9743 16.8307 13.9684 15.973 14.1344 15.1387Z" fill="#BACEE6"/>
<path d="M36.2726 25.851C34.6397 25.5465 33.1824 24.6666 32.1841 23.3823C31.1858 22.098 30.7179 20.5012 30.8714 18.9023C31.0249 17.3034 31.7887 15.8168 33.0145 14.7315C34.2402 13.6462 35.8402 13.0399 37.5033 13.0304C39.1664 13.0209 40.7737 13.6089 42.0126 14.6802C43.2515 15.7514 44.0336 17.2292 44.2066 18.8262C44.3796 20.4232 43.9313 22.0253 42.9488 23.3209C41.9663 24.6165 40.5199 25.513 38.8908 25.836C38.0276 26.007 37.1379 26.0121 36.2726 25.851Z" fill="#BACEE6"/>
</svg>
