<svg width="358" height="74" viewBox="0 0 358 74" fill="none" xmlns="http://www.w3.org/2000/svg">
<path d="M25.4645 54.792C17.8085 54.748 11.7805 53.516 7.38047 51.096C2.98047 48.676 0.582469 45.332 0.186469 41.064C0.142469 40.712 0.120469 40.184 0.120469 39.48C0.120469 37.588 0.384469 35.542 0.912469 33.342C1.44047 31.142 2.07847 29.184 2.82647 27.468L9.16247 30.504C7.88647 34.508 7.31447 37.39 7.44647 39.15C7.75447 40.822 9.49247 42.208 12.6605 43.308C15.8725 44.364 20.2505 44.914 25.7945 44.958C29.7985 44.958 33.1865 44.738 35.9585 44.298C38.7745 43.858 40.8865 43.352 42.2945 42.78C43.7025 42.208 44.4505 41.746 44.5385 41.394C44.1865 39.326 43.5705 37.038 42.6905 34.53C41.8545 31.978 41.1285 29.976 40.5125 28.524L47.4425 24.696C48.4985 27.072 49.4225 29.778 50.2145 32.814C51.0065 35.806 51.4025 38.446 51.4025 40.734C51.4025 45.31 49.0925 48.786 44.4725 51.162C39.8525 53.494 33.7365 54.704 26.1245 54.792H25.5305H25.4645ZM19.9205 20.538L25.4645 26.082L19.9205 31.692L18.0725 29.844L14.3105 26.082L19.9205 20.538ZM31.5365 20.538L37.0805 26.082L31.5365 31.692L29.6885 29.844L25.9265 26.082L31.5365 20.538ZM88.1923 5.16C89.6003 15.852 90.2383 25.532 90.1063 34.2C90.0623 38.732 88.6763 42.604 85.9483 45.816C83.2203 49.028 79.6123 51.47 75.1243 53.142C70.6803 54.814 65.8183 55.738 60.5383 55.914L58.2283 46.872C60.1643 46.74 62.1003 46.542 64.0363 46.278C64.5203 44.914 64.7623 43.396 64.7623 41.724C64.7623 36.092 62.1663 27.424 56.9743 15.72L63.9043 10.902C66.5003 16.226 68.4583 21.242 69.7783 25.95C71.1423 30.658 71.8243 34.838 71.8243 38.49C71.8243 40.866 71.5163 43.022 70.9003 44.958C74.4203 44.034 77.1703 42.736 79.1503 41.064C81.1303 39.348 82.1203 37.104 82.1203 34.332C82.0763 29.932 81.8783 25.796 81.5263 21.924C81.1743 18.052 80.6463 13.058 79.9423 6.942L88.1923 5.16ZM111.35 54C106.51 54 103.012 52.614 100.856 49.842C98.7435 47.07 97.6875 42.846 97.6875 37.17C97.6435 31.758 97.4675 26.28 97.1595 20.736C96.8955 15.148 96.4995 10.55 95.9715 6.942L104.156 5.16C104.596 8.372 104.948 12.728 105.212 18.228C105.476 23.684 105.608 28.744 105.608 33.408V35.916C105.564 38.16 105.674 39.854 105.938 40.998C106.202 42.142 106.73 42.956 107.522 43.44C108.358 43.924 109.634 44.166 111.35 44.166H111.68L112.208 49.116L111.68 54H111.35ZM110.973 44.166H112.557C114.449 44.166 115.813 44.144 116.649 44.1C115.461 42.164 114.867 40.118 114.867 37.962C114.867 37.566 114.911 37.016 114.999 36.312C115.395 33.716 116.209 31.362 117.441 29.25C118.673 27.138 120.169 25.466 121.929 24.234C123.733 23.002 125.625 22.386 127.605 22.386C129.893 22.386 131.917 23.09 133.677 24.498C135.437 25.906 136.779 27.71 137.703 29.91C138.627 32.11 139.089 34.376 139.089 36.708C139.089 37.192 139.045 37.874 138.957 38.754C138.693 40.646 138.143 42.45 137.307 44.166H142.851L143.379 49.116L142.851 54H138.891C134.755 54 130.883 53.362 127.275 52.086C123.447 53.362 118.541 54 112.557 54H110.973V44.166ZM121.863 36.906C121.951 37.918 122.413 38.93 123.249 39.942C124.129 40.954 125.339 41.812 126.879 42.516C129.343 41.592 131.059 40.008 132.027 37.764L132.093 37.038C132.093 35.674 131.653 34.42 130.773 33.276C129.893 32.088 128.705 31.494 127.209 31.494C125.845 31.494 124.657 32.044 123.645 33.144C122.633 34.244 122.039 35.498 121.863 36.906ZM121.797 7.536L127.341 13.08L121.797 18.69L119.949 16.842L116.187 13.08L121.797 7.536ZM133.413 7.536L138.957 13.08L133.413 18.69L131.565 16.842L127.803 13.08L133.413 7.536ZM142.175 44.166H143.363C146.795 44.166 149.611 42.098 151.811 37.962C154.011 33.87 156.123 30.812 158.147 28.788C160.171 26.72 162.437 25.686 164.945 25.686C167.321 25.686 169.411 26.456 171.215 27.996C173.019 29.492 174.383 31.45 175.307 33.87C176.275 36.246 176.759 38.754 176.759 41.394C176.759 43.946 176.275 46.322 175.307 48.522C174.339 50.678 172.931 52.306 171.083 53.406C170.115 54.022 168.927 54.33 167.519 54.33C164.131 54.33 159.643 52.57 154.055 49.05C151.327 52.35 147.719 54 143.231 54H141.977L142.175 44.166ZM158.279 41.262C160.347 42.538 162.217 43.55 163.889 44.298C165.561 45.002 166.837 45.354 167.717 45.354C168.157 45.354 168.465 45.288 168.641 45.156C169.081 44.848 169.411 44.408 169.631 43.836C169.895 43.22 170.027 42.516 170.027 41.724C170.027 39.964 169.543 38.336 168.575 36.84C167.607 35.3 166.331 34.53 164.747 34.53C162.767 34.53 160.611 36.774 158.279 41.262ZM242.14 54C240.864 54 239.654 53.714 238.51 53.142C238.334 56.838 237.3 60.204 235.408 63.24C233.516 66.32 230.92 68.762 227.62 70.566C224.32 72.37 220.558 73.272 216.334 73.272C212.242 73.272 208.634 72.48 205.51 70.896C202.386 69.356 199.944 67.134 198.184 64.23C196.468 61.326 195.61 57.916 195.61 54C195.61 53.208 195.632 52.592 195.676 52.152C195.808 49.644 196.314 47.026 197.194 44.298C198.118 41.57 199.13 39.062 200.23 36.774L206.566 39.678C205.422 42.318 204.542 44.65 203.926 46.674C203.31 48.654 203.002 50.678 203.002 52.746C203.002 56.354 204.146 59.038 206.434 60.798C208.722 62.602 212.022 63.504 216.334 63.504C219.414 63.504 222.098 62.954 224.386 61.854C226.718 60.798 228.478 59.39 229.666 57.63C230.898 55.914 231.514 54.088 231.514 52.152C231.514 49.644 230.106 44.364 227.29 36.312L234.352 32.616C235.232 35.08 235.936 37.192 236.464 38.952C237.168 40.932 237.916 42.296 238.708 43.044C239.5 43.792 240.644 44.166 242.14 44.166H242.602L243.13 49.116L242.602 54H242.14ZM217.72 26.742C219.084 28.062 220.426 29.404 221.746 30.768L223.792 32.814L217.72 38.886L211.582 32.814L217.72 26.742ZM241.547 49.116L242.075 44.166H247.619C251.975 44.166 255.055 43.792 256.859 43.044C258.663 42.296 259.565 41.152 259.565 39.612C259.521 38.644 259.015 36.796 258.047 34.068C257.079 31.296 256.375 29.448 255.935 28.524L262.931 24.696C263.811 26.544 264.691 29.008 265.571 32.088C266.451 35.124 266.891 37.786 266.891 40.074C266.847 44.562 265.329 48.016 262.337 50.436C259.345 52.812 254.923 54 249.071 54H242.075L241.547 49.116ZM247.619 59.544L249.467 61.392L253.229 65.154L247.619 70.698L242.075 65.154L247.619 59.544ZM259.235 59.544L261.083 61.392L264.845 65.154L259.235 70.698L253.691 65.154L259.235 59.544ZM293.428 54C292.02 54 290.722 53.736 289.534 53.208C289.27 57.344 287.466 61.15 284.122 64.626C280.778 68.146 276.356 71.028 270.856 73.272L266.83 64.956C269.734 63.768 272.396 62.382 274.816 60.798C277.236 59.258 279.128 57.718 280.492 56.178C281.9 54.638 282.604 53.318 282.604 52.218C282.604 50.414 281.438 45.508 279.106 37.5L278.776 36.18L286.168 33.276C286.652 34.64 287.224 36.598 287.884 39.15C288.456 40.954 289.16 42.252 289.996 43.044C290.876 43.792 292.02 44.166 293.428 44.166H294.022L294.55 49.116L294.022 54H293.428ZM293.375 44.166H298.325C303.297 44.166 307.961 43.66 312.317 42.648C316.673 41.592 321.271 39.832 326.111 37.368C324.923 36.884 323.361 36.158 321.425 35.19C317.553 33.21 314.187 32.22 311.327 32.22C309.655 32.22 308.159 32.682 306.839 33.606C305.563 34.486 304.573 35.498 303.869 36.642L298.325 32.616C301.669 26.06 306.091 22.782 311.591 22.782C313.439 22.782 315.221 23.09 316.937 23.706C318.653 24.322 321.161 25.466 324.461 27.138C327.013 28.458 329.169 29.47 330.929 30.174C332.733 30.878 334.713 31.45 336.869 31.89L337.199 40.734C336.011 41.086 333.679 42.208 330.203 44.1C329.939 44.276 329.697 44.43 329.477 44.562C329.257 44.65 329.059 44.738 328.883 44.826C324.527 47.114 320.743 48.896 317.531 50.172C314.319 51.448 311.041 52.416 307.697 53.076C304.353 53.692 300.569 54 296.345 54H293.375V44.166ZM312.449 6.084C313.813 7.404 315.155 8.746 316.475 10.11L318.521 12.156L312.449 18.228L306.311 12.156L312.449 6.084ZM343.369 53.604C343.633 51.404 343.765 47.774 343.765 42.714C343.765 37.478 343.589 31.912 343.237 26.016C342.929 20.12 342.577 15.764 342.181 12.948L350.431 11.1C350.739 13.872 351.025 18.03 351.289 23.574C351.597 29.118 351.751 34.552 351.751 39.876C351.751 45.552 351.553 50.414 351.157 54.462L343.369 53.604ZM334.987 6.546C335.867 4.61 336.945 3.114 338.221 2.058C339.453 0.957997 340.817 0.407998 342.313 0.407998C343.061 0.407998 343.721 0.517998 344.293 0.737997C344.909 0.913998 345.635 1.178 346.471 1.53C347.879 2.19 349.001 2.52 349.837 2.52C350.585 2.52 351.333 2.3 352.081 1.86C352.873 1.376 353.533 0.759997 354.061 0.0119988L357.031 2.52C356.063 4.016 354.963 5.182 353.731 6.018C352.499 6.81 351.201 7.206 349.837 7.206C349.089 7.206 348.407 7.118 347.791 6.942C347.219 6.722 346.449 6.414 345.481 6.018C344.161 5.358 343.127 5.028 342.379 5.028C341.543 5.028 340.751 5.336 340.003 5.952C339.255 6.524 338.661 7.36 338.221 8.46L334.987 6.546Z" fill="#3860AC"/>
</svg>
