<svg width="502" height="72" viewBox="0 0 502 72" fill="none" xmlns="http://www.w3.org/2000/svg">
<path d="M19.5729 66.226C16.0529 66.226 12.8189 65.522 9.87089 64.114C6.92289 62.706 4.56889 60.66 2.80889 57.976C1.09289 55.336 0.234891 52.256 0.234891 48.736C0.234891 46.184 0.696891 43.346 1.62089 40.222C2.54489 37.054 3.60089 34.194 4.78889 31.642L11.1909 34.546C10.0029 37.142 9.10089 39.408 8.48489 41.344C7.91289 43.236 7.62689 45.172 7.62689 47.152C7.62689 49.88 8.72689 52.102 10.9269 53.818C13.1269 55.534 16.0089 56.392 19.5729 56.392C24.0609 56.392 27.4489 55.248 29.7369 52.96C32.0249 50.672 33.1029 47.218 32.9709 42.598C32.7509 34.986 32.3549 27.374 31.7829 19.762C31.2109 12.106 30.6389 6.166 30.0669 1.942L38.3169 0.159999C39.0649 5.792 39.7029 19.784 40.2309 42.136C40.3189 47.108 39.5489 51.398 37.9209 55.006C36.3369 58.614 33.9829 61.386 30.8589 63.322C27.7349 65.258 23.9729 66.226 19.5729 66.226ZM45.1448 59.758C51.3048 58.438 56.0348 56.898 59.3348 55.138C62.6788 53.422 64.8568 51.332 65.8688 48.868C64.6808 49.044 63.3608 49.132 61.9088 49.132C58.6968 49.132 55.7928 48.582 53.1968 47.482C50.6448 46.338 48.8408 44.644 47.7848 42.4C46.9928 40.684 46.5968 38.792 46.5968 36.724C46.5968 34.128 47.1468 31.554 48.2468 29.002C49.3468 26.406 50.8648 24.294 52.8008 22.666C54.7368 20.994 56.8488 20.158 59.1368 20.158C61.7768 20.158 64.1748 21.302 66.3308 23.59C68.4868 25.878 70.1808 28.87 71.4128 32.566C72.6448 36.262 73.2608 40.112 73.2608 44.116C73.2608 50.276 71.0388 55.468 66.5948 59.692C62.1508 63.916 56.0128 66.776 48.1808 68.272L45.1448 59.758ZM53.8568 36.856C54.5168 37.736 55.7488 38.418 57.5528 38.902C59.3568 39.342 61.3808 39.562 63.6248 39.562C64.6808 39.562 65.4728 39.54 66.0008 39.496C65.3848 36.504 64.3728 33.996 62.9648 31.972C61.6008 29.948 60.0608 28.936 58.3448 28.936C57.4648 28.936 56.6288 29.266 55.8368 29.926C55.0888 30.586 54.4728 31.4 53.9888 32.368C53.5488 33.336 53.3288 34.238 53.3288 35.074C53.3288 35.778 53.5048 36.372 53.8568 36.856ZM80.1908 48.604C80.6308 45.7 80.8508 41.212 80.8508 35.14C80.8508 29.068 80.6528 22.71 80.2568 16.066C79.9048 9.378 79.4868 4.692 79.0028 2.008L87.2528 0.0939963C87.6488 2.646 88.0008 7.112 88.3088 13.492C88.6168 19.872 88.7708 26.142 88.7708 32.302C88.7708 39.914 88.5068 45.634 87.9788 49.462L80.1908 48.604ZM130.223 49C128.287 49 126.549 48.648 125.009 47.944C123.513 47.196 122.149 46.096 120.917 44.644C117.705 47.768 113.723 49.33 108.971 49.33C103.603 49.33 98.5654 47.57 93.8574 44.05L97.4214 37.12C98.8294 37.868 100.369 38.55 102.041 39.166C103.713 39.738 105.693 40.024 107.981 40.024C111.457 40.024 114.471 39.21 117.023 37.582L107.981 16.924L114.779 13.228L123.821 34.612C124.525 36.372 125.339 37.582 126.263 38.242C127.187 38.858 128.507 39.166 130.223 39.166H131.015L131.543 44.116L131.015 49H130.223ZM130.357 39.166H130.82C134.78 39.166 137.728 38.968 139.664 38.572C141.6 38.132 142.876 37.494 143.492 36.658C144.108 35.822 144.416 34.612 144.416 33.028C144.416 31.752 144.196 29.662 143.756 26.758L150.554 25.438C151.17 28.65 151.478 32.28 151.478 36.328C151.654 37.076 152.138 37.736 152.93 38.308C153.722 38.88 154.866 39.166 156.362 39.166H156.758L157.286 44.116L156.758 49H156.362C154.602 49 152.974 48.582 151.478 47.746C149.982 46.91 148.706 45.81 147.649 44.446C146.374 46.074 144.438 47.24 141.842 47.944C139.246 48.648 135.572 49 130.82 49H130.357V39.166ZM135.572 9.664L141.116 15.208L135.572 20.818L133.724 18.97L129.961 15.208L135.572 9.664ZM147.188 9.664L152.732 15.208L147.188 20.818L145.34 18.97L141.578 15.208L147.188 9.664ZM156.272 39.166H157.46C160.892 39.166 163.708 37.098 165.908 32.962C168.108 28.87 170.22 25.812 172.244 23.788C174.268 21.72 176.534 20.686 179.042 20.686C181.418 20.686 183.508 21.456 185.312 22.996C187.116 24.492 188.48 26.45 189.404 28.87C190.372 31.246 190.856 33.754 190.856 36.394C190.856 38.946 190.372 41.322 189.404 43.522C188.436 45.678 187.028 47.306 185.18 48.406C184.212 49.022 183.024 49.33 181.616 49.33C178.228 49.33 173.74 47.57 168.152 44.05C165.424 47.35 161.816 49 157.328 49H156.074L156.272 39.166ZM172.376 36.262C174.444 37.538 176.314 38.55 177.986 39.298C179.658 40.002 180.934 40.354 181.814 40.354C182.254 40.354 182.562 40.288 182.738 40.156C183.178 39.848 183.508 39.408 183.728 38.836C183.992 38.22 184.124 37.516 184.124 36.724C184.124 34.964 183.64 33.336 182.672 31.84C181.704 30.3 180.428 29.53 178.844 29.53C176.864 29.53 174.708 31.774 172.376 36.262ZM230.366 64.774C226.186 64.774 222.49 63.96 219.278 62.332C216.066 60.704 213.58 58.284 211.82 55.072C210.104 51.904 209.4 48.098 209.708 43.654C209.972 39.43 211.468 34.304 214.196 28.276L220.598 31.18C219.41 33.864 218.508 36.196 217.892 38.176C217.32 40.112 217.034 42.092 217.034 44.116C217.034 47.768 218.156 50.496 220.4 52.3C222.688 54.104 226.01 55.006 230.366 55.006C233.93 55.006 237.12 54.368 239.936 53.092C242.752 51.86 244.776 50.298 246.008 48.406C246.052 48.274 244.666 47.856 241.85 47.152L238.352 46.162C234.876 45.15 232.412 43.94 230.96 42.532C229.508 41.124 228.782 39.144 228.782 36.592C228.782 33.028 229.684 29.618 231.488 26.362C233.292 23.106 235.668 20.466 238.616 18.442C241.564 16.418 244.688 15.406 247.988 15.406C249.308 15.406 250.65 15.604 252.014 16C253.378 16.352 254.324 16.792 254.852 17.32L252.08 25.834C251.64 25.658 251.002 25.504 250.166 25.372C249.33 25.24 248.582 25.174 247.922 25.174C246.118 25.174 244.38 25.57 242.708 26.362C241.08 27.11 239.694 28.122 238.55 29.398C237.406 30.63 236.636 31.972 236.24 33.424C236.196 33.6 236.174 33.82 236.174 34.084C236.174 34.832 236.68 35.492 237.692 36.064C238.748 36.592 240.706 37.186 243.566 37.846C247.57 38.77 250.276 39.936 251.684 41.344C253.136 42.708 253.862 44.314 253.862 46.162C253.862 49.374 252.828 52.41 250.76 55.27C248.692 58.13 245.854 60.418 242.246 62.134C238.682 63.894 234.722 64.774 230.366 64.774ZM276.139 49C271.299 49 267.801 47.614 265.645 44.842C263.533 42.07 262.477 37.846 262.477 32.17C262.433 26.758 262.257 21.28 261.949 15.736C261.685 10.148 261.289 5.55 260.761 1.942L268.945 0.159999C269.385 3.372 269.737 7.728 270.001 13.228C270.265 18.684 270.397 23.744 270.397 28.408V30.916C270.353 33.16 270.463 34.854 270.727 35.998C270.991 37.142 271.519 37.956 272.311 38.44C273.147 38.924 274.423 39.166 276.139 39.166H276.469L276.997 44.116L276.469 49H276.139ZM275.894 39.166H276.95C279.15 39.166 280.756 39.144 281.768 39.1C280.448 37.164 279.788 35.162 279.788 33.094C279.788 32.61 279.876 31.884 280.052 30.916C280.624 28.1 281.68 25.504 283.22 23.128C282.648 22.996 281.966 22.82 281.174 22.6L284.804 13.492C293.472 16.132 300.248 18.662 305.132 21.082C310.016 23.458 313.448 25.812 315.428 28.144C317.408 30.476 318.398 33.006 318.398 35.734C318.398 37.406 318.024 39.474 317.276 41.938C316.572 44.226 315.032 45.942 312.656 47.086C310.28 48.23 307.442 48.802 304.142 48.802C300.49 48.802 296.948 48.208 293.516 47.02C289.512 48.34 283.99 49 276.95 49H275.894V39.166ZM286.916 31.774C286.916 33.886 288.852 35.822 292.724 37.582C296.376 36.394 298.202 34.568 298.202 32.104C298.202 31.004 297.894 29.97 297.278 29.002C296.662 27.99 295.848 27.242 294.836 26.758L293.252 26.23C293.12 26.186 292.922 26.164 292.658 26.164C291.25 26.164 289.93 26.736 288.698 27.88C287.51 29.024 286.916 30.322 286.916 31.774ZM302.228 40.09C303.284 40.222 304.274 40.288 305.198 40.288C306.782 40.288 308.08 40.112 309.092 39.76C310.148 39.364 310.808 38.792 311.072 38.044C311.204 37.692 311.27 37.384 311.27 37.12C311.27 35.096 308.96 32.94 304.34 30.652C304.384 31.576 304.34 32.632 304.208 33.82C303.812 36.284 303.152 38.374 302.228 40.09ZM404.782 49C401.218 49 398.314 47.548 396.07 44.644C394.97 46.008 393.716 47.064 392.308 47.812C390.9 48.56 389.382 48.956 387.754 49H387.556H387.358C385.334 48.956 383.596 48.45 382.144 47.482C380.692 46.514 379.57 45.128 378.778 43.324C376.358 47.108 373.41 49 369.934 49H369.868H369.736C368.592 49 367.426 48.736 366.238 48.208C366.062 51.86 365.028 55.204 363.136 58.24C361.244 61.32 358.648 63.762 355.348 65.566C352.048 67.37 348.286 68.272 344.062 68.272C339.97 68.272 336.362 67.48 333.238 65.896C330.114 64.356 327.672 62.134 325.912 59.23C324.196 56.326 323.338 52.916 323.338 49C323.338 48.208 323.36 47.592 323.404 47.152C323.536 44.644 324.042 42.026 324.922 39.298C325.846 36.57 326.858 34.062 327.958 31.774L334.294 34.678C333.15 37.318 332.27 39.65 331.654 41.674C331.038 43.654 330.73 45.678 330.73 47.746C330.73 51.354 331.874 54.038 334.162 55.798C336.45 57.602 339.75 58.504 344.062 58.504C347.142 58.504 349.826 57.954 352.114 56.854C354.446 55.798 356.206 54.39 357.394 52.63C358.626 50.914 359.242 49.088 359.242 47.152C359.242 44.556 357.834 39.276 355.018 31.312L362.08 27.616C362.74 29.376 363.356 31.246 363.928 33.226C364.632 35.426 365.402 36.966 366.238 37.846C367.074 38.682 368.394 39.122 370.198 39.166C372.354 39.122 374.048 37.912 375.28 35.536C376.116 33.864 376.864 31.29 377.524 27.814L384.322 28.144C383.838 31.048 383.596 33.116 383.596 34.348C383.596 37.56 384.938 39.166 387.622 39.166C388.634 39.166 389.602 38.968 390.526 38.572C391.494 38.176 392.242 37.67 392.77 37.054C392.374 35.426 391.78 32.456 390.988 28.144L397.786 26.296C398.27 29.112 398.666 31.246 398.974 32.698C399.326 34.15 399.634 35.294 399.898 36.13C400.25 37.142 400.8 37.912 401.548 38.44C402.34 38.924 403.418 39.166 404.782 39.166H405.178L405.64 44.116L405.112 49H404.782ZM374.356 10.258L379.636 15.472L374.356 20.818C373.96 20.334 372.64 18.992 370.396 16.792C370.396 16.792 369.956 16.352 369.076 15.472L374.356 10.258ZM380.56 3.064L385.18 7.684L380.56 12.37C380.56 12.37 379.526 11.336 377.458 9.268L375.874 7.684L380.56 3.064ZM386.83 10.258L392.044 15.472C392.044 15.472 391.34 16.176 389.932 17.584L386.83 20.818C386.83 20.818 385.642 19.63 383.266 17.254L381.484 15.472L386.83 10.258ZM441.239 49C439.215 48.956 437.455 48.45 435.959 47.482C434.507 46.514 433.385 45.128 432.593 43.324C430.217 47.064 427.291 48.956 423.815 49H423.485C421.593 49 419.943 48.494 418.535 47.482C417.127 46.47 416.137 45.128 415.565 43.456C414.157 45.26 412.529 46.646 410.681 47.614C408.877 48.538 406.941 49 404.873 49H404.675L404.147 44.116L404.675 39.166H405.005C406.369 39.166 407.711 38.88 409.031 38.308C410.351 37.692 411.341 36.944 412.001 36.064C412.925 35.008 413.629 33.82 414.113 32.5C414.597 31.18 415.037 29.772 415.433 28.276L422.297 29.002C422.253 29.222 422.011 30.102 421.571 31.642C421.131 33.138 420.911 34.502 420.911 35.734C420.911 38.022 421.835 39.166 423.683 39.166H423.881C426.125 39.166 427.863 37.956 429.095 35.536C429.931 33.864 430.679 31.29 431.339 27.814L438.137 28.144C437.653 31.048 437.411 33.116 437.411 34.348C437.411 37.56 438.753 39.166 441.437 39.166C442.713 39.166 443.725 38.792 444.473 38.044C445.221 37.296 445.595 36.328 445.595 35.14C445.595 33.952 445.133 32.06 444.209 29.464C443.329 26.868 442.581 24.888 441.965 23.524L448.697 19.828C449.533 21.544 450.413 24.008 451.337 27.22C452.261 30.388 452.723 33.16 452.723 35.536C452.723 37.956 452.239 40.2 451.271 42.268C450.347 44.292 449.027 45.92 447.311 47.152C445.639 48.384 443.725 49 441.569 49H441.437H441.239ZM475.942 49C474.534 49 473.236 48.736 472.048 48.208C471.784 52.344 469.98 56.15 466.636 59.626C463.292 63.146 458.87 66.028 453.37 68.272L449.344 59.956C452.248 58.768 454.91 57.382 457.33 55.798C459.75 54.258 461.642 52.718 463.006 51.178C464.414 49.638 465.118 48.318 465.118 47.218C465.118 45.414 463.952 40.508 461.62 32.5L461.29 31.18L468.682 28.276C469.166 29.64 469.738 31.598 470.398 34.15C470.97 35.954 471.674 37.252 472.51 38.044C473.39 38.792 474.534 39.166 475.942 39.166H476.536L477.064 44.116L476.536 49H475.942ZM475.559 44.116L476.087 39.166H482.027C486.383 39.166 489.463 38.792 491.267 38.044C493.071 37.296 493.973 36.152 493.973 34.612C493.929 33.644 493.423 31.796 492.455 29.068C491.487 26.296 490.783 24.448 490.343 23.524L497.339 19.696C498.219 21.544 499.099 24.008 499.979 27.088C500.859 30.124 501.299 32.786 501.299 35.074C501.255 39.562 499.737 43.016 496.745 45.436C493.753 47.812 489.331 49 483.479 49H476.087L475.559 44.116ZM476.681 58.9C476.681 58.9 477.385 58.196 478.793 56.788L481.895 53.554C481.895 53.554 483.083 54.742 485.459 57.118L487.241 58.9L481.895 64.114L476.681 58.9ZM488.165 62.002C488.165 62.002 489.199 63.036 491.267 65.104L492.851 66.688L488.165 71.308L483.545 66.688L488.165 62.002ZM494.369 53.554C494.809 54.038 496.129 55.38 498.329 57.58C498.329 57.58 498.769 58.02 499.649 58.9L494.369 64.114L489.089 58.9L494.369 53.554Z" fill="#3860AC"/>
</svg>
