<svg width="247" height="36" viewBox="0 0 247 36" fill="none" xmlns="http://www.w3.org/2000/svg">
<path d="M7.928 27C5.58133 27 3.88533 26.328 2.84 24.984C1.816 23.64 1.304 21.592 1.304 18.84C1.28267 16.216 1.19733 13.56 1.048 10.872C0.92 8.16267 0.728 5.93333 0.472 4.184L4.44 3.32C4.65333 4.87733 4.824 6.98933 4.952 9.656C5.08 12.3013 5.144 14.7547 5.144 17.016V18.232C5.12267 19.32 5.176 20.1413 5.304 20.696C5.432 21.2507 5.688 21.6453 6.072 21.88C6.47733 22.1147 7.096 22.232 7.928 22.232H8.088L8.344 24.632L8.088 27H7.928ZM7.8095 22.232H8.3215C9.38817 22.232 10.1668 22.2213 10.6575 22.2C10.0175 21.2613 9.6975 20.2907 9.6975 19.288C9.6975 19.0533 9.74017 18.7013 9.8255 18.232C10.1028 16.8667 10.6148 15.608 11.3615 14.456C11.0842 14.392 10.7535 14.3067 10.3695 14.2L12.1295 9.784C16.3322 11.064 19.6175 12.2907 21.9855 13.464C24.3535 14.616 26.0175 15.7573 26.9775 16.888C27.9375 18.0187 28.4175 19.2453 28.4175 20.568C28.4175 21.3787 28.2362 22.3813 27.8735 23.576C27.5322 24.6853 26.7855 25.5173 25.6335 26.072C24.4815 26.6267 23.1055 26.904 21.5055 26.904C19.7348 26.904 18.0175 26.616 16.3535 26.04C14.4122 26.68 11.7348 27 8.3215 27H7.8095V22.232ZM13.1535 18.648C13.1535 19.672 14.0922 20.6107 15.9695 21.464C17.7402 20.888 18.6255 20.0027 18.6255 18.808C18.6255 18.2747 18.4762 17.7733 18.1775 17.304C17.8788 16.8133 17.4842 16.4507 16.9935 16.216L16.2255 15.96C16.1615 15.9387 16.0655 15.928 15.9375 15.928C15.2548 15.928 14.6148 16.2053 14.0175 16.76C13.4415 17.3147 13.1535 17.944 13.1535 18.648ZM20.5775 22.68C21.0895 22.744 21.5695 22.776 22.0175 22.776C22.7855 22.776 23.4148 22.6907 23.9055 22.52C24.4175 22.328 24.7375 22.0507 24.8655 21.688C24.9295 21.5173 24.9615 21.368 24.9615 21.24C24.9615 20.2587 23.8415 19.2133 21.6015 18.104C21.6228 18.552 21.6015 19.064 21.5375 19.64C21.3455 20.8347 21.0255 21.848 20.5775 22.68ZM49.728 27.384C45.952 27.384 42.9867 26.7973 40.832 25.624C38.6773 24.4507 37.504 22.8187 37.312 20.728C37.2907 20.5573 37.28 20.3013 37.28 19.96C37.28 19.0427 37.408 18.0507 37.664 16.984C37.92 15.9173 38.2293 14.968 38.592 14.136L41.664 15.608C41.0453 17.5493 40.768 18.9467 40.832 19.8C40.9813 20.6107 41.8347 21.2827 43.392 21.816C44.9493 22.328 47.0827 22.5947 49.792 22.616C52.544 22.5947 54.6773 22.4133 56.192 22.072C57.728 21.7093 58.8907 21.1333 59.68 20.344C60.4907 19.5547 61.1733 18.4133 61.728 16.92L65.056 17.304C64.6507 18.4987 64.448 19.4693 64.448 20.216C64.448 21.56 65.152 22.232 66.56 22.232L66.816 24.6L66.56 27C65.3653 27 64.3093 26.648 63.392 25.944C62.496 25.24 61.952 24.3333 61.76 23.224C60.4373 24.7813 58.816 25.8693 56.896 26.488C54.9973 27.0853 52.608 27.384 49.728 27.384ZM50.368 29.752C51.0293 30.392 51.68 31.0427 52.32 31.704L53.312 32.696L50.368 35.64L47.392 32.696L50.368 29.752ZM66.2462 22.232H67.2383C68.3476 22.232 69.1476 22.008 69.6383 21.56C70.1503 21.112 70.4062 20.4187 70.4062 19.48C70.3849 18.008 70.2569 15.416 70.0223 11.704C69.8089 7.97067 69.6169 5.464 69.4463 4.184L73.4463 3.32C73.5956 4.57867 73.7556 7.17067 73.9263 11.096C74.1183 15 74.2143 17.7093 74.2143 19.224C74.2143 20.6747 73.9156 21.9973 73.3183 23.192C72.7423 24.3653 71.9316 25.2933 70.8863 25.976C69.8409 26.6587 68.6569 27 67.3343 27H66.2462V22.232ZM84.678 27C82.3313 27 80.6353 26.328 79.59 24.984C78.566 23.64 78.054 21.592 78.054 18.84C78.0327 16.216 77.9473 13.56 77.798 10.872C77.67 8.16267 77.478 5.93333 77.222 4.184L81.19 3.32C81.4033 4.87733 81.574 6.98933 81.702 9.656C81.83 12.3013 81.894 14.7547 81.894 17.016V18.232C81.8727 19.32 81.926 20.1413 82.054 20.696C82.182 21.2507 82.438 21.6453 82.822 21.88C83.2273 22.1147 83.846 22.232 84.678 22.232H84.838L85.094 24.632L84.838 27H84.678ZM84.5275 22.232H85.0075C87.5462 22.232 89.5622 22.1147 91.0555 21.88C92.5702 21.624 93.6902 21.176 94.4155 20.536C93.8182 20.5787 93.3808 20.6 93.1035 20.6C91.5675 20.6 90.2022 20.3333 89.0075 19.8C87.8342 19.2667 86.9915 18.488 86.4795 17.464C86.0955 16.632 85.9035 15.7147 85.9035 14.712C85.9035 13.496 86.1595 12.312 86.6715 11.16C87.1835 10.008 87.8982 9.06933 88.8155 8.344C89.7328 7.59733 90.7462 7.224 91.8555 7.224C93.1142 7.224 94.2448 7.72533 95.2475 8.728C96.2502 9.70933 97.0288 11.0107 97.5835 12.632C98.1595 14.2533 98.4475 15.9707 98.4475 17.784C98.4475 20.728 97.3382 23 95.1195 24.6C92.9222 26.2 89.5302 27 84.9435 27H84.5275V22.232ZM89.3275 14.84C89.6475 15.2453 90.2235 15.576 91.0555 15.832C91.8875 16.0667 92.8262 16.184 93.8715 16.184C94.1488 16.184 94.5648 16.1627 95.1195 16.12C94.8422 14.7547 94.3728 13.6133 93.7115 12.696C93.0502 11.7573 92.3142 11.288 91.5035 11.288C90.8422 11.288 90.2768 11.5867 89.8075 12.184C89.3382 12.76 89.1035 13.368 89.1035 14.008C89.1035 14.3493 89.1782 14.6267 89.3275 14.84ZM89.0395 0.151999L91.7275 2.84L89.0395 5.56L88.1435 4.664L86.3195 2.84L89.0395 0.151999ZM94.6715 0.151999L97.3595 2.84L94.6715 5.56L93.7755 4.664L91.9515 2.84L94.6715 0.151999ZM117.641 34.648C115.615 34.648 113.823 34.2533 112.265 33.464C110.708 32.6747 109.503 31.5013 108.649 29.944C107.817 28.408 107.476 26.5627 107.625 24.408C107.753 22.36 108.479 19.8747 109.801 16.952L112.905 18.36C112.329 19.6613 111.892 20.792 111.593 21.752C111.316 22.6907 111.177 23.6507 111.177 24.632C111.177 26.4027 111.721 27.7253 112.809 28.6C113.919 29.4747 115.529 29.912 117.641 29.912C119.369 29.912 120.916 29.6027 122.281 28.984C123.647 28.3867 124.628 27.6293 125.225 26.712C125.247 26.648 124.575 26.4453 123.209 26.104L121.513 25.624C119.828 25.1333 118.633 24.5467 117.929 23.864C117.225 23.1813 116.873 22.2213 116.873 20.984C116.873 19.256 117.311 17.6027 118.185 16.024C119.06 14.4453 120.212 13.1653 121.641 12.184C123.071 11.2027 124.585 10.712 126.185 10.712C126.825 10.712 127.476 10.808 128.137 11C128.799 11.1707 129.257 11.384 129.513 11.64L128.169 15.768C127.956 15.6827 127.647 15.608 127.241 15.544C126.836 15.48 126.473 15.448 126.153 15.448C125.279 15.448 124.436 15.64 123.625 16.024C122.836 16.3867 122.164 16.8773 121.609 17.496C121.055 18.0933 120.681 18.744 120.489 19.448C120.468 19.5333 120.457 19.64 120.457 19.768C120.457 20.1307 120.703 20.4507 121.193 20.728C121.705 20.984 122.655 21.272 124.041 21.592C125.983 22.04 127.295 22.6053 127.977 23.288C128.681 23.9493 129.033 24.728 129.033 25.624C129.033 27.1813 128.532 28.6533 127.529 30.04C126.527 31.4267 125.151 32.536 123.401 33.368C121.673 34.2213 119.753 34.648 117.641 34.648ZM149.306 27C148.368 27 147.525 26.8293 146.778 26.488C146.053 26.1253 145.392 25.592 144.794 24.888C143.237 26.4027 141.306 27.16 139.002 27.16C136.4 27.16 133.957 26.3067 131.674 24.6L133.402 21.24C134.085 21.6027 134.832 21.9333 135.642 22.232C136.453 22.5093 137.413 22.648 138.522 22.648C140.208 22.648 141.669 22.2533 142.906 21.464L138.522 11.448L141.818 9.656L146.202 20.024C146.544 20.8773 146.938 21.464 147.386 21.784C147.834 22.0827 148.474 22.232 149.306 22.232H149.69L149.946 24.632L149.69 27H149.306ZM149.371 22.232H149.563C151.185 22.232 152.358 22.0613 153.083 21.72C153.83 21.3787 154.257 20.824 154.363 20.056C154.406 19.7147 154.427 19.448 154.427 19.256C154.427 18.744 154.374 18.1573 154.267 17.496C154.161 16.8133 154.097 16.3867 154.075 16.216L157.403 15.576C157.681 17.1547 157.819 18.9147 157.819 20.856C157.905 21.2187 158.139 21.5387 158.523 21.816C158.929 22.0933 159.494 22.232 160.219 22.232H160.411L160.667 24.632L160.411 27H160.219C159.366 27 158.566 26.7973 157.819 26.392C157.094 25.9867 156.475 25.4533 155.963 24.792C155.345 25.56 154.502 26.1253 153.435 26.488C152.39 26.8293 151.099 27 149.563 27H149.371V22.232ZM153.595 7.416C154.257 8.056 154.907 8.70667 155.547 9.368L156.539 10.36L153.595 13.304L150.619 10.36L153.595 7.416ZM160.09 22.232H161.786C163.322 22.232 164.421 22.0613 165.082 21.72C165.765 21.3787 166.106 20.8667 166.106 20.184C166.106 19.736 165.882 18.8613 165.434 17.56C164.986 16.2373 164.634 15.2667 164.378 14.648L167.738 12.792C168.143 13.688 168.559 14.8933 168.986 16.408C169.434 17.9013 169.658 19.2133 169.658 20.344C169.658 22.52 168.975 24.1733 167.61 25.304C166.266 26.4347 164.325 27 161.786 27H160.09V22.232ZM162.586 29.528C163.247 30.168 163.898 30.8187 164.538 31.48L165.53 32.472L162.586 35.416L159.61 32.472L162.586 29.528ZM193.755 27C192.71 27 191.803 26.8293 191.035 26.488C190.289 26.1467 189.659 25.6133 189.147 24.888C187.867 25.272 186.63 25.464 185.435 25.464C183.515 25.464 181.937 25.0053 180.699 24.088C179.483 23.1493 178.875 21.88 178.875 20.28C178.875 18.424 179.558 16.856 180.923 15.576C182.289 14.296 184.123 13.1867 186.427 12.248L186.203 10.328L189.915 9.528C190.406 14.0933 190.747 17.1013 190.939 18.552C191.067 19.6187 191.217 20.408 191.387 20.92C191.579 21.432 191.846 21.784 192.187 21.976C192.55 22.1467 193.073 22.232 193.755 22.232H194.299L194.555 24.632L194.299 27H193.755ZM182.395 19.384C182.331 19.832 182.555 20.216 183.067 20.536C183.601 20.856 184.305 21.016 185.179 21.016C185.883 21.016 186.683 20.888 187.579 20.632C187.515 20.312 187.441 19.832 187.355 19.192L186.971 16.408C185.755 16.792 184.699 17.272 183.803 17.848C182.907 18.4027 182.438 18.9147 182.395 19.384ZM193.934 22.232H194.158C196.078 22.232 197.507 22.136 198.446 21.944C199.384 21.7307 200.003 21.4213 200.302 21.016C200.6 20.6107 200.75 20.024 200.75 19.256C200.75 18.6373 200.643 17.624 200.43 16.216L203.726 15.576C204.024 17.1333 204.174 18.8933 204.174 20.856C204.259 21.2187 204.494 21.5387 204.878 21.816C205.262 22.0933 205.816 22.232 206.542 22.232H206.734L206.99 24.632L206.734 27H206.542C205.688 27 204.899 26.7973 204.174 26.392C203.448 25.9867 202.83 25.4533 202.318 24.792C201.699 25.5813 200.76 26.1467 199.502 26.488C198.243 26.8293 196.462 27 194.158 27H193.934V22.232ZM196.462 7.928L199.15 10.616L196.462 13.336L195.566 12.44L193.742 10.616L196.462 7.928ZM202.094 7.928L204.782 10.616L202.094 13.336L201.198 12.44L199.374 10.616L202.094 7.928ZM224.227 27C223.245 26.9787 222.392 26.7333 221.667 26.264C220.963 25.7947 220.419 25.1227 220.035 24.248C218.883 26.0613 217.464 26.9787 215.779 27H215.619C214.701 27 213.901 26.7547 213.219 26.264C212.536 25.7733 212.056 25.1227 211.779 24.312C211.096 25.1867 210.307 25.8587 209.411 26.328C208.536 26.776 207.597 27 206.595 27H206.498L206.242 24.632L206.498 22.232H206.659C207.32 22.232 207.971 22.0933 208.611 21.816C209.251 21.5173 209.731 21.1547 210.051 20.728C210.499 20.216 210.84 19.64 211.075 19C211.309 18.36 211.523 17.6773 211.715 16.952L215.043 17.304C215.021 17.4107 214.904 17.8373 214.691 18.584C214.477 19.3093 214.371 19.9707 214.371 20.568C214.371 21.6773 214.819 22.232 215.715 22.232H215.811C216.899 22.232 217.741 21.6453 218.339 20.472C218.744 19.6613 219.107 18.4133 219.427 16.728L222.722 16.888C222.488 18.296 222.371 19.2987 222.371 19.896C222.371 21.4533 223.021 22.232 224.323 22.232C224.941 22.232 225.432 22.0507 225.795 21.688C226.157 21.3253 226.339 20.856 226.339 20.28C226.339 19.704 226.115 18.7867 225.667 17.528C225.24 16.2693 224.877 15.3093 224.579 14.648L227.843 12.856C228.248 13.688 228.675 14.8827 229.123 16.44C229.571 17.976 229.795 19.32 229.795 20.472C229.795 21.6453 229.56 22.7333 229.091 23.736C228.643 24.7173 228.003 25.5067 227.171 26.104C226.36 26.7013 225.432 27 224.387 27H224.323H224.227ZM239.257 27.16C237.401 27.16 235.854 26.8827 234.617 26.328C233.379 25.752 232.419 25.176 231.737 24.6L233.465 21.24C234.233 21.624 235.022 21.9547 235.833 22.232C236.643 22.5093 237.635 22.648 238.809 22.648C239.961 22.6267 240.899 22.4987 241.625 22.264C242.371 22.008 242.862 21.7307 243.097 21.432C243.118 21.3893 243.129 21.304 243.129 21.176C243.129 20.728 242.926 20.1413 242.521 19.416C242.137 18.6693 241.443 17.7947 240.441 16.792C239.459 15.768 238.137 14.6907 236.473 13.56L238.777 9.368C241.251 11.1173 243.203 13.0267 244.633 15.096C246.083 17.1653 246.809 19.1387 246.809 21.016C246.809 21.912 246.638 22.7333 246.297 23.48C245.785 24.6747 244.878 25.592 243.577 26.232C242.275 26.8507 240.835 27.16 239.257 27.16Z" fill="#1C49A0"/>
</svg>
