<svg width="509" height="74" viewBox="0 0 509 74" fill="none" xmlns="http://www.w3.org/2000/svg">
<path d="M15.414 56C10.574 56 7.076 54.614 4.92 51.842C2.808 49.07 1.752 44.846 1.752 39.17C1.708 33.758 1.532 28.28 1.224 22.736C0.96 17.148 0.564 12.55 0.0360003 8.942L8.22 7.16C8.66 10.372 9.012 14.728 9.276 20.228C9.54 25.684 9.672 30.744 9.672 35.408V37.916C9.628 40.16 9.738 41.854 10.002 42.998C10.266 44.142 10.794 44.956 11.586 45.44C12.422 45.924 13.698 46.166 15.414 46.166H15.744L16.272 51.116L15.744 56H15.414ZM15.1696 46.166H16.2256C18.4256 46.166 20.0316 46.144 21.0436 46.1C19.7236 44.164 19.0636 42.162 19.0636 40.094C19.0636 39.61 19.1516 38.884 19.3276 37.916C19.8996 35.1 20.9556 32.504 22.4956 30.128C21.9236 29.996 21.2416 29.82 20.4496 29.6L24.0796 20.492C32.7476 23.132 39.5236 25.662 44.4076 28.082C49.2916 30.458 52.7236 32.812 54.7036 35.144C56.6836 37.476 57.6736 40.006 57.6736 42.734C57.6736 44.406 57.2996 46.474 56.5516 48.938C55.8476 51.226 54.3076 52.942 51.9316 54.086C49.5556 55.23 46.7176 55.802 43.4176 55.802C39.7656 55.802 36.2236 55.208 32.7916 54.02C28.7876 55.34 23.2656 56 16.2256 56H15.1696V46.166ZM26.1916 38.774C26.1916 40.886 28.1276 42.822 31.9996 44.582C35.6516 43.394 37.4776 41.568 37.4776 39.104C37.4776 38.004 37.1696 36.97 36.5536 36.002C35.9376 34.99 35.1236 34.242 34.1116 33.758L32.5276 33.23C32.3956 33.186 32.1976 33.164 31.9336 33.164C30.5256 33.164 29.2056 33.736 27.9736 34.88C26.7856 36.024 26.1916 37.322 26.1916 38.774ZM41.5036 47.09C42.5596 47.222 43.5496 47.288 44.4736 47.288C46.0576 47.288 47.3556 47.112 48.3676 46.76C49.4236 46.364 50.0836 45.792 50.3476 45.044C50.4796 44.692 50.5456 44.384 50.5456 44.12C50.5456 42.096 48.2356 39.94 43.6156 37.652C43.6596 38.576 43.6156 39.632 43.4836 40.82C43.0876 43.284 42.4276 45.374 41.5036 47.09ZM101.627 56.792C93.8385 56.792 87.7225 55.582 83.2785 53.162C78.8345 50.742 76.4145 47.376 76.0185 43.064C75.9745 42.712 75.9525 42.184 75.9525 41.48C75.9525 39.588 76.2165 37.542 76.7445 35.342C77.2725 33.142 77.9105 31.184 78.6585 29.468L84.9945 32.504C83.7185 36.508 83.1465 39.39 83.2785 41.15C83.5865 42.822 85.3465 44.208 88.5585 45.308C91.7705 46.364 96.1705 46.914 101.759 46.958C107.435 46.914 111.835 46.54 114.959 45.836C118.127 45.088 120.525 43.9 122.153 42.272C123.825 40.644 125.233 38.29 126.377 35.21L133.241 36.002C132.405 38.466 131.987 40.468 131.987 42.008C131.987 44.78 133.439 46.166 136.343 46.166L136.871 51.05L136.343 56C133.879 56 131.701 55.274 129.809 53.822C127.961 52.37 126.839 50.5 126.443 48.212C123.715 51.424 120.371 53.668 116.411 54.944C112.495 56.176 107.567 56.792 101.627 56.792ZM102.947 61.676C104.311 62.996 105.653 64.338 106.973 65.702L109.019 67.748L102.947 73.82L96.8085 67.748L102.947 61.676ZM135.695 46.166H137.741C140.029 46.166 141.679 45.704 142.691 44.78C143.747 43.856 144.275 42.426 144.275 40.49C144.231 37.454 143.967 32.108 143.483 24.452C143.043 16.752 142.647 11.582 142.295 8.942L150.545 7.16C150.853 9.756 151.183 15.102 151.535 23.198C151.931 31.25 152.129 36.838 152.129 39.962C152.129 42.954 151.513 45.682 150.281 48.146C149.093 50.566 147.421 52.48 145.265 53.888C143.109 55.296 140.667 56 137.939 56H135.695V46.166ZM173.711 56C168.871 56 165.373 54.614 163.217 51.842C161.105 49.07 160.049 44.846 160.049 39.17C160.005 33.758 159.829 28.28 159.521 22.736C159.257 17.148 158.861 12.55 158.333 8.942L166.517 7.16C166.957 10.372 167.309 14.728 167.573 20.228C167.837 25.684 167.969 30.744 167.969 35.408V37.916C167.925 40.16 168.035 41.854 168.299 42.998C168.563 44.142 169.091 44.956 169.883 45.44C170.719 45.924 171.995 46.166 173.711 46.166H174.041L174.569 51.116L174.041 56H173.711ZM173.4 46.166H174.39C179.626 46.166 183.784 45.924 186.864 45.44C189.988 44.912 192.298 43.988 193.794 42.668C192.562 42.756 191.66 42.8 191.088 42.8C187.92 42.8 185.104 42.25 182.64 41.15C180.22 40.05 178.482 38.444 177.426 36.332C176.634 34.616 176.238 32.724 176.238 30.656C176.238 28.148 176.766 25.706 177.822 23.33C178.878 20.954 180.352 19.018 182.244 17.522C184.136 15.982 186.226 15.212 188.514 15.212C191.11 15.212 193.442 16.246 195.51 18.314C197.578 20.338 199.184 23.022 200.328 26.366C201.516 29.71 202.11 33.252 202.11 36.992C202.11 43.064 199.822 47.75 195.246 51.05C190.714 54.35 183.718 56 174.258 56H173.4V46.166ZM183.3 30.92C183.96 31.756 185.148 32.438 186.864 32.966C188.58 33.45 190.516 33.692 192.672 33.692C193.244 33.692 194.102 33.648 195.246 33.56C194.674 30.744 193.706 28.39 192.342 26.498C190.978 24.562 189.46 23.594 187.788 23.594C186.424 23.594 185.258 24.21 184.29 25.442C183.322 26.63 182.838 27.884 182.838 29.204C182.838 29.908 182.992 30.48 183.3 30.92ZM182.706 0.625997L188.25 6.17L182.706 11.78L180.858 9.932L177.096 6.17L182.706 0.625997ZM194.322 0.625997L199.866 6.17L194.322 11.78L192.474 9.932L188.712 6.17L194.322 0.625997ZM241.698 71.774C237.518 71.774 233.822 70.96 230.61 69.332C227.398 67.704 224.912 65.284 223.152 62.072C221.436 58.904 220.732 55.098 221.04 50.654C221.304 46.43 222.8 41.304 225.528 35.276L231.93 38.18C230.742 40.864 229.84 43.196 229.224 45.176C228.652 47.112 228.366 49.092 228.366 51.116C228.366 54.768 229.488 57.496 231.732 59.3C234.02 61.104 237.342 62.006 241.698 62.006C245.262 62.006 248.452 61.368 251.268 60.092C254.084 58.86 256.108 57.298 257.34 55.406C257.384 55.274 255.998 54.856 253.182 54.152L249.684 53.162C246.208 52.15 243.744 50.94 242.292 49.532C240.84 48.124 240.114 46.144 240.114 43.592C240.114 40.028 241.016 36.618 242.82 33.362C244.624 30.106 247 27.466 249.948 25.442C252.896 23.418 256.02 22.406 259.32 22.406C260.64 22.406 261.982 22.604 263.346 23C264.71 23.352 265.656 23.792 266.184 24.32L263.412 32.834C262.972 32.658 262.334 32.504 261.498 32.372C260.662 32.24 259.914 32.174 259.254 32.174C257.45 32.174 255.712 32.57 254.04 33.362C252.412 34.11 251.026 35.122 249.882 36.398C248.738 37.63 247.968 38.972 247.572 40.424C247.528 40.6 247.506 40.82 247.506 41.084C247.506 41.832 248.012 42.492 249.024 43.064C250.08 43.592 252.038 44.186 254.898 44.846C258.902 45.77 261.608 46.936 263.016 48.344C264.468 49.708 265.194 51.314 265.194 53.162C265.194 56.374 264.16 59.41 262.092 62.27C260.024 65.13 257.186 67.418 253.578 69.134C250.014 70.894 246.054 71.774 241.698 71.774ZM307.007 56C305.071 56 303.333 55.648 301.793 54.944C300.297 54.196 298.933 53.096 297.701 51.644C294.489 54.768 290.507 56.33 285.755 56.33C280.387 56.33 275.349 54.57 270.641 51.05L274.205 44.12C275.613 44.868 277.153 45.55 278.825 46.166C280.497 46.738 282.477 47.024 284.765 47.024C288.241 47.024 291.255 46.21 293.807 44.582L284.765 23.924L291.563 20.228L300.605 41.612C301.309 43.372 302.123 44.582 303.047 45.242C303.971 45.858 305.291 46.166 307.007 46.166H307.799L308.327 51.116L307.799 56H307.007ZM307.141 46.166H307.537C310.881 46.166 313.301 45.814 314.797 45.11C316.337 44.406 317.217 43.262 317.437 41.678C317.525 40.974 317.569 40.424 317.569 40.028C317.569 38.972 317.459 37.762 317.239 36.398C317.019 34.99 316.887 34.11 316.843 33.758L323.707 32.438C324.279 35.694 324.565 39.324 324.565 43.328C324.741 44.076 325.225 44.736 326.017 45.308C326.853 45.88 328.019 46.166 329.515 46.166H329.911L330.439 51.116L329.911 56H329.515C327.755 56 326.105 55.582 324.565 54.746C323.069 53.91 321.793 52.81 320.737 51.446C319.461 53.03 317.723 54.196 315.523 54.944C313.367 55.648 310.705 56 307.537 56H307.141V46.166ZM315.853 15.608C317.217 16.928 318.559 18.27 319.879 19.634L321.925 21.68L315.853 27.752L309.715 21.68L315.853 15.608ZM329.248 46.166H332.746C335.914 46.166 338.18 45.814 339.544 45.11C340.952 44.406 341.656 43.35 341.656 41.942C341.656 41.018 341.194 39.214 340.27 36.53C339.346 33.802 338.62 31.8 338.092 30.524L345.022 26.696C345.858 28.544 346.716 31.03 347.596 34.154C348.52 37.234 348.982 39.94 348.982 42.272C348.982 46.76 347.574 50.17 344.758 52.502C341.986 54.834 337.982 56 332.746 56H329.248V46.166ZM334.396 61.214C335.76 62.534 337.102 63.876 338.422 65.24L340.468 67.286L334.396 73.358L328.258 67.286L334.396 61.214ZM398.683 56C396.527 56 394.657 55.648 393.073 54.944C391.533 54.24 390.235 53.14 389.179 51.644C386.539 52.436 383.987 52.832 381.523 52.832C377.563 52.832 374.307 51.886 371.755 49.994C369.247 48.058 367.993 45.44 367.993 42.14C367.993 38.312 369.401 35.078 372.217 32.438C375.033 29.798 378.817 27.51 383.569 25.574L383.107 21.614L390.763 19.964C391.775 29.38 392.479 35.584 392.875 38.576C393.139 40.776 393.447 42.404 393.799 43.46C394.195 44.516 394.745 45.242 395.449 45.638C396.197 45.99 397.275 46.166 398.683 46.166H399.805L400.333 51.116L399.805 56H398.683ZM375.253 40.292C375.121 41.216 375.583 42.008 376.639 42.668C377.739 43.328 379.191 43.658 380.995 43.658C382.447 43.658 384.097 43.394 385.945 42.866C385.813 42.206 385.659 41.216 385.483 39.896L384.691 34.154C382.183 34.946 380.005 35.936 378.157 37.124C376.309 38.268 375.341 39.324 375.253 40.292ZM399.051 46.166H399.513C403.473 46.166 406.421 45.968 408.357 45.572C410.293 45.132 411.569 44.494 412.185 43.658C412.801 42.822 413.109 41.612 413.109 40.028C413.109 38.752 412.889 36.662 412.449 33.758L419.247 32.438C419.863 35.65 420.171 39.28 420.171 43.328C420.347 44.076 420.831 44.736 421.623 45.308C422.415 45.88 423.559 46.166 425.055 46.166H425.451L425.979 51.116L425.451 56H425.055C423.295 56 421.667 55.582 420.171 54.746C418.675 53.91 417.399 52.81 416.343 51.446C415.067 53.074 413.131 54.24 410.535 54.944C407.939 55.648 404.265 56 399.513 56H399.051V46.166ZM404.265 16.664L409.809 22.208L404.265 27.818L402.417 25.97L398.655 22.208L404.265 16.664ZM415.881 16.664L421.425 22.208L415.881 27.818L414.033 25.97L410.271 22.208L415.881 16.664ZM461.53 56C459.506 55.956 457.746 55.45 456.25 54.482C454.798 53.514 453.676 52.128 452.884 50.324C450.508 54.064 447.582 55.956 444.106 56H443.776C441.884 56 440.234 55.494 438.826 54.482C437.418 53.47 436.428 52.128 435.856 50.456C434.448 52.26 432.82 53.646 430.972 54.614C429.168 55.538 427.232 56 425.164 56H424.966L424.438 51.116L424.966 46.166H425.296C426.66 46.166 428.002 45.88 429.322 45.308C430.642 44.692 431.632 43.944 432.292 43.064C433.216 42.008 433.92 40.82 434.404 39.5C434.888 38.18 435.328 36.772 435.724 35.276L442.588 36.002C442.544 36.222 442.302 37.102 441.862 38.642C441.422 40.138 441.202 41.502 441.202 42.734C441.202 45.022 442.126 46.166 443.974 46.166H444.172C446.416 46.166 448.154 44.956 449.386 42.536C450.222 40.864 450.97 38.29 451.63 34.814L458.428 35.144C457.944 38.048 457.702 40.116 457.702 41.348C457.702 44.56 459.044 46.166 461.728 46.166C463.004 46.166 464.016 45.792 464.764 45.044C465.512 44.296 465.886 43.328 465.886 42.14C465.886 40.952 465.424 39.06 464.5 36.464C463.62 33.868 462.872 31.888 462.256 30.524L468.988 26.828C469.824 28.544 470.704 31.008 471.628 34.22C472.552 37.388 473.014 40.16 473.014 42.536C473.014 44.956 472.53 47.2 471.562 49.268C470.638 51.292 469.318 52.92 467.602 54.152C465.93 55.384 464.016 56 461.86 56H461.728H461.53ZM492.53 56.33C488.702 56.33 485.512 55.758 482.96 54.614C480.408 53.426 478.428 52.238 477.02 51.05L480.584 44.12C482.168 44.912 483.796 45.594 485.468 46.166C487.14 46.738 489.186 47.024 491.606 47.024C493.982 46.98 495.918 46.716 497.414 46.232C498.954 45.704 499.966 45.132 500.45 44.516C500.494 44.428 500.516 44.252 500.516 43.988C500.516 43.064 500.098 41.854 499.262 40.358C498.47 38.818 497.04 37.014 494.972 34.946C492.948 32.834 490.22 30.612 486.788 28.28L491.54 19.634C496.644 23.242 500.67 27.18 503.618 31.448C506.61 35.716 508.106 39.786 508.106 43.658C508.106 45.506 507.754 47.2 507.05 48.74C505.994 51.204 504.124 53.096 501.44 54.416C498.756 55.692 495.786 56.33 492.53 56.33Z" fill="#3860AC" fill-opacity="0.9"/>
</svg>
