<svg width="53" height="53" viewBox="0 0 53 53" fill="none" xmlns="http://www.w3.org/2000/svg">
<path opacity="0.2" d="M37.9986 2.45703H15.0013C11.6744 2.45703 8.48378 3.77863 6.13133 6.13108C3.77887 8.48354 2.45728 11.6742 2.45728 15.001V37.9984C2.45728 41.3252 3.77887 44.5159 6.13133 46.8683C8.48378 49.2208 11.6744 50.5424 15.0013 50.5424H37.9986C41.3255 50.5424 44.5161 49.2208 46.8685 46.8683C49.221 44.5159 50.5426 41.3252 50.5426 37.9984V15.001C50.5426 11.6742 49.221 8.48354 46.8685 6.13108C44.5161 3.77863 41.3255 2.45703 37.9986 2.45703ZM26.4999 36.953C24.4325 36.953 22.4114 36.34 20.6924 35.1913C18.9733 34.0427 17.6335 32.4101 16.8423 30.5C16.0511 28.5899 15.8441 26.4881 16.2475 24.4604C16.6508 22.4326 17.6464 20.57 19.1083 19.1081C20.5702 17.6461 22.4328 16.6506 24.4606 16.2472C26.4883 15.8439 28.5902 16.0509 30.5003 16.8421C32.4104 17.6333 34.0429 18.9731 35.1916 20.6921C36.3402 22.4112 36.9533 24.4322 36.9533 26.4997C36.9533 29.2721 35.8519 31.9309 33.8916 33.8913C31.9312 35.8517 29.2723 36.953 26.4999 36.953Z" fill="#1A4066"/>
<path d="M26.5001 13.9561C24.0191 13.9561 21.5938 14.6917 19.531 16.0701C17.4681 17.4485 15.8603 19.4076 14.9109 21.6997C13.9615 23.9918 13.7131 26.514 14.1971 28.9473C14.6811 31.3806 15.8758 33.6157 17.6301 35.37C19.3844 37.1243 21.6195 38.319 24.0528 38.803C26.4861 39.287 29.0083 39.0386 31.3004 38.0892C33.5926 37.1398 35.5517 35.532 36.93 33.4691C38.3084 31.4063 39.0441 28.981 39.0441 26.5001C39.0403 23.1743 37.7175 19.9859 35.3659 17.6342C33.0142 15.2826 29.8258 13.9598 26.5001 13.9561ZM26.5001 34.8627C24.8461 34.8627 23.2292 34.3723 21.854 33.4534C20.4788 32.5345 19.4069 31.2284 18.774 29.7003C18.141 28.1722 17.9754 26.4908 18.2981 24.8686C18.6208 23.2464 19.4172 21.7563 20.5868 20.5868C21.7563 19.4172 23.2464 18.6207 24.8686 18.2981C26.4908 17.9754 28.1722 18.141 29.7003 18.774C31.2284 19.4069 32.5345 20.4788 33.4534 21.854C34.3723 23.2292 34.8627 24.8461 34.8627 26.5001C34.8602 28.7172 33.9783 30.8428 32.4105 32.4105C30.8428 33.9783 28.7172 34.8602 26.5001 34.8627Z" fill="#1A4066"/>
<path d="M37.9987 0.366211H15.0014C11.1214 0.370638 7.40156 1.91392 4.65798 4.6575C1.91441 7.40107 0.371126 11.1209 0.366699 15.0009V37.9982C0.371126 41.8782 1.91441 45.598 4.65798 48.3416C7.40156 51.0852 11.1214 52.6284 15.0014 52.6329H37.9987C41.8787 52.6284 45.5985 51.0852 48.3421 48.3416C51.0857 45.598 52.6289 41.8782 52.6334 37.9982V15.0009C52.6289 11.1209 51.0857 7.40107 48.3421 4.6575C45.5985 1.91392 41.8787 0.370638 37.9987 0.366211ZM48.452 37.9982C48.4489 40.7696 47.3466 43.4267 45.3869 45.3864C43.4272 47.3461 40.7701 48.4484 37.9987 48.4515H15.0014C12.2299 48.4484 9.57289 47.3461 7.61318 45.3864C5.65347 43.4267 4.55115 40.7696 4.54803 37.9982V15.0009C4.55115 12.2294 5.65347 9.5724 7.61318 7.61269C9.57289 5.65299 12.2299 4.55066 15.0014 4.54754H37.9987C40.7701 4.55066 43.4272 5.65299 45.3869 7.61269C47.3466 9.5724 48.4489 12.2294 48.452 15.0009V37.9982Z" fill="#1A4066"/>
<path d="M40.0894 16.0454C41.8213 16.0454 43.2254 14.6414 43.2254 12.9094C43.2254 11.1775 41.8213 9.77344 40.0894 9.77344C38.3574 9.77344 36.9534 11.1775 36.9534 12.9094C36.9534 14.6414 38.3574 16.0454 40.0894 16.0454Z" fill="#1A4066"/>
</svg>
