<svg width="53" height="53" viewBox="0 0 53 53" fill="none" xmlns="http://www.w3.org/2000/svg">
<path opacity="0.2" d="M48.2778 2.54443H4.72221C3.51946 2.54443 2.54443 3.51946 2.54443 4.72221V48.2778C2.54443 49.4805 3.51946 50.4555 4.72221 50.4555H48.2778C49.4805 50.4555 50.4555 49.4805 50.4555 48.2778V4.72221C50.4555 3.51946 49.4805 2.54443 48.2778 2.54443Z" fill="#1A4066"/>
<path d="M48.2778 0.366699H4.72225C3.56749 0.367996 2.46039 0.827301 1.64384 1.64384C0.827301 2.46039 0.367996 3.56749 0.366699 4.72225V48.2778C0.367996 49.4326 0.827301 50.5397 1.64384 51.3562C2.46039 52.1728 3.56749 52.6321 4.72225 52.6334H48.2778C49.4326 52.6321 50.5397 52.1728 51.3562 51.3562C52.1728 50.5397 52.6321 49.4326 52.6334 48.2778V4.72225C52.6321 3.56749 52.1728 2.46039 51.3562 1.64384C50.5397 0.827301 49.4326 0.367996 48.2778 0.366699ZM48.2778 48.2778H4.72225V4.72225H48.2778L48.2805 48.2778H48.2778Z" fill="#1A4066"/>
<path d="M15.6111 19.9668C15.0335 19.9668 14.4796 20.1962 14.0712 20.6047C13.6628 21.0131 13.4333 21.567 13.4333 22.1446V39.5668C13.4333 40.1444 13.6628 40.6983 14.0712 41.1067C14.4796 41.5151 15.0335 41.7446 15.6111 41.7446C16.1887 41.7446 16.7426 41.5151 17.151 41.1067C17.5595 40.6983 17.7889 40.1444 17.7889 39.5668V22.1446C17.7889 21.567 17.5595 21.0131 17.151 20.6047C16.7426 20.1962 16.1887 19.9668 15.6111 19.9668Z" fill="#1A4066"/>
<path d="M15.6111 16.6998C17.4153 16.6998 18.8778 15.2373 18.8778 13.4332C18.8778 11.629 17.4153 10.1665 15.6111 10.1665C13.807 10.1665 12.3445 11.629 12.3445 13.4332C12.3445 15.2373 13.807 16.6998 15.6111 16.6998Z" fill="#1A4066"/>
<path d="M31.9445 19.9676C29.9824 19.9655 28.0654 20.5557 26.4443 21.6611C26.3256 21.139 26.0186 20.6789 25.582 20.3689C25.1455 20.0588 24.6099 19.9205 24.0778 19.9805C23.5457 20.0404 23.0544 20.2943 22.6977 20.6937C22.3411 21.0931 22.1441 21.61 22.1445 22.1454V39.5677C22.1445 40.1452 22.374 40.6992 22.7824 41.1076C23.1908 41.516 23.7447 41.7454 24.3223 41.7454C24.8999 41.7454 25.4538 41.516 25.8622 41.1076C26.2706 40.6992 26.5001 40.1452 26.5001 39.5677V29.7677C26.5001 28.3237 27.0737 26.9389 28.0947 25.9178C29.1158 24.8968 30.5006 24.3232 31.9445 24.3232C33.3885 24.3232 34.7733 24.8968 35.7943 25.9178C36.8154 26.9389 37.389 28.3237 37.389 29.7677V39.5677C37.389 40.1452 37.6184 40.6992 38.0268 41.1076C38.4352 41.516 38.9892 41.7454 39.5668 41.7454C40.1443 41.7454 40.6983 41.516 41.1067 41.1076C41.5151 40.6992 41.7445 40.1452 41.7445 39.5677V29.7677C41.7417 27.1694 40.7082 24.6784 38.871 22.8412C37.0338 21.004 34.5428 19.9705 31.9445 19.9676Z" fill="#1A4066"/>
</svg>
