<svg width="261" height="71" viewBox="0 0 261 71" fill="none" xmlns="http://www.w3.org/2000/svg">
<g opacity="0.5">
<path opacity="0.8" d="M75.7271 24.7541C75.7264 24.3984 75.796 24.0461 75.9319 23.7175C76.0678 23.3888 76.2673 23.0902 76.5189 22.8388C76.7705 22.5875 77.0694 22.3883 77.3982 22.2528C77.727 22.1173 78.0794 22.048 78.435 22.0491C78.79 22.0491 79.1415 22.1191 79.4695 22.2551C79.7974 22.3911 80.0952 22.5904 80.346 22.8417C80.5968 23.0929 80.7956 23.3912 80.931 23.7193C81.0663 24.0475 81.1357 24.3991 81.135 24.7541C81.1329 25.4695 80.8478 26.1551 80.3419 26.6609C79.836 27.1668 79.1505 27.452 78.435 27.4541C77.7186 27.4528 77.0318 27.1681 76.5245 26.6623C76.0171 26.1565 75.7305 25.4705 75.7271 24.7541ZM61.958 24.7541C61.9586 24.0377 62.243 23.3507 62.7491 22.8437C63.2552 22.3367 63.9417 22.0509 64.658 22.0491C65.0134 22.049 65.3653 22.1188 65.6937 22.2547C66.022 22.3906 66.3204 22.5898 66.5718 22.841C66.8231 23.0921 67.0226 23.3904 67.1587 23.7186C67.2948 24.0469 67.3649 24.3987 67.3651 24.7541C67.3629 25.4715 67.0771 26.1589 66.5699 26.6663C66.0627 27.1736 65.3754 27.4597 64.658 27.4621C63.9422 27.4568 63.2573 27.1696 62.7518 26.6626C62.2464 26.1557 61.9612 25.4699 61.958 24.7541ZM48.187 24.7541C48.1864 24.3991 48.2557 24.0475 48.3911 23.7193C48.5265 23.3912 48.7253 23.0929 48.9761 22.8417C49.2269 22.5904 49.5247 22.3911 49.8526 22.2551C50.1805 22.1191 50.5321 22.0491 50.887 22.0491C51.2428 22.049 51.595 22.1189 51.9237 22.2549C52.2523 22.391 52.551 22.5904 52.8025 22.8419C53.0541 23.0934 53.2537 23.3919 53.3898 23.7205C53.526 24.0492 53.596 24.4014 53.596 24.7571C53.5916 25.4728 53.3048 26.1579 52.7982 26.6634C52.2915 27.169 51.6058 27.4542 50.89 27.4571C50.1734 27.4563 49.4864 27.1713 48.9796 26.6645C48.4729 26.1578 48.1878 25.4707 48.187 24.7541ZM34.421 24.7541C34.42 24.3988 34.4891 24.0469 34.6243 23.7184C34.7595 23.3899 34.9582 23.0913 35.209 22.8397C35.4598 22.5882 35.7579 22.3886 36.086 22.2524C36.4141 22.1162 36.7658 22.0461 37.121 22.0461C37.476 22.0461 37.8275 22.1161 38.1554 22.2521C38.4834 22.3881 38.7812 22.5874 39.032 22.8387C39.2828 23.0899 39.4816 23.3881 39.617 23.7163C39.7523 24.0445 39.8217 24.3961 39.821 24.7511C39.8181 25.4673 39.5319 26.1533 39.0249 26.6592C38.5179 27.1651 37.8313 27.4498 37.115 27.4511C36.401 27.4495 35.7167 27.1652 35.2119 26.6603C34.707 26.1554 34.4226 25.4711 34.421 24.7571V24.7541ZM20.647 24.7541C20.6453 24.3996 20.7137 24.0482 20.8481 23.7201C20.9826 23.3921 21.1805 23.0938 21.4305 22.8425C21.6806 22.5912 21.9778 22.3917 22.3052 22.2555C22.6325 22.1194 22.9835 22.0492 23.338 22.0491C23.6942 22.0472 24.0472 22.116 24.3765 22.2514C24.7059 22.3869 25.0052 22.5863 25.257 22.8381C25.5089 23.0899 25.7083 23.3892 25.8437 23.7186C25.9791 24.048 26.0479 24.401 26.046 24.7571C26.046 25.1121 25.976 25.4636 25.84 25.7915C25.704 26.1194 25.5047 26.4173 25.2535 26.668C25.0022 26.9188 24.704 27.1176 24.3758 27.253C24.0477 27.3884 23.696 27.4577 23.341 27.4571C22.6255 27.4555 21.9398 27.1699 21.4347 26.6631C20.9295 26.1563 20.6463 25.4696 20.647 24.7541ZM6.86604 24.7541C6.86499 24.3988 6.93405 24.0469 7.06927 23.7184C7.20448 23.3899 7.4032 23.0913 7.65402 22.8397C7.90485 22.5882 8.20285 22.3886 8.53095 22.2524C8.85905 22.1162 9.2108 22.0461 9.56605 22.0461C9.92104 22.0461 10.2725 22.1161 10.6004 22.2521C10.9284 22.3881 11.2262 22.5874 11.477 22.8387C11.7278 23.0899 11.9266 23.3881 12.062 23.7163C12.1974 24.0445 12.2667 24.3961 12.266 24.7511C12.266 25.1063 12.196 25.4579 12.0599 25.786C11.9237 26.114 11.7242 26.4119 11.4728 26.6628C11.2213 26.9136 10.9228 27.1123 10.5944 27.2476C10.2661 27.3828 9.9142 27.452 9.55904 27.4511C8.84626 27.4459 8.16417 27.1603 7.66024 26.6562C7.15631 26.1521 6.87102 25.4699 6.86604 24.7571V24.7541ZM-6.90696 24.7541C-6.90669 24.0376 -6.6223 23.3505 -6.11615 22.8434C-5.61 22.3363 -4.92342 22.0507 -4.20695 22.0491C-3.85129 22.048 -3.49892 22.1173 -3.17009 22.2528C-2.84126 22.3883 -2.54245 22.5875 -2.29082 22.8388C-2.03919 23.0902 -1.8397 23.3888 -1.7038 23.7175C-1.56791 24.0461 -1.49829 24.3984 -1.49895 24.7541C-1.50055 25.4711 -1.78662 26.1581 -2.29435 26.6643C-2.80208 27.1706 -3.48997 27.4546 -4.20695 27.4541C-4.92175 27.4499 -5.60606 27.1641 -6.1115 26.6586C-6.61694 26.1532 -6.90276 25.4689 -6.90696 24.7541ZM-20.674 24.7541C-20.675 24.3992 -20.6059 24.0477 -20.4706 23.7196C-20.3353 23.3915 -20.1364 23.0935 -19.8855 22.8425C-19.6346 22.5916 -19.3365 22.3928 -19.0084 22.2575C-18.6804 22.1221 -18.3288 22.053 -17.974 22.0541C-17.6189 22.0541 -17.2673 22.1241 -16.9393 22.2602C-16.6113 22.3962 -16.3134 22.5957 -16.0626 22.847C-15.8118 23.0984 -15.6131 23.3967 -15.4778 23.725C-15.3424 24.0533 -15.2732 24.405 -15.274 24.7601C-15.2776 25.475 -15.5633 26.1597 -16.0688 26.6652C-16.5744 27.1708 -17.259 27.4564 -17.974 27.4601C-18.329 27.4601 -18.6806 27.3901 -19.0086 27.254C-19.3366 27.1179 -19.6345 26.9185 -19.8853 26.6672C-20.1361 26.4158 -20.3348 26.1175 -20.4702 25.7892C-20.6055 25.4609 -20.6747 25.1092 -20.674 24.7541ZM-34.444 24.7541C-34.445 24.3983 -34.3757 24.0457 -34.2401 23.7168C-34.1044 23.3878 -33.9051 23.0889 -33.6535 22.8372C-33.4019 22.5856 -33.1031 22.3861 -32.7742 22.2504C-32.4453 22.1146 -32.0928 22.0452 -31.737 22.0461C-31.382 22.0461 -31.0305 22.1161 -30.7026 22.2521C-30.3746 22.3881 -30.0768 22.5874 -29.826 22.8387C-29.5752 23.0899 -29.3764 23.3881 -29.241 23.7163C-29.1056 24.0445 -29.0363 24.3961 -29.037 24.7511C-29.0399 25.4671 -29.3259 26.153 -29.8327 26.6588C-30.3395 27.1647 -31.0259 27.4495 -31.742 27.4511C-32.4573 27.4516 -33.1437 27.1682 -33.6503 26.6631C-34.1569 26.158 -34.4424 25.4725 -34.444 24.7571V24.7541ZM-48.215 24.7541C-48.216 24.3988 -48.1469 24.0469 -48.0117 23.7184C-47.8765 23.3899 -47.6778 23.0913 -47.427 22.8397C-47.1762 22.5882 -46.8782 22.3886 -46.5501 22.2524C-46.2219 22.1162 -45.8702 22.0461 -45.515 22.0461C-44.7971 22.0469 -44.1089 22.3325 -43.6013 22.8402C-43.0938 23.3479 -42.8085 24.0362 -42.808 24.7541C-42.8119 25.4706 -43.0984 26.1567 -43.6053 26.6632C-44.1122 27.1696 -44.7984 27.4557 -45.515 27.4591C-46.2305 27.4562 -46.9159 27.1705 -47.4216 26.6644C-47.9274 26.1582 -48.2126 25.4726 -48.215 24.7571V24.7541Z" fill="#9F7BF9"/>
<path opacity="0.8" d="M92.2 27.4591C91.4849 27.4539 90.8005 27.168 90.2941 26.6629C89.7878 26.1579 89.5001 25.4742 89.493 24.7591C89.5007 24.0396 89.7875 23.3512 90.293 22.8391C90.8138 22.3561 91.4978 22.0877 92.208 22.0877C92.9183 22.0877 93.6023 22.3561 94.123 22.8391C94.502 23.2185 94.7598 23.7018 94.8639 24.2278C94.9681 24.7538 94.9138 25.2989 94.708 25.7941C94.5023 26.2892 94.1542 26.7122 93.708 27.0095C93.2617 27.3068 92.7373 27.465 92.201 27.4641L92.2 27.4591Z" fill="#9F7BF9"/>
<path opacity="0.8" d="M75.727 39.1731C75.7304 38.4561 76.0169 37.7695 76.524 37.2627C77.0312 36.7559 77.718 36.4699 78.435 36.4671C78.79 36.467 79.1416 36.5371 79.4696 36.6732C79.7976 36.8092 80.0955 37.0086 80.3463 37.26C80.5971 37.5113 80.7958 37.8097 80.9312 38.138C81.0665 38.4662 81.1358 38.818 81.135 39.1731C81.1356 39.5286 81.0661 39.8807 80.9303 40.2092C80.7945 40.5378 80.5952 40.8363 80.3438 41.0876C80.0924 41.3389 79.7938 41.5381 79.4652 41.6738C79.1366 41.8094 78.7845 41.8789 78.429 41.8781C77.7122 41.877 77.0251 41.5916 76.5185 41.0844C76.0119 40.5773 75.7272 39.8899 75.727 39.1731ZM61.957 39.1731C61.9599 38.4564 62.2458 37.77 62.7524 37.2632C63.259 36.7564 63.9454 36.4702 64.662 36.4671C65.3794 36.4694 66.0667 36.7555 66.5738 37.2629C67.081 37.7703 67.3669 38.4577 67.369 39.1751C67.3682 39.8928 67.0827 40.5808 66.5752 41.0883C66.0677 41.5958 65.3797 41.8813 64.662 41.8821C63.9443 41.8807 63.2564 41.5948 62.7493 41.0869C62.2422 40.579 61.9572 39.8908 61.957 39.1731ZM48.188 39.1731C48.188 38.8179 48.258 38.4662 48.3942 38.1382C48.5303 37.8102 48.7298 37.5122 48.9813 37.2614C49.2327 37.0106 49.5312 36.8118 49.8596 36.6766C50.188 36.5413 50.5398 36.4721 50.895 36.4731C51.6106 36.4746 52.2964 36.7596 52.8024 37.2656C53.3084 37.7716 53.5934 38.4575 53.595 39.1731C53.5956 39.5286 53.5261 39.8807 53.3903 40.2092C53.2546 40.5378 53.0552 40.8363 52.8038 41.0876C52.5524 41.3389 52.2538 41.5381 51.9252 41.6738C51.5966 41.8094 51.2445 41.8789 50.889 41.8781C50.5338 41.8793 50.1818 41.8101 49.8535 41.6747C49.5251 41.5393 49.2268 41.3402 48.9757 41.0889C48.7246 40.8376 48.5258 40.5392 48.3906 40.2107C48.2554 39.8822 48.1865 39.5303 48.188 39.1751V39.1731ZM34.421 39.1731C34.4202 38.818 34.4894 38.4662 34.6248 38.138C34.7601 37.8097 34.9589 37.5113 35.2097 37.26C35.4605 37.0086 35.7584 36.8092 36.0863 36.6732C36.4143 36.5371 36.7659 36.467 37.121 36.4671C37.8381 36.4689 38.5253 36.7546 39.0324 37.2617C39.5394 37.7687 39.8251 38.456 39.827 39.1731C39.8276 39.528 39.7583 39.8797 39.6229 40.2078C39.4875 40.536 39.2887 40.8342 39.0379 41.0855C38.7871 41.3367 38.4893 41.5361 38.1614 41.6721C37.8335 41.8081 37.482 41.8781 37.127 41.8781C36.771 41.8805 36.4182 41.8121 36.0888 41.677C35.7595 41.542 35.4603 41.3428 35.2086 41.0912C34.9568 40.8395 34.7576 40.5404 34.6224 40.2111C34.4872 39.8818 34.4187 39.529 34.421 39.1731ZM20.636 39.1731C20.6373 38.4568 20.922 37.7702 21.4279 37.2632C21.9338 36.7562 22.6197 36.47 23.336 36.4671C23.6915 36.4664 24.0436 36.5359 24.3721 36.6717C24.7007 36.8075 24.9992 37.0068 25.2505 37.2582C25.5019 37.5096 25.7011 37.8082 25.8367 38.1368C25.9723 38.4654 26.0418 38.8176 26.041 39.1731C26.0416 39.5285 25.9721 39.8805 25.8364 40.209C25.7007 40.5375 25.5015 40.8359 25.2502 41.0872C24.9989 41.3386 24.7004 41.5378 24.3719 41.6735C24.0434 41.8092 23.6914 41.8787 23.336 41.8781C22.981 41.8781 22.6295 41.8081 22.3016 41.6721C21.9737 41.5361 21.6758 41.3367 21.425 41.0855C21.1742 40.8342 20.9755 40.536 20.8401 40.2078C20.7047 39.8797 20.6353 39.528 20.636 39.1731ZM6.86597 39.1731C6.86755 38.4569 7.15233 37.7704 7.65817 37.2635C8.16401 36.7565 8.84983 36.4702 9.56598 36.4671C9.92159 36.4669 10.2737 36.5369 10.6023 36.6729C10.9308 36.809 11.2293 37.0085 11.4808 37.26C11.7322 37.5115 11.9315 37.8101 12.0675 38.1387C12.2034 38.4673 12.2732 38.8194 12.273 39.1751C12.273 39.8911 11.9885 40.5779 11.4822 41.0843C10.9758 41.5906 10.2891 41.8751 9.57297 41.8751C9.21764 41.876 8.86563 41.8068 8.53711 41.6714C8.2086 41.5359 7.91004 41.337 7.65855 41.086C7.40706 40.835 7.2076 40.5368 7.07159 40.2085C6.93558 39.8803 6.86571 39.5284 6.86597 39.1731ZM-6.90703 39.1731C-6.90467 38.4571 -6.61963 37.7711 -6.11396 37.2644C-5.6083 36.7576 -4.92293 36.471 -4.20703 36.4671C-3.8512 36.4661 -3.49869 36.5356 -3.16978 36.6713C-2.84087 36.8071 -2.54204 37.0066 -2.29047 37.2582C-2.03891 37.5099 -1.83957 37.8088 -1.70391 38.1377C-1.56826 38.4667 -1.49897 38.8192 -1.50003 39.1751C-1.4991 39.5308 -1.56849 39.8832 -1.7042 40.2121C-1.83992 40.5409 -2.03928 40.8397 -2.29083 41.0913C-2.54238 41.3428 -2.84116 41.5422 -3.17001 41.6779C-3.49886 41.8136 -3.85128 41.883 -4.20703 41.8821C-4.92369 41.8789 -5.60997 41.5922 -6.11589 41.0846C-6.62181 40.577 -6.90624 39.8897 -6.90703 39.1731ZM-20.674 39.1731C-20.6711 38.4573 -20.3859 37.7716 -19.8804 37.2649C-19.3748 36.7583 -18.6898 36.4715 -17.974 36.4671C-17.2566 36.4692 -16.5691 36.7552 -16.0619 37.2626C-15.5546 37.77 -15.2689 38.4576 -15.267 39.1751C-15.2683 39.8914 -15.553 40.5781 -16.0589 41.0853C-16.5647 41.5925 -17.2507 41.8789 -17.967 41.8821C-18.3227 41.8821 -18.6749 41.812 -19.0034 41.6758C-19.332 41.5396 -19.6305 41.3401 -19.8819 41.0885C-20.1333 40.8369 -20.3326 40.5382 -20.4685 40.2096C-20.6045 39.8809 -20.6743 39.5287 -20.674 39.1731ZM-34.444 39.1731C-34.4448 38.818 -34.3756 38.4662 -34.2402 38.138C-34.1049 37.8097 -33.9061 37.5113 -33.6553 37.26C-33.4045 37.0086 -33.1066 36.8092 -32.7787 36.6732C-32.4507 36.5371 -32.0991 36.467 -31.744 36.4671C-31.0271 36.4699 -30.3404 36.7559 -29.8334 37.2628C-29.3264 37.7696 -29.0402 38.4562 -29.037 39.1731C-29.0381 39.8909 -29.3236 40.579 -29.8309 41.0867C-30.3383 41.5945 -31.0262 41.8805 -31.744 41.8821C-32.0994 41.8821 -32.4512 41.8119 -32.7794 41.6757C-33.1075 41.5394 -33.4056 41.3397 -33.6564 41.0881C-33.9072 40.8364 -34.1059 40.5377 -34.2411 40.2091C-34.3762 39.8805 -34.4452 39.5284 -34.444 39.1731ZM-48.217 39.1731C-48.216 38.4557 -47.9305 37.768 -47.4233 37.2608C-46.916 36.7536 -46.2284 36.4681 -45.511 36.4671C-44.7945 36.4702 -44.1084 36.7568 -43.6025 37.2642C-43.0966 37.7716 -42.8121 38.4586 -42.811 39.1751C-42.8101 39.5302 -42.8793 39.8821 -43.0145 40.2105C-43.1498 40.5388 -43.3485 40.8373 -43.5994 41.0888C-43.8502 41.3402 -44.1481 41.5397 -44.4762 41.6759C-44.8042 41.812 -45.1559 41.8821 -45.511 41.8821C-45.8669 41.8829 -46.2193 41.8133 -46.5482 41.6774C-46.8771 41.5415 -47.1758 41.3419 -47.4273 41.0902C-47.6788 40.8384 -47.878 40.5395 -48.0135 40.2105C-48.1491 39.8814 -48.2182 39.5289 -48.217 39.1731Z" fill="#9F7BF9"/>
<path opacity="0.8" d="M92.1999 41.8821C91.4859 41.8782 90.8015 41.5963 90.2919 41.0961C89.7869 40.5825 89.5002 39.8933 89.4919 39.1731C89.4994 38.457 89.7865 37.7723 90.2919 37.2651C90.8129 36.7825 91.4968 36.5144 92.2069 36.5144C92.9171 36.5144 93.601 36.7825 94.1219 37.2651C94.6244 37.7754 94.9061 38.4629 94.9061 39.1791C94.9061 39.8953 94.6244 40.5827 94.1219 41.0931C93.6074 41.5948 92.9185 41.8776 92.1999 41.8821Z" fill="#9F7BF9"/>
<path opacity="0.8" d="M75.727 54.0661C75.7289 53.3492 76.015 52.6623 76.5227 52.1561C77.0304 51.65 77.7181 51.3658 78.435 51.3661C79.1511 51.3661 79.8379 51.6506 80.3442 52.1569C80.8506 52.6633 81.135 53.35 81.135 54.0661C81.135 54.7827 80.8508 55.4701 80.3446 55.9774C79.8384 56.4847 79.1516 56.7705 78.435 56.7721C77.7179 56.7697 77.0308 56.4839 76.5235 55.977C76.0162 55.4701 75.7299 54.7832 75.727 54.0661ZM61.958 54.0661C61.9572 53.7113 62.0265 53.3598 62.1619 53.0319C62.2973 52.704 62.4962 52.406 62.7471 52.1551C62.9979 51.9043 63.2959 51.7054 63.6238 51.57C63.9518 51.4346 64.3032 51.3653 64.658 51.3661C65.3749 51.3656 66.0627 51.6496 66.5703 52.1559C67.0778 52.6622 67.3637 53.3492 67.365 54.0661C67.3626 54.7827 67.0765 55.4691 66.5691 55.9751C66.0618 56.4812 65.3746 56.7656 64.658 56.7661C64.3033 56.7661 63.952 56.6962 63.6243 56.5604C63.2966 56.4246 62.9989 56.2255 62.7481 55.9746C62.4974 55.7237 62.2985 55.4258 62.163 55.098C62.0274 54.7701 61.9578 54.4188 61.958 54.0641V54.0661ZM48.187 54.0661C48.187 53.35 48.4715 52.6633 48.9778 52.1569C49.4842 51.6506 50.1709 51.3661 50.887 51.3661C51.2421 51.3653 51.5938 51.4346 51.9221 51.5699C52.2504 51.7052 52.5487 51.904 52.8001 52.1548C53.0514 52.4056 53.2509 52.7035 53.3869 53.0315C53.523 53.3594 53.593 53.711 53.593 54.0661C53.5912 54.7827 53.3053 55.4692 52.798 55.9754C52.2908 56.4815 51.6036 56.7658 50.887 56.7661C50.1709 56.7661 49.4842 56.4816 48.9778 55.9753C48.4715 55.4689 48.187 54.7822 48.187 54.0661ZM34.417 54.0661C34.417 53.711 34.4871 53.3594 34.6231 53.0315C34.7592 52.7035 34.9586 52.4056 35.2099 52.1548C35.4613 51.904 35.7597 51.7052 36.0879 51.5699C36.4162 51.4346 36.7679 51.3653 37.123 51.3661C37.4781 51.3653 37.8298 51.4346 38.1581 51.5699C38.4864 51.7052 38.7847 51.904 39.0361 52.1548C39.2874 52.4056 39.4869 52.7035 39.6229 53.0315C39.759 53.3594 39.829 53.711 39.829 54.0661C39.8264 54.783 39.5404 55.4697 39.0335 55.9766C38.5266 56.4835 37.8399 56.7695 37.123 56.7721C36.4056 56.7713 35.7178 56.486 35.2105 55.9787C34.7032 55.4714 34.4178 54.7835 34.417 54.0661ZM20.634 54.0661C20.634 53.35 20.9185 52.6633 21.4248 52.1569C21.9312 51.6506 22.6179 51.3661 23.334 51.3661C23.69 51.3645 24.0427 51.4331 24.3722 51.568C24.7016 51.7029 25.0012 51.9014 25.2538 52.1522C25.5064 52.403 25.7071 52.7011 25.8444 53.0295C25.9818 53.3579 26.053 53.7101 26.054 54.0661C26.0506 54.7851 25.7625 55.4735 25.2527 55.9807C24.7429 56.4878 24.0531 56.7724 23.334 56.7721C22.6184 56.7674 21.9334 56.4806 21.4279 55.9739C20.9224 55.4673 20.6372 54.7818 20.634 54.0661ZM6.86602 54.0661C6.86602 53.35 7.15049 52.6633 7.65683 52.1569C8.16318 51.6506 8.84994 51.3661 9.56602 51.3661C9.92109 51.3653 10.2728 51.4346 10.6011 51.5699C10.9294 51.7052 11.2277 51.904 11.4791 52.1548C11.7304 52.4056 11.9299 52.7035 12.0659 53.0315C12.202 53.3594 12.272 53.711 12.272 54.0661C12.2718 54.7827 11.9874 55.4699 11.4813 55.9771C10.9752 56.4844 10.2886 56.7702 9.57202 56.7721C8.85456 56.7703 8.16705 56.4843 7.65992 55.9768C7.15279 55.4693 6.86734 54.7815 6.86602 54.0641V54.0661ZM-6.90398 54.0661C-6.90398 53.35 -6.61952 52.6633 -6.11317 52.1569C-5.60682 51.6506 -4.92006 51.3661 -4.20398 51.3661C-3.84798 51.365 -3.49529 51.4344 -3.16619 51.5702C-2.8371 51.706 -2.53811 51.9055 -2.28643 52.1572C-2.03474 52.409 -1.83533 52.7081 -1.69968 53.0372C-1.56402 53.3664 -1.49479 53.7191 -1.49598 54.0751C-1.49756 54.7907 -1.78254 55.4765 -2.28854 55.9825C-2.79455 56.4885 -3.48038 56.7735 -4.19598 56.7751C-4.9131 56.7722 -5.59994 56.4857 -6.10656 55.9781C-6.61317 55.4706 -6.8984 54.7832 -6.89998 54.0661H-6.90398ZM-20.676 54.0661C-20.677 53.7104 -20.6078 53.3579 -20.4722 53.029C-20.3366 52.7001 -20.1373 52.4012 -19.8859 52.1496C-19.6344 51.898 -19.3357 51.6985 -19.0069 51.5627C-18.6781 51.4268 -18.3257 51.3573 -17.97 51.3581C-17.2524 51.3586 -16.5643 51.6439 -16.0568 52.1512C-15.5493 52.6585 -15.2638 53.3465 -15.263 54.0641C-15.2648 54.7816 -15.5506 55.4691 -16.0578 55.9766C-16.5651 56.484 -17.2525 56.77 -17.97 56.7721C-18.3254 56.7722 -18.6773 56.7023 -19.0057 56.5664C-19.334 56.4304 -19.6324 56.2311 -19.8837 55.9798C-20.135 55.7285 -20.3343 55.4302 -20.4703 55.1018C-20.6062 54.7734 -20.6761 54.4215 -20.676 54.0661ZM-34.444 54.0661C-34.4448 53.7113 -34.3755 53.3598 -34.2401 53.0319C-34.1047 52.704 -33.9058 52.406 -33.6549 52.1551C-33.4041 51.9043 -33.1061 51.7054 -32.7782 51.57C-32.4502 51.4346 -32.0988 51.3653 -31.744 51.3661C-31.389 51.3654 -31.0374 51.4348 -30.7092 51.5702C-30.381 51.7056 -30.0828 51.9044 -29.8316 52.1551C-29.5803 52.4059 -29.381 52.7038 -29.245 53.0317C-29.109 53.3596 -29.039 53.7111 -29.039 54.0661C-29.0416 54.7814 -29.3269 55.4666 -29.8327 55.9724C-30.3385 56.4782 -31.0237 56.7635 -31.739 56.7661C-32.0941 56.7668 -32.4459 56.6973 -32.7742 56.5618C-33.1025 56.4263 -33.4008 56.2274 -33.6521 55.9764C-33.9034 55.7254 -34.1027 55.4272 -34.2386 55.0991C-34.3744 54.771 -34.4442 54.4193 -34.444 54.0641V54.0661ZM-48.214 54.0661C-48.2148 53.7113 -48.1455 53.3598 -48.0101 53.0319C-47.8747 52.704 -47.6758 52.406 -47.4249 52.1551C-47.1741 51.9043 -46.8761 51.7054 -46.5482 51.57C-46.2202 51.4346 -45.8688 51.3653 -45.514 51.3661C-44.7979 51.3661 -44.1111 51.6506 -43.6048 52.1569C-43.0984 52.6633 -42.814 53.35 -42.814 54.0661C-42.8153 54.7818 -43.1002 55.4678 -43.6063 55.9738C-44.1123 56.4799 -44.7983 56.7648 -45.514 56.7661C-45.8686 56.7661 -46.2196 56.6963 -46.5472 56.5606C-46.8748 56.4249 -47.1725 56.226 -47.4232 55.9753C-47.6739 55.7246 -47.8728 55.4269 -48.0085 55.0993C-48.1441 54.7718 -48.214 54.4207 -48.214 54.0661Z" fill="#9F7BF9"/>
<path opacity="0.8" d="M92.2 56.7721C91.4856 56.7687 90.8007 56.4867 90.291 55.9861C89.7882 55.4722 89.5018 54.785 89.491 54.0661C89.4978 53.3494 89.785 52.6638 90.291 52.1561C90.6691 51.7765 91.1514 51.5175 91.6768 51.4122C92.2022 51.3069 92.747 51.3598 93.2422 51.5643C93.7375 51.7689 94.1609 52.1158 94.4589 52.5611C94.7568 53.0065 94.9159 53.5303 94.916 54.0661C94.9125 54.7846 94.6248 55.4726 94.1157 55.9796C93.6066 56.4867 92.9175 56.7716 92.199 56.7721H92.2Z" fill="#9F7BF9"/>
<path opacity="0.8" d="M75.727 67.5771C75.7307 66.8607 76.0175 66.1749 76.5247 65.6691C77.032 65.1634 77.7187 64.8787 78.435 64.8771C79.1511 64.8771 79.8379 65.1615 80.3442 65.6679C80.8506 66.1742 81.135 66.861 81.135 67.5771C81.1358 67.9321 81.0665 68.2839 80.9312 68.6122C80.7959 68.9404 80.5971 69.2388 80.3463 69.4901C80.0955 69.7415 79.7976 69.9409 79.4697 70.077C79.1417 70.213 78.7901 70.2831 78.435 70.2831C78.0793 70.2841 77.7268 70.2149 77.3979 70.0793C77.069 69.9437 76.7702 69.7444 76.5185 69.493C76.2669 69.2415 76.0674 68.9428 75.9316 68.614C75.7958 68.2852 75.7262 67.9328 75.727 67.5771ZM61.958 67.5771C61.9593 66.8614 62.2442 66.1754 62.7503 65.6694C63.2564 65.1633 63.9423 64.8784 64.658 64.8771C65.3747 64.8773 66.062 65.1617 66.5694 65.6678C67.0768 66.1738 67.3629 66.8604 67.365 67.5771C67.3658 67.9327 67.2963 68.2851 67.1606 68.6138C67.0248 68.9425 66.8254 69.2412 66.5739 69.4926C66.3223 69.7441 66.0236 69.9433 65.6948 70.079C65.366 70.2146 65.0137 70.284 64.658 70.2831C64.3029 70.2831 63.9514 70.213 63.6234 70.077C63.2954 69.9409 62.9975 69.7415 62.7467 69.4901C62.4959 69.2388 62.2972 68.9404 62.1618 68.6122C62.0265 68.2839 61.9572 67.9321 61.958 67.5771ZM48.185 67.5771C48.1869 66.8603 48.4729 66.1736 48.9804 65.6675C49.4878 65.1613 50.1753 64.8771 50.892 64.8771C51.6096 64.8787 52.2972 65.1645 52.8044 65.6721C53.3116 66.1797 53.597 66.8675 53.598 67.5851C53.598 67.9402 53.528 68.2917 53.3919 68.6197C53.2559 68.9477 53.0564 69.2456 52.8051 69.4964C52.5537 69.7472 52.2554 69.946 51.9271 70.0813C51.5988 70.2166 51.2471 70.2859 50.892 70.2851C50.5362 70.286 50.1837 70.2166 49.8548 70.0808C49.5259 69.945 49.227 69.7456 48.9755 69.4939C48.7239 69.2423 48.5246 68.9434 48.3889 68.6144C48.2533 68.2854 48.184 67.9329 48.185 67.5771ZM34.417 67.5771C34.417 66.861 34.7015 66.1742 35.2078 65.6679C35.7142 65.1615 36.4009 64.8771 37.117 64.8771C37.8346 64.8789 38.5222 65.1649 39.0295 65.6723C39.5368 66.1798 39.8224 66.8675 39.824 67.5851C39.823 68.3014 39.5384 68.9882 39.0324 69.4952C38.5265 70.0023 37.8403 70.2884 37.124 70.2911C36.7677 70.292 36.4147 70.2224 36.0854 70.0862C35.7561 69.9501 35.457 69.7501 35.2053 69.4978C34.9537 69.2455 34.7545 68.9459 34.6192 68.6162C34.4839 68.2866 34.4152 67.9334 34.417 67.5771ZM20.634 67.5771C20.6364 66.8579 20.9239 66.169 21.4333 65.6613C21.9428 65.1537 22.6328 64.8688 23.352 64.8691C24.068 64.8723 24.7535 65.159 25.2584 65.6666C25.7633 66.1741 26.0466 66.8611 26.046 67.5771C26.0468 67.9321 25.9776 68.2839 25.8422 68.6122C25.7069 68.9404 25.5081 69.2388 25.2573 69.4901C25.0065 69.7415 24.7086 69.9409 24.3807 70.077C24.0527 70.213 23.7011 70.2831 23.346 70.2831C22.6281 70.2839 21.9392 69.9996 21.4306 69.4928C20.9221 68.986 20.6356 68.298 20.634 67.5801V67.5771ZM6.86302 67.5771C6.86592 66.8598 7.15216 66.1727 7.65938 65.6654C8.1666 65.1582 8.85371 64.872 9.57102 64.8691C10.2872 64.8709 10.9736 65.1557 11.4807 65.6615C11.9877 66.1673 12.2743 66.8529 12.278 67.5691C12.2785 67.9249 12.2089 68.2773 12.073 68.6062C11.9371 68.935 11.7377 69.2338 11.4861 69.4855C11.2345 69.7371 10.9358 69.9366 10.607 70.0726C10.2782 70.2087 9.92584 70.2785 9.57002 70.2781C8.85412 70.2765 8.16786 69.992 7.6608 69.4867C7.15374 68.9813 6.86698 68.296 6.86302 67.5801V67.5771ZM-6.90398 67.5771C-6.90239 66.8601 -6.61689 66.1731 -6.10995 65.6661C-5.60301 65.1592 -4.9159 64.8737 -4.19898 64.8721C-3.48289 64.8721 -2.79613 65.1565 -2.28979 65.6629C-1.78344 66.1692 -1.49898 66.856 -1.49898 67.5721C-1.49818 67.9278 -1.5677 68.2802 -1.70354 68.609C-1.83937 68.9378 -2.03885 69.2365 -2.29049 69.488C-2.54213 69.7395 -2.84099 69.9387 -3.16989 70.0743C-3.49878 70.2099 -3.85123 70.2791 -4.20698 70.2781C-4.9215 70.2762 -5.60616 69.9912 -6.11094 69.4855C-6.61572 68.9798 -6.89945 68.2946 -6.89998 67.5801L-6.90398 67.5771ZM-20.674 67.5771C-20.6724 66.8615 -20.3874 66.1757 -19.8814 65.6696C-19.3754 65.1636 -18.6896 64.8787 -17.974 64.8771C-17.2568 64.8802 -16.57 65.1666 -16.063 65.6738C-15.556 66.181 -15.2699 66.8679 -15.267 67.5851C-15.267 68.3012 -15.5514 68.9879 -16.0578 69.4943C-16.5641 70.0006 -17.2509 70.2851 -17.967 70.2851C-18.3231 70.2871 -18.6761 70.2184 -19.0055 70.083C-19.3349 69.9476 -19.6341 69.7482 -19.8859 69.4963C-20.1377 69.2444 -20.337 68.9451 -20.4723 68.6157C-20.6075 68.2862 -20.6761 67.9332 -20.674 67.5771ZM-34.444 67.5771C-34.444 66.861 -34.1595 66.1742 -33.6532 65.6679C-33.1468 65.1615 -32.4601 64.8771 -31.744 64.8771C-31.027 64.8784 -30.3397 65.1638 -29.8327 65.6708C-29.3257 66.1778 -29.0403 66.8651 -29.039 67.5821C-29.039 67.9371 -29.109 68.2886 -29.245 68.6165C-29.381 68.9444 -29.5803 69.2423 -29.8316 69.493C-30.0828 69.7438 -30.381 69.9426 -30.7092 70.078C-31.0374 70.2134 -31.389 70.2827 -31.744 70.2821C-32.099 70.2821 -32.4505 70.2121 -32.7784 70.0761C-33.1063 69.9401 -33.4042 69.7408 -33.6549 69.4895C-33.9057 69.2383 -34.1045 68.94 -34.2399 68.6119C-34.3753 68.2837 -34.4446 67.9321 -34.444 67.5771ZM-48.214 67.5771C-48.2161 66.8613 -47.9339 66.174 -47.4295 65.6662C-46.9251 65.1585 -46.2397 64.8717 -45.524 64.8691C-44.8061 64.8685 -44.1171 65.1523 -43.6078 65.6582C-43.0985 66.1642 -42.8102 66.8512 -42.806 67.5691C-42.8061 67.9255 -42.8766 68.2784 -43.0135 68.6075C-43.1503 68.9366 -43.3508 69.2354 -43.6034 69.4868C-43.8561 69.7383 -44.1559 69.9373 -44.4856 70.0726C-44.8153 70.2078 -45.1686 70.2767 -45.525 70.2751C-45.8786 70.2752 -46.2289 70.2055 -46.5556 70.0701C-46.8823 69.9346 -47.179 69.736 -47.4288 69.4857C-47.6786 69.2353 -47.8765 68.9381 -48.0113 68.6111C-48.146 68.2841 -48.2149 67.9337 -48.214 67.5801V67.5771Z" fill="#9F7BF9"/>
<path opacity="0.8" d="M92.215 70.2831C91.4969 70.2847 90.8071 70.0034 90.295 69.5001C89.7894 68.9881 89.5025 68.2996 89.495 67.5801C89.5004 66.8639 89.7878 66.1788 90.295 65.6731C90.8146 65.1879 91.4991 64.918 92.21 64.918C92.9209 64.918 93.6054 65.1879 94.125 65.6731C94.504 66.0505 94.7623 66.532 94.8672 67.0565C94.9721 67.581 94.9189 68.1248 94.7143 68.619C94.5097 69.1132 94.1629 69.5354 93.7179 69.8322C93.273 70.129 92.7499 70.287 92.215 70.2861V70.2831Z" fill="#9F7BF9"/>
<path opacity="0.8" d="M75.727 8.89204C75.7289 8.17459 76.0149 7.48708 76.5224 6.97995C77.0299 6.47282 77.7176 6.18737 78.435 6.18605C78.7901 6.18605 79.1417 6.25608 79.4697 6.39215C79.7976 6.52821 80.0956 6.72762 80.3464 6.97897C80.5972 7.23032 80.7959 7.52869 80.9312 7.85696C81.0666 8.18523 81.1358 8.53697 81.135 8.89204C81.1368 9.24733 81.0681 9.59945 80.9331 9.92808C80.7981 10.2567 80.5994 10.5554 80.3484 10.8068C80.0974 11.0583 79.7991 11.2576 79.4707 11.3932C79.1423 11.5288 78.7903 11.5981 78.435 11.597C78.0796 11.5973 77.7276 11.5275 77.3991 11.3917C77.0706 11.2559 76.7721 11.0567 76.5207 10.8055C76.2692 10.5543 76.0697 10.2561 75.9335 9.92775C75.7973 9.59942 75.7272 9.24748 75.727 8.89204ZM61.957 8.89204C61.9589 8.17511 62.2444 7.48804 62.7513 6.981C63.2582 6.47395 63.9451 6.18816 64.662 6.18605C65.3792 6.18816 66.0663 6.47389 66.5735 6.98088C67.0807 7.48787 67.3667 8.17492 67.369 8.89204C67.3688 9.61008 67.0836 10.2987 66.576 10.8066C66.0685 11.3145 65.3801 11.6002 64.662 11.601C63.9447 11.5987 63.2574 11.3124 62.7505 10.8047C62.2436 10.2971 61.9584 9.60942 61.957 8.89204ZM48.185 8.89204C48.1858 8.17444 48.4713 7.48647 48.9788 6.97914C49.4864 6.47181 50.1744 6.18658 50.892 6.18605C51.6091 6.18894 52.296 6.47486 52.8033 6.98163C53.3107 7.48839 53.5974 8.17498 53.601 8.89204C53.5994 9.61003 53.3135 10.2982 52.8058 10.8058C52.2981 11.3135 51.61 11.5995 50.892 11.601C50.5361 11.602 50.1835 11.5325 49.8546 11.3967C49.5256 11.2608 49.2267 11.0613 48.9751 10.8095C48.7235 10.5578 48.5242 10.2587 48.3886 9.92967C48.253 9.60059 48.1838 9.24796 48.185 8.89204ZM34.421 8.89204C34.4202 8.53697 34.4895 8.18523 34.6248 7.85696C34.7602 7.52869 34.9589 7.23032 35.2097 6.97897C35.4605 6.72762 35.7584 6.52821 36.0864 6.39215C36.4144 6.25608 36.766 6.18605 37.121 6.18605C37.8373 6.18895 38.5232 6.47517 39.0291 6.98219C39.535 7.48921 39.8197 8.17581 39.821 8.89204C39.8217 9.24754 39.7521 9.59967 39.6164 9.92822C39.4806 10.2568 39.2813 10.5553 39.0299 10.8066C38.7785 11.0579 38.4799 11.2571 38.1513 11.3928C37.8227 11.5284 37.4705 11.5978 37.115 11.597C36.7602 11.5974 36.4088 11.5277 36.0811 11.3917C35.7533 11.2558 35.4557 11.0564 35.2053 10.805C34.9549 10.5536 34.7567 10.2551 34.6221 9.92685C34.4875 9.59854 34.4192 9.24686 34.421 8.89204ZM20.634 8.89204C20.6361 8.17605 20.9211 7.48991 21.4268 6.98306C21.9325 6.47621 22.618 6.18974 23.334 6.18605C23.6896 6.18578 24.0417 6.25557 24.3702 6.39145C24.6987 6.52732 24.9973 6.7266 25.2488 6.9779C25.5003 7.2292 25.6997 7.52761 25.8359 7.85605C25.972 8.18448 26.042 8.53652 26.042 8.89204C26.0435 9.24767 25.9745 9.60008 25.8391 9.92892C25.7037 10.2578 25.5045 10.5565 25.253 10.808C25.0015 11.0595 24.7028 11.2587 24.3739 11.3941C24.0451 11.5295 23.6927 11.5985 23.337 11.597C22.62 11.5965 21.9325 11.3113 21.4256 10.8041C20.9188 10.2968 20.634 9.6091 20.634 8.89204ZM6.86604 8.89204C6.86736 8.17581 7.15205 7.48921 7.65795 6.98219C8.16384 6.47517 8.84982 6.18895 9.56604 6.18605C9.9217 6.18618 10.2738 6.2564 10.6024 6.39268C10.9309 6.52897 11.2293 6.72866 11.4806 6.98033C11.7319 7.232 11.9311 7.53072 12.0669 7.85943C12.2027 8.18814 12.2724 8.54038 12.272 8.89604C12.272 9.61212 11.9876 10.2989 11.4812 10.8052C10.9749 11.3116 10.2881 11.5961 9.57204 11.5961C8.8552 11.5945 8.16814 11.3091 7.66107 10.8024C7.154 10.2957 6.86815 9.60888 6.86604 8.89204ZM-6.90396 8.89204C-6.90212 8.17597 -6.61726 7.48967 -6.11148 6.98277C-5.6057 6.47587 -4.92002 6.18948 -4.20396 6.18605C-3.84821 6.18499 -3.49576 6.25425 -3.16687 6.38984C-2.83797 6.52543 -2.53911 6.72467 -2.28747 6.97613C-2.03582 7.22759 -1.83635 7.5263 -1.70052 7.8551C-1.56469 8.18389 -1.49516 8.53629 -1.49596 8.89204C-1.4953 9.24703 -1.56465 9.59867 -1.70005 9.92683C-1.83544 10.255 -2.03422 10.5532 -2.285 10.8045C-2.53578 11.0557 -2.83365 11.255 -3.16156 11.391C-3.48946 11.527 -3.84097 11.597 -4.19596 11.597C-4.55128 11.5976 -4.90322 11.528 -5.23159 11.3922C-5.55996 11.2564 -5.8583 11.0572 -6.1095 10.8059C-6.36071 10.5546 -6.55984 10.2562 -6.69549 9.92775C-6.83113 9.59933 -6.90062 9.24737 -6.89996 8.89204H-6.90396ZM-20.674 8.89204C-20.6724 8.17589 -20.3876 7.48944 -19.8818 6.98248C-19.3759 6.47552 -18.6901 6.18921 -17.974 6.18605C-17.2577 6.18895 -16.5718 6.47517 -16.0659 6.98219C-15.56 7.48921 -15.2753 8.17581 -15.274 8.89204C-15.2733 9.24703 -15.3427 9.59867 -15.478 9.92683C-15.6134 10.255 -15.8122 10.5532 -16.063 10.8045C-16.3138 11.0557 -16.6117 11.255 -16.9396 11.391C-17.2675 11.527 -17.619 11.597 -17.974 11.597C-18.3289 11.597 -18.6805 11.527 -19.0084 11.391C-19.3363 11.255 -19.6341 11.0557 -19.8849 10.8045C-20.1357 10.5532 -20.3345 10.255 -20.4699 9.92683C-20.6053 9.59867 -20.6746 9.24703 -20.674 8.89204ZM-34.444 8.89204C-34.4448 8.53638 -34.3753 8.18407 -34.2395 7.85534C-34.1037 7.52661 -33.9043 7.22794 -33.6528 6.9765C-33.4013 6.72505 -33.1025 6.52578 -32.7737 6.39013C-32.445 6.25448 -32.0926 6.18512 -31.737 6.18605C-31.0218 6.1892 -30.3369 6.47468 -29.8313 6.98034C-29.3256 7.48601 -29.0401 8.17093 -29.037 8.88604C-29.0366 9.24186 -29.1064 9.59425 -29.2424 9.92305C-29.3784 10.2518 -29.5779 10.5506 -29.8296 10.8021C-30.0812 11.0537 -30.38 11.2531 -30.7089 11.389C-31.0377 11.5249 -31.3901 11.5946 -31.746 11.5941C-32.1008 11.5948 -32.4523 11.5255 -32.7803 11.3899C-33.1083 11.2543 -33.4062 11.0553 -33.6569 10.8042C-33.9077 10.5531 -34.1063 10.2548 -34.2414 9.92669C-34.3764 9.59854 -34.4453 9.24691 -34.444 8.89204ZM-48.215 8.89204C-48.2157 8.53697 -48.1465 8.18523 -48.0112 7.85696C-47.8758 7.52869 -47.6771 7.23032 -47.4263 6.97897C-47.1755 6.72762 -46.8776 6.52821 -46.5496 6.39215C-46.2216 6.25608 -45.87 6.18605 -45.515 6.18605C-44.7982 6.18946 -44.1118 6.47562 -43.6049 6.98233C-43.0981 7.48903 -42.8116 8.17533 -42.808 8.89204C-42.8095 9.60968 -43.0952 10.2975 -43.6024 10.8051C-44.1097 11.3128 -44.7973 11.5989 -45.515 11.601C-46.2322 11.5997 -46.9195 11.3136 -47.4259 10.8056C-47.9322 10.2976 -48.216 9.60928 -48.215 8.89204Z" fill="#9F7BF9"/>
<path opacity="0.8" d="M92.1999 11.5971C91.4863 11.5952 90.8016 11.3146 90.2919 10.8151C89.7867 10.3016 89.5 9.61238 89.4919 8.89206C89.4989 8.17621 89.7861 7.49159 90.2919 6.98506C90.8118 6.50111 91.4957 6.23206 92.2059 6.23206C92.9162 6.23206 93.6001 6.50111 94.1199 6.98506C94.623 7.49548 94.9051 8.18339 94.9051 8.90007C94.9051 9.61675 94.623 10.3046 94.1199 10.8151C93.606 11.3155 92.9173 11.596 92.1999 11.5971Z" fill="#9F7BF9"/>
<path opacity="0.8" d="M106.508 27.521C105.793 27.5119 105.109 27.2251 104.601 26.7211C104.099 26.2105 103.818 25.5233 103.818 24.8075C103.818 24.0917 104.099 23.4046 104.601 22.894C105.121 22.4111 105.804 22.1427 106.514 22.1427C107.224 22.1427 107.907 22.4111 108.427 22.894C108.804 23.2742 109.061 23.7573 109.164 24.2828C109.267 24.8082 109.213 25.3525 109.008 25.8472C108.803 26.3419 108.456 26.7649 108.011 27.0631C107.566 27.3612 107.043 27.5213 106.508 27.523V27.521Z" fill="#9F7BF9"/>
<path opacity="0.8" d="M241.529 24.8141C241.529 24.4588 241.599 24.1071 241.735 23.779C241.871 23.4509 242.071 23.1529 242.323 22.9021C242.574 22.6512 242.873 22.4525 243.201 22.3173C243.53 22.1821 243.882 22.113 244.237 22.1141C244.953 22.1141 245.64 22.3986 246.146 22.9049C246.652 23.4112 246.937 24.098 246.937 24.8141C246.935 25.5296 246.65 26.2153 246.144 26.7212C245.638 27.2272 244.952 27.5122 244.237 27.5141C243.52 27.5133 242.833 27.2288 242.326 26.7229C241.818 26.2169 241.532 25.5307 241.529 24.8141ZM227.76 24.8141C227.762 24.0985 228.046 23.4127 228.552 22.9067C229.058 22.4006 229.744 22.1157 230.46 22.1141C231.177 22.1138 231.864 22.398 232.372 22.9042C232.879 23.4104 233.165 24.0973 233.167 24.8141C233.165 25.5316 232.879 26.2193 232.372 26.7269C231.865 27.2345 231.177 27.5207 230.46 27.5231C229.744 27.5178 229.059 27.2304 228.553 26.7233C228.048 26.2161 227.763 25.5301 227.76 24.8141ZM213.989 24.8141C213.989 24.4591 214.059 24.1076 214.195 23.7797C214.331 23.4518 214.53 23.1539 214.782 22.9031C215.033 22.6523 215.331 22.4536 215.659 22.3182C215.987 22.1828 216.339 22.1134 216.694 22.1141C217.412 22.1143 218.1 22.3997 218.607 22.9073C219.115 23.4149 219.4 24.1033 219.4 24.8211C219.396 25.5369 219.109 26.2221 218.602 26.7277C218.096 27.2333 217.41 27.5185 216.694 27.5211C216.338 27.5217 215.986 27.4522 215.658 27.3163C215.329 27.1805 215.03 26.9811 214.779 26.7296C214.528 26.478 214.329 26.1794 214.193 25.8506C214.057 25.5219 213.988 25.1697 213.989 24.8141ZM200.223 24.8141C200.222 24.4589 200.291 24.1071 200.426 23.7787C200.562 23.4503 200.76 23.1518 201.011 22.9004C201.262 22.6489 201.56 22.4494 201.888 22.3133C202.216 22.1772 202.568 22.1071 202.923 22.1071C203.639 22.1071 204.326 22.3915 204.832 22.8979C205.338 23.4042 205.623 24.091 205.623 24.8071C205.62 25.5236 205.334 26.2099 204.827 26.7158C204.319 27.2218 203.632 27.5063 202.916 27.5071C202.203 27.5052 201.521 27.2219 201.016 26.7188C200.512 26.2156 200.227 25.5335 200.223 24.8211V24.8141ZM186.449 24.8141C186.448 24.46 186.517 24.1091 186.651 23.7817C186.786 23.4542 186.984 23.1565 187.234 22.9057C187.484 22.6549 187.781 22.4559 188.108 22.32C188.435 22.1842 188.786 22.1142 189.14 22.1141C189.496 22.113 189.848 22.1823 190.177 22.318C190.506 22.4536 190.805 22.653 191.057 22.9045C191.308 23.1561 191.508 23.4549 191.644 23.7838C191.779 24.1127 191.849 24.4653 191.848 24.8211C191.848 25.1761 191.778 25.5276 191.642 25.8555C191.506 26.1834 191.307 26.4813 191.055 26.732C190.804 26.9828 190.506 27.1816 190.178 27.317C189.85 27.4524 189.498 27.5217 189.143 27.5211C188.788 27.5203 188.437 27.4496 188.11 27.3132C187.783 27.1767 187.485 26.9771 187.235 26.7257C186.985 26.4743 186.787 26.1761 186.652 25.8481C186.517 25.5201 186.448 25.1687 186.449 24.8141ZM172.668 24.8141C172.667 24.4589 172.736 24.1071 172.871 23.7787C173.007 23.4503 173.205 23.1518 173.456 22.9004C173.707 22.6489 174.005 22.4494 174.333 22.3133C174.661 22.1772 175.013 22.1071 175.368 22.1071C176.084 22.1071 176.771 22.3915 177.277 22.8979C177.783 23.4042 178.068 24.091 178.068 24.8071C178.068 25.1623 177.998 25.5141 177.862 25.8422C177.725 26.1703 177.526 26.4683 177.274 26.7191C177.023 26.9699 176.724 27.1686 176.396 27.3039C176.067 27.4391 175.715 27.5081 175.36 27.5071C174.649 27.5019 173.968 27.2174 173.464 26.715C172.961 26.2125 172.675 25.5324 172.668 24.8211V24.8141ZM158.894 24.8141C158.896 24.0975 159.182 23.4109 159.689 22.9048C160.196 22.3987 160.883 22.1143 161.6 22.1141C161.955 22.113 162.307 22.1821 162.636 22.3173C162.964 22.4525 163.263 22.6512 163.514 22.9021C163.766 23.1529 163.965 23.4509 164.102 23.779C164.238 24.1071 164.308 24.4588 164.308 24.8141C164.306 25.5311 164.02 26.2181 163.513 26.7243C163.005 27.2306 162.317 27.5146 161.6 27.5141C160.884 27.5112 160.198 27.226 159.692 26.7205C159.185 26.2149 158.898 25.5298 158.894 24.8141ZM145.127 24.8141C145.126 24.4593 145.195 24.1077 145.331 23.7797C145.466 23.4518 145.665 23.1537 145.916 22.9028C146.167 22.6519 146.465 22.4531 146.793 22.3177C147.121 22.1824 147.472 22.1132 147.827 22.1141C148.182 22.1134 148.534 22.1828 148.862 22.3182C149.19 22.4536 149.488 22.6523 149.739 22.9031C149.991 23.1539 150.19 23.4518 150.326 23.7797C150.462 24.1076 150.532 24.4591 150.532 24.8141C150.529 25.53 150.242 26.2155 149.736 26.7212C149.229 27.227 148.543 27.512 147.827 27.5141C147.111 27.5141 146.424 27.2296 145.918 26.7233C145.411 26.2169 145.127 25.5302 145.127 24.8141ZM131.357 24.8141C131.356 24.4583 131.425 24.1059 131.561 23.7771C131.697 23.4482 131.896 23.1494 132.148 22.8979C132.399 22.6463 132.698 22.447 133.027 22.3113C133.356 22.1755 133.708 22.1062 134.064 22.1071C134.78 22.1071 135.467 22.3915 135.973 22.8979C136.479 23.4042 136.764 24.091 136.764 24.8071C136.761 25.5234 136.475 26.2095 135.968 26.7155C135.461 27.2214 134.774 27.506 134.058 27.5071C133.344 27.5074 132.659 27.2249 132.153 26.7216C131.647 26.2182 131.361 25.5349 131.357 24.8211V24.8141ZM117.587 24.8141C117.585 24.4583 117.654 24.1057 117.789 23.7766C117.925 23.4475 118.124 23.1485 118.375 22.8968C118.627 22.6451 118.926 22.4458 119.255 22.3102C119.584 22.1747 119.936 22.1056 120.292 22.1071C120.648 22.1071 121.001 22.1773 121.33 22.3138C121.659 22.4503 121.957 22.6503 122.209 22.9024C122.46 23.1545 122.66 23.4537 122.796 23.7829C122.931 24.1122 123.001 24.465 123 24.8211C122.996 25.5376 122.71 26.2238 122.203 26.7304C121.697 27.2371 121.01 27.5234 120.294 27.5271C119.577 27.5258 118.889 27.2403 118.382 26.7331C117.874 26.226 117.589 25.5384 117.587 24.8211V24.8141Z" fill="#9F7BF9"/>
<path opacity="0.8" d="M258.005 27.521C257.29 27.5158 256.605 27.23 256.099 26.725C255.592 26.22 255.304 25.5362 255.297 24.821C255.305 24.1016 255.592 23.4133 256.097 22.901C256.618 22.418 257.302 22.1497 258.012 22.1497C258.722 22.1497 259.406 22.418 259.927 22.901C260.306 23.2805 260.564 23.7638 260.668 24.2898C260.772 24.8158 260.718 25.3609 260.512 25.856C260.306 26.3512 259.958 26.7742 259.512 27.0714C259.066 27.3687 258.541 27.5269 258.005 27.526V27.521Z" fill="#9F7BF9"/>
<path opacity="0.8" d="M106.524 41.9391C105.988 41.9445 105.462 41.7896 105.014 41.4943C104.566 41.1991 104.216 40.7769 104.01 40.2818C103.803 39.7867 103.749 39.2412 103.855 38.7152C103.96 38.1892 104.22 37.7065 104.601 37.3291C105.121 36.8462 105.804 36.5778 106.514 36.5778C107.224 36.5778 107.907 36.8462 108.427 37.3291C108.93 37.8371 109.213 38.5231 109.213 39.2381C109.216 39.5925 109.148 39.944 109.014 40.2721C108.88 40.6002 108.682 40.8985 108.432 41.1496C108.182 41.4007 107.885 41.5997 107.557 41.7351C107.23 41.8704 106.878 41.9394 106.524 41.9381V41.9391Z" fill="#9F7BF9"/>
<path opacity="0.8" d="M241.529 39.2331C241.534 38.5171 241.821 37.8319 242.328 37.3263C242.835 36.8208 243.521 36.5357 244.237 36.5331C244.953 36.5331 245.64 36.8175 246.146 37.3239C246.653 37.8302 246.937 38.517 246.937 39.2331C246.938 39.5887 246.868 39.9409 246.733 40.2696C246.597 40.5982 246.398 40.8968 246.146 41.1483C245.895 41.3997 245.596 41.599 245.268 41.7347C244.939 41.8704 244.587 41.9399 244.231 41.9391C243.514 41.938 242.827 41.6525 242.32 41.1451C241.814 40.6377 241.529 39.9501 241.529 39.2331ZM227.759 39.2331C227.763 38.5183 228.049 37.834 228.554 37.3285C229.06 36.8231 229.744 36.5373 230.459 36.5331C231.176 36.5352 231.864 36.8211 232.371 37.3283C232.878 37.8355 233.164 38.5228 233.166 39.2401C233.165 39.9578 232.88 40.6459 232.372 41.1533C231.865 41.6608 231.177 41.9463 230.459 41.9471C229.741 41.945 229.054 41.6579 228.547 41.149C228.041 40.6401 227.757 39.9509 227.759 39.2331ZM213.99 39.2331C213.99 38.8779 214.06 38.5263 214.196 38.1982C214.332 37.8702 214.532 37.5722 214.783 37.3214C215.035 37.0706 215.333 36.8719 215.662 36.7366C215.99 36.6013 216.342 36.5322 216.697 36.5331C217.412 36.5352 218.098 36.8203 218.604 37.3262C219.11 37.8321 219.395 38.5177 219.397 39.2331C219.398 39.5887 219.328 39.9409 219.193 40.2696C219.057 40.5982 218.858 40.8968 218.606 41.1483C218.355 41.3997 218.056 41.599 217.728 41.7347C217.399 41.8704 217.047 41.9399 216.691 41.9391C216.336 41.9401 215.984 41.8709 215.655 41.7354C215.327 41.5998 215.029 41.4006 214.778 41.1493C214.527 40.8979 214.328 40.5994 214.193 40.2709C214.057 39.9424 213.989 39.5903 213.99 39.2351V39.2331ZM200.223 39.2331C200.223 38.517 200.507 37.8302 201.014 37.3239C201.52 36.8175 202.207 36.5331 202.923 36.5331C203.639 36.5347 204.326 36.8194 204.833 37.3252C205.34 37.831 205.627 38.5168 205.63 39.2331C205.631 39.5882 205.562 39.9399 205.426 40.2682C205.291 40.5965 205.092 40.8948 204.841 41.1462C204.591 41.3975 204.293 41.5969 203.965 41.733C203.637 41.8691 203.285 41.9391 202.93 41.9391C202.574 41.9413 202.221 41.8729 201.892 41.7377C201.562 41.6025 201.263 41.4033 201.011 41.1516C200.759 40.8999 200.56 40.6007 200.425 40.2714C200.289 39.942 200.221 39.5891 200.223 39.2331ZM186.438 39.2331C186.441 38.517 186.727 37.8312 187.234 37.3253C187.741 36.8195 188.427 36.5347 189.143 36.5331C189.498 36.5324 189.85 36.6018 190.178 36.7372C190.506 36.8726 190.804 37.0713 191.055 37.3221C191.307 37.5729 191.506 37.8708 191.642 38.1987C191.778 38.5266 191.848 38.8781 191.848 39.2331C191.849 39.5886 191.779 39.9407 191.644 40.2693C191.508 40.5979 191.309 40.8965 191.058 41.1479C190.806 41.3993 190.508 41.5987 190.179 41.7344C189.851 41.8702 189.499 41.9397 189.143 41.9391C188.788 41.9397 188.435 41.8702 188.107 41.7344C187.778 41.5987 187.48 41.3993 187.228 41.1479C186.977 40.8965 186.778 40.5979 186.642 40.2693C186.507 39.9407 186.437 39.5886 186.438 39.2331ZM172.668 39.2331C172.671 38.5179 172.956 37.8328 173.462 37.3271C173.968 36.8214 174.653 36.536 175.368 36.5331C175.724 36.5328 176.076 36.6027 176.404 36.7386C176.733 36.8745 177.032 37.0739 177.283 37.3253C177.535 37.5767 177.734 37.8752 177.87 38.2038C178.006 38.5323 178.076 38.8845 178.076 39.2401C178.076 39.9562 177.792 40.6429 177.285 41.1493C176.779 41.6556 176.092 41.9401 175.376 41.9401C175.02 41.9411 174.668 41.8719 174.339 41.7362C174.01 41.6005 173.711 41.4012 173.459 41.1496C173.208 40.8981 173.008 40.5992 172.872 40.2703C172.737 39.9414 172.667 39.5889 172.668 39.2331ZM158.894 39.2331C158.898 38.5173 159.185 37.8321 159.692 37.3264C160.198 36.8208 160.884 36.5357 161.6 36.5331C161.956 36.5323 162.308 36.6018 162.637 36.7376C162.965 36.8733 163.264 37.0727 163.516 37.3242C163.767 37.5758 163.966 37.8745 164.102 38.2033C164.238 38.5321 164.307 38.8844 164.306 39.2401C164.307 39.5958 164.238 39.9481 164.102 40.2769C163.966 40.6056 163.767 40.9044 163.516 41.1559C163.264 41.4075 162.965 41.6069 162.637 41.7426C162.308 41.8784 161.956 41.9479 161.6 41.9471C160.882 41.9452 160.193 41.6584 159.686 41.1496C159.179 40.6408 158.894 39.9516 158.894 39.2331ZM145.127 39.2331C145.131 38.5184 145.417 37.8342 145.923 37.3288C146.428 36.8234 147.112 36.5375 147.827 36.5331C148.544 36.5349 149.232 36.8207 149.739 37.3279C150.247 37.8352 150.533 38.5226 150.535 39.2401C150.534 39.9566 150.25 40.6436 149.744 41.1509C149.238 41.6582 148.552 41.9444 147.835 41.9471C147.479 41.9471 147.126 41.8768 146.797 41.7404C146.468 41.6039 146.17 41.4039 145.918 41.1518C145.667 40.8997 145.467 40.6005 145.331 40.2712C145.196 39.942 145.126 39.5892 145.127 39.2331ZM131.357 39.2331C131.357 38.517 131.641 37.8302 132.148 37.3239C132.654 36.8175 133.341 36.5331 134.057 36.5331C134.773 36.5355 135.459 36.8205 135.966 37.3261C136.473 37.8317 136.76 38.5171 136.764 39.2331C136.764 39.951 136.478 40.6395 135.971 41.1473C135.463 41.6552 134.775 41.941 134.057 41.9421C133.702 41.9421 133.35 41.872 133.022 41.7357C132.694 41.5995 132.395 41.3998 132.145 41.1481C131.894 40.8964 131.695 40.5977 131.56 40.2691C131.425 39.9405 131.356 39.5884 131.357 39.2331ZM117.584 39.2331C117.587 38.5167 117.873 37.8306 118.381 37.3246C118.888 36.8187 119.575 36.5341 120.291 36.5331C121.007 36.5363 121.693 36.8227 122.199 37.3299C122.705 37.837 122.99 38.5238 122.991 39.2401C122.992 39.5952 122.923 39.9471 122.788 40.2755C122.652 40.6039 122.453 40.9023 122.203 41.1538C121.952 41.4053 121.654 41.6048 121.326 41.7409C120.998 41.877 120.646 41.9471 120.291 41.9471C119.935 41.948 119.582 41.8784 119.252 41.7423C118.923 41.6061 118.624 41.4061 118.372 41.1538C118.121 40.9015 117.921 40.6019 117.786 40.2723C117.651 39.9426 117.582 39.5894 117.584 39.2331Z" fill="#9F7BF9"/>
<path opacity="0.8" d="M258.005 41.9421C257.291 41.939 256.606 41.6569 256.097 41.1561C255.592 40.6426 255.305 39.9534 255.297 39.2331C255.305 38.5174 255.592 37.8331 256.097 37.3261C256.618 36.8431 257.302 36.5747 258.012 36.5747C258.722 36.5747 259.406 36.8431 259.927 37.3261C260.429 37.8363 260.711 38.5236 260.711 39.2396C260.711 39.9556 260.429 40.6429 259.927 41.1531C259.413 41.6556 258.724 41.9385 258.005 41.9421Z" fill="#9F7BF9"/>
<path opacity="0.8" d="M106.524 56.8331C106.078 56.8347 105.639 56.7263 105.245 56.5174C104.851 56.3085 104.515 56.0056 104.266 55.6356C104.017 55.2655 103.863 54.8398 103.819 54.3961C103.774 53.9525 103.839 53.5047 104.009 53.0924C104.179 52.6801 104.448 52.3161 104.792 52.0327C105.136 51.7493 105.545 51.5552 105.982 51.4677C106.42 51.3803 106.872 51.4021 107.299 51.5312C107.725 51.6604 108.114 51.8929 108.429 52.2081C108.932 52.7201 109.214 53.4093 109.213 54.1271C109.215 54.8423 108.932 55.5289 108.428 56.0363C107.924 56.5436 107.239 56.8302 106.524 56.8331Z" fill="#9F7BF9"/>
<path opacity="0.8" d="M241.529 54.1271C241.529 53.7716 241.599 53.4197 241.736 53.0914C241.872 52.763 242.071 52.4648 242.323 52.2136C242.574 51.9624 242.873 51.7632 243.201 51.6274C243.53 51.4916 243.882 51.4218 244.237 51.4221C244.592 51.4221 244.944 51.4921 245.271 51.6281C245.599 51.7641 245.897 51.9634 246.148 52.2146C246.399 52.4659 246.598 52.7641 246.733 53.0923C246.868 53.4204 246.938 53.7721 246.937 54.1271C246.937 54.8437 246.653 55.5311 246.147 56.0384C245.64 56.5457 244.954 56.8315 244.237 56.8331C243.52 56.8307 242.833 56.5449 242.326 56.038C241.818 55.5311 241.532 54.8442 241.529 54.1271ZM227.76 54.1271C227.759 53.7723 227.829 53.4208 227.964 53.0929C228.099 52.7649 228.298 52.467 228.549 52.2161C228.8 51.9652 229.098 51.7664 229.426 51.631C229.754 51.4956 230.105 51.4263 230.46 51.4271C230.815 51.4268 231.167 51.4966 231.496 51.6324C231.824 51.7682 232.123 51.9674 232.374 52.2186C232.625 52.4698 232.825 52.7681 232.961 53.0964C233.097 53.4248 233.167 53.7767 233.167 54.1321C233.165 54.8486 232.878 55.5351 232.371 56.0411C231.864 56.5471 231.177 56.8315 230.46 56.8321C230.105 56.8321 229.753 56.7619 229.424 56.6255C229.096 56.4891 228.798 56.2893 228.547 56.0374C228.296 55.7855 228.097 55.4865 227.962 55.1577C227.827 54.8288 227.759 54.4766 227.76 54.1211V54.1271ZM213.989 54.1271C213.988 53.7716 214.058 53.4196 214.194 53.0911C214.329 52.7626 214.529 52.4642 214.78 52.2129C215.031 51.9616 215.33 51.7623 215.658 51.6266C215.987 51.4909 216.339 51.4214 216.694 51.4221C217.049 51.4213 217.401 51.4905 217.729 51.6258C218.057 51.761 218.355 51.9597 218.607 52.2104C218.858 52.4611 219.058 52.7589 219.194 53.0867C219.33 53.4146 219.4 53.7661 219.4 54.1211C219.4 54.8386 219.115 55.5266 218.607 56.0338C218.1 56.5411 217.412 56.8261 216.694 56.8261C216.339 56.8267 215.988 56.7574 215.66 56.6221C215.331 56.4867 215.033 56.288 214.782 56.0374C214.531 55.7867 214.331 55.489 214.195 55.1612C214.059 54.8334 213.989 54.482 213.989 54.1271ZM200.219 54.1271C200.218 53.7716 200.288 53.4194 200.424 53.0909C200.559 52.7623 200.759 52.4638 201.01 52.2125C201.262 51.9612 201.56 51.762 201.889 51.6263C202.217 51.4907 202.57 51.4213 202.925 51.4221C203.281 51.4213 203.633 51.4907 203.961 51.6263C204.29 51.762 204.588 51.9612 204.84 52.2125C205.091 52.4638 205.291 52.7623 205.426 53.0909C205.562 53.4194 205.632 53.7716 205.631 54.1271C205.628 54.8438 205.342 55.5302 204.835 56.037C204.328 56.5438 203.642 56.8299 202.925 56.8331C202.208 56.832 201.52 56.5466 201.013 56.0393C200.506 55.5321 200.22 54.8444 200.219 54.1271ZM186.436 54.1271C186.435 53.7721 186.505 53.4204 186.64 53.0923C186.776 52.7641 186.974 52.4659 187.225 52.2146C187.476 51.9634 187.774 51.7641 188.102 51.6281C188.43 51.4921 188.781 51.4221 189.136 51.4221C189.492 51.4205 189.846 51.4893 190.175 51.6245C190.505 51.7596 190.805 51.9586 191.058 52.2099C191.31 52.4612 191.511 52.7599 191.648 53.0889C191.785 53.4179 191.856 53.7707 191.856 54.1271C191.852 54.846 191.564 55.5343 191.054 56.0414C190.545 56.5484 189.855 56.8331 189.136 56.8331C188.42 56.8283 187.735 56.5415 187.23 56.0349C186.724 55.5283 186.439 54.8427 186.436 54.1271ZM172.668 54.1271C172.668 53.411 172.953 52.7242 173.459 52.2179C173.965 51.7115 174.652 51.4271 175.368 51.4271C175.724 51.4263 176.076 51.4957 176.404 51.6313C176.733 51.767 177.031 51.9662 177.283 52.2175C177.534 52.4688 177.734 52.7674 177.869 53.0959C178.005 53.4244 178.075 53.7766 178.074 54.1321C178.074 54.8496 177.788 55.5375 177.281 56.0449C176.774 56.5523 176.086 56.8375 175.368 56.8381C174.65 56.8346 173.963 56.5467 173.457 56.0374C172.951 55.5282 172.667 54.839 172.668 54.1211V54.1271ZM158.898 54.1271C158.897 53.7721 158.967 53.4204 159.102 53.0923C159.238 52.7641 159.436 52.4659 159.687 52.2146C159.938 51.9634 160.236 51.7641 160.564 51.6281C160.892 51.4921 161.243 51.4221 161.598 51.4221C161.954 51.421 162.307 51.4903 162.636 51.6261C162.965 51.7618 163.264 51.9612 163.515 52.2129C163.767 52.4645 163.966 52.7635 164.102 53.0925C164.238 53.4215 164.307 53.7742 164.306 54.1301C164.304 54.8455 164.019 55.531 163.513 56.0369C163.007 56.5428 162.321 56.828 161.606 56.8301C160.89 56.8277 160.203 56.5422 159.696 56.0359C159.189 55.5296 158.903 54.8435 158.9 54.1271H158.898ZM145.126 54.1271C145.125 53.7718 145.194 53.4199 145.329 53.0914C145.464 52.7629 145.663 52.4643 145.914 52.2127C146.165 51.9611 146.463 51.7615 146.791 51.6254C147.119 51.4892 147.471 51.4191 147.826 51.4191C148.543 51.4193 149.23 51.7036 149.738 52.2097C150.245 52.7157 150.532 53.4023 150.534 54.1191C150.532 54.8368 150.246 55.5246 149.739 56.0322C149.231 56.5398 148.544 56.826 147.826 56.8281C147.11 56.8267 146.424 56.5417 145.918 56.0354C145.412 55.5292 145.127 54.8429 145.126 54.1271ZM131.358 54.1271C131.357 53.7723 131.427 53.4208 131.562 53.0929C131.697 52.7649 131.896 52.467 132.147 52.2161C132.398 51.9652 132.696 51.7664 133.024 51.631C133.352 51.4956 133.703 51.4263 134.058 51.4271C134.414 51.4263 134.766 51.4957 135.094 51.6313C135.423 51.767 135.721 51.9662 135.973 52.2175C136.224 52.4688 136.424 52.7674 136.559 53.0959C136.695 53.4244 136.765 53.7766 136.764 54.1321C136.762 54.8475 136.477 55.533 135.971 56.0389C135.465 56.5448 134.779 56.83 134.064 56.8321C133.708 56.8329 133.355 56.7632 133.026 56.6272C132.697 56.4912 132.399 56.2915 132.147 56.0395C131.896 55.7875 131.696 55.4883 131.561 55.1591C131.426 54.8298 131.357 54.4771 131.358 54.1211V54.1271ZM117.587 54.1271C117.586 53.7714 117.655 53.419 117.79 53.0902C117.925 52.7613 118.125 52.4626 118.376 52.2111C118.628 51.9596 118.926 51.7604 119.255 51.625C119.584 51.4896 119.936 51.4206 120.292 51.4221C120.647 51.421 120.999 51.49 121.328 51.6252C121.656 51.7604 121.955 51.959 122.206 52.2097C122.458 52.4604 122.657 52.7583 122.793 53.0863C122.93 53.4143 123 53.7659 123 54.1211C123 54.8376 122.716 55.5249 122.21 56.032C121.703 56.5392 121.017 56.8247 120.3 56.8261C119.944 56.8278 119.592 56.7592 119.263 56.6244C118.934 56.4895 118.635 56.291 118.383 56.0402C118.131 55.7894 117.931 55.4913 117.794 55.163C117.658 54.8347 117.587 54.4826 117.587 54.1271Z" fill="#9F7BF9"/>
<path opacity="0.8" d="M258.005 56.8331C257.29 56.8293 256.605 56.5474 256.095 56.0471C255.593 55.5328 255.307 54.8458 255.295 54.1271C255.302 53.4103 255.589 52.7246 256.095 52.2171C256.473 51.8374 256.955 51.5785 257.481 51.4732C258.006 51.3678 258.551 51.4208 259.046 51.6253C259.542 51.8298 259.965 52.1768 260.263 52.6221C260.561 53.0675 260.72 53.5912 260.72 54.1271C260.716 54.8454 260.428 55.5331 259.919 56.04C259.41 56.547 258.721 56.832 258.003 56.8331H258.005Z" fill="#9F7BF9"/>
<path opacity="0.8" d="M106.51 70.3431C105.796 70.3422 105.11 70.0611 104.601 69.5601C104.1 69.0461 103.818 68.3578 103.815 67.6401C103.819 66.9267 104.101 66.2429 104.601 65.7341C105.12 65.2482 105.804 64.9778 106.515 64.9778C107.226 64.9778 107.91 65.2482 108.429 65.7341C108.93 66.2399 109.213 66.9221 109.217 67.6341C109.213 68.353 108.93 69.0423 108.427 69.5561C107.916 70.06 107.227 70.3427 106.51 70.3431Z" fill="#9F7BF9"/>
<path opacity="0.8" d="M241.529 67.6381C241.532 66.9217 241.819 66.2357 242.326 65.7299C242.834 65.224 243.521 64.9394 244.237 64.9381C244.953 64.9381 245.64 65.2226 246.146 65.7289C246.653 66.2353 246.937 66.922 246.937 67.6381C246.939 67.9933 246.87 68.3454 246.735 68.674C246.6 69.0025 246.401 69.3012 246.15 69.5526C245.899 69.804 245.601 70.0033 245.273 70.139C244.944 70.2747 244.592 70.344 244.237 70.3431C243.881 70.3442 243.529 70.2749 243.2 70.1394C242.871 70.0039 242.573 69.8047 242.321 69.5533C242.069 69.302 241.87 69.0034 241.734 68.6747C241.598 68.3461 241.528 67.9938 241.529 67.6381ZM227.76 67.6381C227.76 66.922 228.045 66.2353 228.551 65.7289C229.057 65.2226 229.744 64.9381 230.46 64.9381C231.177 64.9384 231.864 65.2227 232.371 65.7288C232.879 66.2349 233.165 66.9214 233.167 67.6381C233.168 67.9937 233.098 68.3459 232.962 68.6745C232.826 69.0031 232.627 69.3017 232.376 69.553C232.124 69.8043 231.825 70.0035 231.497 70.1391C231.168 70.2747 230.816 70.344 230.46 70.3431C230.105 70.3431 229.754 70.2731 229.426 70.1371C229.098 70.0011 228.8 69.8018 228.549 69.5505C228.298 69.2993 228.1 69.001 227.964 68.6729C227.829 68.3447 227.759 67.9931 227.76 67.6381ZM213.987 67.6381C213.989 66.9214 214.275 66.2346 214.782 65.7285C215.29 65.2223 215.977 64.9381 216.694 64.9381C217.411 64.9394 218.099 65.2251 218.606 65.7325C219.114 66.2399 219.399 66.9277 219.4 67.6451C219.4 68.0002 219.33 68.3518 219.194 68.6797C219.058 69.0077 218.858 69.3056 218.607 69.5564C218.356 69.8072 218.057 70.006 217.729 70.1413C217.401 70.2766 217.049 70.3459 216.694 70.3451C216.338 70.346 215.986 70.2766 215.657 70.1409C215.328 70.0052 215.029 69.8058 214.778 69.5543C214.526 69.3027 214.327 69.004 214.191 68.6751C214.055 68.3463 213.986 67.9938 213.987 67.6381ZM200.219 67.6381C200.219 66.922 200.504 66.2353 201.01 65.7289C201.516 65.2226 202.203 64.9381 202.919 64.9381C203.637 64.9397 204.324 65.2254 204.832 65.7327C205.339 66.2399 205.625 66.9276 205.627 67.6451C205.626 68.3615 205.341 69.0484 204.835 69.5556C204.33 70.0628 203.643 70.3492 202.927 70.3521C202.571 70.3532 202.218 70.2836 201.888 70.1476C201.559 70.0115 201.259 69.8115 201.008 69.5592C200.756 69.3069 200.557 69.0072 200.421 68.6775C200.286 68.3478 200.217 67.9945 200.219 67.6381ZM186.436 67.6381C186.438 66.9192 186.726 66.2305 187.235 65.7231C187.744 65.2156 188.434 64.9308 189.153 64.9311C189.87 64.9327 190.557 65.2186 191.063 65.7261C191.569 66.2337 191.853 66.9213 191.853 67.6381C191.854 67.9933 191.785 68.3451 191.65 68.6735C191.514 69.0019 191.316 69.3003 191.065 69.5518C190.814 69.8033 190.516 70.0028 190.188 70.1389C189.86 70.275 189.508 70.3451 189.153 70.3451C188.797 70.346 188.444 70.2768 188.115 70.1413C187.786 70.0058 187.486 69.8068 187.234 69.5556C186.982 69.3044 186.781 69.0059 186.644 68.6772C186.508 68.3486 186.437 67.9961 186.436 67.6401V67.6381ZM172.665 67.6381C172.668 66.921 172.954 66.2342 173.461 65.7272C173.968 65.2201 174.655 64.934 175.372 64.9311C176.088 64.9324 176.775 65.2171 177.282 65.7229C177.789 66.2288 178.076 66.9148 178.079 67.6311C178.08 67.987 178.011 68.3397 177.875 68.6687C177.74 68.9978 177.541 69.2968 177.289 69.5486C177.037 69.8004 176.739 69.9999 176.41 70.1357C176.081 70.2716 175.728 70.341 175.372 70.3401C174.656 70.3385 173.969 70.0538 173.462 69.548C172.955 69.0422 172.668 68.3563 172.665 67.6401V67.6381ZM158.898 67.6381C158.901 66.922 159.187 66.236 159.694 65.7301C160.2 65.2241 160.887 64.9394 161.603 64.9381C162.319 64.9381 163.006 65.2226 163.512 65.7289C164.019 66.2353 164.303 66.922 164.303 67.6381C164.304 67.9938 164.234 68.3461 164.098 68.6747C163.962 69.0034 163.763 69.302 163.511 69.5533C163.26 69.8047 162.961 70.0039 162.632 70.1394C162.303 70.2749 161.951 70.3442 161.595 70.3431C160.879 70.3418 160.193 70.0563 159.688 69.5495C159.183 69.0426 158.899 68.3558 158.9 67.6401L158.898 67.6381ZM145.127 67.6381C145.129 66.9226 145.414 66.2369 145.92 65.7309C146.426 65.225 147.112 64.9399 147.827 64.9381C148.544 64.9407 149.231 65.2267 149.739 65.7338C150.246 66.2409 150.532 66.9279 150.535 67.6451C150.535 68.3612 150.251 69.0479 149.744 69.5543C149.238 70.0606 148.551 70.3451 147.835 70.3451C147.479 70.3474 147.126 70.2789 146.796 70.1436C146.467 70.0084 146.167 69.8091 145.916 69.5573C145.664 69.3055 145.464 69.0062 145.329 68.6768C145.194 68.3473 145.125 67.9943 145.127 67.6381ZM131.357 67.6381C131.357 66.922 131.642 66.2353 132.148 65.7289C132.654 65.2226 133.341 64.9381 134.057 64.9381C134.773 64.9389 135.46 65.2234 135.967 65.7294C136.475 66.2354 136.761 66.9217 136.763 67.6381C136.763 67.9932 136.693 68.3448 136.557 68.6727C136.421 69.0007 136.221 69.2986 135.97 69.5494C135.719 69.8002 135.42 69.999 135.092 70.1343C134.764 70.2696 134.412 70.3389 134.057 70.3381C133.341 70.3381 132.654 70.0536 132.148 69.5473C131.642 69.0409 131.357 68.3542 131.357 67.6381ZM117.587 67.6381C117.585 66.9225 117.867 66.2355 118.372 65.7279C118.876 65.2203 119.561 64.9337 120.277 64.9311C120.995 64.9303 121.684 65.2139 122.194 65.7199C122.703 66.2258 122.992 66.913 122.996 67.6311C122.996 67.9875 122.926 68.3404 122.789 68.6695C122.652 68.9986 122.451 69.2974 122.199 69.5488C121.946 69.8002 121.646 69.9991 121.316 70.1342C120.987 70.2693 120.633 70.3379 120.277 70.3361C119.923 70.3364 119.573 70.2668 119.246 70.1313C118.919 69.9958 118.622 69.7972 118.372 69.5467C118.122 69.2962 117.924 68.9988 117.79 68.6717C117.655 68.3445 117.586 67.9939 117.587 67.6401V67.6381Z" fill="#9F7BF9"/>
<path opacity="0.8" d="M258.017 70.343C257.299 70.3449 256.609 70.0636 256.097 69.56C255.591 69.0484 255.304 68.3597 255.297 67.64C255.302 66.9241 255.589 66.239 256.097 65.7341C256.617 65.2486 257.301 64.9786 258.012 64.9786C258.723 64.9786 259.407 65.2486 259.927 65.7341C260.306 66.1116 260.564 66.593 260.668 67.1173C260.773 67.6416 260.72 68.1852 260.515 68.6791C260.311 69.1731 259.964 69.5952 259.519 69.892C259.074 70.1887 258.552 70.3468 258.017 70.3461V70.343Z" fill="#9F7BF9"/>
<path opacity="0.8" d="M106.523 11.6581C105.987 11.6612 105.463 11.5049 105.016 11.2091C104.57 10.9132 104.221 10.4912 104.015 9.99675C103.809 9.50228 103.755 8.9577 103.859 8.43227C103.963 7.90684 104.222 7.42432 104.601 7.0461C105.121 6.5625 105.804 6.29364 106.514 6.29364C107.224 6.29364 107.907 6.5625 108.427 7.0461C108.804 7.42315 109.061 7.90339 109.165 8.42625C109.27 8.94912 109.217 9.4912 109.014 9.98415C108.811 10.4771 108.466 10.8988 108.024 11.1962C107.581 11.4936 107.06 11.6532 106.527 11.6551L106.523 11.6581Z" fill="#9F7BF9"/>
<path opacity="0.8" d="M241.529 8.95307C241.531 8.23562 241.817 7.54811 242.324 7.04098C242.832 6.53385 243.52 6.2484 244.237 6.24708C244.954 6.2484 245.641 6.53411 246.147 7.04147C246.653 7.54883 246.937 8.23635 246.937 8.95307C246.939 9.30832 246.87 9.66037 246.735 9.98895C246.6 10.3175 246.401 10.6161 246.15 10.8676C245.899 11.119 245.601 11.3183 245.273 11.454C244.944 11.5896 244.592 11.659 244.237 11.6581C243.881 11.6591 243.529 11.5899 243.2 11.4544C242.871 11.3188 242.573 11.1197 242.321 10.8683C242.069 10.617 241.87 10.3184 241.734 9.98971C241.598 9.66103 241.528 9.30874 241.529 8.95307ZM227.759 8.95307C227.761 8.23692 228.045 7.55046 228.551 7.0435C229.057 6.53654 229.743 6.25025 230.459 6.24708C231.176 6.24919 231.863 6.53492 232.37 7.04191C232.878 7.5489 233.164 8.23595 233.166 8.95307C233.166 9.67112 232.881 10.3597 232.373 10.8676C231.865 11.3755 231.177 11.6613 230.459 11.6621C229.742 11.6586 229.056 11.3718 228.55 10.8643C228.045 10.3567 227.76 9.66967 227.759 8.95307ZM213.987 8.95307C213.988 8.23547 214.273 7.5475 214.781 7.04017C215.288 6.53284 215.976 6.24761 216.694 6.24708C217.411 6.24997 218.098 6.53589 218.605 7.04266C219.113 7.54942 219.399 8.23601 219.403 8.95307C219.401 9.67106 219.116 10.3592 218.608 10.8669C218.1 11.3746 217.412 11.6605 216.694 11.6621C216.338 11.663 215.986 11.5935 215.657 11.4577C215.328 11.3219 215.029 11.1223 214.777 10.8706C214.526 10.6188 214.326 10.3198 214.191 9.9907C214.055 9.66162 213.986 9.30899 213.987 8.95307ZM200.223 8.95307C200.222 8.598 200.291 8.24625 200.427 7.91798C200.562 7.58971 200.761 7.29136 201.012 7.04C201.263 6.78865 201.56 6.58923 201.888 6.45316C202.216 6.3171 202.568 6.24708 202.923 6.24708C203.639 6.24998 204.325 6.53619 204.831 7.04321C205.337 7.55022 205.622 8.23684 205.623 8.95307C205.624 9.30865 205.554 9.66087 205.418 9.98948C205.282 10.3181 205.083 10.6166 204.832 10.868C204.58 11.1193 204.281 11.3185 203.953 11.4541C203.624 11.5897 203.272 11.659 202.916 11.6581C202.561 11.6585 202.21 11.5887 201.882 11.4528C201.555 11.3168 201.257 11.1174 201.007 10.866C200.756 10.6145 200.558 10.3161 200.424 9.98779C200.289 9.65949 200.221 9.30784 200.223 8.95307ZM186.436 8.95307C186.438 8.23708 186.723 7.55092 187.229 7.04408C187.735 6.53723 188.42 6.25077 189.136 6.24708C189.492 6.24682 189.844 6.31661 190.172 6.45248C190.501 6.58835 190.799 6.78763 191.051 7.03893C191.302 7.29024 191.502 7.58862 191.638 7.91706C191.774 8.2455 191.844 8.59755 191.844 8.95307C191.845 9.30871 191.777 9.66111 191.641 9.98995C191.506 10.3188 191.306 10.6176 191.055 10.869C190.804 11.1205 190.505 11.3197 190.176 11.4551C189.847 11.5906 189.495 11.6595 189.139 11.6581C188.422 11.6575 187.734 11.3723 187.228 10.8651C186.721 10.3579 186.436 9.67014 186.436 8.95307ZM172.668 8.95307C172.669 8.23684 172.954 7.55022 173.46 7.04321C173.966 6.53619 174.652 6.24998 175.368 6.24708C175.724 6.24721 176.076 6.31741 176.404 6.4537C176.733 6.58998 177.031 6.78967 177.283 7.04135C177.534 7.29302 177.733 7.59176 177.869 7.92046C178.005 8.24917 178.074 8.60141 178.074 8.95707C178.074 9.31215 178.004 9.66374 177.868 9.99171C177.732 10.3197 177.532 10.6176 177.281 10.8684C177.03 11.1192 176.731 11.3179 176.403 11.4533C176.075 11.5886 175.723 11.6579 175.368 11.6571C174.652 11.6539 173.967 11.3679 173.461 10.8614C172.955 10.3548 172.67 9.66888 172.668 8.95307ZM158.897 8.95307C158.899 8.23708 159.184 7.55092 159.69 7.04408C160.196 6.53723 160.881 6.25077 161.597 6.24708C161.953 6.24669 162.305 6.31639 162.633 6.45222C162.962 6.58804 163.261 6.78732 163.512 7.03864C163.764 7.28997 163.963 7.58841 164.099 7.91691C164.235 8.24541 164.305 8.59751 164.305 8.95307C164.306 9.30806 164.236 9.65969 164.101 9.98785C163.966 10.316 163.767 10.6142 163.516 10.8655C163.265 11.1167 162.967 11.3161 162.639 11.4521C162.312 11.5881 161.96 11.6581 161.605 11.6581C161.25 11.6587 160.898 11.5892 160.569 11.4535C160.241 11.3178 159.942 11.1186 159.691 10.8673C159.44 10.616 159.24 10.3175 159.105 9.98901C158.969 9.66052 158.899 9.30848 158.9 8.95307H158.897ZM145.127 8.95307C145.129 8.237 145.414 7.55069 145.92 7.04379C146.425 6.53688 147.111 6.25051 147.827 6.24708C148.544 6.24867 149.231 6.53429 149.738 7.04145C150.245 7.54861 150.531 8.23598 150.532 8.95307C150.533 9.30848 150.463 9.66052 150.327 9.98901C150.192 10.3175 149.993 10.616 149.741 10.8673C149.49 11.1186 149.191 11.3178 148.863 11.4535C148.534 11.5892 148.182 11.6587 147.827 11.6581C147.472 11.6581 147.121 11.5881 146.793 11.4521C146.465 11.3161 146.167 11.1167 145.916 10.8655C145.665 10.6142 145.467 10.316 145.331 9.98785C145.196 9.65969 145.126 9.30806 145.127 8.95307ZM131.357 8.95307C131.356 8.59741 131.426 8.24509 131.562 7.91636C131.697 7.58763 131.897 7.28896 132.148 7.03752C132.4 6.78607 132.698 6.5868 133.027 6.45115C133.356 6.3155 133.708 6.24616 134.064 6.24708C134.779 6.25024 135.464 6.53571 135.97 7.04138C136.475 7.54704 136.761 8.23196 136.764 8.94708C136.765 9.30298 136.695 9.65548 136.559 9.98438C136.423 10.3133 136.223 10.6121 135.972 10.8638C135.72 11.1155 135.421 11.315 135.092 11.4509C134.763 11.5869 134.411 11.6566 134.055 11.6561C133.7 11.6567 133.349 11.5872 133.021 11.4516C132.693 11.3159 132.395 11.1167 132.144 10.8655C131.893 10.6144 131.695 10.3161 131.56 9.98786C131.425 9.65965 131.356 9.30798 131.357 8.95307ZM117.587 8.95307C117.586 8.59758 117.656 8.24543 117.791 7.91683C117.927 7.58823 118.126 7.28965 118.378 7.03823C118.629 6.78681 118.927 6.5875 119.256 6.45173C119.584 6.31596 119.937 6.24642 120.292 6.24708C121.009 6.24997 121.696 6.53593 122.203 7.04272C122.71 7.54951 122.997 8.23611 123 8.95307C122.999 9.67062 122.713 10.3584 122.206 10.8661C121.699 11.3738 121.012 11.66 120.294 11.6621C119.938 11.663 119.586 11.5935 119.257 11.4577C118.928 11.3219 118.629 11.1223 118.377 10.8706C118.126 10.6188 117.926 10.3198 117.791 9.9907C117.655 9.66162 117.586 9.30899 117.587 8.95307Z" fill="#9F7BF9"/>
<path opacity="0.8" d="M258.005 11.6581C257.291 11.6563 256.606 11.3753 256.097 10.8751C255.592 10.3618 255.305 9.67306 255.297 8.95311C255.304 8.23728 255.591 7.5527 256.097 7.04611C256.617 6.56216 257.301 6.29309 258.011 6.29309C258.721 6.29309 259.405 6.56216 259.925 7.04611C260.428 7.55636 260.71 8.24408 260.71 8.9606C260.71 9.67712 260.428 10.3649 259.925 10.8751C259.411 11.3761 258.723 11.657 258.005 11.6581Z" fill="#9F7BF9"/>
</g>
</svg>
