<svg width="99" height="26" viewBox="0 0 99 26" fill="none" xmlns="http://www.w3.org/2000/svg">
<path d="M0.0669922 22.8C2.41699 22.3 4.22533 21.6583 5.49199 20.875C6.77533 20.1083 7.56699 19.1583 7.86699 18.025C6.05033 18.025 4.57533 17.8833 3.44199 17.6C2.30866 17.3 1.51699 16.6917 1.06699 15.775C0.783659 15.175 0.641992 14.5167 0.641992 13.8C0.641992 12.9 0.833659 12 1.21699 11.1C1.61699 10.2 2.14199 9.45833 2.79199 8.875C3.45866 8.29167 4.17533 8 4.94199 8C5.82533 8 6.62533 8.35 7.34199 9.05C8.05866 9.73333 8.63366 10.6333 9.06699 11.75C9.51699 12.85 9.80866 14.0167 9.94199 15.25H10.917L11.067 16.625L10.917 18H9.89199C9.57533 19.8167 8.63366 21.35 7.06699 22.6C5.50033 23.85 3.44199 24.725 0.891992 25.225L0.0669922 22.8ZM2.89199 14.25C3.14199 14.6333 3.70033 14.9 4.56699 15.05C5.45033 15.1833 6.55866 15.25 7.89199 15.25C7.70866 13.95 7.33366 12.85 6.76699 11.95C6.21699 11.0333 5.55033 10.575 4.76699 10.575C4.41699 10.575 4.07533 10.725 3.74199 11.025C3.42533 11.325 3.16699 11.7 2.96699 12.15C2.78366 12.5833 2.69199 13.0083 2.69199 13.425C2.69199 13.775 2.75866 14.05 2.89199 14.25ZM24.5428 18C23.7094 17.9833 23.0178 17.7667 22.4678 17.35C21.9344 16.9167 21.5511 16.3167 21.3178 15.55C20.9178 16.3 20.4178 16.9 19.8178 17.35C19.2344 17.7833 18.5928 18 17.8928 18H17.7928C17.0428 18 16.4094 17.7833 15.8928 17.35C15.3761 16.9167 15.0511 16.3333 14.9178 15.6C13.8178 17.2 12.4261 18 10.7428 18H10.6428L10.4928 16.625L10.6428 15.25H10.7678C11.3678 15.25 11.9261 15.1167 12.4428 14.85C12.9761 14.5833 13.3844 14.2417 13.6678 13.825C14.0011 13.3917 14.2594 12.9167 14.4428 12.4C14.6428 11.8833 14.8178 11.325 14.9678 10.725L17.0678 10.95C17.0511 11.0333 16.9594 11.375 16.7928 11.975C16.6261 12.575 16.5428 13.1417 16.5428 13.675C16.5428 14.1917 16.6428 14.5833 16.8428 14.85C17.0594 15.1167 17.3928 15.25 17.8428 15.25H17.8928C18.3761 15.25 18.8011 15.1167 19.1678 14.85C19.5344 14.5667 19.8678 14.1583 20.1678 13.625C20.5344 12.9417 20.8178 11.9 21.0178 10.5L23.1178 10.6C22.9178 11.65 22.8178 12.475 22.8178 13.075C22.8178 13.7917 22.9594 14.3333 23.2428 14.7C23.5261 15.0667 23.9761 15.25 24.5928 15.25C25.1761 15.25 25.6178 15.0917 25.9178 14.775C26.2178 14.4417 26.3678 13.975 26.3678 13.375C26.3678 12.8417 26.2011 12.0833 25.8678 11.1C25.5511 10.1 25.2678 9.31667 25.0178 8.75L27.0428 7.625C27.3761 8.34167 27.7094 9.26667 28.0428 10.4C28.3928 11.5333 28.5678 12.5417 28.5678 13.425C28.5678 14.2583 28.4011 15.025 28.0678 15.725C27.7344 16.425 27.2678 16.9833 26.6678 17.4C26.0678 17.8 25.3928 18 24.6428 18H24.5428ZM19.7428 3.325L21.5428 5.1L19.7428 6.9L17.9678 5.1L19.7428 3.325ZM22.0678 0.724999L23.6428 2.3L22.0678 3.9L20.4428 2.3L22.0678 0.724999ZM23.4928 4.2L24.3928 3.325L24.9678 3.9C25.7678 4.7 26.1678 5.1 26.1678 5.1L24.3928 6.9L22.5678 5.1L23.4928 4.2ZM50.4084 18C49.6584 18 48.9917 17.8667 48.4084 17.6C47.8251 17.3167 47.3001 16.8917 46.8334 16.325C45.5001 17.5083 43.9417 18.1 42.1584 18.1C40.9751 18.1 39.9584 17.9167 39.1084 17.55C38.2584 17.1833 37.4917 16.75 36.8084 16.25L37.9084 14.275C38.5584 14.6417 39.1751 14.9417 39.7584 15.175C40.3584 15.3917 41.0834 15.5 41.9334 15.5C43.3001 15.5 44.5501 15.1333 45.6834 14.4L42.1834 6.225L44.2584 5.125L47.6834 13.225C48.0001 13.9917 48.3584 14.525 48.7584 14.825C49.1584 15.1083 49.7084 15.25 50.4084 15.25H50.6834L50.8334 16.625L50.6834 18H50.4084ZM50.4365 15.25H51.4865C53.2365 15.25 54.4699 15.0917 55.1865 14.775C55.9032 14.4417 56.2615 13.925 56.2615 13.225C56.2449 12.7583 56.0699 12 55.7365 10.95C55.4032 9.9 55.1282 9.15833 54.9115 8.725L56.9865 7.6C57.3199 8.26667 57.6449 9.15833 57.9615 10.275C58.2949 11.3917 58.4615 12.3667 58.4615 13.2C58.4615 14.7833 57.9115 15.9833 56.8115 16.8C55.7115 17.6 54.0615 18 51.8615 18H50.4365V15.25ZM57.0365 22.15C56.2032 22.9833 55.7865 23.4 55.7865 23.4L55.1365 24.05L53.2615 22.15L55.1365 20.275L57.0365 22.15ZM50.6865 20.275L52.5865 22.15C51.7532 22.9833 51.3365 23.4 51.3365 23.4L50.6865 24.05L48.8115 22.15L50.6865 20.275ZM75.0715 18C73.0715 18 71.7548 16.9667 71.1215 14.9C70.2715 16.0667 69.0548 16.9667 67.4715 17.6C65.8882 18.2167 64.0798 18.6 62.0465 18.75L61.3715 16.125C62.1548 16.0417 62.9048 15.9417 63.6215 15.825C63.7382 15.4583 63.7965 14.9833 63.7965 14.4C63.7965 13.15 63.5132 11.5917 62.9465 9.725C62.3798 7.85833 61.6382 5.875 60.7215 3.775L62.7215 2.4C63.7548 4.58333 64.5548 6.65833 65.1215 8.625C65.6882 10.575 65.9715 12.2667 65.9715 13.7C65.9715 14.2167 65.9132 14.7667 65.7965 15.35C68.6132 14.4833 70.0215 13.0583 70.0215 11.075C70.0215 9.40833 69.9548 7.81667 69.8215 6.3C69.7048 4.76667 69.5132 2.91667 69.2465 0.749999L71.6215 0.224999C71.8715 2.175 72.0632 3.88333 72.1965 5.35C72.3298 6.8 72.3965 8.26667 72.3965 9.75L72.3715 10.975C72.4048 12.4917 72.6132 13.5833 72.9965 14.25C73.3965 14.9167 74.1048 15.25 75.1215 15.25H75.3715V18H75.0715ZM89.0691 18C88.2358 17.9833 87.5441 17.7667 86.9941 17.35C86.4608 16.9167 86.0775 16.3167 85.8441 15.55C85.4441 16.3 84.9441 16.9 84.3441 17.35C83.7608 17.7833 83.1191 18 82.4191 18H82.3191C81.5691 18 80.9358 17.7833 80.4191 17.35C79.9025 16.9167 79.5775 16.3333 79.4441 15.6C78.3441 17.2 76.9525 18 75.2691 18H75.1691L75.0191 16.625L75.1691 15.25H75.2941C75.8941 15.25 76.4525 15.1167 76.9691 14.85C77.5025 14.5833 77.9108 14.2417 78.1941 13.825C78.5275 13.3917 78.7858 12.9167 78.9691 12.4C79.1691 11.8833 79.3441 11.325 79.4941 10.725L81.5941 10.95C81.5775 11.0333 81.4858 11.375 81.3191 11.975C81.1525 12.575 81.0691 13.1417 81.0691 13.675C81.0691 14.1917 81.1691 14.5833 81.3691 14.85C81.5858 15.1167 81.9191 15.25 82.3691 15.25H82.4191C82.9025 15.25 83.3275 15.1167 83.6941 14.85C84.0608 14.5667 84.3941 14.1583 84.6941 13.625C85.0608 12.9417 85.3441 11.9 85.5441 10.5L87.6441 10.6C87.4441 11.65 87.3441 12.475 87.3441 13.075C87.3441 13.7917 87.4858 14.3333 87.7691 14.7C88.0525 15.0667 88.5025 15.25 89.1191 15.25C89.7025 15.25 90.1441 15.0917 90.4441 14.775C90.7441 14.4417 90.8941 13.975 90.8941 13.375C90.8941 12.8417 90.7275 12.0833 90.3941 11.1C90.0775 10.1 89.7941 9.31667 89.5441 8.75L91.5691 7.625C91.9025 8.34167 92.2358 9.26667 92.5691 10.4C92.9191 11.5333 93.0941 12.5417 93.0941 13.425C93.0941 14.2583 92.9275 15.025 92.5941 15.725C92.2608 16.425 91.7941 16.9833 91.1941 17.4C90.5941 17.8 89.9191 18 89.1691 18H89.0691ZM95.8203 17.85C95.9536 16.85 96.0203 15.1 96.0203 12.6C96.0203 10.3167 95.962 7.975 95.8453 5.575C95.7453 3.15833 95.6286 1.55 95.4953 0.749999L97.8703 0.224999C97.987 1.05833 98.1036 2.7 98.2203 5.15C98.337 7.6 98.3953 9.96667 98.3953 12.25C98.3953 14.85 98.312 16.8083 98.1453 18.125L95.8203 17.85Z" fill="#3860AC"/>
</svg>
