<svg width="209" height="55" viewBox="0 0 209 55" fill="none" xmlns="http://www.w3.org/2000/svg">
<path d="M0.450375 47.6931C5.19971 46.6531 8.89171 45.4571 11.5264 44.1051C14.161 42.7878 15.8944 41.1758 16.7264 39.2691C12.913 39.1998 9.82771 38.8184 7.47038 38.1251C5.11304 37.3971 3.46638 36.0278 2.53038 34.0171C1.90638 32.6651 1.59438 31.1744 1.59438 29.5451C1.59438 27.4998 2.02771 25.4718 2.89438 23.4611C3.76104 21.4158 4.95704 19.7518 6.48238 18.4691C8.00771 17.1518 9.67171 16.4931 11.4744 16.4931C13.277 16.4931 14.941 17.1691 16.4664 18.5211C17.9917 19.8731 19.257 21.6931 20.2624 23.9811C21.3024 26.2691 21.9957 28.7651 22.3424 31.4691H24.5264L24.9424 35.3691L24.5264 39.2171H22.1864C21.3197 43.0651 19.205 46.3064 15.8424 48.9411C12.5144 51.5758 8.18104 53.3958 2.84238 54.4011L0.450375 47.6931ZM7.31438 29.6491C7.79971 30.3078 8.85704 30.7758 10.4864 31.0531C12.1157 31.2958 14.2304 31.4344 16.8304 31.4691C16.345 29.1811 15.565 27.2744 14.4904 25.7491C13.4157 24.1891 12.2024 23.4091 10.8504 23.4091C10.157 23.4091 9.49838 23.6691 8.87438 24.1891C8.28504 24.6744 7.81704 25.2984 7.47038 26.0611C7.12371 26.8238 6.95038 27.5518 6.95038 28.2451C6.95038 28.8344 7.07171 29.3024 7.31438 29.6491ZM52.829 39.2171C51.2343 39.1824 49.8477 38.7838 48.669 38.0211C47.525 37.2584 46.641 36.1664 46.017 34.7451C44.145 37.6918 41.8397 39.1824 39.101 39.2171H38.841C37.3503 39.2171 36.0503 38.8184 34.941 38.0211C33.8317 37.2238 33.0517 36.1664 32.601 34.8491C31.4917 36.2704 30.209 37.3624 28.753 38.1251C27.3317 38.8531 25.8063 39.2171 24.177 39.2171H24.021L23.605 35.3691L24.021 31.4691H24.281C25.3557 31.4691 26.413 31.2438 27.453 30.7931C28.493 30.3078 29.273 29.7184 29.793 29.0251C30.521 28.1931 31.0757 27.2571 31.457 26.2171C31.8383 25.1771 32.185 24.0678 32.497 22.8891L37.905 23.4611C37.8703 23.6344 37.6797 24.3278 37.333 25.5411C36.9863 26.7198 36.813 27.7944 36.813 28.7651C36.813 30.5678 37.541 31.4691 38.997 31.4691H39.153C40.921 31.4691 42.2903 30.5158 43.261 28.6091C43.9197 27.2918 44.509 25.2638 45.029 22.5251L50.385 22.7851C50.0037 25.0731 49.813 26.7024 49.813 27.6731C49.813 30.2038 50.8703 31.4691 52.985 31.4691C53.9903 31.4691 54.7877 31.1744 55.377 30.5851C55.9663 29.9958 56.261 29.2331 56.261 28.2971C56.261 27.3611 55.897 25.8704 55.169 23.8251C54.4757 21.7798 53.8863 20.2198 53.401 19.1451L58.705 16.2331C59.3637 17.5851 60.057 19.5264 60.785 22.0571C61.513 24.5531 61.877 26.7371 61.877 28.6091C61.877 30.5158 61.4957 32.2838 60.733 33.9131C60.005 35.5078 58.965 36.7904 57.613 37.7611C56.2957 38.7318 54.7877 39.2171 53.089 39.2171H52.985H52.829ZM42.585 6.8731L46.745 10.9811L42.585 15.1931C42.273 14.8118 41.233 13.7544 39.465 12.0211C39.465 12.0211 39.1183 11.6744 38.425 10.9811L42.585 6.8731ZM47.473 1.2051L51.113 4.8451L47.473 8.5371C47.473 8.5371 46.6583 7.72243 45.029 6.0931L43.781 4.8451L47.473 1.2051ZM52.413 6.8731L56.521 10.9811C56.521 10.9811 55.9663 11.5358 54.857 12.6451L52.413 15.1931C52.413 15.1931 51.477 14.2571 49.605 12.3851L48.201 10.9811L52.413 6.8731ZM104.298 39.2171C102.773 39.2171 101.404 38.9398 100.19 38.3851C99.0118 37.7958 97.9371 36.9291 96.9664 35.7851C94.4358 38.2464 91.2984 39.4771 87.5544 39.4771C83.3251 39.4771 79.3558 38.0904 75.6464 35.3171L78.4544 29.8571C79.5638 30.4464 80.7771 30.9838 82.0944 31.4691C83.4118 31.9198 84.9718 32.1451 86.7744 32.1451C89.5131 32.1451 91.8878 31.5038 93.8984 30.2211L86.7744 13.9451L92.1304 11.0331L99.2544 27.8811C99.8091 29.2678 100.45 30.2211 101.178 30.7411C101.906 31.2264 102.946 31.4691 104.298 31.4691H104.922L105.338 35.3691L104.922 39.2171H104.298ZM104.404 31.4691H106.9C110.332 31.4691 112.759 31.1744 114.18 30.5851C115.601 29.9958 116.312 29.0944 116.312 27.8811C116.277 27.1184 115.879 25.6624 115.116 23.5131C114.353 21.3291 113.799 19.8731 113.452 19.1451L118.964 16.1291C119.657 17.5851 120.351 19.5264 121.044 21.9531C121.737 24.3451 122.084 26.4424 122.084 28.2451C122.049 31.7811 120.853 34.5024 118.496 36.4091C116.139 38.2811 112.655 39.2171 108.044 39.2171H104.404V31.4691ZM114.076 52.4251L109.708 48.0571L114.076 43.6371L115.532 45.0931L118.496 48.0571L114.076 52.4251ZM104.924 43.6371L106.38 45.0931L109.344 48.0571L104.924 52.4251L100.556 48.0571L104.924 43.6371ZM158.067 39.2171C153.63 39.2171 150.666 37.1371 149.175 32.9771C147.095 35.3691 144.304 37.2238 140.803 38.5411C137.302 39.8584 133.471 40.5864 129.311 40.7251L127.491 33.6011C129.016 33.4971 130.542 33.3411 132.067 33.1331C132.448 32.0584 132.639 30.8624 132.639 29.5451C132.639 25.1078 130.594 18.2784 126.503 9.0571L131.963 5.2611C134.008 9.45577 135.551 13.4078 136.591 17.1171C137.666 20.8264 138.203 24.1198 138.203 26.9971C138.203 28.8691 137.96 30.5678 137.475 32.0931C140.248 31.3651 142.415 30.3424 143.975 29.0251C145.535 27.6731 146.315 25.9051 146.315 23.7211C146.28 20.2544 146.124 16.9958 145.847 13.9451C145.57 10.8944 145.154 6.95977 144.599 2.1411L151.099 0.737102C152.208 9.1611 152.711 16.7878 152.607 23.6171V24.0331C152.711 25.9744 152.936 27.4824 153.283 28.5571C153.63 29.5971 154.184 30.3424 154.947 30.7931C155.71 31.2438 156.784 31.4691 158.171 31.4691H158.743V39.2171H158.067ZM187.196 39.2171C185.602 39.1824 184.215 38.7838 183.036 38.0211C181.892 37.2584 181.008 36.1664 180.384 34.7451C178.512 37.6918 176.207 39.1824 173.468 39.2171H173.208C171.718 39.2171 170.418 38.8184 169.308 38.0211C168.199 37.2238 167.419 36.1664 166.968 34.8491C165.859 36.2704 164.576 37.3624 163.12 38.1251C161.699 38.8531 160.174 39.2171 158.544 39.2171H158.388L157.972 35.3691L158.388 31.4691H158.648C159.723 31.4691 160.78 31.2438 161.82 30.7931C162.86 30.3078 163.64 29.7184 164.16 29.0251C164.888 28.1931 165.443 27.2571 165.824 26.2171C166.206 25.1771 166.552 24.0678 166.864 22.8891L172.272 23.4611C172.238 23.6344 172.047 24.3278 171.7 25.5411C171.354 26.7198 171.18 27.7944 171.18 28.7651C171.18 30.5678 171.908 31.4691 173.364 31.4691H173.52C175.288 31.4691 176.658 30.5158 177.628 28.6091C178.287 27.2918 178.876 25.2638 179.396 22.5251L184.752 22.7851C184.371 25.0731 184.18 26.7024 184.18 27.6731C184.18 30.2038 185.238 31.4691 187.352 31.4691C188.358 31.4691 189.155 31.1744 189.744 30.5851C190.334 29.9958 190.628 29.2331 190.628 28.2971C190.628 27.3611 190.264 25.8704 189.536 23.8251C188.843 21.7798 188.254 20.2198 187.768 19.1451L193.072 16.2331C193.731 17.5851 194.424 19.5264 195.152 22.0571C195.88 24.5531 196.244 26.7371 196.244 28.6091C196.244 30.5158 195.863 32.2838 195.1 33.9131C194.372 35.5078 193.332 36.7904 191.98 37.7611C190.663 38.7318 189.155 39.2171 187.456 39.2171H187.352H187.196ZM201.48 38.9051C201.827 36.6171 202 33.0811 202 28.2971C202 23.5131 201.844 18.5038 201.532 13.2691C201.255 7.99977 200.926 4.30777 200.544 2.1931L207.044 0.685099C207.356 2.69577 207.634 6.21443 207.876 11.2411C208.119 16.2678 208.24 21.2078 208.24 26.0611C208.24 32.0584 208.032 36.5651 207.616 39.5811L201.48 38.9051Z" fill="#3860AC"/>
</svg>
