<svg width="194" height="34" viewBox="0 0 194 34" fill="none" xmlns="http://www.w3.org/2000/svg">
<path d="M9.72 32.352C8.01333 32.352 6.44533 32.0107 5.016 31.328C3.58667 30.6453 2.44533 29.6533 1.592 28.352C0.76 27.072 0.344 25.5787 0.344 23.872C0.344 22.6347 0.568 21.2587 1.016 19.744C1.464 18.208 1.976 16.8213 2.552 15.584L5.656 16.992C5.08 18.2507 4.64267 19.3493 4.344 20.288C4.06667 21.2053 3.928 22.144 3.928 23.104C3.928 24.4267 4.46133 25.504 5.528 26.336C6.59467 27.168 7.992 27.584 9.72 27.584C11.896 27.584 13.5387 27.0293 14.648 25.92C15.7573 24.8107 16.28 23.136 16.216 20.896C16.1093 17.2053 15.9173 13.5147 15.64 9.824C15.3627 6.112 15.0853 3.232 14.808 1.184L18.808 0.32C19.1707 3.05067 19.48 9.83467 19.736 20.672C19.7787 23.0827 19.4053 25.1627 18.616 26.912C17.848 28.6613 16.7067 30.0053 15.192 30.944C13.6773 31.8827 11.8533 32.352 9.72 32.352ZM22.1185 29.216C25.1052 28.576 27.3985 27.8293 28.9985 26.976C30.6198 26.144 31.6758 25.1307 32.1665 23.936C31.5905 24.0213 30.9505 24.064 30.2465 24.064C28.6892 24.064 27.2812 23.7973 26.0225 23.264C24.7852 22.7093 23.9105 21.888 23.3985 20.8C23.0145 19.968 22.8225 19.0507 22.8225 18.048C22.8225 16.7893 23.0892 15.5413 23.6225 14.304C24.1558 13.0453 24.8918 12.0213 25.8305 11.232C26.7692 10.4213 27.7932 10.016 28.9025 10.016C30.1825 10.016 31.3452 10.5707 32.3905 11.68C33.4358 12.7893 34.2572 14.24 34.8545 16.032C35.4518 17.824 35.7505 19.6907 35.7505 21.632C35.7505 24.6187 34.6732 27.136 32.5185 29.184C30.3638 31.232 27.3878 32.6187 23.5905 33.344L22.1185 29.216ZM26.3425 18.112C26.6625 18.5387 27.2598 18.8693 28.1345 19.104C29.0092 19.3173 29.9905 19.424 31.0785 19.424C31.5905 19.424 31.9745 19.4133 32.2305 19.392C31.9318 17.9413 31.4412 16.7253 30.7585 15.744C30.0972 14.7627 29.3505 14.272 28.5185 14.272C28.0918 14.272 27.6865 14.432 27.3025 14.752C26.9398 15.072 26.6412 15.4667 26.4065 15.936C26.1932 16.4053 26.0865 16.8427 26.0865 17.248C26.0865 17.5893 26.1718 17.8773 26.3425 18.112ZM39.1105 23.808C39.3238 22.4 39.4305 20.224 39.4305 17.28C39.4305 14.336 39.3345 11.2533 39.1425 8.032C38.9718 4.78933 38.7692 2.51733 38.5345 1.216L42.5345 0.287998C42.7265 1.52533 42.8972 3.69067 43.0465 6.784C43.1958 9.87733 43.2705 12.9173 43.2705 15.904C43.2705 19.5947 43.1425 22.368 42.8865 24.224L39.1105 23.808ZM63.3688 24C62.4301 24 61.5874 23.8293 60.8408 23.488C60.1154 23.1253 59.4541 22.592 58.8568 21.888C57.2994 23.4027 55.3688 24.16 53.0648 24.16C50.4621 24.16 48.0194 23.3067 45.7368 21.6L47.4648 18.24C48.1474 18.6027 48.8941 18.9333 49.7048 19.232C50.5154 19.5093 51.4754 19.648 52.5848 19.648C54.2701 19.648 55.7314 19.2533 56.9688 18.464L52.5848 8.448L55.8808 6.656L60.2648 17.024C60.6061 17.8773 61.0008 18.464 61.4488 18.784C61.8968 19.0827 62.5368 19.232 63.3688 19.232H63.7528L64.0088 21.632L63.7528 24H63.3688ZM63.4337 19.232H63.6578C65.5778 19.232 67.0071 19.136 67.9458 18.944C68.8844 18.7307 69.5031 18.4213 69.8018 18.016C70.1004 17.6107 70.2498 17.024 70.2498 16.256C70.2498 15.6373 70.1431 14.624 69.9298 13.216L73.2258 12.576C73.5244 14.1333 73.6738 15.8933 73.6738 17.856C73.7591 18.2187 73.9938 18.5387 74.3778 18.816C74.7618 19.0933 75.3164 19.232 76.0418 19.232H76.2338L76.4898 21.632L76.2338 24H76.0418C75.1884 24 74.3991 23.7973 73.6738 23.392C72.9484 22.9867 72.3298 22.4533 71.8177 21.792C71.1991 22.5813 70.2604 23.1467 69.0018 23.488C67.7431 23.8293 65.9618 24 63.6578 24H63.4337V19.232ZM65.9618 4.928L68.6498 7.616L65.9618 10.336L65.0658 9.44L63.2417 7.616L65.9618 4.928ZM71.5938 4.928L74.2818 7.616L71.5938 10.336L70.6978 9.44L68.8738 7.616L71.5938 4.928ZM75.9985 19.232H76.5745C78.2385 19.232 79.6038 18.2293 80.6705 16.224C81.7372 14.24 82.7612 12.7573 83.7425 11.776C84.7238 10.7733 85.8225 10.272 87.0385 10.272C88.1905 10.272 89.2038 10.6453 90.0785 11.392C90.9532 12.1173 91.6145 13.0667 92.0625 14.24C92.5318 15.392 92.7665 16.608 92.7665 17.888C92.7665 19.1253 92.5318 20.2773 92.0625 21.344C91.5932 22.3893 90.9105 23.1787 90.0145 23.712C89.5452 24.0107 88.9692 24.16 88.2865 24.16C86.6438 24.16 84.4678 23.3067 81.7585 21.6C80.4358 23.2 78.6865 24 76.5105 24H75.9025L75.9985 19.232ZM83.8065 17.824C84.8092 18.4427 85.7158 18.9333 86.5265 19.296C87.3372 19.6373 87.9558 19.808 88.3825 19.808C88.5958 19.808 88.7452 19.776 88.8305 19.712C89.0438 19.5627 89.2038 19.3493 89.3105 19.072C89.4385 18.7733 89.5025 18.432 89.5025 18.048C89.5025 17.1947 89.2678 16.4053 88.7985 15.68C88.3292 14.9333 87.7105 14.56 86.9425 14.56C85.9825 14.56 84.9372 15.648 83.8065 17.824ZM114.131 24.384C110.419 24.3627 107.496 23.7653 105.363 22.592C103.229 21.4187 102.067 19.7973 101.875 17.728C101.853 17.5573 101.843 17.3013 101.843 16.96C101.843 16.0427 101.971 15.0507 102.227 13.984C102.483 12.9173 102.792 11.968 103.155 11.136L106.227 12.608C105.608 14.5493 105.331 15.9467 105.395 16.8C105.544 17.6107 106.387 18.2827 107.923 18.816C109.48 19.328 111.603 19.5947 114.291 19.616C116.232 19.616 117.875 19.5093 119.219 19.296C120.584 19.0827 121.608 18.8373 122.291 18.56C122.973 18.2827 123.336 18.0587 123.379 17.888C123.208 16.8853 122.909 15.776 122.483 14.56C122.077 13.3227 121.725 12.352 121.427 11.648L124.787 9.792C125.299 10.944 125.747 12.256 126.131 13.728C126.515 15.1787 126.707 16.4587 126.707 17.568C126.707 19.7867 125.587 21.472 123.347 22.624C121.107 23.7547 118.141 24.3413 114.451 24.384H114.163H114.131ZM111.443 7.776L114.131 10.464L111.443 13.184L110.547 12.288L108.723 10.464L111.443 7.776ZM117.075 7.776L119.763 10.464L117.075 13.184L116.179 12.288L114.355 10.464L117.075 7.776ZM144.544 0.32C145.227 5.504 145.536 10.1973 145.472 14.4C145.451 16.5973 144.779 18.4747 143.456 20.032C142.133 21.5893 140.384 22.7733 138.208 23.584C136.053 24.3947 133.696 24.8427 131.136 24.928L130.016 20.544C130.955 20.48 131.893 20.384 132.832 20.256C133.067 19.5947 133.184 18.8587 133.184 18.048C133.184 15.3173 131.925 11.1147 129.408 5.44L132.768 3.104C134.027 5.68533 134.976 8.11733 135.616 10.4C136.277 12.6827 136.608 14.7093 136.608 16.48C136.608 17.632 136.459 18.6773 136.16 19.616C137.867 19.168 139.2 18.5387 140.16 17.728C141.12 16.896 141.6 15.808 141.6 14.464C141.579 12.3307 141.483 10.3253 141.312 8.448C141.141 6.57067 140.885 4.14933 140.544 1.184L144.544 0.32ZM149.267 23.808C149.48 22.4 149.587 20.224 149.587 17.28C149.587 14.336 149.491 11.2533 149.299 8.032C149.128 4.78933 148.925 2.51733 148.691 1.216L152.691 0.287998C152.883 1.52533 153.053 3.69067 153.203 6.784C153.352 9.87733 153.427 12.9173 153.427 15.904C153.427 19.5947 153.299 22.368 153.043 24.224L149.267 23.808ZM156.181 29.216C159.104 28.576 161.376 27.84 162.997 27.008C164.618 26.1973 165.685 25.2053 166.197 24.032C163.85 23.9893 161.952 23.7547 160.501 23.328C159.05 22.88 158.037 22.0373 157.461 20.8C157.077 19.968 156.885 19.0507 156.885 18.048C156.885 16.7893 157.152 15.5413 157.685 14.304C158.218 13.0453 158.954 12.0213 159.893 11.232C160.832 10.4213 161.856 10.016 162.965 10.016C164.074 10.016 165.098 10.432 166.037 11.264C166.976 12.096 167.754 13.216 168.373 14.624C169.013 16.032 169.44 17.568 169.653 19.232H170.997L171.253 21.632L170.997 24H169.557C169.024 26.368 167.722 28.3627 165.653 29.984C163.605 31.6053 160.938 32.7253 157.653 33.344L156.181 29.216ZM160.405 18.112C160.704 18.5173 161.354 18.8053 162.357 18.976C163.36 19.1253 164.661 19.2107 166.261 19.232C165.962 17.824 165.482 16.6507 164.821 15.712C164.16 14.752 163.413 14.272 162.581 14.272C162.154 14.272 161.749 14.432 161.365 14.752C161.002 15.0507 160.714 15.4347 160.501 15.904C160.288 16.3733 160.181 16.8213 160.181 17.248C160.181 17.6107 160.256 17.8987 160.405 18.112ZM188.414 24C187.433 23.9787 186.579 23.7333 185.854 23.264C185.15 22.7947 184.606 22.1227 184.222 21.248C183.07 23.0613 181.651 23.9787 179.966 24H179.806C178.889 24 178.089 23.7547 177.406 23.264C176.723 22.7733 176.243 22.1227 175.966 21.312C175.283 22.1867 174.494 22.8587 173.598 23.328C172.723 23.776 171.785 24 170.782 24H170.686L170.43 21.632L170.686 19.232H170.846C171.507 19.232 172.158 19.0933 172.798 18.816C173.438 18.5173 173.918 18.1547 174.238 17.728C174.686 17.216 175.027 16.64 175.262 16C175.497 15.36 175.71 14.6773 175.902 13.952L179.23 14.304C179.209 14.4107 179.091 14.8373 178.878 15.584C178.665 16.3093 178.558 16.9707 178.558 17.568C178.558 18.6773 179.006 19.232 179.902 19.232H179.998C181.086 19.232 181.929 18.6453 182.526 17.472C182.931 16.6613 183.294 15.4133 183.614 13.728L186.91 13.888C186.675 15.296 186.558 16.2987 186.558 16.896C186.558 18.4533 187.209 19.232 188.51 19.232C189.129 19.232 189.619 19.0507 189.982 18.688C190.345 18.3253 190.526 17.856 190.526 17.28C190.526 16.704 190.302 15.7867 189.854 14.528C189.427 13.2693 189.065 12.3093 188.766 11.648L192.03 9.856C192.435 10.688 192.862 11.8827 193.31 13.44C193.758 14.976 193.982 16.32 193.982 17.472C193.982 18.6453 193.747 19.7333 193.278 20.736C192.83 21.7173 192.19 22.5067 191.358 23.104C190.547 23.7013 189.619 24 188.574 24H188.51H188.414Z" fill="#1C49A0"/>
</svg>
