<svg width="28" height="28" viewBox="0 0 28 28" fill="none" xmlns="http://www.w3.org/2000/svg">
<circle cx="14" cy="13.9998" r="13.125" fill="#BACEE6" stroke="#05478A" stroke-width="1.75"/>
<path d="M19.2909 20.2662C19.2401 20.389 19.1627 20.4998 19.0638 20.5913C18.965 20.6828 18.847 20.7528 18.7178 20.7967C18.5886 20.8405 18.4512 20.8571 18.3148 20.8454C18.1784 20.8337 18.0462 20.7939 17.9271 20.7288L14.2316 17.9559L11.8606 20.0691C11.8055 20.1083 11.7412 20.1336 11.6734 20.1425C11.6056 20.1515 11.5366 20.1439 11.4727 20.1203L11.9273 16.1923L11.9409 16.2041L11.9504 16.1266C11.9504 16.1266 18.5994 10.2811 18.8703 10.0327C19.1453 9.78434 19.0541 9.73046 19.0541 9.73046C19.0704 9.4282 18.5627 9.73046 18.5627 9.73046L9.75222 15.2027L6.08403 13.9963C6.08403 13.9963 5.52053 13.8018 5.46744 13.372C5.41164 12.9463 6.10172 12.715 6.10172 12.715L20.6888 7.11919C20.6888 7.11919 21.8879 6.60404 21.8879 7.45825L19.2909 20.2662Z" fill="#05478A"/>
</svg>
