<svg width="28" height="28" viewBox="0 0 28 28" fill="none" xmlns="http://www.w3.org/2000/svg">
<path opacity="0.2" d="M20.16 1.11987H7.83999C6.05774 1.11987 4.34848 1.82787 3.08824 3.08812C1.82799 4.34836 1.12 6.05762 1.12 7.83987V20.1599C1.12 21.9421 1.82799 23.6514 3.08824 24.9116C4.34848 26.1719 6.05774 26.8799 7.83999 26.8799H20.16C21.9422 26.8799 23.6515 26.1719 24.9118 24.9116C26.172 23.6514 26.88 21.9421 26.88 20.1599V7.83987C26.88 6.05762 26.172 4.34836 24.9118 3.08812C23.6515 1.82787 21.9422 1.11987 20.16 1.11987ZM14 19.5999C12.8924 19.5999 11.8097 19.2714 10.8888 18.6561C9.96789 18.0408 9.25012 17.1662 8.82627 16.1429C8.40242 15.1196 8.29152 13.9937 8.5076 12.9074C8.72367 11.8211 9.25702 10.8232 10.0402 10.0401C10.8234 9.2569 11.8212 8.72355 12.9075 8.50747C13.9938 8.2914 15.1198 8.4023 16.143 8.82615C17.1663 9.25 18.0409 9.96776 18.6562 10.8887C19.2716 11.8096 19.6 12.8923 19.6 13.9999C19.6 15.4851 19.01 16.9095 17.9598 17.9597C16.9096 19.0099 15.4852 19.5999 14 19.5999Z" fill="#05478A"/>
<path d="M14 7.27991C12.6709 7.27991 11.3717 7.67403 10.2666 8.41243C9.1615 9.15084 8.30018 10.2004 7.79156 11.4283C7.28294 12.6562 7.14986 14.0074 7.40916 15.3109C7.66845 16.6145 8.30847 17.8119 9.24827 18.7517C10.1881 19.6915 11.3855 20.3315 12.689 20.5908C13.9926 20.8501 15.3437 20.717 16.5717 20.2084C17.7996 19.6998 18.8491 18.8384 19.5875 17.7333C20.3259 16.6282 20.72 15.329 20.72 13.9999C20.718 12.2183 20.0094 10.5102 18.7496 9.25036C17.4898 7.99055 15.7817 7.28191 14 7.27991ZM14 18.4799C13.114 18.4799 12.2478 18.2172 11.5111 17.7249C10.7743 17.2326 10.2001 16.5329 9.86105 15.7143C9.52197 14.8957 9.43325 13.9949 9.60611 13.1259C9.77898 12.2569 10.2057 11.4586 10.8322 10.8321C11.4587 10.2055 12.257 9.77885 13.126 9.60599C13.9951 9.43313 14.8958 9.52185 15.7145 9.86093C16.5331 10.2 17.2327 10.7742 17.725 11.511C18.2173 12.2477 18.48 13.1138 18.48 13.9999C18.4787 15.1877 18.0062 16.3264 17.1664 17.1662C16.3265 18.0061 15.1878 18.4785 14 18.4799Z" fill="#05478A"/>
<path d="M20.16 -0.000244141H7.84C5.76143 0.0021273 3.76867 0.828887 2.2989 2.29866C0.829131 3.76843 0.00237144 5.76119 0 7.83976V20.1598C0.00237144 22.2383 0.829131 24.2311 2.2989 25.7009C3.76867 27.1706 5.76143 27.9974 7.84 27.9998H20.16C22.2386 27.9974 24.2313 27.1706 25.7011 25.7009C27.1709 24.2311 27.9976 22.2383 28 20.1598V7.83976C27.9976 5.76119 27.1709 3.76843 25.7011 2.29866C24.2313 0.828887 22.2386 0.0021273 20.16 -0.000244141ZM25.76 20.1598C25.7583 21.6445 25.1678 23.0679 24.118 24.1177C23.0681 25.1676 21.6447 25.7581 20.16 25.7598H7.84C6.3553 25.7581 4.93189 25.1676 3.88204 24.1177C2.8322 23.0679 2.24167 21.6445 2.24 20.1598V7.83976C2.24167 6.35505 2.8322 4.93164 3.88204 3.8818C4.93189 2.83196 6.3553 2.24142 7.84 2.23976H20.16C21.6447 2.24142 23.0681 2.83196 24.118 3.8818C25.1678 4.93164 25.7583 6.35505 25.76 7.83976V20.1598Z" fill="#05478A"/>
<path d="M21.28 8.39931C22.2078 8.39931 22.96 7.64714 22.96 6.71931C22.96 5.79147 22.2078 5.03931 21.28 5.03931C20.3521 5.03931 19.6 5.79147 19.6 6.71931C19.6 7.64714 20.3521 8.39931 21.28 8.39931Z" fill="#05478A"/>
</svg>
