<svg width="174" height="37" viewBox="0 0 174 37" fill="none" xmlns="http://www.w3.org/2000/svg">
<path d="M12.568 27.384C8.856 27.3627 5.93333 26.7653 3.8 25.592C1.66667 24.4187 0.504 22.7973 0.312 20.728C0.290667 20.5573 0.28 20.3013 0.28 19.96C0.28 19.0427 0.408 18.0507 0.664 16.984C0.92 15.9173 1.22933 14.968 1.592 14.136L4.664 15.608C4.04533 17.5493 3.768 18.9467 3.832 19.8C3.98133 20.6107 4.824 21.2827 6.36 21.816C7.91733 22.328 10.04 22.5947 12.728 22.616C14.6693 22.616 16.312 22.5093 17.656 22.296C19.0213 22.0827 20.0453 21.8373 20.728 21.56C21.4107 21.2827 21.7733 21.0587 21.816 20.888C21.6453 19.8853 21.3467 18.776 20.92 17.56C20.5147 16.3227 20.1627 15.352 19.864 14.648L23.224 12.792C23.736 13.944 24.184 15.256 24.568 16.728C24.952 18.1787 25.144 19.4587 25.144 20.568C25.144 22.7867 24.024 24.472 21.784 25.624C19.544 26.7547 16.5787 27.3413 12.888 27.384H12.6H12.568ZM9.88 10.776L12.568 13.464L9.88 16.184L8.984 15.288L7.16 13.464L9.88 10.776ZM15.512 10.776L18.2 13.464L15.512 16.184L14.616 15.288L12.792 13.464L15.512 10.776ZM42.9815 3.32C43.6642 8.504 43.9735 13.1973 43.9095 17.4C43.8882 19.5973 43.2162 21.4747 41.8935 23.032C40.5708 24.5893 38.8215 25.7733 36.6455 26.584C34.4908 27.3947 32.1335 27.8427 29.5735 27.928L28.4535 23.544C29.3922 23.48 30.3308 23.384 31.2695 23.256C31.5042 22.5947 31.6215 21.8587 31.6215 21.048C31.6215 18.3173 30.3628 14.1147 27.8455 8.44L31.2055 6.104C32.4642 8.68533 33.4135 11.1173 34.0535 13.4C34.7148 15.6827 35.0455 17.7093 35.0455 19.48C35.0455 20.632 34.8962 21.6773 34.5975 22.616C36.3042 22.168 37.6375 21.5387 38.5975 20.728C39.5575 19.896 40.0375 18.808 40.0375 17.464C40.0162 15.3307 39.9202 13.3253 39.7495 11.448C39.5788 9.57067 39.3228 7.14933 38.9815 4.184L42.9815 3.32ZM54.2093 27C51.8626 27 50.1666 26.328 49.1213 24.984C48.0973 23.64 47.5853 21.592 47.5853 18.84C47.5639 16.216 47.4786 13.56 47.3293 10.872C47.2013 8.16267 47.0093 5.93333 46.7533 4.184L50.7213 3.32C50.9346 4.87733 51.1053 6.98933 51.2333 9.656C51.3613 12.3013 51.4253 14.7547 51.4253 17.016V18.232C51.4039 19.32 51.4573 20.1413 51.5853 20.696C51.7133 21.2507 51.9693 21.6453 52.3533 21.88C52.7586 22.1147 53.3773 22.232 54.2093 22.232H54.3693L54.6253 24.632L54.3693 27H54.2093ZM54.0267 22.232H54.7948C55.7121 22.232 56.3734 22.2213 56.7788 22.2C56.2028 21.2613 55.9148 20.2693 55.9148 19.224C55.9148 19.032 55.9361 18.7653 55.9788 18.424C56.1708 17.1653 56.5654 16.024 57.1628 15C57.7601 13.976 58.4854 13.1653 59.3388 12.568C60.2134 11.9707 61.1308 11.672 62.0908 11.672C63.2001 11.672 64.1814 12.0133 65.0348 12.696C65.8881 13.3787 66.5388 14.2533 66.9868 15.32C67.4348 16.3867 67.6588 17.4853 67.6588 18.616C67.6588 18.8507 67.6374 19.1813 67.5948 19.608C67.4668 20.5253 67.2001 21.4 66.7948 22.232H69.4828L69.7388 24.632L69.4828 27H67.5628C65.5574 27 63.6801 26.6907 61.9308 26.072C60.0748 26.6907 57.6961 27 54.7948 27H54.0267V22.232ZM59.3068 18.712C59.3494 19.2027 59.5734 19.6933 59.9788 20.184C60.4054 20.6747 60.9921 21.0907 61.7388 21.432C62.9334 20.984 63.7654 20.216 64.2348 19.128L64.2668 18.776C64.2668 18.1147 64.0534 17.5067 63.6267 16.952C63.2001 16.376 62.6241 16.088 61.8988 16.088C61.2374 16.088 60.6614 16.3547 60.1708 16.888C59.6801 17.4213 59.3921 18.0293 59.3068 18.712ZM59.2748 4.472L61.9628 7.16L59.2748 9.88L58.3788 8.984L56.5548 7.16L59.2748 4.472ZM64.9068 4.472L67.5948 7.16L64.9068 9.88L64.0108 8.984L62.1868 7.16L64.9068 4.472ZM69.1547 22.232H69.7308C71.3948 22.232 72.7601 21.2293 73.8268 19.224C74.8934 17.24 75.9174 15.7573 76.8988 14.776C77.8801 13.7733 78.9788 13.272 80.1948 13.272C81.3468 13.272 82.3601 13.6453 83.2348 14.392C84.1094 15.1173 84.7708 16.0667 85.2188 17.24C85.6881 18.392 85.9228 19.608 85.9228 20.888C85.9228 22.1253 85.6881 23.2773 85.2188 24.344C84.7494 25.3893 84.0668 26.1787 83.1708 26.712C82.7014 27.0107 82.1254 27.16 81.4428 27.16C79.8001 27.16 77.6241 26.3067 74.9148 24.6C73.5921 26.2 71.8428 27 69.6668 27H69.0587L69.1547 22.232ZM76.9628 20.824C77.9654 21.4427 78.8721 21.9333 79.6828 22.296C80.4934 22.6373 81.1121 22.808 81.5388 22.808C81.7521 22.808 81.9014 22.776 81.9868 22.712C82.2001 22.5627 82.3601 22.3493 82.4668 22.072C82.5948 21.7733 82.6588 21.432 82.6588 21.048C82.6588 20.1947 82.4241 19.4053 81.9548 18.68C81.4854 17.9333 80.8668 17.56 80.0988 17.56C79.1388 17.56 78.0934 18.648 76.9628 20.824ZM117.623 27C117.004 27 116.417 26.8613 115.863 26.584C115.777 28.376 115.276 30.008 114.359 31.48C113.441 32.9733 112.183 34.1573 110.583 35.032C108.983 35.9067 107.159 36.344 105.111 36.344C103.127 36.344 101.377 35.96 99.8628 35.192C98.3481 34.4453 97.1641 33.368 96.3108 31.96C95.4788 30.552 95.0628 28.8987 95.0628 27C95.0628 26.616 95.0734 26.3173 95.0948 26.104C95.1588 24.888 95.4041 23.6187 95.8307 22.296C96.2788 20.9733 96.7694 19.7573 97.3028 18.648L100.375 20.056C99.8201 21.336 99.3934 22.4667 99.0948 23.448C98.7961 24.408 98.6468 25.3893 98.6468 26.392C98.6468 28.1413 99.2014 29.4427 100.311 30.296C101.42 31.1707 103.02 31.608 105.111 31.608C106.604 31.608 107.905 31.3413 109.015 30.808C110.145 30.296 110.999 29.6133 111.575 28.76C112.172 27.928 112.471 27.0427 112.471 26.104C112.471 24.888 111.788 22.328 110.423 18.424L113.847 16.632C114.273 17.8267 114.615 18.8507 114.871 19.704C115.212 20.664 115.575 21.3253 115.959 21.688C116.343 22.0507 116.897 22.232 117.623 22.232H117.847L118.103 24.632L117.847 27H117.623ZM105.783 13.784C106.444 14.424 107.095 15.0747 107.735 15.736L108.727 16.728L105.783 19.672L102.807 16.728L105.783 13.784ZM117.335 24.632L117.591 22.232H120.28C122.392 22.232 123.885 22.0507 124.76 21.688C125.634 21.3253 126.072 20.7707 126.072 20.024C126.05 19.5547 125.805 18.6587 125.336 17.336C124.866 15.992 124.525 15.096 124.312 14.648L127.704 12.792C128.13 13.688 128.557 14.8827 128.984 16.376C129.41 17.848 129.624 19.1387 129.624 20.248C129.602 22.424 128.866 24.0987 127.416 25.272C125.965 26.424 123.821 27 120.984 27H117.591L117.335 24.632ZM120.28 29.688L121.176 30.584L123 32.408L120.28 35.096L117.591 32.408L120.28 29.688ZM125.911 29.688L126.808 30.584L128.632 32.408L125.911 35.096L123.224 32.408L125.911 29.688ZM142.49 27C141.807 27 141.178 26.872 140.602 26.616C140.474 28.6213 139.599 30.4667 137.978 32.152C136.356 33.8587 134.212 35.256 131.546 36.344L129.594 32.312C131.002 31.736 132.292 31.064 133.466 30.296C134.639 29.5493 135.556 28.8027 136.218 28.056C136.9 27.3093 137.242 26.6693 137.242 26.136C137.242 25.2613 136.676 22.8827 135.546 19L135.386 18.36L138.97 16.952C139.204 17.6133 139.482 18.5627 139.802 19.8C140.079 20.6747 140.42 21.304 140.826 21.688C141.252 22.0507 141.807 22.232 142.49 22.232H142.778L143.034 24.632L142.778 27H142.49ZM142.464 22.232H144.864C147.275 22.232 149.536 21.9867 151.648 21.496C153.76 20.984 155.99 20.1307 158.336 18.936C157.76 18.7013 157.003 18.3493 156.064 17.88C154.187 16.92 152.555 16.44 151.168 16.44C150.358 16.44 149.632 16.664 148.992 17.112C148.374 17.5387 147.894 18.0293 147.552 18.584L144.864 16.632C146.486 13.4533 148.63 11.864 151.296 11.864C152.192 11.864 153.056 12.0133 153.888 12.312C154.72 12.6107 155.936 13.1653 157.536 13.976C158.774 14.616 159.819 15.1067 160.672 15.448C161.547 15.7893 162.507 16.0667 163.552 16.28L163.712 20.568C163.136 20.7387 162.006 21.2827 160.32 22.2C160.192 22.2853 160.075 22.36 159.968 22.424C159.862 22.4667 159.766 22.5093 159.68 22.552C157.568 23.6613 155.734 24.5253 154.176 25.144C152.619 25.7627 151.03 26.232 149.408 26.552C147.787 26.8507 145.952 27 143.904 27H142.464V22.232ZM151.712 3.768C152.374 4.408 153.024 5.05867 153.664 5.72L154.656 6.712L151.712 9.656L148.736 6.712L151.712 3.768ZM166.704 26.808C166.832 25.7413 166.896 23.9813 166.896 21.528C166.896 18.9893 166.81 16.2907 166.64 13.432C166.49 10.5733 166.32 8.46133 166.128 7.096L170.128 6.2C170.277 7.544 170.416 9.56 170.544 12.248C170.693 14.936 170.768 17.5707 170.768 20.152C170.768 22.904 170.672 25.2613 170.48 27.224L166.704 26.808ZM162.639 3.992C163.066 3.05333 163.589 2.328 164.207 1.816C164.805 1.28267 165.466 1.016 166.192 1.016C166.554 1.016 166.874 1.06933 167.152 1.176C167.45 1.26133 167.802 1.38933 168.208 1.56C168.89 1.88 169.434 2.04 169.84 2.04C170.202 2.04 170.565 1.93333 170.928 1.72C171.312 1.48533 171.632 1.18667 171.888 0.823999L173.328 2.04C172.858 2.76533 172.325 3.33066 171.728 3.736C171.13 4.12 170.501 4.312 169.84 4.312C169.477 4.312 169.146 4.26933 168.848 4.184C168.57 4.07733 168.197 3.928 167.728 3.736C167.088 3.416 166.586 3.256 166.224 3.256C165.818 3.256 165.434 3.40533 165.072 3.704C164.709 3.98133 164.421 4.38667 164.207 4.92L162.639 3.992Z" fill="#1C49A0"/>
</svg>
