<svg width="29" height="28" viewBox="0 0 29 28" fill="none" xmlns="http://www.w3.org/2000/svg">
<path d="M14.4951 1.85791C12.0088 1.85751 9.57823 2.56893 7.5107 3.90219C5.44317 5.23546 3.83153 7.1307 2.87955 9.34829C1.92758 11.5659 1.67802 14.0062 2.16244 16.3607C2.64686 18.7152 3.8435 20.8782 5.60105 22.5761C7.35861 24.274 9.59814 25.4306 12.0365 25.8997C14.4748 26.3688 17.0025 26.1292 19.2998 25.2114C21.5972 24.2935 23.5611 22.7385 24.9431 20.7431C26.3252 18.7476 27.0635 16.4013 27.0645 14.0008C27.0652 12.4066 26.7406 10.8278 26.1092 9.35475C25.4779 7.88167 24.5522 6.5431 23.3849 5.41549C22.2177 4.28788 20.8319 3.39332 19.3065 2.7829C17.7812 2.17249 16.1462 1.85817 14.4951 1.85791Z" fill="#05478A"/>
<path d="M0.803841 16.111L0.150198 18.4913C-0.155087 19.6021 0.00895966 20.7844 0.606275 21.7784C1.20359 22.7724 2.18528 23.4968 3.33554 23.7922L5.88174 24.4473C3.16453 22.3834 1.35226 19.407 0.805912 16.111H0.803841Z" fill="#05478A"/>
<path d="M12.5082 0.817202L9.84082 0.145098C9.27104 -0.000953226 8.67704 -0.037203 8.09275 0.0384189C7.50846 0.114041 6.94532 0.300053 6.43549 0.585832C5.92567 0.871611 5.47914 1.25156 5.12142 1.70398C4.76369 2.15639 4.50178 2.67242 4.35064 3.22258L3.68042 5.65195C5.87673 3.01184 9.03523 1.28222 12.5093 0.817202H12.5082Z" fill="#05478A"/>
<path d="M25.6527 4.19969L22.7968 3.46558C24.2402 4.53719 25.4486 5.87504 26.352 7.40141C27.2554 8.92778 27.8356 10.6122 28.059 12.357L28.8442 9.48751C29.1452 8.37748 28.978 7.19753 28.3793 6.20631C27.7807 5.2151 26.7994 4.49349 25.6506 4.19969H25.6527Z" fill="#05478A"/>
<path d="M16.4156 27.1433L19.1514 27.8554C20.3018 28.1499 21.5263 27.9914 22.5557 27.4147C23.5852 26.838 24.3354 25.8904 24.6416 24.7799L25.4144 21.9795C23.2372 24.7804 20.0021 26.6374 16.4136 27.1463L16.4156 27.1433Z" fill="#05478A"/>
<path d="M21.6126 20.0723C21.4439 20.9178 20.9555 21.6726 20.2424 22.1897C19.5293 22.7069 18.6424 22.9494 17.7543 22.8701C16.8663 22.7909 16.0405 22.3955 15.4376 21.7609C14.8347 21.1263 14.4979 20.2979 14.4926 19.4368C14.4873 18.5757 14.814 17.7435 15.409 17.1021C16.0041 16.4607 16.825 16.0559 17.712 15.9665C18.5991 15.8771 19.4888 16.1095 20.2083 16.6184C20.9277 17.1274 21.4253 17.8765 21.6043 18.7201C21.699 19.1659 21.7018 19.6254 21.6126 20.0723Z" fill="#BACEE6"/>
<path d="M12.5995 18.4014C12.4294 19.2458 11.9401 19.999 11.2268 20.5144C10.5134 21.0299 9.62699 21.2707 8.73991 21.1901C7.85283 21.1095 7.02851 20.7133 6.42725 20.0784C5.826 19.4435 5.4908 18.6155 5.48685 17.7552C5.4829 16.8949 5.81048 16.064 6.40588 15.424C7.00127 14.784 7.82193 14.3807 8.70823 14.2926C9.59453 14.2044 10.4831 14.4376 11.2012 14.9469C11.9192 15.4562 12.4154 16.2052 12.5933 17.0482C12.6874 17.4945 12.6895 17.9543 12.5995 18.4014Z" fill="#BACEE6"/>
<path d="M14.1221 15.5938C13.7331 15.5193 13.3867 15.3078 13.1503 15.0003C12.9139 14.6928 12.8045 14.3114 12.8432 13.9303C12.882 13.5492 13.0662 13.1957 13.36 12.9385C13.6539 12.6813 14.0363 12.5388 14.4329 12.5388C14.8295 12.5388 15.2119 12.6813 15.5058 12.9385C15.7996 13.1957 15.9838 13.5492 16.0226 13.9303C16.0614 14.3114 15.9519 14.6928 15.7155 15.0003C15.4791 15.3078 15.1327 15.5193 14.7437 15.5938C14.5385 15.6332 14.3273 15.6332 14.1221 15.5938Z" fill="#BACEE6"/>
<path d="M7.37555 7.91354C7.54358 7.06623 8.03208 6.30958 8.74599 5.79081C9.45991 5.27204 10.3482 5.02825 11.238 5.10687C12.1278 5.1855 12.9554 5.58091 13.56 6.21619C14.1645 6.85146 14.5026 7.68115 14.5086 8.54382C14.5145 9.4065 14.1879 10.2405 13.5922 10.8835C12.9964 11.5264 12.1743 11.9325 11.2857 12.0225C10.397 12.1126 9.50547 11.8802 8.78446 11.3707C8.06346 10.8611 7.56457 10.1108 7.38487 9.26575C7.28983 8.81997 7.28666 8.36049 7.37555 7.91354Z" fill="#BACEE6"/>
<path d="M19.2354 13.6523C18.3606 13.4892 17.5799 13.0178 17.0451 12.3298C16.5103 11.6418 16.2596 10.7863 16.3419 9.92978C16.4241 9.07323 16.8333 8.27682 17.49 7.69542C18.1466 7.11402 19.0037 6.7892 19.8947 6.78412C20.7856 6.77904 21.6467 7.09406 22.3104 7.66792C22.9741 8.24179 23.393 9.03347 23.4857 9.88902C23.5784 10.7446 23.3383 11.6028 22.8119 12.2969C22.2856 12.991 21.5107 13.4712 20.638 13.6443C20.1755 13.7359 19.6989 13.7386 19.2354 13.6523Z" fill="#BACEE6"/>
</svg>
