<svg width="28" height="28" viewBox="0 0 28 28" fill="none" xmlns="http://www.w3.org/2000/svg">
<path opacity="0.2" d="M25.6666 1.16663H2.33329C1.68896 1.16663 1.16663 1.68896 1.16663 2.33329V25.6666C1.16663 26.311 1.68896 26.8333 2.33329 26.8333H25.6666C26.311 26.8333 26.8333 26.311 26.8333 25.6666V2.33329C26.8333 1.68896 26.311 1.16663 25.6666 1.16663Z" fill="#05478A"/>
<path d="M25.6667 0H2.33333C1.71471 0.000694782 1.12162 0.246751 0.684185 0.684185C0.246751 1.12162 0.000694782 1.71471 0 2.33333V25.6667C0.000694782 26.2853 0.246751 26.8784 0.684185 27.3158C1.12162 27.7532 1.71471 27.9993 2.33333 28H25.6667C26.2853 27.9993 26.8784 27.7532 27.3158 27.3158C27.7532 26.8784 27.9993 26.2853 28 25.6667V2.33333C27.9993 1.71471 27.7532 1.12162 27.3158 0.684185C26.8784 0.246751 26.2853 0.000694782 25.6667 0ZM25.6667 25.6667H2.33333V2.33333H25.6667L25.6681 25.6667H25.6667Z" fill="#05478A"/>
<path d="M8.16667 10.5C7.85725 10.5 7.5605 10.6229 7.34171 10.8417C7.12292 11.0605 7 11.3572 7 11.6667V21C7 21.3094 7.12292 21.6062 7.34171 21.825C7.5605 22.0437 7.85725 22.1667 8.16667 22.1667C8.47609 22.1667 8.77283 22.0437 8.99162 21.825C9.21042 21.6062 9.33333 21.3094 9.33333 21V11.6667C9.33333 11.3572 9.21042 11.0605 8.99162 10.8417C8.77283 10.6229 8.47609 10.5 8.16667 10.5Z" fill="#05478A"/>
<path d="M8.16663 8.75C9.13312 8.75 9.91663 7.9665 9.91663 7C9.91663 6.0335 9.13312 5.25 8.16663 5.25C7.20013 5.25 6.41663 6.0335 6.41663 7C6.41663 7.9665 7.20013 8.75 8.16663 8.75Z" fill="#05478A"/>
<path d="M16.9166 10.5005C15.8655 10.4993 14.8385 10.8155 13.9701 11.4077C13.9065 11.128 13.742 10.8815 13.5081 10.7154C13.2743 10.5493 12.9874 10.4752 12.7023 10.5073C12.4173 10.5394 12.1541 10.6755 11.963 10.8894C11.7719 11.1034 11.6664 11.3803 11.6666 11.6671V21.0005C11.6666 21.3099 11.7895 21.6066 12.0083 21.8254C12.2271 22.0442 12.5239 22.1671 12.8333 22.1671C13.1427 22.1671 13.4395 22.0442 13.6583 21.8254C13.877 21.6066 14 21.3099 14 21.0005V15.7505C14 14.9769 14.3073 14.235 14.8542 13.6881C15.4012 13.1411 16.1431 12.8338 16.9166 12.8338C17.6902 12.8338 18.432 13.1411 18.979 13.6881C19.526 14.235 19.8333 14.9769 19.8333 15.7505V21.0005C19.8333 21.3099 19.9562 21.6066 20.175 21.8254C20.3938 22.0442 20.6905 22.1671 21 22.1671C21.3094 22.1671 21.6061 22.0442 21.8249 21.8254C22.0437 21.6066 22.1666 21.3099 22.1666 21.0005V15.7505C22.1651 14.3585 21.6115 13.0241 20.6272 12.0398C19.643 11.0556 18.3085 10.502 16.9166 10.5005Z" fill="#05478A"/>
</svg>
