<svg width="53" height="53" viewBox="0 0 53 53" fill="none" xmlns="http://www.w3.org/2000/svg">
<path d="M51.7584 26.4995C51.7584 40.4493 40.4498 51.7579 26.5 51.7579C12.5502 51.7579 1.2417 40.4493 1.2417 26.4995C1.2417 12.5498 12.5502 1.24121 26.5 1.24121C40.4498 1.24121 51.7584 12.5498 51.7584 26.4995Z" fill="#BACEE6" stroke="#1A4066" stroke-width="1.75"/>
<path d="M36.3764 38.1972C36.2816 38.4264 36.1371 38.6333 35.9526 38.8041C35.7681 38.9749 35.5478 39.1055 35.3067 39.1873C35.0655 39.2691 34.809 39.3002 34.5544 39.2783C34.2998 39.2565 34.053 39.1823 33.8306 39.0607L26.9325 33.8846L22.5065 37.8292C22.4038 37.9025 22.2836 37.9496 22.1571 37.9663C22.0306 37.983 21.9017 37.9688 21.7824 37.9249L22.631 30.5925L22.6564 30.6146L22.6742 30.4698C22.6742 30.4698 35.0857 19.5583 35.5913 19.0947C36.1045 18.631 35.9343 18.5305 35.9343 18.5305C35.9648 17.9662 35.0171 18.5305 35.0171 18.5305L18.5709 28.7453L11.7236 26.4933C11.7236 26.4933 10.6717 26.1302 10.5726 25.3281C10.4685 24.5333 11.7566 24.1015 11.7566 24.1015L38.9857 13.6561C38.9857 13.6561 41.2241 12.6945 41.2241 14.289L36.3764 38.1972Z" fill="#1A4066"/>
</svg>
