<svg width="251" height="37" viewBox="0 0 251 37" fill="none" xmlns="http://www.w3.org/2000/svg">
<path d="M23.2165 27C22.5978 27 22.0112 26.8613 21.4565 26.584C21.3712 28.376 20.8698 30.008 19.9525 31.48C19.0352 32.9733 17.7765 34.1573 16.1765 35.032C14.5765 35.9067 12.7525 36.344 10.7045 36.344C8.7205 36.344 6.97117 35.96 5.4565 35.192C3.94183 34.4453 2.75783 33.368 1.9045 31.96C1.0725 30.552 0.6565 28.8987 0.6565 27C0.6565 26.616 0.667167 26.3173 0.6885 26.104C0.7525 24.888 0.997833 23.6187 1.4245 22.296C1.8725 20.9733 2.36317 19.7573 2.8965 18.648L5.9685 20.056C5.41383 21.336 4.98717 22.4667 4.6885 23.448C4.38983 24.408 4.2405 25.3893 4.2405 26.392C4.2405 28.1413 4.79517 29.4427 5.9045 30.296C7.01383 31.1707 8.61383 31.608 10.7045 31.608C12.1978 31.608 13.4992 31.3413 14.6085 30.808C15.7392 30.296 16.5925 29.6133 17.1685 28.76C17.7658 27.928 18.0645 27.0427 18.0645 26.104C18.0645 24.888 17.3818 22.328 16.0165 18.424L19.4405 16.632C19.8672 17.8267 20.2085 18.8507 20.4645 19.704C20.8058 20.664 21.1685 21.3253 21.5525 21.688C21.9365 22.0507 22.4912 22.232 23.2165 22.232H23.4405L23.6965 24.632L23.4405 27H23.2165ZM11.3765 13.784C12.0378 14.424 12.6885 15.0747 13.3285 15.736L14.3205 16.728L11.3765 19.672L8.4005 16.728L11.3765 13.784ZM22.9292 24.632L23.1852 22.232H25.8733C27.9853 22.232 29.4786 22.0507 30.3533 21.688C31.2279 21.3253 31.6653 20.7707 31.6653 20.024C31.6439 19.5547 31.3986 18.6587 30.9293 17.336C30.4599 15.992 30.1186 15.096 29.9053 14.648L33.2973 12.792C33.7239 13.688 34.1506 14.8827 34.5773 16.376C35.0039 17.848 35.2173 19.1387 35.2173 20.248C35.1959 22.424 34.4599 24.0987 33.0093 25.272C31.5586 26.424 29.4146 27 26.5773 27H23.1852L22.9292 24.632ZM25.8733 29.688L26.7693 30.584L28.5933 32.408L25.8733 35.096L23.1852 32.408L25.8733 29.688ZM31.5052 29.688L32.4013 30.584L34.2253 32.408L31.5052 35.096L28.8173 32.408L31.5052 29.688ZM57.3633 27C54.6326 27 52.8086 25.72 51.8913 23.16C50.6113 24.632 48.8939 25.7733 46.7393 26.584C44.5846 27.3947 42.2273 27.8427 39.6673 27.928L38.5473 23.544C39.4859 23.48 40.4246 23.384 41.3633 23.256C41.5979 22.5947 41.7153 21.8587 41.7153 21.048C41.7153 18.3173 40.4566 14.1147 37.9393 8.44L41.2993 6.104C42.5579 8.68533 43.5073 11.1173 44.1473 13.4C44.8086 15.6827 45.1393 17.7093 45.1393 19.48C45.1393 20.632 44.9899 21.6773 44.6913 22.616C46.3979 22.168 47.7313 21.5387 48.6913 20.728C49.6513 19.896 50.1313 18.808 50.1313 17.464C50.1099 15.3307 50.0139 13.3253 49.8433 11.448C49.6726 9.57067 49.4166 7.14933 49.0753 4.184L53.0753 3.32C53.7579 8.504 54.0673 13.1973 54.0033 17.4V17.656C54.0673 18.8507 54.2059 19.7787 54.4193 20.44C54.6326 21.08 54.9739 21.5387 55.4433 21.816C55.9126 22.0933 56.5739 22.232 57.4273 22.232H57.7793V27H57.3633ZM57.465 22.232H59.161C60.697 22.232 61.7957 22.0613 62.457 21.72C63.1397 21.3787 63.481 20.8667 63.481 20.184C63.481 19.736 63.257 18.8613 62.809 17.56C62.361 16.2373 62.009 15.2667 61.753 14.648L65.113 12.792C65.5183 13.688 65.9343 14.8933 66.361 16.408C66.809 17.9013 67.033 19.2133 67.033 20.344C67.033 22.52 66.3503 24.1733 64.985 25.304C63.641 26.4347 61.6997 27 59.161 27H57.465V22.232ZM62.361 5.624C63.0223 6.264 63.673 6.91467 64.313 7.576L65.305 8.568L62.361 11.512L59.385 8.568L62.361 5.624ZM71.016 26.808C71.144 25.7413 71.208 23.9813 71.208 21.528C71.208 18.9893 71.1227 16.2907 70.952 13.432C70.8027 10.5733 70.632 8.46133 70.44 7.096L74.44 6.2C74.5893 7.544 74.728 9.56 74.856 12.248C75.0053 14.936 75.08 17.5707 75.08 20.152C75.08 22.904 74.984 25.2613 74.792 27.224L71.016 26.808ZM66.952 3.992C67.3787 3.05333 67.9013 2.328 68.52 1.816C69.1173 1.28267 69.7787 1.016 70.504 1.016C70.8667 1.016 71.1867 1.06933 71.464 1.176C71.7627 1.26133 72.1147 1.38933 72.52 1.56C73.2027 1.88 73.7467 2.04 74.152 2.04C74.5147 2.04 74.8773 1.93333 75.24 1.72C75.624 1.48533 75.944 1.18667 76.2 0.823999L77.64 2.04C77.1707 2.76533 76.6373 3.33066 76.04 3.736C75.4427 4.12 74.8133 4.312 74.152 4.312C73.7893 4.312 73.4587 4.26933 73.16 4.184C72.8827 4.07733 72.5093 3.928 72.04 3.736C71.4 3.416 70.8987 3.256 70.536 3.256C70.1307 3.256 69.7467 3.40533 69.384 3.704C69.0213 3.98133 68.7333 4.38667 68.52 4.92L66.952 3.992ZM85.2122 32.216C88.1349 31.576 90.4069 30.84 92.0283 30.008C93.6496 29.1973 94.7163 28.2053 95.2283 27.032C92.8816 26.9893 90.9829 26.7547 89.5323 26.328C88.0816 25.88 87.0683 25.0373 86.4923 23.8C86.1083 22.968 85.9163 22.0507 85.9163 21.048C85.9163 19.7893 86.1829 18.5413 86.7163 17.304C87.2496 16.0453 87.9856 15.0213 88.9243 14.232C89.8629 13.4213 90.8869 13.016 91.9963 13.016C93.1056 13.016 94.1296 13.432 95.0683 14.264C96.0069 15.096 96.7856 16.216 97.4043 17.624C98.0443 19.032 98.4709 20.568 98.6843 22.232H100.028L100.284 24.632L100.028 27H98.5883C98.0549 29.368 96.7536 31.3627 94.6843 32.984C92.6363 34.6053 89.9696 35.7253 86.6843 36.344L85.2122 32.216ZM89.4363 21.112C89.7349 21.5173 90.3856 21.8053 91.3883 21.976C92.3909 22.1253 93.6923 22.2107 95.2923 22.232C94.9936 20.824 94.5136 19.6507 93.8523 18.712C93.1909 17.752 92.4443 17.272 91.6123 17.272C91.1856 17.272 90.7803 17.432 90.3963 17.752C90.0336 18.0507 89.7456 18.4347 89.5323 18.904C89.3189 19.3733 89.2123 19.8213 89.2123 20.248C89.2123 20.6107 89.2869 20.8987 89.4363 21.112ZM99.4292 24.632L99.6852 22.232H102.373C104.485 22.232 105.979 22.0507 106.853 21.688C107.728 21.3253 108.165 20.7707 108.165 20.024C108.144 19.5547 107.899 18.6587 107.429 17.336C106.96 15.992 106.619 15.096 106.405 14.648L109.797 12.792C110.224 13.688 110.651 14.8827 111.077 16.376C111.504 17.848 111.717 19.1387 111.717 20.248C111.696 22.424 110.96 24.0987 109.509 25.272C108.059 26.424 105.915 27 103.077 27H99.6852L99.4292 24.632ZM102.373 29.688L103.269 30.584L105.093 32.408L102.373 35.096L99.6852 32.408L102.373 29.688ZM108.005 29.688L108.901 30.584L110.725 32.408L108.005 35.096L105.317 32.408L108.005 29.688ZM131.431 27C130.493 27 129.65 26.8293 128.903 26.488C128.178 26.1253 127.517 25.592 126.919 24.888C125.362 26.4027 123.431 27.16 121.127 27.16C118.525 27.16 116.082 26.3067 113.799 24.6L115.527 21.24C116.21 21.6027 116.957 21.9333 117.767 22.232C118.578 22.5093 119.538 22.648 120.647 22.648C122.333 22.648 123.794 22.2533 125.031 21.464L120.647 11.448L123.943 9.656L128.327 20.024C128.669 20.8773 129.063 21.464 129.511 21.784C129.959 22.0827 130.599 22.232 131.431 22.232H131.815L132.071 24.632L131.815 27H131.431ZM131.496 22.232H133.032C135.144 22.232 136.638 22.0507 137.512 21.688C138.387 21.3253 138.824 20.7707 138.824 20.024C138.803 19.5547 138.558 18.6587 138.088 17.336C137.619 15.992 137.278 15.096 137.064 14.648L140.456 12.792C140.883 13.688 141.31 14.8827 141.736 16.376C142.163 17.848 142.376 19.1387 142.376 20.248C142.355 22.424 141.619 24.0987 140.168 25.272C138.718 26.424 136.574 27 133.736 27H131.496V22.232ZM137.448 35.128L134.76 32.44L137.448 29.72L138.344 30.616L140.168 32.44L137.448 35.128ZM131.816 29.72L132.712 30.616L134.536 32.44L131.816 35.128L129.128 32.44L131.816 29.72ZM144.743 32.216C147.73 31.576 150.024 30.8293 151.624 29.976C153.245 29.144 154.301 28.1307 154.792 26.936C154.216 27.0213 153.576 27.064 152.872 27.064C151.314 27.064 149.906 26.7973 148.648 26.264C147.41 25.7093 146.536 24.888 146.024 23.8C145.64 22.968 145.448 22.0507 145.448 21.048C145.448 19.7893 145.714 18.5413 146.248 17.304C146.781 16.0453 147.517 15.0213 148.456 14.232C149.394 13.4213 150.418 13.016 151.528 13.016C152.808 13.016 153.97 13.5707 155.016 14.68C156.061 15.7893 156.882 17.24 157.48 19.032C158.077 20.824 158.376 22.6907 158.376 24.632C158.376 27.6187 157.298 30.136 155.144 32.184C152.989 34.232 150.013 35.6187 146.216 36.344L144.743 32.216ZM148.968 21.112C149.288 21.5387 149.885 21.8693 150.76 22.104C151.634 22.3173 152.616 22.424 153.704 22.424C154.216 22.424 154.6 22.4133 154.856 22.392C154.557 20.9413 154.066 19.7253 153.384 18.744C152.722 17.7627 151.976 17.272 151.144 17.272C150.717 17.272 150.312 17.432 149.928 17.752C149.565 18.072 149.266 18.4667 149.032 18.936C148.818 19.4053 148.712 19.8427 148.712 20.248C148.712 20.5893 148.797 20.8773 148.968 21.112ZM179.947 27.384C176.171 27.384 173.205 26.7973 171.051 25.624C168.896 24.4507 167.723 22.8187 167.531 20.728C167.509 20.5573 167.499 20.3013 167.499 19.96C167.499 19.0427 167.627 18.0507 167.883 16.984C168.139 15.9173 168.448 14.968 168.811 14.136L171.883 15.608C171.264 17.5493 170.987 18.9467 171.051 19.8C171.2 20.6107 172.053 21.2827 173.611 21.816C175.168 22.328 177.301 22.5947 180.011 22.616C182.763 22.5947 184.896 22.4133 186.411 22.072C187.947 21.7093 189.109 21.1333 189.899 20.344C190.709 19.5547 191.392 18.4133 191.947 16.92L195.275 17.304C194.869 18.4987 194.667 19.4693 194.667 20.216C194.667 21.56 195.371 22.232 196.779 22.232L197.035 24.6L196.779 27C195.584 27 194.528 26.648 193.611 25.944C192.715 25.24 192.171 24.3333 191.979 23.224C190.656 24.7813 189.035 25.8693 187.115 26.488C185.216 27.0853 182.827 27.384 179.947 27.384ZM178.251 10.84L180.939 13.528L178.251 16.248L177.355 15.352L175.531 13.528L178.251 10.84ZM183.883 10.84L186.571 13.528L183.883 16.248L182.987 15.352L181.163 13.528L183.883 10.84ZM196.433 22.232H198.833C201.244 22.232 203.505 21.9867 205.617 21.496C207.729 20.984 209.958 20.1307 212.305 18.936C211.729 18.7013 210.972 18.3493 210.033 17.88C208.156 16.92 206.524 16.44 205.137 16.44C204.326 16.44 203.601 16.664 202.961 17.112C202.342 17.5387 201.862 18.0293 201.521 18.584L198.833 16.632C200.454 13.4533 202.598 11.864 205.265 11.864C206.161 11.864 207.025 12.0133 207.857 12.312C208.689 12.6107 209.905 13.1653 211.505 13.976C212.742 14.616 213.788 15.1067 214.641 15.448C215.516 15.7893 216.476 16.0667 217.521 16.28L217.681 20.568C217.105 20.7387 215.974 21.2827 214.289 22.2C214.161 22.2853 214.044 22.36 213.937 22.424C213.83 22.4667 213.734 22.5093 213.649 22.552C211.537 23.6613 209.702 24.5253 208.145 25.144C206.588 25.7627 204.998 26.232 203.377 26.552C201.756 26.8507 199.921 27 197.873 27H196.433V22.232ZM205.681 3.768C206.342 4.408 206.993 5.05867 207.633 5.72L208.625 6.712L205.681 9.656L202.705 6.712L205.681 3.768ZM227.584 27C225.238 27 223.542 26.328 222.496 24.984C221.472 23.64 220.96 21.592 220.96 18.84C220.939 16.216 220.854 13.56 220.704 10.872C220.576 8.16267 220.384 5.93333 220.128 4.184L224.096 3.32C224.31 4.87733 224.48 6.98933 224.608 9.656C224.736 12.3013 224.8 14.7547 224.8 17.016V18.232C224.779 19.32 224.832 20.1413 224.96 20.696C225.088 21.2507 225.344 21.6453 225.728 21.88C226.134 22.1147 226.752 22.232 227.584 22.232H227.744L228 24.632L227.744 27H227.584ZM245.258 27C244.276 26.9787 243.423 26.7333 242.698 26.264C241.994 25.7947 241.45 25.1227 241.066 24.248C239.914 26.0613 238.495 26.9787 236.81 27H236.65C235.732 27 234.932 26.7547 234.25 26.264C233.567 25.7733 233.087 25.1227 232.81 24.312C232.127 25.1867 231.338 25.8587 230.442 26.328C229.567 26.776 228.628 27 227.626 27H227.53L227.274 24.632L227.53 22.232H227.69C228.351 22.232 229.002 22.0933 229.642 21.816C230.282 21.5173 230.762 21.1547 231.082 20.728C231.53 20.216 231.871 19.64 232.106 19C232.34 18.36 232.554 17.6773 232.746 16.952L236.074 17.304C236.052 17.4107 235.935 17.8373 235.722 18.584C235.508 19.3093 235.402 19.9707 235.402 20.568C235.402 21.6773 235.85 22.232 236.746 22.232H236.842C237.93 22.232 238.772 21.6453 239.37 20.472C239.775 19.6613 240.138 18.4133 240.458 16.728L243.754 16.888C243.519 18.296 243.402 19.2987 243.402 19.896C243.402 21.4533 244.052 22.232 245.354 22.232C245.972 22.232 246.463 22.0507 246.826 21.688C247.188 21.3253 247.37 20.856 247.37 20.28C247.37 19.704 247.146 18.7867 246.698 17.528C246.271 16.2693 245.908 15.3093 245.61 14.648L248.874 12.856C249.279 13.688 249.706 14.8827 250.154 16.44C250.602 17.976 250.826 19.32 250.826 20.472C250.826 21.6453 250.591 22.7333 250.122 23.736C249.674 24.7173 249.034 25.5067 248.202 26.104C247.391 26.7013 246.463 27 245.418 27H245.354H245.258Z" fill="#1C49A0"/>
</svg>
