<svg width="517" height="75" viewBox="0 0 517 75" fill="none" xmlns="http://www.w3.org/2000/svg">
<path d="M46.9785 54.9567C45.7025 54.9567 44.4925 54.6707 43.3485 54.0987C43.1725 57.7947 42.1385 61.1607 40.2465 64.1967C38.3545 67.2767 35.7585 69.7187 32.4585 71.5227C29.1585 73.3267 25.3965 74.2287 21.1725 74.2287C17.0805 74.2287 13.4725 73.4367 10.3485 71.8527C7.22451 70.3127 4.78251 68.0907 3.02251 65.1867C1.30651 62.2827 0.448514 58.8727 0.448514 54.9567C0.448514 54.1647 0.470514 53.5487 0.514514 53.1087C0.646514 50.6007 1.15251 47.9827 2.03251 45.2547C2.95651 42.5267 3.96851 40.0187 5.06851 37.7307L11.4045 40.6347C10.2605 43.2747 9.38051 45.6067 8.76451 47.6307C8.14851 49.6107 7.84051 51.6347 7.84051 53.7027C7.84051 57.3107 8.98451 59.9947 11.2725 61.7547C13.5605 63.5587 16.8605 64.4607 21.1725 64.4607C24.2525 64.4607 26.9365 63.9107 29.2245 62.8107C31.5565 61.7547 33.3165 60.3467 34.5045 58.5867C35.7365 56.8707 36.3525 55.0447 36.3525 53.1087C36.3525 50.6007 34.9445 45.3207 32.1285 37.2687L39.1905 33.5727C40.0705 36.0367 40.7745 38.1487 41.3025 39.9087C42.0065 41.8887 42.7545 43.2527 43.5465 44.0007C44.3385 44.7487 45.4825 45.1227 46.9785 45.1227H47.4405L47.9685 50.0727L47.4405 54.9567H46.9785ZM22.5585 27.6987C23.9225 29.0187 25.2645 30.3607 26.5845 31.7247L28.6305 33.7707L22.5585 39.8427L16.4205 33.7707L22.5585 27.6987ZM46.3861 50.0727L46.9141 45.1227H52.4581C56.8141 45.1227 59.8941 44.7487 61.6981 44.0007C63.5021 43.2527 64.4041 42.1087 64.4041 40.5687C64.3601 39.6007 63.8541 37.7527 62.8861 35.0247C61.9181 32.2527 61.2141 30.4047 60.7741 29.4807L67.7701 25.6527C68.6501 27.5007 69.5301 29.9647 70.4101 33.0447C71.2901 36.0807 71.7301 38.7427 71.7301 41.0307C71.6861 45.5187 70.1681 48.9727 67.1761 51.3927C64.1841 53.7687 59.7621 54.9567 53.9101 54.9567H46.9141L46.3861 50.0727ZM52.4581 60.5007L54.3061 62.3487L58.0681 66.1107L52.4581 71.6547L46.9141 66.1107L52.4581 60.5007ZM64.0741 60.5007L65.9221 62.3487L69.6841 66.1107L64.0741 71.6547L58.5301 66.1107L64.0741 60.5007ZM117.406 54.9567C111.774 54.9567 108.012 52.3167 106.12 47.0367C103.48 50.0727 99.9382 52.4267 95.4942 54.0987C91.0502 55.7707 86.1882 56.6947 80.9082 56.8707L78.5982 47.8287C80.5342 47.6967 82.4702 47.4987 84.4062 47.2347C84.8902 45.8707 85.1322 44.3527 85.1322 42.6807C85.1322 37.0487 82.5362 28.3807 77.3442 16.6767L84.2742 11.8587C86.8702 17.1827 88.8282 22.1987 90.1482 26.9067C91.5122 31.6147 92.1942 35.7947 92.1942 39.4467C92.1942 41.8227 91.8862 43.9787 91.2702 45.9147C94.7902 44.9907 97.5402 43.6927 99.5202 42.0207C101.5 40.3047 102.49 38.0607 102.49 35.2887C102.446 30.8887 102.248 26.7527 101.896 22.8807C101.544 19.0087 101.016 14.0147 100.312 7.89866L108.562 6.11666C109.97 16.8087 110.608 26.4887 110.476 35.1567V35.6847C110.608 38.1487 110.894 40.0627 111.334 41.4267C111.774 42.7467 112.478 43.6927 113.446 44.2647C114.414 44.8367 115.778 45.1227 117.538 45.1227H118.264V54.9567H117.406ZM117.616 45.1227H121.114C124.282 45.1227 126.548 44.7707 127.912 44.0667C129.32 43.3627 130.024 42.3067 130.024 40.8987C130.024 39.9747 129.562 38.1707 128.638 35.4867C127.714 32.7587 126.988 30.7567 126.46 29.4807L133.39 25.6527C134.226 27.5007 135.084 29.9867 135.964 33.1107C136.888 36.1907 137.35 38.8967 137.35 41.2287C137.35 45.7167 135.942 49.1267 133.126 51.4587C130.354 53.7907 126.35 54.9567 121.114 54.9567H117.616V45.1227ZM127.714 10.8687C129.078 12.1887 130.42 13.5307 131.74 14.8947L133.786 16.9407L127.714 23.0127L121.576 16.9407L127.714 10.8687ZM145.565 54.5607C145.829 52.3607 145.961 48.7307 145.961 43.6707C145.961 38.4347 145.785 32.8687 145.433 26.9727C145.125 21.0767 144.773 16.7207 144.377 13.9047L152.627 12.0567C152.935 14.8287 153.221 18.9867 153.485 24.5307C153.793 30.0747 153.947 35.5087 153.947 40.8327C153.947 46.5087 153.749 51.3707 153.353 55.4187L145.565 54.5607ZM137.183 7.50266C138.063 5.56666 139.141 4.07066 140.417 3.01466C141.649 1.91466 143.013 1.36466 144.509 1.36466C145.257 1.36466 145.917 1.47466 146.489 1.69466C147.105 1.87066 147.831 2.13466 148.667 2.48666C150.075 3.14666 151.197 3.47666 152.033 3.47666C152.781 3.47666 153.529 3.25666 154.277 2.81666C155.069 2.33266 155.729 1.71666 156.257 0.968664L159.227 3.47666C158.259 4.97266 157.159 6.13866 155.927 6.97466C154.695 7.76666 153.397 8.16266 152.033 8.16266C151.285 8.16266 150.603 8.07466 149.987 7.89866C149.415 7.67866 148.645 7.37066 147.677 6.97466C146.357 6.31466 145.323 5.98466 144.575 5.98466C143.739 5.98466 142.947 6.29266 142.199 6.90866C141.451 7.48066 140.857 8.31666 140.417 9.41666L137.183 7.50266ZM174.845 65.7147C180.873 64.3947 185.559 62.8767 188.903 61.1607C192.247 59.4887 194.447 57.4427 195.503 55.0227C190.663 54.9347 186.747 54.4507 183.755 53.5707C180.763 52.6467 178.673 50.9087 177.485 48.3567C176.693 46.6407 176.297 44.7487 176.297 42.6807C176.297 40.0847 176.847 37.5107 177.947 34.9587C179.047 32.3627 180.565 30.2507 182.501 28.6227C184.437 26.9507 186.549 26.1147 188.837 26.1147C191.125 26.1147 193.237 26.9727 195.173 28.6887C197.109 30.4047 198.715 32.7147 199.991 35.6187C201.311 38.5227 202.191 41.6907 202.631 45.1227H205.403L205.931 50.0727L205.403 54.9567H202.433C201.333 59.8407 198.649 63.9547 194.381 67.2987C190.157 70.6427 184.657 72.9527 177.881 74.2287L174.845 65.7147ZM183.557 42.8127C184.173 43.6487 185.515 44.2427 187.583 44.5947C189.651 44.9027 192.335 45.0787 195.635 45.1227C195.019 42.2187 194.029 39.7987 192.665 37.8627C191.301 35.8827 189.761 34.8927 188.045 34.8927C187.165 34.8927 186.329 35.2227 185.537 35.8827C184.789 36.4987 184.195 37.2907 183.755 38.2587C183.315 39.2267 183.095 40.1507 183.095 41.0307C183.095 41.7787 183.249 42.3727 183.557 42.8127ZM204.167 50.0727L204.695 45.1227H210.239C214.595 45.1227 217.675 44.7487 219.479 44.0007C221.283 43.2527 222.185 42.1087 222.185 40.5687C222.141 39.6007 221.635 37.7527 220.667 35.0247C219.699 32.2527 218.995 30.4047 218.555 29.4807L225.551 25.6527C226.431 27.5007 227.311 29.9647 228.191 33.0447C229.071 36.0807 229.511 38.7427 229.511 41.0307C229.467 45.5187 227.949 48.9727 224.957 51.3927C221.965 53.7687 217.543 54.9567 211.691 54.9567H204.695L204.167 50.0727ZM210.239 60.5007L212.087 62.3487L215.849 66.1107L210.239 71.6547L204.695 66.1107L210.239 60.5007ZM221.855 60.5007L223.703 62.3487L227.465 66.1107L221.855 71.6547L216.311 66.1107L221.855 60.5007ZM270.171 54.9567C268.235 54.9567 266.497 54.6047 264.957 53.9007C263.461 53.1527 262.097 52.0527 260.865 50.6007C257.653 53.7247 253.671 55.2867 248.919 55.2867C243.551 55.2867 238.513 53.5267 233.805 50.0067L237.369 43.0767C238.777 43.8247 240.317 44.5067 241.989 45.1227C243.661 45.6947 245.641 45.9807 247.929 45.9807C251.405 45.9807 254.419 45.1667 256.971 43.5387L247.929 22.8807L254.727 19.1847L263.769 40.5687C264.473 42.3287 265.287 43.5387 266.211 44.1987C267.135 44.8147 268.455 45.1227 270.171 45.1227H270.963L271.491 50.0727L270.963 54.9567H270.171ZM270.305 45.1227H273.473C277.829 45.1227 280.909 44.7487 282.713 44.0007C284.517 43.2527 285.419 42.1087 285.419 40.5687C285.375 39.6007 284.869 37.7527 283.901 35.0247C282.933 32.2527 282.229 30.4047 281.789 29.4807L288.785 25.6527C289.665 27.5007 290.545 29.9647 291.425 33.0447C292.305 36.0807 292.745 38.7427 292.745 41.0307C292.701 45.5187 291.183 48.9727 288.191 51.3927C285.199 53.7687 280.777 54.9567 274.925 54.9567H270.305V45.1227ZM282.581 71.7207L277.037 66.1767L282.581 60.5667L284.429 62.4147L288.191 66.1767L282.581 71.7207ZM270.965 60.5667L272.813 62.4147L276.575 66.1767L270.965 71.7207L265.421 66.1767L270.965 60.5667ZM297.628 65.7147C303.788 64.3947 308.518 62.8547 311.818 61.0947C315.162 59.3787 317.34 57.2887 318.352 54.8247C317.164 55.0007 315.844 55.0887 314.392 55.0887C311.18 55.0887 308.276 54.5387 305.68 53.4387C303.128 52.2947 301.324 50.6007 300.268 48.3567C299.476 46.6407 299.08 44.7487 299.08 42.6807C299.08 40.0847 299.63 37.5107 300.73 34.9587C301.83 32.3627 303.348 30.2507 305.284 28.6227C307.22 26.9507 309.332 26.1147 311.62 26.1147C314.26 26.1147 316.658 27.2587 318.814 29.5467C320.97 31.8347 322.664 34.8267 323.896 38.5227C325.128 42.2187 325.744 46.0687 325.744 50.0727C325.744 56.2327 323.522 61.4247 319.078 65.6487C314.634 69.8727 308.496 72.7327 300.664 74.2287L297.628 65.7147ZM306.34 42.8127C307 43.6927 308.232 44.3747 310.036 44.8587C311.84 45.2987 313.864 45.5187 316.108 45.5187C317.164 45.5187 317.956 45.4967 318.484 45.4527C317.868 42.4607 316.856 39.9527 315.448 37.9287C314.084 35.9047 312.544 34.8927 310.828 34.8927C309.948 34.8927 309.112 35.2227 308.32 35.8827C307.572 36.5427 306.956 37.3567 306.472 38.3247C306.032 39.2927 305.812 40.1947 305.812 41.0307C305.812 41.7347 305.988 42.3287 306.34 42.8127ZM370.235 55.7487C362.447 55.7487 356.331 54.5387 351.887 52.1187C347.443 49.6987 345.023 46.3327 344.627 42.0207C344.583 41.6687 344.561 41.1407 344.561 40.4367C344.561 38.5447 344.825 36.4987 345.353 34.2987C345.881 32.0987 346.519 30.1407 347.267 28.4247L353.603 31.4607C352.327 35.4647 351.755 38.3467 351.887 40.1067C352.195 41.7787 353.955 43.1647 357.167 44.2647C360.379 45.3207 364.779 45.8707 370.367 45.9147C376.043 45.8707 380.443 45.4967 383.567 44.7927C386.735 44.0447 389.133 42.8567 390.761 41.2287C392.433 39.6007 393.841 37.2467 394.985 34.1667L401.849 34.9587C401.013 37.4227 400.595 39.4247 400.595 40.9647C400.595 43.7367 402.047 45.1227 404.951 45.1227L405.479 50.0067L404.951 54.9567C402.487 54.9567 400.309 54.2307 398.417 52.7787C396.569 51.3267 395.447 49.4567 395.051 47.1687C392.323 50.3807 388.979 52.6247 385.019 53.9007C381.103 55.1327 376.175 55.7487 370.235 55.7487ZM366.737 21.6267L372.281 27.1707L366.737 32.7807L364.889 30.9327L361.127 27.1707L366.737 21.6267ZM378.353 21.6267L383.897 27.1707L378.353 32.7807L376.505 30.9327L372.743 27.1707L378.353 21.6267ZM404.238 45.1227H409.188C414.16 45.1227 418.824 44.6167 423.18 43.6047C427.536 42.5487 432.134 40.7887 436.974 38.3247C435.786 37.8407 434.224 37.1147 432.288 36.1467C428.416 34.1667 425.05 33.1767 422.19 33.1767C420.518 33.1767 419.022 33.6387 417.702 34.5627C416.426 35.4427 415.436 36.4547 414.732 37.5987L409.188 33.5727C412.532 27.0167 416.954 23.7387 422.454 23.7387C424.302 23.7387 426.084 24.0467 427.8 24.6627C429.516 25.2787 432.024 26.4227 435.324 28.0947C437.876 29.4147 440.032 30.4267 441.792 31.1307C443.596 31.8347 445.576 32.4067 447.732 32.8467L448.062 41.6907C446.874 42.0427 444.542 43.1647 441.066 45.0567C440.802 45.2327 440.56 45.3867 440.34 45.5187C440.12 45.6067 439.922 45.6947 439.746 45.7827C435.39 48.0707 431.606 49.8527 428.394 51.1287C425.182 52.4047 421.904 53.3727 418.56 54.0327C415.216 54.6487 411.432 54.9567 407.208 54.9567H404.238V45.1227ZM423.312 7.04066C424.676 8.36066 426.018 9.70266 427.338 11.0667L429.384 13.1127L423.312 19.1847L417.174 13.1127L423.312 7.04066ZM468.487 54.9567C463.647 54.9567 460.149 53.5707 457.993 50.7987C455.881 48.0267 454.825 43.8027 454.825 38.1267C454.781 32.7147 454.605 27.2367 454.297 21.6927C454.033 16.1047 453.637 11.5067 453.109 7.89866L461.293 6.11666C461.733 9.32866 462.085 13.6847 462.349 19.1847C462.613 24.6407 462.745 29.7007 462.745 34.3647V36.8727C462.701 39.1167 462.811 40.8107 463.075 41.9547C463.339 43.0987 463.867 43.9127 464.659 44.3967C465.495 44.8807 466.771 45.1227 468.487 45.1227H468.817L469.345 50.0727L468.817 54.9567H468.487ZM504.939 54.9567C502.915 54.9127 501.155 54.4067 499.659 53.4387C498.207 52.4707 497.085 51.0847 496.293 49.2807C493.917 53.0207 490.991 54.9127 487.515 54.9567H487.185C485.293 54.9567 483.643 54.4507 482.235 53.4387C480.827 52.4267 479.837 51.0847 479.265 49.4127C477.857 51.2167 476.229 52.6027 474.381 53.5707C472.577 54.4947 470.641 54.9567 468.573 54.9567H468.375L467.847 50.0727L468.375 45.1227H468.705C470.069 45.1227 471.411 44.8367 472.731 44.2647C474.051 43.6487 475.041 42.9007 475.701 42.0207C476.625 40.9647 477.329 39.7767 477.813 38.4567C478.297 37.1367 478.737 35.7287 479.133 34.2327L485.997 34.9587C485.953 35.1787 485.711 36.0587 485.271 37.5987C484.831 39.0947 484.611 40.4587 484.611 41.6907C484.611 43.9787 485.535 45.1227 487.383 45.1227H487.581C489.825 45.1227 491.563 43.9127 492.795 41.4927C493.631 39.8207 494.379 37.2467 495.039 33.7707L501.837 34.1007C501.353 37.0047 501.111 39.0727 501.111 40.3047C501.111 43.5167 502.453 45.1227 505.137 45.1227C506.413 45.1227 507.425 44.7487 508.173 44.0007C508.921 43.2527 509.295 42.2847 509.295 41.0967C509.295 39.9087 508.833 38.0167 507.909 35.4207C507.029 32.8247 506.281 30.8447 505.665 29.4807L512.397 25.7847C513.233 27.5007 514.113 29.9647 515.037 33.1767C515.961 36.3447 516.423 39.1167 516.423 41.4927C516.423 43.9127 515.939 46.1567 514.971 48.2247C514.047 50.2487 512.727 51.8767 511.011 53.1087C509.339 54.3407 507.425 54.9567 505.269 54.9567H505.137H504.939Z" fill="#3860AC" fill-opacity="0.9"/>
</svg>
