<svg width="42" height="35" viewBox="0 0 42 35" fill="none" xmlns="http://www.w3.org/2000/svg">
<rect x="0.437256" y="0.753296" width="40.7242" height="33.4932" rx="4" fill="white"/>
<path fill-rule="evenodd" clip-rule="evenodd" d="M38.7659 0.753296H2.8328C1.50978 0.753296 0.437256 1.8244 0.437256 3.14567V31.8541C0.437256 33.1754 1.50978 34.2465 2.8328 34.2465H38.7659C40.089 34.2465 41.1615 33.1754 41.1615 31.8541V3.14567C41.1615 1.8244 40.089 0.753296 38.7659 0.753296ZM2.8328 31.8541V3.14567H38.7659V31.8541H2.8328Z" fill="#7B808C"/>
<path fill-rule="evenodd" clip-rule="evenodd" d="M7.02502 10.6218C7.02502 13.0992 9.036 15.1075 11.5167 15.1075C13.9973 15.1075 16.0083 13.0992 16.0083 10.6218C16.0083 8.14442 13.9973 6.13611 11.5167 6.13611C9.036 6.13611 7.02502 8.14442 7.02502 10.6218ZM13.6128 10.6218C13.6128 11.7779 12.6743 12.7151 11.5167 12.7151C10.359 12.7151 9.42057 11.7779 9.42057 10.6218C9.42057 9.46569 10.359 8.52848 11.5167 8.52848C12.6743 8.52848 13.6128 9.46569 13.6128 10.6218Z" fill="#7B808C"/>
<path d="M9.06608 29.115C8.5963 29.5801 7.83792 29.5768 7.37219 29.1077C6.90646 28.6385 6.90974 27.8811 7.37951 27.416L17.2308 17.6625L22.7832 22.4856C23.2824 22.9192 23.335 23.6747 22.9009 24.1732C22.4668 24.6716 21.7102 24.7243 21.2111 24.2907L17.3374 20.9258L9.06608 29.115Z" fill="#7B808C"/>
<path d="M18.0531 29.1113C17.5853 29.5785 16.8269 29.5785 16.3592 29.1114C15.8914 28.6443 15.8913 27.8869 16.3591 27.4197L32.1234 11.6749L40.7537 19.2374C41.2509 19.6732 41.3004 20.4289 40.8641 20.9255C40.4278 21.4221 39.671 21.4714 39.1738 21.0357L32.2304 14.9515L18.0531 29.1113Z" fill="#7B808C"/>
</svg>
