<svg width="594" height="123" viewBox="0 0 594 123" fill="none" xmlns="http://www.w3.org/2000/svg">
<path d="M214.888 91.3506H216.652L224.115 97.9994L229.075 91.3506H230.854L239.719 98.4442L232.618 107.309H230.854L223.391 101.015L218.431 107.309H216.652L207.787 100.66L214.888 91.3506ZM223.316 106.865H225.08L233.07 113.521L226.406 122.386H224.642L216.215 115.737L223.316 106.865Z" fill="#374493" fill-opacity="0.9"/>
<path d="M290.716 98.4442L283.615 108.199H281.851L274.312 101.369L269.428 108.199H267.649L258.783 101.105L265.885 91.3506H267.649L275.187 98.0899L280.072 91.3506H281.851L290.716 98.4442Z" fill="#374493" fill-opacity="0.9"/>
<path d="M21.2672 61.0863L12.4021 53.9851L19.4882 44.2305H21.2672L30.1323 51.3316L23.0463 61.0863H21.2672Z" fill="#374493" fill-opacity="0.9"/>
<path d="M80.9081 99.9513L73.807 109.706H72.043L64.5046 102.876L59.6198 109.706H57.8407L48.9756 102.612L56.0767 92.8577H57.8407L65.3791 99.597L70.2715 92.8577H72.043L80.9081 99.9513Z" fill="#374493" fill-opacity="0.9"/>
<path d="M146.303 38.1534L137.438 31.0523L144.524 21.2976H146.303L155.176 28.3988L148.082 38.1534H146.303Z" fill="#374493" fill-opacity="0.9"/>
<path d="M158.644 18.6199L152.448 13.2977C153.744 10.6442 154.799 8.50332 155.583 6.87502C156.383 5.24673 157.076 3.99535 157.634 3.10582C158.192 2.21629 158.704 1.62829 159.187 1.32676C159.654 1.0403 160.212 0.889531 160.86 0.889531C161.991 0.889531 163.514 1.10061 165.429 1.55291C167.358 1.99014 169.967 2.21629 173.284 2.21629C175.289 2.21629 177.46 2.06552 179.797 1.77906C182.134 1.47753 184.546 0.889531 187.034 0L187.908 1.32676L185.692 11.971C183.687 12.8605 181.41 13.5239 178.862 13.9611C176.329 14.4134 173.721 14.6245 171.067 14.6245C169.529 14.6245 168.022 14.519 166.544 14.2777C165.067 14.0365 163.83 13.7802 162.82 13.4787L160.423 18.6199H158.644Z" fill="#374493" fill-opacity="0.9"/>
<path d="M427.304 50.1227L419.766 43.3834L414.881 50.1227H413.102L404.237 43.014L411.338 33.2668H413.102L420.641 40.0966L425.525 33.2668H427.304L436.17 40.368L429.068 50.1227H427.304Z" fill="#374493" fill-opacity="0.9"/>
<path d="M474.73 34.6083L465.865 27.5071L472.951 17.7524H474.73L483.595 24.8536L476.509 34.6083H474.73Z" fill="#374493" fill-opacity="0.9"/>
<path d="M313.77 86.0372C312.654 86.0372 311.938 85.1326 311.599 83.3385C311.267 81.5293 311.124 78.74 311.124 74.9558C311.124 71.1715 311.267 68.3823 311.599 66.573C311.938 64.7638 312.654 63.8743 313.77 63.8743H356.339C359 63.8743 361.51 63.8592 363.832 63.829C366.161 63.7989 367.955 63.7235 369.192 63.6029C368.31 60.8288 366.825 59.4417 364.759 59.4266H335.503C329.065 59.4417 324.271 58.6275 321.127 56.9992C317.999 55.3709 316.423 52.3405 316.423 47.9079C316.423 45.4805 316.981 43.1285 318.074 40.8519C319.175 38.5753 320.592 36.4646 322.341 34.5197C324.075 32.5597 326.08 30.7806 328.319 29.1523C330.573 27.524 332.864 26.1369 335.201 24.976C337.515 23.8302 339.8 22.9256 342.016 22.2773C344.232 21.629 346.207 21.2973 347.918 21.2973C348.8 21.2973 349.826 21.5988 350.987 22.1868C352.125 22.7748 353.919 23.9659 356.339 25.7299L350.579 38.1532C349.682 37.6707 348.996 37.339 348.499 37.128C348.001 36.9169 347.496 36.8264 347.029 36.8264C345.785 36.8264 344.353 36.9923 342.724 37.3541C341.104 37.7009 339.453 38.1833 337.764 38.7713C336.076 39.3593 334.462 40.0227 332.894 40.7615C331.326 41.5002 329.97 42.2541 328.846 43.023C328.846 43.3848 328.914 43.6562 329.027 43.8221C329.155 44.003 329.449 44.1387 329.954 44.2292C330.46 44.3196 331.213 44.3648 332.216 44.3648C333.219 44.3648 334.606 44.3648 336.385 44.3648H365.212C368.4 44.3648 371.129 45.0282 373.368 46.355C375.622 47.6818 377.446 49.295 378.864 51.1796C380.288 53.0793 381.321 55.0996 381.969 57.2555C382.618 59.4266 382.942 61.3263 382.942 62.9847C382.942 65.1106 382.693 67.2666 382.188 69.4527C381.698 71.6388 381.02 73.6893 380.153 75.5739C379.301 77.4736 378.306 79.1471 377.182 80.6246C376.052 82.1022 374.876 83.1726 373.632 83.8209C372.923 84.2431 372.094 84.5748 371.152 84.8462C370.209 85.1025 369.049 85.3286 367.684 85.5095C366.335 85.6905 364.691 85.8111 362.769 85.9015C360.847 85.992 358.555 86.0372 355.894 86.0372H313.77ZM313.762 86.0448C310.521 86.0448 307.988 85.6528 306.178 84.8537C304.384 84.0546 302.997 82.8183 302.062 81.175C301.414 82.17 300.826 82.9088 300.329 83.3913C299.831 83.8586 299.424 84.1602 299.138 84.2657C298.248 84.7482 297.328 85.0949 296.379 85.3286C295.444 85.5774 294.539 85.7432 293.68 85.8186C292.82 85.9091 292.051 85.9694 291.373 85.9995C290.695 86.0297 290.182 86.0448 289.82 86.0448C288.704 86.0448 287.981 85.1402 287.649 83.346C287.317 81.5368 287.167 78.7476 287.167 74.9633C287.167 71.179 287.317 68.3898 287.649 66.5806C287.981 64.7713 288.704 63.8743 289.82 63.8743C290.468 63.8743 291.207 63.8667 292.036 63.8366C292.866 63.8064 293.604 63.6707 294.253 63.4295L293.815 48.7974C293.755 46.7847 293.68 45.081 293.589 43.6638C293.499 42.2315 293.348 40.9047 293.152 39.6684C292.941 38.4095 292.639 37.1657 292.263 35.8992C291.871 34.6327 291.358 33.1552 290.71 31.5118L304.098 20.4153C305.168 22.4356 306.013 24.3654 306.676 26.2349C307.324 28.0894 307.807 29.9589 308.138 31.8134C308.455 33.6829 308.666 35.5524 308.757 37.4521C308.847 39.3367 308.892 41.357 308.892 43.4829V62.9923C309.118 63.2184 309.465 63.3918 309.902 63.52C310.355 63.6406 310.822 63.731 311.32 63.7914C311.832 63.8517 312.3 63.8743 312.752 63.8743C313.189 63.8743 313.521 63.8743 313.762 63.8743V86.0448ZM289.805 86.0448C286.081 86.0448 283.081 85.5322 280.804 84.4919C278.528 83.4666 276.809 81.3408 275.618 78.1596C275.15 79.2753 274.713 80.1799 274.336 80.8583C273.944 81.5368 273.582 82.0946 273.221 82.5469C272.874 82.9842 272.497 83.3309 272.12 83.5571C271.728 83.7983 271.276 84.0396 270.748 84.2657C269.21 84.9291 267.522 85.3814 265.682 85.6528C263.858 85.9091 261.702 86.0448 259.214 86.0448C258.099 86.0448 257.375 85.1402 257.043 83.346C256.712 81.5368 256.561 78.7476 256.561 74.9633C256.561 71.179 256.712 68.3898 257.043 66.5806C257.375 64.7713 258.099 63.8743 259.214 63.8743C260.873 63.8743 262.546 63.8517 264.22 63.7914C265.908 63.731 267.702 63.52 269.587 63.1581L272.075 50.569H284.046V58.1074C284.046 60.1277 284.438 61.5901 285.237 62.4947C286.036 63.4144 287.559 63.8743 289.805 63.8743V86.0448ZM259.214 86.0297C257.33 86.0297 255.641 85.9242 254.164 85.7282C252.686 85.5171 251.374 85.11 250.213 84.522C249.068 83.934 248.073 83.1349 247.243 82.1248C246.414 81.1297 245.705 79.8482 245.117 78.3103C244.409 79.622 243.745 80.6623 243.127 81.4614C242.509 82.2605 241.801 82.8937 241.032 83.3762C240.504 83.7229 239.614 84.0546 238.378 84.3411C237.142 84.6426 235.649 84.9291 233.9 85.1854C232.151 85.4568 230.191 85.6678 228.005 85.8035C225.819 85.9543 223.512 86.0297 221.085 86.0297C216.653 86.0297 212.868 85.7885 209.732 85.3211C206.596 84.8537 204.033 83.9943 202.013 82.7429C200.008 81.5066 198.545 79.7879 197.626 77.6017C196.706 75.4156 196.254 72.6113 196.254 69.1738C196.254 66.5203 196.435 63.4144 196.781 59.8714C197.143 56.3283 197.55 52.7702 198.033 49.2271L209.114 49.6644C209.054 51.0363 208.994 52.3782 208.933 53.7049C208.873 55.0317 208.828 56.2982 208.798 57.4742C208.767 58.6652 208.737 59.7357 208.707 60.7157C208.692 61.6957 208.677 62.4344 208.677 62.9772C209.084 63.1581 209.762 63.2938 210.712 63.4144C211.662 63.535 212.702 63.6255 213.863 63.6858C215.009 63.7461 216.23 63.7914 217.497 63.8215C218.763 63.8517 219.969 63.8667 221.085 63.8667C225.518 63.8667 229.272 63.8366 232.347 63.7763C235.423 63.716 237.639 63.535 238.996 63.2335L241.484 50.5539H253.455V58.0923C253.455 60.1126 253.847 61.5751 254.646 62.4797C255.445 63.3994 256.968 63.8667 259.214 63.8667V86.0297Z" fill="#374493" fill-opacity="0.9"/>
<path d="M54.9698 86.0289C53.8541 86.0289 53.1304 85.1243 52.7988 83.3302C52.4671 81.5209 52.3163 78.7317 52.3163 74.9474C52.3163 71.1632 52.4671 68.374 52.7988 66.5647C53.1304 64.7555 53.8541 63.866 54.9698 63.866C58.1058 63.866 60.7442 63.8358 62.9002 63.7755C65.0712 63.7152 66.9106 63.5343 68.4484 63.2328C68.2072 62.5241 67.8906 61.6346 67.4684 60.534C67.0614 59.4485 66.6091 58.3026 66.0965 57.1266C65.5989 55.9356 65.0712 54.7747 64.4983 53.6138C63.9405 52.4679 63.4279 51.4427 62.9454 50.5532L76.2582 41.688L78.0222 42.3966C78.6705 44.1154 79.2584 45.8793 79.756 47.6735C80.2535 49.4827 80.6757 51.2467 80.9923 52.9956C81.324 54.7445 81.5803 56.3879 81.7461 57.9257C81.927 59.4636 82.0175 60.8506 82.0175 62.0869C82.0175 64.5143 81.731 66.8964 81.1732 69.2183C80.6154 71.5552 79.8917 73.681 79.0021 75.5656C78.1126 77.4653 77.1176 79.0936 75.9868 80.4806C74.8711 81.8828 73.7705 82.8326 72.7001 83.3754C71.9312 83.7825 71.0567 84.1594 70.0466 84.476C69.0364 84.8077 67.8454 85.0791 66.4583 85.3203C65.0712 85.5615 63.4279 85.7424 61.5282 85.848C59.6436 85.9686 57.4575 86.0289 54.9698 86.0289ZM54.9849 86.0214C53.2058 86.0214 51.8489 85.75 50.8991 85.2223C50.7785 86.5189 50.6126 87.8155 50.3714 89.082C50.1302 90.3484 49.8889 91.5244 49.6176 92.5798C49.3462 93.6502 49.105 94.5548 48.8637 95.2936C48.6225 96.0324 48.4567 96.4847 48.336 96.6656C47.5671 98.0225 46.2705 99.304 44.4312 100.525C42.5918 101.731 40.4358 102.817 37.9632 103.752C35.4756 104.702 32.7919 105.455 29.9273 106.013C27.0628 106.586 24.1831 106.858 21.2884 106.858C13.946 106.858 8.57867 105.274 5.14117 102.123C1.71875 98.9573 0 93.8915 0 86.9109C0 84.6645 0.226151 81.5285 0.663377 77.503C1.11568 73.4925 1.77906 68.7886 2.66858 63.4061L13.75 64.2957L12.4232 82.9155C13.2977 83.5638 14.6094 84.0312 16.313 84.2875C18.0318 84.5589 19.6902 84.6946 21.2884 84.6946C23.9419 84.6946 26.7914 84.5288 29.8369 84.2122C32.8824 83.8805 35.6565 83.1568 38.1291 82.026C37.9029 80.7294 37.5411 79.1162 37.0737 77.2014C36.5913 75.2716 36.0636 73.2815 35.4756 71.2159C34.8876 69.1504 34.2393 67.0698 33.5156 65.0043C32.807 62.9388 32.1285 61.0692 31.4802 59.4108L44.7779 50.9979L47.0093 51.7065C47.6576 54.4807 48.2607 56.8176 48.8185 58.7022C49.3763 60.6019 49.8136 61.8683 50.1 62.5166C50.3412 62.8785 50.6729 63.1498 51.08 63.3157C51.5022 63.4966 51.9394 63.6323 52.4068 63.7228C52.8892 63.8132 53.3415 63.8584 53.7938 63.8584C54.2311 63.8584 54.623 63.8584 54.9849 63.8584V86.0214Z" fill="#374493" fill-opacity="0.9"/>
<path d="M132.124 86.0296C131.008 86.0296 130.285 85.125 129.953 83.3308C129.621 81.5216 129.471 78.7324 129.471 74.9481C129.471 71.1638 129.621 68.3746 129.953 66.5654C130.285 64.7562 131.008 63.8667 132.124 63.8667C135.26 63.8667 137.899 63.8365 140.055 63.7762C142.226 63.7159 144.065 63.535 145.603 63.2334C145.362 62.5248 145.045 61.6353 144.623 60.5347C144.216 59.4492 143.763 58.3033 143.251 57.1273C142.753 55.9363 142.226 54.7753 141.653 53.6144C141.095 52.4686 140.582 51.4434 140.1 50.5538L153.413 41.6887L155.177 42.3973C155.825 44.116 156.413 45.88 156.91 47.6742C157.408 49.4834 157.83 51.2474 158.147 52.9963C158.478 54.7452 158.735 56.3886 158.9 57.9264C159.081 59.4642 159.172 60.8513 159.172 62.0876C159.172 64.515 158.885 66.8971 158.328 69.2189C157.77 71.5558 157.046 73.6817 156.157 75.5663C155.267 77.4659 154.272 79.0942 153.141 80.4813C152.025 81.8834 150.925 82.8333 149.854 83.376C149.086 83.7831 148.211 84.16 147.201 84.4767C146.191 84.8083 145 85.0797 143.613 85.321C142.226 85.5622 140.582 85.7431 138.683 85.8486C136.798 85.9693 134.612 86.0296 132.124 86.0296ZM112.607 48.7974C112.607 46.9052 112.555 45.2468 112.426 43.8296C112.328 42.4124 112.132 41.0705 111.853 39.8041C111.605 38.515 111.228 37.241 110.76 35.9444C110.278 34.6478 109.713 33.1552 109.072 31.5118L122.452 20.4153C123.53 22.4356 124.39 24.3654 125.038 26.2349C125.679 28.0894 126.169 29.9589 126.501 31.8134C126.81 33.6829 127.028 35.5524 127.119 37.4521C127.209 39.3367 127.254 41.357 127.254 43.4828V62.9922C127.473 63.2183 127.827 63.3917 128.257 63.5199C128.717 63.6405 129.184 63.731 129.697 63.7913C130.187 63.8516 130.654 63.8742 131.114 63.8742C131.551 63.8742 131.898 63.8742 132.117 63.8742V86.0446C127.285 86.0446 123.447 85.3813 120.651 84.0545C117.831 82.7277 115.781 80.4059 114.484 77.089C112.939 79.4561 110.806 81.5367 108.039 83.3459C105.303 85.14 101.933 86.9342 97.9904 88.7132L87.3386 75.4004L87.7759 73.1841C89.3212 72.6564 90.844 72.0534 92.3517 71.3749C93.8593 70.6965 95.3519 69.9878 96.8219 69.2792C96.4827 67.3946 96.0002 65.3442 95.4122 63.1204C94.8242 60.9116 94.0553 58.4842 93.1055 55.8458C92.1557 53.2149 91.04 50.3428 89.7434 47.2068C88.4242 44.0633 86.8939 40.6182 85.1299 36.8339L97.5305 26.1897C99.3699 30.4414 100.923 34.2106 102.197 37.4898C103.463 40.769 104.481 43.709 105.257 46.3172C106.026 48.9255 106.569 51.2021 106.901 53.147C107.21 55.0919 107.376 56.871 107.376 58.4692C107.376 59.4642 107.323 60.399 107.195 61.2584C107.097 62.1177 106.946 62.962 106.765 63.7913C108.544 62.6002 109.961 61.5599 111.009 60.6402C112.087 59.7205 112.607 59.027 112.607 58.5596V48.7974Z" fill="#374493" fill-opacity="0.9"/>
<path d="M166.295 85.1552L164.953 48.7974C164.893 46.7847 164.818 45.081 164.742 43.6638C164.652 42.2315 164.501 40.9047 164.29 39.6684C164.079 38.4095 163.793 37.1657 163.401 35.8992C163.024 34.6327 162.511 33.1552 161.848 31.5118L175.251 20.4153C176.306 22.4356 177.166 24.3654 177.814 26.2349C178.462 28.0894 178.96 29.9589 179.276 31.8134C179.608 33.6829 179.819 35.5524 179.895 37.4521C179.985 39.3367 180.03 41.357 180.03 43.4829V80.7226L168.059 86.0448L166.295 85.1552Z" fill="#374493" fill-opacity="0.9"/>
<path d="M454.781 86.0283C453.666 86.0283 452.942 85.1162 452.61 83.3296C452.279 81.5128 452.12 78.7311 452.12 74.9393C452.12 71.155 452.279 68.3658 452.61 66.5641C452.942 64.7474 453.666 63.8578 454.781 63.8578H468.079C470.092 63.8578 471.72 63.7824 473.009 63.6317C474.276 63.4809 475.459 63.2095 476.59 62.7949C477.713 62.3803 478.867 61.7923 480.05 61.0535C481.241 60.3223 482.719 59.3348 484.483 58.0834C482.236 57.5557 480.352 57.1185 478.814 56.7642C477.268 56.4099 476.01 56.1234 474.992 55.9123C473.982 55.7013 473.198 55.5807 472.602 55.5279C472.014 55.46 471.547 55.4299 471.185 55.4299C470.718 55.4299 470.235 55.445 469.768 55.4751C469.3 55.5053 468.871 55.5806 468.531 55.6937V59.8625L460.541 62.9683L459.033 62.0788C458.973 61.5586 458.943 60.8726 458.905 60.0509C458.875 59.2142 458.852 58.3699 458.822 57.518C458.784 56.6586 458.777 55.837 458.777 55.068C458.777 54.2991 458.777 53.681 458.777 53.2136C458.777 51.1933 458.905 49.3916 459.161 47.7558C459.44 46.1275 459.892 44.9967 460.541 44.3484C462.32 42.5693 464.22 41.1672 466.27 40.1269C468.298 39.1092 470.092 38.574 471.637 38.574C473.054 38.574 474.916 38.8604 477.253 39.4183C479.598 39.9761 482.244 40.7601 485.237 41.7703C488.237 42.7804 491.478 43.9564 495.006 45.3133C498.519 46.6853 502.198 48.1327 506.035 49.663L506.653 51.4345L500.901 62.5235C499.529 62.6366 498.399 62.8552 497.479 63.1492C496.559 63.4432 495.7 63.888 494.871 64.476C494.034 65.064 493.19 65.8178 492.33 66.7375C491.478 67.6572 490.483 68.7578 489.368 70.062C486.171 73.8387 483.442 76.8013 481.166 78.9347C478.882 81.068 476.733 82.6662 474.698 83.714C472.64 84.7845 470.574 85.4403 468.486 85.6816C466.391 85.9002 463.88 86.0283 460.993 86.0283H454.781ZM454.781 86.0283C452.897 86.0283 451.208 85.9228 449.731 85.7268C448.246 85.5157 446.942 85.1086 445.781 84.5206C444.635 83.9326 443.632 83.1336 442.81 82.1234C441.981 81.1283 441.265 79.8468 440.685 78.309C439.976 79.6207 439.305 80.661 438.695 81.46C438.069 82.2591 437.368 82.8923 436.599 83.3748C436.071 83.7216 435.182 84.0532 433.945 84.3397C432.701 84.6412 431.216 84.9277 429.468 85.184C427.719 85.4554 425.759 85.6665 423.572 85.8022C421.379 85.9529 419.08 86.0283 416.652 86.0283C412.22 86.0283 408.435 85.7871 405.299 85.3197C402.156 84.8523 399.6 83.9929 397.58 82.7416C395.567 81.5053 394.112 79.7865 393.193 77.6004C392.273 75.4142 391.821 72.6099 391.821 69.1724C391.821 66.5189 392.002 63.4131 392.348 59.87C392.71 56.327 393.11 52.7688 393.592 49.2258L404.681 49.663C404.613 51.035 404.561 52.3768 404.5 53.7036C404.433 55.0303 404.395 56.2968 404.365 57.4728C404.327 58.6639 404.304 59.7343 404.274 60.7143C404.252 61.6943 404.237 62.4331 404.237 62.9758C404.651 63.1568 405.33 63.2925 406.279 63.4131C407.229 63.5337 408.27 63.6241 409.423 63.6845C410.576 63.7448 411.79 63.79 413.064 63.8201C414.323 63.8503 415.529 63.8654 416.652 63.8654C421.085 63.8654 424.839 63.8352 427.915 63.7749C430.983 63.7146 433.207 63.5337 434.563 63.2321L437.051 50.5525H449.022V58.0909C449.022 60.1112 449.414 61.5737 450.206 62.4783C451.012 63.398 452.535 63.8654 454.781 63.8654V86.0283Z" fill="#374493" fill-opacity="0.9"/>
<path d="M574.95 86.0297C572.817 86.0297 570.917 85.6377 569.259 84.8386C567.615 84.0396 566.153 82.5168 564.917 80.2703C564.087 81.6876 563.356 82.7429 562.708 83.4214C562.06 84.0999 561.562 84.522 561.2 84.7029C560.484 85.0497 559.459 85.3663 558.132 85.6377C556.805 85.894 555.464 86.0297 554.114 86.0297C551.385 86.0297 549.244 85.6377 547.669 84.8386C546.108 84.0396 544.759 82.5168 543.628 80.2703C542.822 81.6273 542.091 82.6223 541.457 83.2405C540.847 83.8586 540.183 84.3411 539.467 84.7029C537.688 85.5925 535.193 86.0297 531.929 86.0297C530.813 86.0297 530.097 85.1251 529.758 83.3309C529.434 81.5217 529.275 78.7325 529.275 74.9482C529.275 71.1639 529.434 68.3747 529.758 66.5655C530.097 64.7563 530.813 63.8667 531.929 63.8667C532.517 63.8667 533.474 63.8517 534.763 63.8215C536.075 63.7914 537.281 63.6255 538.404 63.324L540.794 52.333H551.438V58.0923C551.438 60.1126 551.725 61.5751 552.282 62.4797C552.84 63.3994 553.896 63.8667 555.441 63.8667C555.908 63.8667 556.444 63.8517 557.077 63.8215C557.703 63.7914 558.328 63.6557 558.976 63.4144L561.2 52.7702H571.844V58.0923C571.844 60.1126 572.063 61.5751 572.508 62.4797C572.938 63.3994 574.053 63.8667 575.832 63.8667C576.3 63.8667 577.069 63.8366 578.147 63.7763C579.202 63.716 580.265 63.5652 581.32 63.324C581.162 62.5551 580.906 61.6052 580.566 60.4443C580.25 59.2985 579.873 58.0772 579.473 56.8108C579.044 55.5443 578.606 54.2779 578.147 53.0416C577.657 51.8053 577.197 50.6745 576.707 49.6644L589.13 41.6887L590.909 42.3973C591.444 44.1161 591.912 45.8801 592.326 47.6742C592.733 49.4834 593.065 51.2474 593.291 52.9963C593.532 54.7453 593.721 56.3886 593.834 57.9265C593.954 59.4643 594 60.8514 594 62.0877C594 64.515 593.728 66.9273 593.171 69.3095C592.598 71.7067 591.897 73.8928 591.03 75.883C590.185 77.858 589.235 79.5467 588.195 80.9337C587.17 82.3208 586.145 83.2857 585.142 83.8134C583.778 84.4617 582.308 85.0045 580.71 85.4115C579.111 85.8186 577.197 86.0297 574.95 86.0297ZM531.959 86.0448C528.295 86.0448 525.212 85.6829 522.732 84.9442C520.237 84.2054 518.239 82.9389 516.701 81.175C515.164 79.3959 514.078 77.0288 513.415 74.0738C512.766 71.1187 512.45 67.4249 512.45 62.9923V48.7974C512.45 46.9053 512.389 45.2468 512.269 43.8296C512.148 42.4124 511.945 41.0706 511.696 39.8041C511.425 38.515 511.063 37.241 510.58 35.9444C510.113 34.6478 509.555 33.1552 508.892 31.5118L522.295 20.4153C523.343 22.4356 524.21 24.3654 524.85 26.2349C525.499 28.0894 526.004 29.9589 526.32 31.8134C526.652 33.6829 526.863 35.5524 526.938 37.4521C527.029 39.3367 527.074 41.357 527.074 43.4829V62.9923C527.315 63.2184 527.662 63.3918 528.099 63.52C528.537 63.6406 529.019 63.731 529.517 63.7914C530.014 63.8517 530.489 63.8743 530.934 63.8743C531.386 63.8743 531.718 63.8743 531.959 63.8743V86.0448Z" fill="#374493" fill-opacity="0.9"/>
</svg>
