<svg width="950" height="665" viewBox="0 0 950 665" fill="none" xmlns="http://www.w3.org/2000/svg">
<path style="mix-blend-mode:multiply" d="M919.215 234.123C915.112 238.986 911.303 244.093 907.81 249.414C897.443 265.596 889.157 283.028 883.148 301.295C881.195 308.607 880.359 316.175 880.671 323.74C881.051 331.799 882.896 339.72 886.115 347.113C888.021 352.374 889.654 357.68 891.015 363.032C920.739 478.371 845.039 627.159 835.213 645.781H81.6688C78.9468 643.214 78.9468 640.101 82.1043 636.306C112.51 599.826 66.262 519.275 23.662 440.034C-18.938 360.793 -17.7131 190.926 144.276 203.514C306.265 216.101 264.754 71.4095 401.7 13.6037C444.49 -4.33602 475.93 -2.77961 502.062 8.1426C507.272 10.2835 512.329 12.7833 517.196 15.6243C571.637 60.5146 636.966 101.5 709.781 93.1993C717.403 92.2436 725.052 90.8237 732.646 89.1034C755.023 83.8783 776.887 76.6497 797.975 67.5048C803.038 64.3373 808.428 61.1426 814.035 58.1663C842.1 43.2302 876.125 33.1817 905.305 53.2513C963.612 96.6671 961.216 181.068 919.215 234.123Z" fill="url(#paint0_linear_163_1609)"/>
<g style="mix-blend-mode:multiply">
<path d="M923.293 645.791H48.9455C43.8792 645.791 39.7722 649.91 39.7722 654.993C39.7722 660.075 43.8792 664.195 48.9455 664.195H923.293C928.359 664.195 932.466 660.075 932.466 654.993C932.466 649.91 928.359 645.791 923.293 645.791Z" fill="#B2D2EA"/>
</g>
<path d="M602.967 162.265H591.916C589.994 153.755 586.732 145.607 582.253 138.127L590.419 129.935C591.106 129.25 591.651 128.435 592.024 127.538C592.396 126.64 592.587 125.678 592.587 124.706C592.587 123.734 592.396 122.772 592.024 121.874C591.651 120.977 591.106 120.162 590.419 119.477L572.617 101.619C571.934 100.93 571.121 100.383 570.227 100.009C569.332 99.6361 568.373 99.4439 567.404 99.4439C566.435 99.4439 565.476 99.6361 564.581 100.009C563.686 100.383 562.874 100.93 562.191 101.619L554.379 109.456C547.006 104.802 538.95 101.338 530.507 99.189V87.6934C530.507 85.7381 529.732 83.8629 528.354 82.4803C526.976 81.0977 525.106 80.3209 523.157 80.3209H497.951C496.002 80.3209 494.132 81.0977 492.754 82.4803C491.376 83.8629 490.601 85.7381 490.601 87.6934V98.8068C482.118 100.75 473.99 104.011 466.511 108.473L458.345 100.281C456.963 98.9039 455.094 98.1309 453.146 98.1309C451.198 98.1309 449.329 98.9039 447.947 100.281L430.09 118.194C429.404 118.876 428.859 119.689 428.487 120.584C428.116 121.479 427.924 122.439 427.924 123.409C427.924 124.379 428.116 125.339 428.487 126.234C428.859 127.129 429.404 127.942 430.09 128.624L437.957 136.488C433.312 143.872 429.858 151.944 427.722 160.408H416.235C414.279 160.408 412.402 161.188 411.019 162.575C409.636 163.963 408.858 165.845 408.858 167.808V193.065C408.858 195.028 409.636 196.91 411.019 198.298C412.402 199.686 414.279 200.465 416.235 200.465H427.368C429.281 208.974 432.534 217.122 437.004 224.603L428.838 232.795C428.152 233.478 427.607 234.29 427.235 235.185C426.863 236.08 426.672 237.041 426.672 238.01C426.672 238.98 426.863 239.94 427.235 240.835C427.607 241.73 428.152 242.543 428.838 243.226L446.64 261.111C448.027 262.49 449.901 263.263 451.853 263.263C453.806 263.263 455.679 262.49 457.066 261.111L464.878 253.247C472.251 257.875 480.295 261.33 488.723 263.486V275.009C488.723 276.965 489.498 278.84 490.876 280.222C492.254 281.605 494.124 282.382 496.073 282.382H521.279C523.228 282.382 525.097 281.605 526.476 280.222C527.854 278.84 528.628 276.965 528.628 275.009V263.923C537.112 262.009 545.236 258.746 552.691 254.257L560.857 262.449C561.54 263.138 562.353 263.685 563.247 264.058C564.142 264.432 565.101 264.624 566.07 264.624C567.039 264.624 567.998 264.432 568.893 264.058C569.788 263.685 570.6 263.138 571.283 262.449L589.085 244.564C589.771 243.881 590.316 243.068 590.688 242.173C591.06 241.278 591.251 240.318 591.251 239.348C591.251 238.378 591.06 237.418 590.688 236.523C590.316 235.628 589.771 234.816 589.085 234.133L581.246 226.269C585.88 218.88 589.333 210.809 591.48 202.349H602.94C603.908 202.353 604.866 202.165 605.761 201.796C606.656 201.427 607.469 200.885 608.155 200.2C608.84 199.515 609.384 198.701 609.755 197.804C610.126 196.908 610.317 195.947 610.317 194.977V169.665C610.317 167.707 609.544 165.829 608.166 164.442C606.788 163.055 604.919 162.272 602.967 162.265ZM515.862 227.989C506.15 229.301 496.273 227.529 487.617 222.921C478.961 218.313 471.961 211.101 467.601 202.297C463.24 193.494 461.738 183.542 463.305 173.839C464.873 164.135 469.43 155.168 476.338 148.196C483.246 141.224 492.158 136.598 501.822 134.967C511.485 133.336 521.415 134.783 530.217 139.103C539.019 143.424 546.251 150.402 550.897 159.057C555.543 167.711 557.37 177.609 556.121 187.359C554.805 197.632 550.146 207.183 542.867 214.529C535.588 221.875 526.095 226.607 515.862 227.989Z" fill="#B9DEF9"/>
<path d="M274.742 156.666C267.763 135.12 254.57 116.133 236.834 102.108C219.097 88.0826 197.612 79.6483 175.097 77.8716C152.582 76.095 130.047 81.0557 110.342 92.1266C90.6372 103.197 74.6477 119.881 64.3954 140.068C54.1432 160.255 50.0886 183.038 52.7446 205.536C55.4005 228.034 64.6475 249.237 79.3164 266.464C93.9853 283.69 113.417 296.166 135.155 302.314C156.892 308.462 179.959 308.006 201.438 301.003C230.217 291.582 254.096 271.096 267.839 244.038C281.581 216.979 284.064 185.558 274.742 156.666ZM166.051 88.9483C171.653 88.9267 177.136 90.5731 181.805 93.6791C186.475 96.7852 190.12 101.211 192.28 106.397C194.44 111.582 195.018 117.294 193.94 122.809C192.863 128.324 190.178 133.394 186.226 137.378C182.274 141.361 177.232 144.079 171.74 145.187C166.247 146.294 160.55 145.742 155.37 143.6C150.191 141.458 145.761 137.823 142.642 133.154C139.524 128.485 137.856 122.993 137.851 117.373C137.836 109.854 140.798 102.636 146.086 97.3061C151.374 91.9761 158.555 88.97 166.051 88.9483ZM68.3839 160.189C70.116 154.854 73.3858 150.155 77.7799 146.685C82.1741 143.214 87.4952 141.129 93.0708 140.691C98.6464 140.254 104.226 141.485 109.104 144.228C113.983 146.971 117.941 151.104 120.478 156.103C123.016 161.102 124.019 166.744 123.361 172.315C122.702 177.886 120.412 183.136 116.78 187.402C113.148 191.668 108.336 194.757 102.953 196.28C97.5709 197.803 91.8591 197.692 86.5399 195.959C83.0054 194.807 79.7318 192.969 76.9061 190.547C74.0805 188.126 71.7582 185.17 70.072 181.848C68.3859 178.526 67.3689 174.903 67.0792 171.187C66.7896 167.47 67.2329 163.733 68.3839 160.189ZM145.255 269.22C141.962 273.762 137.402 277.223 132.149 279.166C126.896 281.108 121.186 281.445 115.743 280.133C110.299 278.821 105.366 275.919 101.566 271.794C97.7662 267.67 95.2709 262.508 94.3956 256.961C93.5203 251.414 94.3042 245.731 96.6483 240.631C98.9924 235.531 102.791 231.243 107.565 228.308C112.338 225.374 117.872 223.925 123.466 224.145C129.06 224.365 134.464 226.244 138.994 229.545C142.002 231.737 144.551 234.502 146.494 237.683C148.437 240.863 149.737 244.397 150.318 248.081C150.899 251.765 150.751 255.529 149.883 259.156C149.014 262.783 147.441 266.202 145.255 269.22ZM226.562 275.5C222.032 278.8 216.629 280.679 211.035 280.9C205.44 281.12 199.907 279.671 195.133 276.736C190.36 273.802 186.561 269.514 184.217 264.414C181.873 259.313 181.089 253.631 181.964 248.084C182.839 242.537 185.334 237.375 189.134 233.25C192.934 229.126 197.867 226.224 203.311 224.912C208.755 223.6 214.464 223.936 219.717 225.879C224.97 227.821 229.531 231.282 232.823 235.825C235.009 238.842 236.582 242.262 237.451 245.889C238.32 249.516 238.468 253.279 237.886 256.963C237.305 260.648 236.005 264.181 234.062 267.362C232.119 270.542 229.571 273.308 226.562 275.5ZM245.616 195.959C240.289 197.64 234.584 197.702 229.222 196.136C223.859 194.57 219.079 191.446 215.484 187.158C211.889 182.871 209.64 177.612 209.02 172.044C208.401 166.476 209.438 160.848 212.003 155.871C214.567 150.894 218.542 146.79 223.429 144.076C228.315 141.362 233.893 140.161 239.459 140.622C245.025 141.084 250.33 143.189 254.705 146.671C259.081 150.153 262.33 154.856 264.045 160.189C265.193 163.742 265.63 167.487 265.331 171.211C265.033 174.934 264.004 178.561 262.305 181.885C260.605 185.208 258.268 188.162 255.428 190.577C252.587 192.993 249.299 194.821 245.752 195.959H245.616Z" fill="url(#paint1_linear_163_1609)"/>
<path style="mix-blend-mode:multiply" d="M166.131 229.246C186.606 229.246 203.205 212.596 203.205 192.056C203.205 171.517 186.606 154.866 166.131 154.866C145.655 154.866 129.057 171.517 129.057 192.056C129.057 212.596 145.655 229.246 166.131 229.246Z" fill="url(#paint2_linear_163_1609)"/>
<path d="M166.131 220.454C181.766 220.454 194.44 207.74 194.44 192.056C194.44 176.373 181.766 163.659 166.131 163.659C150.496 163.659 137.822 176.373 137.822 192.056C137.822 207.74 150.496 220.454 166.131 220.454Z" fill="white"/>
<path d="M166.131 299.994C225.558 299.994 273.734 251.669 273.734 192.056C273.734 132.443 225.558 84.1172 166.131 84.1172C106.704 84.1172 58.5288 132.443 58.5288 192.056C58.5288 251.669 106.704 299.994 166.131 299.994Z" stroke="#9A77FF" stroke-width="0.29" stroke-miterlimit="10"/>
<path d="M536.168 600.845H404.911V637.817H536.168V600.845Z" fill="url(#paint3_linear_163_1609)"/>
<path d="M789.399 194.705V587.276C789.399 591.621 787.679 595.789 784.616 598.861C781.553 601.934 777.399 603.66 773.067 603.66H168.037C163.706 603.66 159.551 601.934 156.488 598.861C153.426 595.789 151.705 591.621 151.705 587.276V194.705C151.705 190.383 153.407 186.237 156.44 183.168C159.474 180.1 163.593 178.358 167.901 178.322H773.067C777.399 178.322 781.553 180.048 784.616 183.12C787.679 186.193 789.399 190.36 789.399 194.705Z" fill="url(#paint4_linear_163_1609)"/>
<path d="M789.397 194.705V566.797H151.786V194.705C151.786 190.36 153.506 186.193 156.569 183.12C159.632 180.048 163.786 178.322 168.118 178.322H773.065C777.397 178.322 781.551 180.048 784.614 183.12C787.677 186.193 789.397 190.36 789.397 194.705Z" fill="url(#paint5_linear_163_1609)"/>
<path d="M773.61 194.704H167.465V549.593H773.61V194.704Z" fill="url(#paint6_linear_163_1609)"/>
<path d="M371.374 634.27H569.702C571.789 634.27 573.79 635.101 575.265 636.581C576.74 638.061 577.569 640.068 577.569 642.161V645.847H363.507V642.161C363.507 640.068 364.336 638.061 365.811 636.581C367.287 635.101 369.288 634.27 371.374 634.27Z" fill="url(#paint7_linear_163_1609)"/>
<g style="mix-blend-mode:screen">
<path style="mix-blend-mode:screen" d="M750.503 211.907H190.577V528.979H750.503V211.907Z" fill="url(#paint8_linear_163_1609)"/>
</g>
<path d="M513.955 380.163L513.574 381.883C511.724 389.819 511.968 398.1 514.282 405.912L521.033 428.794L484.938 469.753L488.586 474.04L531.839 442.966C533.597 441.705 535.024 440.035 535.996 438.099C536.968 436.164 537.456 434.02 537.419 431.852L536.793 393.352L536.957 403.646L558.488 479.146L564.096 478.709L560.53 381.801" fill="#20449B"/>
<path d="M529.554 389.31L523.239 403.236L529.554 429.777L501.816 458.748" stroke="#F9FBFC" stroke-width="0.16" stroke-miterlimit="10"/>
<path d="M529.443 391.084C530.135 391.084 530.695 390.522 530.695 389.829C530.695 389.136 530.135 388.574 529.443 388.574C528.752 388.574 528.191 389.136 528.191 389.829C528.191 390.522 528.752 391.084 529.443 391.084Z" fill="#F9FBFC"/>
<path d="M523.484 404.164C524.175 404.164 524.736 403.602 524.736 402.908C524.736 402.215 524.175 401.653 523.484 401.653C522.792 401.653 522.231 402.215 522.231 402.908C522.231 403.602 522.792 404.164 523.484 404.164Z" fill="#F9FBFC"/>
<path d="M529.499 431.061C530.19 431.061 530.751 430.499 530.751 429.806C530.751 429.113 530.19 428.551 529.499 428.551C528.807 428.551 528.247 429.113 528.247 429.806C528.247 430.499 528.807 431.061 529.499 431.061Z" fill="#F9FBFC"/>
<path d="M501.786 460.058C502.478 460.058 503.039 459.496 503.039 458.803C503.039 458.109 502.478 457.547 501.786 457.547C501.095 457.547 500.534 458.109 500.534 458.803C500.534 459.496 501.095 460.058 501.786 460.058Z" fill="#F9FBFC"/>
<path d="M591.535 375.848L593.631 377.35C593.631 377.35 595.509 375.548 596.652 376.039C597.796 376.531 594.91 377.541 595.836 377.841C596.761 378.142 600.599 378.251 600.436 379.48C600.289 380.341 599.889 381.138 599.288 381.771C598.687 382.403 597.911 382.841 597.061 383.029C595.444 383.113 593.86 382.553 592.651 381.473C591.676 380.918 590.62 380.522 589.521 380.299" fill="#D8A7B5"/>
<path d="M526.859 392.531L527.648 394.989C527.648 394.989 530.234 394.661 530.86 395.726C531.486 396.791 528.574 395.89 529.146 396.682C529.717 397.474 532.739 399.822 531.867 400.723C531.249 401.334 530.461 401.744 529.606 401.9C528.752 402.055 527.871 401.95 527.077 401.597C526.39 401.17 525.795 400.61 525.327 399.948C524.859 399.287 524.529 398.538 524.355 397.747C523.89 396.748 523.275 395.827 522.531 395.016" fill="#D8A7B5"/>
<path d="M572.751 359.467L565.891 341.281C565.253 339.595 564.191 338.102 562.808 336.949C561.424 335.796 559.767 335.021 557.997 334.701L556.391 334.428L527.674 333.69L522.23 334.865C519.406 335.477 516.832 336.931 514.845 339.036C512.859 341.141 511.552 343.798 511.097 346.661L508.592 362.744C508.044 366.227 508.677 369.794 510.389 372.874L513.928 379.509V380.164H514.281L522.693 395.428L527.429 393.517L523.645 381.12L527.048 381.475L560.502 381.748V360.395L563.795 365.392C565.536 368.035 567.965 370.151 570.818 371.509L590.526 380.956L592.84 376.751L572.751 359.467Z" fill="url(#paint9_linear_163_1609)"/>
<path d="M527.674 333.606L537.963 340.732C539.609 341.853 541.553 342.453 543.543 342.453C545.937 342.453 548.249 341.58 550.048 339.995L556.39 334.343V327.38L527.674 321.483V333.606Z" fill="#CE9DAD"/>
<path d="M515.207 282.956L518.092 313.784L537.147 332.898C539.269 335.029 542.147 336.227 545.15 336.229C546.668 336.244 548.173 335.952 549.576 335.37C550.979 334.789 552.251 333.929 553.316 332.843C560.215 325.832 564.079 316.373 564.068 306.521V283.939L515.207 282.956Z" fill="#D8A7B5"/>
<path d="M511.314 301.141C511.314 301.141 503.801 280.334 511.314 270.476C518.01 261.739 522.91 264.387 522.91 264.387C524.515 262.352 526.536 260.685 528.836 259.498C531.137 258.311 533.664 257.632 536.248 257.506C539.911 257.69 543.48 258.728 546.673 260.537C546.673 260.537 559.222 257.807 563.795 260.018C563.014 260.837 562.428 261.823 562.079 262.9C561.73 263.978 561.628 265.121 561.781 266.244C561.781 266.244 572.016 263.732 574.384 266.845C574.384 266.845 570.655 269.412 571.907 283.01C571.907 283.01 571.907 291.201 563.223 313.292V289.399C563.223 288.021 562.679 286.698 561.71 285.721C560.741 284.744 559.426 284.191 558.051 284.184L531.103 283.965C529.31 283.947 527.572 284.581 526.21 285.752C524.848 286.922 523.956 288.548 523.699 290.328L521.767 310.916H519.344L517.847 302.724C517.847 302.724 512.92 298.847 511.314 301.141Z" fill="url(#paint10_linear_163_1609)"/>
<path d="M537.394 308.677C538.611 308.677 539.599 306.746 539.599 304.363C539.599 301.981 538.611 300.049 537.394 300.049C536.176 300.049 535.189 301.981 535.189 304.363C535.189 306.746 536.176 308.677 537.394 308.677Z" fill="url(#paint11_linear_163_1609)"/>
<path d="M555.957 308.677C557.175 308.677 558.162 306.746 558.162 304.363C558.162 301.981 557.175 300.049 555.957 300.049C554.74 300.049 553.752 301.981 553.752 304.363C553.752 306.746 554.74 308.677 555.957 308.677Z" fill="url(#paint12_linear_163_1609)"/>
<path d="M561.565 296.034L550.133 292.894L550.514 291.311L562.164 293.823L561.565 296.034Z" fill="url(#paint13_linear_163_1609)"/>
<path d="M530.235 296.253L541.34 292.457L541.068 290.901L529.636 294.041L530.235 296.253Z" fill="url(#paint14_linear_163_1609)"/>
<path d="M549.83 313.265H543.76V315.258H549.83V313.265Z" fill="#CE9DAD"/>
<path d="M537.148 319.682L540.85 321.593H551.112L554.324 319.573L555.413 319.873L549.86 327.573H543.028L536.168 321.075L537.148 319.682Z" fill="#AC286B"/>
<path d="M537.148 319.682L541.911 324.16H549.206L554.323 319.573L551.112 321.593H540.85L537.148 319.682Z" fill="#FEFCFD"/>
<path d="M517.984 302.423C517.984 302.423 512.921 299.146 511.56 300.484C510.199 301.822 511.56 307.01 513.302 308.949C515.044 310.887 518.338 314 518.338 314" fill="#D8A7B5"/>
<path d="M527.456 393.543L526.802 391.632C526.421 390.403 525.85 388.628 525.169 386.553C524.488 384.478 523.726 381.993 522.91 379.399C522.093 376.805 521.222 373.938 520.378 371.207C519.779 369.214 519.181 367.221 518.609 365.364C518.609 364.463 518.881 363.671 519.017 362.879C519.48 360.148 519.915 357.636 520.297 355.479C520.678 353.322 521.032 351.493 521.249 350.236L521.63 348.243L521.331 350.236C521.168 351.52 520.895 353.349 520.569 355.506C520.242 357.664 519.861 360.23 519.426 362.961C519.426 363.753 519.18 364.545 519.044 365.418L520.841 371.262L523.318 379.453L525.441 386.662L526.911 391.795L527.456 393.543Z" fill="#654ED8"/>
<path d="M558.489 479.117L558.761 483.049C558.761 483.049 566.927 483.049 571.609 482.803C572.752 482.803 573.705 481.465 574.059 480.892C574.383 480.374 574.551 479.772 574.542 479.16C574.533 478.548 574.347 477.952 574.008 477.444C573.668 476.935 573.188 476.536 572.627 476.296C572.067 476.055 571.448 475.982 570.847 476.086C568.424 476.441 568.751 479.418 566.437 479.663C564.586 479.854 564.096 478.68 564.096 478.68" fill="#060B2F"/>
<path d="M484.938 469.617L481.808 472.348C481.808 472.348 486.625 479.064 489.592 482.587C490 482.939 490.478 483.199 490.995 483.35C491.511 483.501 492.054 483.538 492.587 483.46C493.199 483.419 493.787 483.2 494.277 482.829C494.767 482.459 495.139 481.952 495.347 481.373C495.555 480.793 495.59 480.166 495.448 479.567C495.306 478.967 494.992 478.423 494.546 478C492.831 476.252 490.627 478.273 489.102 476.552C488.748 476.259 488.498 475.858 488.39 475.41C488.282 474.962 488.322 474.491 488.504 474.068" fill="#060B2F"/>
<path d="M542.429 390.211L553.181 417.134L560.176 469.615" stroke="#F9FBFC" stroke-width="0.16" stroke-miterlimit="10"/>
<path d="M542.32 391.385C543.011 391.385 543.572 390.823 543.572 390.13C543.572 389.436 543.011 388.874 542.32 388.874C541.628 388.874 541.068 389.436 541.068 390.13C541.068 390.823 541.628 391.385 542.32 391.385Z" fill="#F9FBFC"/>
<path d="M553.236 418.662C553.927 418.662 554.488 418.1 554.488 417.407C554.488 416.713 553.927 416.151 553.236 416.151C552.544 416.151 551.984 416.713 551.984 417.407C551.984 418.1 552.544 418.662 553.236 418.662Z" fill="#F9FBFC"/>
<path d="M560.204 471.2C560.895 471.2 561.456 470.637 561.456 469.944C561.456 469.251 560.895 468.689 560.204 468.689C559.512 468.689 558.952 469.251 558.952 469.944C558.952 470.637 559.512 471.2 560.204 471.2Z" fill="#F9FBFC"/>
<path d="M543.817 291.667L548.091 310.208L548.635 325.417L544.116 341.991" stroke="#F9FBFC" stroke-width="0.16" stroke-miterlimit="10"/>
<path d="M553.345 344.228L561.974 345.921L567.663 362.332L586.853 375.766" stroke="#F9FBFC" stroke-width="0.16" stroke-miterlimit="10"/>
<path d="M524.736 340.652L516.924 344.502L512.922 366.429L523.593 391.714" stroke="#F9FBFC" stroke-width="0.16" stroke-miterlimit="10"/>
<path d="M539.407 348.326V377.815" stroke="#F9FBFC" stroke-width="0.16" stroke-miterlimit="10"/>
<path d="M543.817 293.577C544.509 293.577 545.069 293.015 545.069 292.322C545.069 291.628 544.509 291.066 543.817 291.066C543.126 291.066 542.565 291.628 542.565 292.322C542.565 293.015 543.126 293.577 543.817 293.577Z" fill="#F9FBFC"/>
<path d="M548.09 311.46C548.782 311.46 549.343 310.898 549.343 310.205C549.343 309.511 548.782 308.949 548.09 308.949C547.399 308.949 546.838 309.511 546.838 310.205C546.838 310.898 547.399 311.46 548.09 311.46Z" fill="#F9FBFC"/>
<path d="M548.632 326.671C549.323 326.671 549.884 326.109 549.884 325.416C549.884 324.722 549.323 324.16 548.632 324.16C547.94 324.16 547.38 324.722 547.38 325.416C547.38 326.109 547.94 326.671 548.632 326.671Z" fill="#F9FBFC"/>
<path d="M544.278 342.891C544.969 342.891 545.53 342.329 545.53 341.635C545.53 340.942 544.969 340.38 544.278 340.38C543.586 340.38 543.026 340.942 543.026 341.635C543.026 342.329 543.586 342.891 544.278 342.891Z" fill="#F9FBFC"/>
<path d="M516.922 345.758C517.613 345.758 518.174 345.195 518.174 344.502C518.174 343.809 517.613 343.247 516.922 343.247C516.23 343.247 515.669 343.809 515.669 344.502C515.669 345.195 516.23 345.758 516.922 345.758Z" fill="#F9FBFC"/>
<path d="M513.085 367.794C513.777 367.794 514.337 367.232 514.337 366.538C514.337 365.845 513.777 365.283 513.085 365.283C512.394 365.283 511.833 365.845 511.833 366.538C511.833 367.232 512.394 367.794 513.085 367.794Z" fill="#F9FBFC"/>
<path d="M523.728 393.186C524.419 393.186 524.98 392.624 524.98 391.93C524.98 391.237 524.419 390.675 523.728 390.675C523.036 390.675 522.476 391.237 522.476 391.93C522.476 392.624 523.036 393.186 523.728 393.186Z" fill="#F9FBFC"/>
<path d="M525.388 341.66C526.08 341.66 526.64 341.098 526.64 340.405C526.64 339.711 526.08 339.149 525.388 339.149C524.697 339.149 524.136 339.711 524.136 340.405C524.136 341.098 524.697 341.66 525.388 341.66Z" fill="#F9FBFC"/>
<path d="M539.406 378.987C540.098 378.987 540.658 378.425 540.658 377.732C540.658 377.038 540.098 376.476 539.406 376.476C538.715 376.476 538.154 377.038 538.154 377.732C538.154 378.425 538.715 378.987 539.406 378.987Z" fill="#F9FBFC"/>
<path d="M539.406 348.815C540.098 348.815 540.658 348.253 540.658 347.559C540.658 346.866 540.098 346.304 539.406 346.304C538.715 346.304 538.154 346.866 538.154 347.559C538.154 348.253 538.715 348.815 539.406 348.815Z" fill="#F9FBFC"/>
<path d="M552.363 345.347C553.054 345.347 553.615 344.785 553.615 344.092C553.615 343.398 553.054 342.836 552.363 342.836C551.671 342.836 551.111 343.398 551.111 344.092C551.111 344.785 551.671 345.347 552.363 345.347Z" fill="#F9FBFC"/>
<path d="M561.617 347.095C562.309 347.095 562.869 346.533 562.869 345.839C562.869 345.146 562.309 344.584 561.617 344.584C560.926 344.584 560.365 345.146 560.365 345.839C560.365 346.533 560.926 347.095 561.617 347.095Z" fill="#F9FBFC"/>
<path d="M567.741 363.616C568.432 363.616 568.993 363.054 568.993 362.361C568.993 361.668 568.432 361.105 567.741 361.105C567.049 361.105 566.489 361.668 566.489 362.361C566.489 363.054 567.049 363.616 567.741 363.616Z" fill="#F9FBFC"/>
<path d="M587.071 377.214C587.763 377.214 588.323 376.652 588.323 375.959C588.323 375.265 587.763 374.703 587.071 374.703C586.38 374.703 585.819 375.265 585.819 375.959C585.819 376.652 586.38 377.214 587.071 377.214Z" fill="#F9FBFC"/>
<g style="mix-blend-mode:screen">
<path style="mix-blend-mode:screen" d="M333.321 225.04H204.269V312.991H333.321V225.04Z" fill="url(#paint15_linear_163_1609)"/>
<path style="mix-blend-mode:screen" d="M333.321 325.934H204.269V413.885H333.321V325.934Z" fill="url(#paint16_linear_163_1609)"/>
<path style="mix-blend-mode:screen" d="M333.321 426.855H204.269V514.807H333.321V426.855Z" fill="url(#paint17_linear_163_1609)"/>
</g>
<path d="M256.53 272.361V272.907C255.934 275.403 256.009 278.013 256.748 280.471L258.871 287.706L247.493 300.594L248.664 301.932L262.273 292.157C262.829 291.762 263.28 291.238 263.589 290.629C263.897 290.02 264.053 289.345 264.043 288.662L263.852 276.511V279.761L270.657 303.543L272.426 303.406L271.201 273.017" fill="#20449B"/>
<path d="M261.459 275.257L259.472 279.625L261.459 288.008L252.722 297.128" stroke="#F9FBFC" stroke-width="0.05" stroke-miterlimit="10"/>
<path d="M261.415 275.798C261.632 275.798 261.808 275.622 261.808 275.405C261.808 275.187 261.632 275.011 261.415 275.011C261.198 275.011 261.022 275.187 261.022 275.405C261.022 275.622 261.198 275.798 261.415 275.798Z" fill="#F9FBFC"/>
<path d="M259.509 279.922C259.726 279.922 259.902 279.746 259.902 279.528C259.902 279.311 259.726 279.134 259.509 279.134C259.292 279.134 259.116 279.311 259.116 279.528C259.116 279.746 259.292 279.922 259.509 279.922Z" fill="#F9FBFC"/>
<path d="M261.415 288.385C261.632 288.385 261.808 288.209 261.808 287.991C261.808 287.774 261.632 287.597 261.415 287.597C261.198 287.597 261.022 287.774 261.022 287.991C261.022 288.209 261.198 288.385 261.415 288.385Z" fill="#F9FBFC"/>
<path d="M252.679 297.534C252.896 297.534 253.072 297.357 253.072 297.14C253.072 296.922 252.896 296.746 252.679 296.746C252.462 296.746 252.286 296.922 252.286 297.14C252.286 297.357 252.462 297.534 252.679 297.534Z" fill="#F9FBFC"/>
<path d="M280.976 270.994L281.629 271.486C281.629 271.486 282.228 270.913 282.582 271.076C282.936 271.24 282.038 271.54 282.337 271.622C282.637 271.704 283.834 271.759 283.78 272.141C283.736 272.413 283.612 272.665 283.422 272.865C283.233 273.065 282.987 273.202 282.718 273.259C282.468 273.279 282.216 273.248 281.977 273.169C281.739 273.089 281.519 272.962 281.33 272.796C281.031 272.606 280.698 272.476 280.35 272.413" fill="#D8A7B5"/>
<path d="M260.589 276.266L260.861 277.03C260.861 277.03 261.677 277.03 261.868 277.276C262.058 277.522 261.133 277.276 261.324 277.576C261.514 277.877 262.467 278.559 262.195 278.86C261.994 279.049 261.744 279.175 261.473 279.224C261.202 279.272 260.923 279.241 260.67 279.133C260.245 278.844 259.944 278.406 259.826 277.904C259.826 277.631 259.255 277.03 259.255 277.03" fill="#D8A7B5"/>
<path d="M275.067 265.836L272.889 260.102C272.695 259.568 272.364 259.094 271.929 258.73C271.494 258.365 270.971 258.123 270.412 258.027H269.922L260.858 257.808L259.089 258.191C258.199 258.377 257.387 258.833 256.764 259.497C256.141 260.161 255.736 261.002 255.605 261.904L254.815 266.955C254.634 268.051 254.825 269.177 255.36 270.15L256.53 272.28V272.471L259.252 277.276L260.722 276.676L259.551 272.771H260.613H271.147V266.136L272.208 267.693C272.753 268.529 273.515 269.199 274.413 269.631L280.619 272.607L281.354 271.269L275.067 265.836Z" fill="url(#paint18_linear_163_1609)"/>
<path d="M260.861 257.698L264.1 259.937C264.622 260.292 265.238 260.483 265.869 260.483C266.618 260.48 267.342 260.209 267.91 259.719L269.925 257.917V255.732L260.861 253.903V257.698Z" fill="#CE9DAD"/>
<path d="M256.941 241.723L257.839 251.443L263.828 257.478C264.159 257.814 264.553 258.082 264.987 258.264C265.422 258.447 265.888 258.542 266.359 258.543C266.83 258.542 267.297 258.447 267.731 258.264C268.166 258.082 268.56 257.814 268.891 257.478C271.039 255.292 272.259 252.356 272.293 249.286V242.051L256.941 241.723Z" fill="#D8A7B5"/>
<path d="M255.715 247.458C255.715 247.458 253.347 240.905 255.715 237.82C258.083 234.734 259.362 235.881 259.362 235.881C259.873 235.243 260.513 234.72 261.241 234.348C261.968 233.977 262.766 233.764 263.581 233.724C264.71 233.83 265.799 234.194 266.766 234.789C268.546 234.335 270.405 234.279 272.21 234.625C271.966 234.886 271.784 235.197 271.675 235.537C271.567 235.877 271.536 236.237 271.584 236.591C271.584 236.591 274.823 235.799 275.558 236.782C275.558 236.782 274.387 237.574 274.768 241.861C274.38 245.173 273.461 248.4 272.046 251.417V243.772C272.05 243.558 272.011 243.346 271.932 243.147C271.853 242.949 271.735 242.768 271.586 242.615C271.436 242.463 271.258 242.342 271.061 242.259C270.865 242.176 270.654 242.134 270.44 242.134H261.948C261.38 242.128 260.829 242.33 260.398 242.702C259.967 243.074 259.686 243.59 259.607 244.154L259.008 250.625H258.219L257.756 247.895C257.756 247.895 256.205 246.748 255.715 247.458Z" fill="url(#paint19_linear_163_1609)"/>
<path d="M263.909 249.863C264.3 249.863 264.617 249.252 264.617 248.498C264.617 247.744 264.3 247.132 263.909 247.132C263.518 247.132 263.201 247.744 263.201 248.498C263.201 249.252 263.518 249.863 263.909 249.863Z" fill="url(#paint20_linear_163_1609)"/>
<path d="M269.76 249.863C270.151 249.863 270.468 249.252 270.468 248.498C270.468 247.744 270.151 247.132 269.76 247.132C269.369 247.132 269.052 247.744 269.052 248.498C269.052 249.252 269.369 249.863 269.76 249.863Z" fill="url(#paint21_linear_163_1609)"/>
<path d="M271.529 245.847L267.936 244.865L268.044 244.373L271.719 245.165L271.529 245.847Z" fill="url(#paint22_linear_163_1609)"/>
<path d="M261.675 245.927L265.16 244.726L265.078 244.235L261.485 245.245L261.675 245.927Z" fill="url(#paint23_linear_163_1609)"/>
<path d="M267.828 251.28H265.922V251.908H267.828V251.28Z" fill="#CE9DAD"/>
<path d="M263.852 253.301L264.995 253.902H268.234L269.269 253.274L269.595 253.356L267.853 255.812H265.703L263.525 253.738L263.852 253.301Z" fill="#AC286B"/>
<path d="M263.855 253.301L265.352 254.72H267.638L269.272 253.274L268.237 253.902H264.998L263.855 253.301Z" fill="#FEFCFD"/>
<path d="M257.81 247.868C257.81 247.868 256.204 246.83 255.769 247.267C255.333 247.704 255.769 249.315 256.341 249.998C256.839 250.561 257.366 251.099 257.919 251.609" fill="#D8A7B5"/>
<path d="M260.777 276.592L260.587 275.991L260.07 274.38L259.362 272.114L258.545 269.384L258.001 267.554V266.762L258.409 264.414L258.709 262.776V262.148V262.776L258.6 264.551L258.246 266.899V267.663L258.818 269.52L259.607 272.251L260.26 274.517L260.723 276.128L260.777 276.592Z" fill="#654ED8"/>
<path d="M270.578 303.545V304.8C270.578 304.8 273.163 304.8 274.606 304.8C274.987 304.8 275.287 304.363 275.395 304.2C275.496 304.036 275.548 303.847 275.545 303.654C275.542 303.462 275.484 303.274 275.378 303.113C275.273 302.953 275.123 302.826 274.948 302.748C274.772 302.669 274.578 302.643 274.388 302.672C273.626 302.672 273.735 303.736 273 303.818C272.265 303.9 272.265 303.49 272.265 303.49" fill="#060B2F"/>
<path d="M247.386 300.594L246.433 301.386C246.433 301.386 247.957 303.516 248.883 304.635C249.154 304.846 249.495 304.944 249.836 304.908C250.027 304.892 250.209 304.821 250.361 304.704C250.513 304.587 250.629 304.429 250.695 304.248C250.761 304.068 250.774 303.872 250.732 303.684C250.691 303.496 250.597 303.324 250.462 303.188C249.917 302.615 249.209 303.188 248.72 302.724C248.612 302.627 248.538 302.498 248.508 302.355C248.479 302.213 248.496 302.064 248.556 301.932" fill="#060B2F"/>
<path d="M265.516 275.529L268.891 284.021L271.096 300.568" stroke="#F9FBFC" stroke-width="0.05" stroke-miterlimit="10"/>
<path d="M265.446 275.878C265.663 275.878 265.839 275.702 265.839 275.484C265.839 275.267 265.663 275.091 265.446 275.091C265.23 275.091 265.054 275.267 265.054 275.484C265.054 275.702 265.23 275.878 265.446 275.878Z" fill="#F9FBFC"/>
<path d="M268.901 284.48C269.118 284.48 269.294 284.304 269.294 284.086C269.294 283.869 269.118 283.692 268.901 283.692C268.684 283.692 268.508 283.869 268.508 284.086C268.508 284.304 268.684 284.48 268.901 284.48Z" fill="#F9FBFC"/>
<path d="M271.105 301.055C271.322 301.055 271.498 300.879 271.498 300.661C271.498 300.444 271.322 300.268 271.105 300.268C270.888 300.268 270.712 300.444 270.712 300.661C270.712 300.879 270.888 301.055 271.105 301.055Z" fill="#F9FBFC"/>
<path d="M265.951 244.482L267.285 250.325L267.475 255.131L266.033 260.346" stroke="#F9FBFC" stroke-width="0.05" stroke-miterlimit="10"/>
<path d="M268.945 261.057L271.667 261.576L273.463 266.737L279.506 270.996" stroke="#F9FBFC" stroke-width="0.05" stroke-miterlimit="10"/>
<path d="M259.935 259.911L257.458 261.139L256.206 268.048L259.581 276.02" stroke="#F9FBFC" stroke-width="0.05" stroke-miterlimit="10"/>
<path d="M264.562 262.339V271.623" stroke="#F9FBFC" stroke-width="0.05" stroke-miterlimit="10"/>
<path d="M265.935 245.078C266.152 245.078 266.328 244.902 266.328 244.684C266.328 244.467 266.152 244.291 265.935 244.291C265.718 244.291 265.542 244.467 265.542 244.684C265.542 244.902 265.718 245.078 265.935 245.078Z" fill="#F9FBFC"/>
<path d="M267.269 250.705C267.485 250.705 267.661 250.529 267.661 250.311C267.661 250.094 267.485 249.918 267.269 249.918C267.052 249.918 266.876 250.094 266.876 250.311C266.876 250.529 267.052 250.705 267.269 250.705Z" fill="#F9FBFC"/>
<path d="M267.459 255.509C267.676 255.509 267.852 255.332 267.852 255.115C267.852 254.897 267.676 254.721 267.459 254.721C267.242 254.721 267.066 254.897 267.066 255.115C267.066 255.332 267.242 255.509 267.459 255.509Z" fill="#F9FBFC"/>
<path d="M266.07 260.615C266.286 260.615 266.462 260.439 266.462 260.221C266.462 260.004 266.286 259.827 266.07 259.827C265.853 259.827 265.677 260.004 265.677 260.221C265.677 260.439 265.853 260.615 266.07 260.615Z" fill="#F9FBFC"/>
<path d="M257.468 261.516C257.685 261.516 257.861 261.34 257.861 261.122C257.861 260.905 257.685 260.729 257.468 260.729C257.251 260.729 257.075 260.905 257.075 261.122C257.075 261.34 257.251 261.516 257.468 261.516Z" fill="#F9FBFC"/>
<path d="M256.243 268.451C256.46 268.451 256.636 268.275 256.636 268.057C256.636 267.84 256.46 267.663 256.243 267.663C256.026 267.663 255.851 267.84 255.851 268.057C255.851 268.275 256.026 268.451 256.243 268.451Z" fill="#F9FBFC"/>
<path d="M259.593 276.452C259.81 276.452 259.986 276.276 259.986 276.058C259.986 275.841 259.81 275.665 259.593 275.665C259.377 275.665 259.201 275.841 259.201 276.058C259.201 276.276 259.377 276.452 259.593 276.452Z" fill="#F9FBFC"/>
<path d="M260.138 260.207C260.355 260.207 260.53 260.031 260.53 259.813C260.53 259.596 260.355 259.419 260.138 259.419C259.921 259.419 259.745 259.596 259.745 259.813C259.745 260.031 259.921 260.207 260.138 260.207Z" fill="#F9FBFC"/>
<path d="M264.548 271.975C264.765 271.975 264.94 271.798 264.94 271.581C264.94 271.363 264.765 271.187 264.548 271.187C264.331 271.187 264.155 271.363 264.155 271.581C264.155 271.798 264.331 271.975 264.548 271.975Z" fill="#F9FBFC"/>
<path d="M264.548 262.471C264.765 262.471 264.94 262.295 264.94 262.078C264.94 261.86 264.765 261.684 264.548 261.684C264.331 261.684 264.155 261.86 264.155 262.078C264.155 262.295 264.331 262.471 264.548 262.471Z" fill="#F9FBFC"/>
<path d="M268.63 261.381C268.847 261.381 269.022 261.205 269.022 260.987C269.022 260.77 268.847 260.594 268.63 260.594C268.413 260.594 268.237 260.77 268.237 260.987C268.237 261.205 268.413 261.381 268.63 261.381Z" fill="#F9FBFC"/>
<path d="M271.541 261.928C271.758 261.928 271.934 261.752 271.934 261.535C271.934 261.317 271.758 261.141 271.541 261.141C271.324 261.141 271.148 261.317 271.148 261.535C271.148 261.752 271.324 261.928 271.541 261.928Z" fill="#F9FBFC"/>
<path d="M273.474 267.141C273.691 267.141 273.867 266.964 273.867 266.747C273.867 266.529 273.691 266.353 273.474 266.353C273.257 266.353 273.081 266.529 273.081 266.747C273.081 266.964 273.257 267.141 273.474 267.141Z" fill="#F9FBFC"/>
<path d="M279.545 271.429C279.762 271.429 279.938 271.253 279.938 271.035C279.938 270.818 279.762 270.642 279.545 270.642C279.328 270.642 279.152 270.818 279.152 271.035C279.152 271.253 279.328 271.429 279.545 271.429Z" fill="#F9FBFC"/>
<path d="M256.531 371.317L255.524 375.658L258.763 386.58H245.344L245.154 388.355L260.097 390.894C260.571 390.986 261.059 390.972 261.528 390.855C261.996 390.738 262.434 390.52 262.809 390.216C263.185 389.911 263.49 389.529 263.703 389.094C263.917 388.66 264.033 388.184 264.044 387.7L263.826 375.44V378.662L270.631 402.471H272.4L271.257 371.945" fill="#20449B"/>
<path d="M261.459 374.294L259.472 378.663L261.622 388.438L250.217 388.356" stroke="#F9FBFC" stroke-width="0.05" stroke-miterlimit="10"/>
<path d="M261.415 374.808C261.632 374.808 261.808 374.632 261.808 374.414C261.808 374.197 261.632 374.021 261.415 374.021C261.198 374.021 261.022 374.197 261.022 374.414C261.022 374.632 261.198 374.808 261.415 374.808Z" fill="#F9FBFC"/>
<path d="M259.509 378.93C259.726 378.93 259.902 378.754 259.902 378.536C259.902 378.319 259.726 378.143 259.509 378.143C259.292 378.143 259.116 378.319 259.116 378.536C259.116 378.754 259.292 378.93 259.509 378.93Z" fill="#F9FBFC"/>
<path d="M261.552 388.788C261.769 388.788 261.945 388.612 261.945 388.394C261.945 388.177 261.769 388 261.552 388C261.335 388 261.159 388.177 261.159 388.394C261.159 388.612 261.335 388.788 261.552 388.788Z" fill="#F9FBFC"/>
<path d="M250.199 388.734C250.416 388.734 250.592 388.557 250.592 388.34C250.592 388.122 250.416 387.946 250.199 387.946C249.983 387.946 249.807 388.122 249.807 388.34C249.807 388.557 249.983 388.734 250.199 388.734Z" fill="#F9FBFC"/>
<path d="M280.975 370.032L281.628 370.496C281.628 370.496 282.227 369.95 282.581 370.086C282.935 370.223 282.037 370.578 282.336 370.659C282.635 370.741 283.833 370.796 283.779 371.178C283.728 371.447 283.601 371.696 283.413 371.895C283.225 372.093 282.983 372.233 282.717 372.297C282.209 372.317 281.712 372.141 281.329 371.806C281.04 371.591 280.718 371.425 280.376 371.314" fill="#D8A7B5"/>
<path d="M260.589 375.303L260.861 376.068C260.861 376.068 261.677 376.068 261.868 376.286C262.058 376.504 261.133 376.286 261.324 376.586C261.514 376.887 262.467 377.597 262.195 377.87C261.998 378.065 261.747 378.196 261.475 378.245C261.203 378.294 260.922 378.258 260.67 378.143C260.249 377.863 259.947 377.434 259.826 376.941C259.691 376.609 259.498 376.304 259.255 376.04" fill="#D8A7B5"/>
<path d="M275.067 364.871L272.89 359.11C272.687 358.582 272.353 358.114 271.92 357.751C271.486 357.387 270.968 357.141 270.413 357.035H269.923L260.859 356.789L259.09 357.172C258.203 357.365 257.395 357.823 256.773 358.486C256.151 359.149 255.744 359.985 255.605 360.885L254.816 365.854C254.639 366.95 254.83 368.074 255.36 369.049L256.531 371.152V371.315L259.253 376.121L260.723 375.52L259.552 371.616H260.614H271.148V364.844L272.209 366.428C272.757 367.254 273.52 367.915 274.414 368.339L280.62 371.315L281.355 370.005L275.067 364.871Z" fill="url(#paint24_linear_163_1609)"/>
<path d="M260.861 356.709L264.1 358.976C264.622 359.331 265.238 359.521 265.869 359.522C266.624 359.52 267.351 359.238 267.91 358.73L269.925 356.955V354.771L260.861 352.914V356.709Z" fill="#CE9DAD"/>
<path d="M256.941 340.759L257.839 350.48L263.828 356.514C264.505 357.176 265.413 357.548 266.359 357.552C266.83 357.551 267.297 357.456 267.731 357.273C268.166 357.091 268.56 356.823 268.891 356.487C271.044 354.305 272.265 351.366 272.293 348.295V341.169L256.941 340.759Z" fill="#D8A7B5"/>
<path d="M255.715 346.495C255.715 346.495 253.347 339.942 255.715 336.83C258.083 333.717 259.362 334.918 259.362 334.918C259.871 334.275 260.51 333.747 261.237 333.371C261.965 332.994 262.764 332.777 263.581 332.734C264.738 332.79 265.866 333.117 266.875 333.69C268.657 333.25 270.513 333.194 272.318 333.526C272.078 333.788 271.898 334.1 271.79 334.44C271.682 334.779 271.648 335.138 271.692 335.492C271.692 335.492 274.931 334.7 275.666 335.683C275.666 335.683 274.496 336.502 274.877 340.789C274.486 344.091 273.567 347.309 272.155 350.318V342.809C272.155 342.377 271.988 341.961 271.688 341.65C271.388 341.34 270.98 341.158 270.549 341.144H262.057C261.493 341.137 260.945 341.335 260.515 341.701C260.085 342.068 259.801 342.577 259.716 343.137L259.035 349.472H258.246L257.783 346.741C257.783 346.741 256.205 345.785 255.715 346.495Z" fill="url(#paint25_linear_163_1609)"/>
<path d="M263.909 348.87C264.3 348.87 264.617 348.259 264.617 347.505C264.617 346.751 264.3 346.14 263.909 346.14C263.518 346.14 263.201 346.751 263.201 347.505C263.201 348.259 263.518 348.87 263.909 348.87Z" fill="url(#paint26_linear_163_1609)"/>
<path d="M269.76 348.87C270.151 348.87 270.468 348.259 270.468 347.505C270.468 346.751 270.151 346.14 269.76 346.14C269.369 346.14 269.052 346.751 269.052 347.505C269.052 348.259 269.369 348.87 269.76 348.87Z" fill="url(#paint27_linear_163_1609)"/>
<path d="M271.529 344.884L267.936 343.902L268.044 343.41L271.719 344.175L271.529 344.884Z" fill="url(#paint28_linear_163_1609)"/>
<path d="M261.675 344.937L265.16 343.764L265.078 343.273L261.485 344.255L261.675 344.937Z" fill="url(#paint29_linear_163_1609)"/>
<path d="M267.828 350.318H265.922V350.945H267.828V350.318Z" fill="#CE9DAD"/>
<path d="M263.852 352.339L264.995 352.939H268.234L269.269 352.311L269.595 352.393L267.853 354.822H265.703L263.525 352.775L263.852 352.339Z" fill="#AC286B"/>
<path d="M263.855 352.339L265.352 353.758H267.638L269.272 352.311L268.237 352.939H264.998L263.855 352.339Z" fill="#FEFCFD"/>
<path d="M257.81 346.906C257.81 346.906 256.204 345.868 255.769 346.278C255.333 346.687 255.769 348.353 256.341 349.008C256.912 349.664 257.919 350.592 257.919 350.592" fill="#D8A7B5"/>
<path d="M260.778 375.603L260.588 375.002L260.07 373.419L259.363 371.152L258.601 368.586L258.056 366.729V365.937L258.464 363.616L258.764 361.978V361.35V361.978L258.519 363.616L258.165 365.965V366.756L258.601 368.586L259.39 371.18L260.043 373.473L260.506 375.084L260.778 375.603Z" fill="#654ED8"/>
<path d="M270.578 402.582V403.81C270.578 403.81 273.163 403.81 274.606 403.81C274.773 403.774 274.931 403.701 275.067 403.597C275.204 403.494 275.316 403.361 275.395 403.209C275.501 403.048 275.556 402.859 275.554 402.666C275.553 402.473 275.495 402.285 275.388 402.124C275.28 401.964 275.128 401.84 274.95 401.766C274.773 401.692 274.577 401.672 274.388 401.708C273.626 401.708 273.735 402.745 273 402.827C272.265 402.909 272.265 402.527 272.265 402.527" fill="#060B2F"/>
<path d="M245.345 386.825L244.12 386.689C244.12 386.689 243.63 389.256 243.467 390.703C243.467 391.058 243.739 391.413 243.902 391.576C244.046 391.709 244.224 391.796 244.417 391.828C244.609 391.86 244.806 391.836 244.985 391.758C245.163 391.68 245.316 391.552 245.423 391.389C245.53 391.225 245.588 391.035 245.59 390.839C245.59 390.075 244.664 389.993 244.719 389.283C244.773 388.573 245.154 388.6 245.154 388.6" fill="#060B2F"/>
<path d="M265.516 374.566L268.891 383.031L271.096 399.577" stroke="#F9FBFC" stroke-width="0.05" stroke-miterlimit="10"/>
<path d="M265.446 374.915C265.663 374.915 265.839 374.738 265.839 374.521C265.839 374.303 265.663 374.127 265.446 374.127C265.23 374.127 265.054 374.303 265.054 374.521C265.054 374.738 265.23 374.915 265.446 374.915Z" fill="#F9FBFC"/>
<path d="M268.901 383.517C269.118 383.517 269.294 383.341 269.294 383.123C269.294 382.906 269.118 382.729 268.901 382.729C268.684 382.729 268.508 382.906 268.508 383.123C268.508 383.341 268.684 383.517 268.901 383.517Z" fill="#F9FBFC"/>
<path d="M271.105 400.066C271.322 400.066 271.498 399.89 271.498 399.673C271.498 399.455 271.322 399.279 271.105 399.279C270.888 399.279 270.712 399.455 270.712 399.673C270.712 399.89 270.888 400.066 271.105 400.066Z" fill="#F9FBFC"/>
<path d="M265.951 343.519L267.285 349.362L267.475 354.14L266.033 359.355" stroke="#F9FBFC" stroke-width="0.05" stroke-miterlimit="10"/>
<path d="M268.945 360.065L271.667 360.611L273.463 365.772L279.506 370.004" stroke="#F9FBFC" stroke-width="0.05" stroke-miterlimit="10"/>
<path d="M259.935 358.948L257.458 360.15L256.206 367.058L259.581 375.03" stroke="#F9FBFC" stroke-width="0.05" stroke-miterlimit="10"/>
<path d="M264.562 361.35V370.661" stroke="#F9FBFC" stroke-width="0.05" stroke-miterlimit="10"/>
<path d="M265.935 344.088C266.152 344.088 266.328 343.911 266.328 343.694C266.328 343.476 266.152 343.3 265.935 343.3C265.718 343.3 265.542 343.476 265.542 343.694C265.542 343.911 265.718 344.088 265.935 344.088Z" fill="#F9FBFC"/>
<path d="M267.269 349.74C267.485 349.74 267.661 349.564 267.661 349.347C267.661 349.129 267.485 348.953 267.269 348.953C267.052 348.953 266.876 349.129 266.876 349.347C266.876 349.564 267.052 349.74 267.269 349.74Z" fill="#F9FBFC"/>
<path d="M267.459 354.519C267.676 354.519 267.852 354.343 267.852 354.125C267.852 353.908 267.676 353.731 267.459 353.731C267.242 353.731 267.066 353.908 267.066 354.125C267.066 354.343 267.242 354.519 267.459 354.519Z" fill="#F9FBFC"/>
<path d="M266.07 359.625C266.286 359.625 266.462 359.448 266.462 359.231C266.462 359.013 266.286 358.837 266.07 358.837C265.853 358.837 265.677 359.013 265.677 359.231C265.677 359.448 265.853 359.625 266.07 359.625Z" fill="#F9FBFC"/>
<path d="M257.468 360.525C257.685 360.525 257.861 360.349 257.861 360.132C257.861 359.914 257.685 359.738 257.468 359.738C257.251 359.738 257.075 359.914 257.075 360.132C257.075 360.349 257.251 360.525 257.468 360.525Z" fill="#F9FBFC"/>
<path d="M256.243 367.488C256.46 367.488 256.636 367.311 256.636 367.094C256.636 366.876 256.46 366.7 256.243 366.7C256.026 366.7 255.851 366.876 255.851 367.094C255.851 367.311 256.026 367.488 256.243 367.488Z" fill="#F9FBFC"/>
<path d="M259.593 375.491C259.81 375.491 259.986 375.315 259.986 375.097C259.986 374.88 259.81 374.703 259.593 374.703C259.377 374.703 259.201 374.88 259.201 375.097C259.201 375.315 259.377 375.491 259.593 375.491Z" fill="#F9FBFC"/>
<path d="M260.138 359.244C260.355 359.244 260.53 359.068 260.53 358.85C260.53 358.633 260.355 358.457 260.138 358.457C259.921 358.457 259.745 358.633 259.745 358.85C259.745 359.068 259.921 359.244 260.138 359.244Z" fill="#F9FBFC"/>
<path d="M264.548 371.011C264.765 371.011 264.94 370.835 264.94 370.617C264.94 370.4 264.765 370.224 264.548 370.224C264.331 370.224 264.155 370.4 264.155 370.617C264.155 370.835 264.331 371.011 264.548 371.011Z" fill="#F9FBFC"/>
<path d="M264.548 361.508C264.765 361.508 264.94 361.332 264.94 361.114C264.94 360.897 264.765 360.72 264.548 360.72C264.331 360.72 264.155 360.897 264.155 361.114C264.155 361.332 264.331 361.508 264.548 361.508Z" fill="#F9FBFC"/>
<path d="M268.63 360.418C268.847 360.418 269.022 360.242 269.022 360.024C269.022 359.807 268.847 359.631 268.63 359.631C268.413 359.631 268.237 359.807 268.237 360.024C268.237 360.242 268.413 360.418 268.63 360.418Z" fill="#F9FBFC"/>
<path d="M271.541 360.964C271.758 360.964 271.934 360.788 271.934 360.571C271.934 360.353 271.758 360.177 271.541 360.177C271.324 360.177 271.148 360.353 271.148 360.571C271.148 360.788 271.324 360.964 271.541 360.964Z" fill="#F9FBFC"/>
<path d="M273.474 366.151C273.691 366.151 273.867 365.975 273.867 365.758C273.867 365.54 273.691 365.364 273.474 365.364C273.257 365.364 273.081 365.54 273.081 365.758C273.081 365.975 273.257 366.151 273.474 366.151Z" fill="#F9FBFC"/>
<path d="M279.545 370.439C279.762 370.439 279.938 370.263 279.938 370.045C279.938 369.828 279.762 369.651 279.545 369.651C279.328 369.651 279.152 369.828 279.152 370.045C279.152 370.263 279.328 370.439 279.545 370.439Z" fill="#F9FBFC"/>
<path d="M256.531 474.093C255.429 475.877 254.879 477.948 254.952 480.045L255.224 488.646L247.385 502.299L248.556 503.637L260.151 490.776L263.744 478.216V481.465L270.549 505.247L272.318 505.111L271.175 474.585" fill="#20449B"/>
<path d="M261.459 476.99L259.472 481.358L258.329 489.741L251.551 498.014" stroke="#F9FBFC" stroke-width="0.05" stroke-miterlimit="10"/>
<path d="M261.415 477.532C261.632 477.532 261.808 477.355 261.808 477.138C261.808 476.92 261.632 476.744 261.415 476.744C261.198 476.744 261.022 476.92 261.022 477.138C261.022 477.355 261.198 477.532 261.415 477.532Z" fill="#F9FBFC"/>
<path d="M259.509 481.626C259.726 481.626 259.902 481.45 259.902 481.232C259.902 481.015 259.726 480.838 259.509 480.838C259.292 480.838 259.116 481.015 259.116 481.232C259.116 481.45 259.292 481.626 259.509 481.626Z" fill="#F9FBFC"/>
<path d="M258.312 490.12C258.529 490.12 258.705 489.943 258.705 489.726C258.705 489.508 258.529 489.332 258.312 489.332C258.095 489.332 257.919 489.508 257.919 489.726C257.919 489.943 258.095 490.12 258.312 490.12Z" fill="#F9FBFC"/>
<path d="M251.482 498.476C251.699 498.476 251.874 498.3 251.874 498.082C251.874 497.865 251.699 497.688 251.482 497.688C251.265 497.688 251.089 497.865 251.089 498.082C251.089 498.3 251.265 498.476 251.482 498.476Z" fill="#F9FBFC"/>
<path d="M280.976 472.728L281.629 473.192C281.629 473.192 282.228 472.646 282.582 472.81C282.936 472.974 282.038 473.274 282.337 473.356C282.637 473.437 283.834 473.356 283.78 473.874C283.733 474.145 283.607 474.396 283.418 474.595C283.229 474.794 282.986 474.932 282.718 474.993C282.466 475.009 282.213 474.974 281.974 474.889C281.736 474.805 281.516 474.673 281.33 474.502C281.026 474.328 280.694 474.209 280.35 474.147" fill="#D8A7B5"/>
<path d="M260.589 478L260.861 478.765C260.861 478.765 261.677 478.765 261.868 479.01C262.058 479.256 261.133 479.01 261.324 479.311C261.514 479.611 262.467 480.294 262.195 480.567C262 480.766 261.749 480.899 261.476 480.948C261.203 480.997 260.921 480.959 260.67 480.84C260.249 480.56 259.947 480.131 259.826 479.638C259.826 479.365 259.255 478.765 259.255 478.765" fill="#D8A7B5"/>
<path d="M275.067 467.567L272.89 461.806C272.69 461.278 272.356 460.811 271.922 460.452C271.488 460.093 270.968 459.854 270.413 459.758H269.923L260.859 459.539L259.09 459.894C258.199 460.089 257.389 460.552 256.766 461.22C256.144 461.888 255.739 462.73 255.605 463.635L254.816 468.686C254.639 469.782 254.83 470.906 255.36 471.881L256.531 473.983V474.202L259.253 479.035L260.723 478.407L259.552 474.502H260.614H271.148V467.731L272.209 469.314C272.76 470.145 273.521 470.814 274.414 471.253L280.62 474.229L281.355 472.891L275.067 467.567Z" fill="url(#paint30_linear_163_1609)"/>
<path d="M260.861 459.429L264.1 461.668C264.622 462.023 265.238 462.214 265.869 462.214C266.624 462.213 267.351 461.931 267.91 461.422L269.925 459.648V457.463L260.861 455.607V459.429Z" fill="#CE9DAD"/>
<path d="M256.941 443.457L257.839 453.177L263.828 459.212C264.16 459.544 264.555 459.808 264.989 459.986C265.424 460.164 265.89 460.253 266.359 460.249C266.83 460.248 267.297 460.154 267.731 459.971C268.166 459.788 268.56 459.521 268.891 459.184C271.044 457.002 272.265 454.064 272.293 450.993V443.839L256.941 443.457Z" fill="#D8A7B5"/>
<path d="M255.715 449.192C255.715 449.192 253.347 442.639 255.715 439.526C258.083 436.414 259.362 437.615 259.362 437.615C259.87 436.973 260.509 436.447 261.237 436.075C261.965 435.703 262.765 435.493 263.581 435.458C264.74 435.501 265.871 435.829 266.875 436.414C268.655 435.962 270.511 435.897 272.318 436.223C272.078 436.485 271.898 436.797 271.79 437.136C271.682 437.476 271.648 437.835 271.692 438.188C271.692 438.188 274.931 437.424 275.666 438.38C275.666 438.38 274.496 439.199 274.877 443.485C274.49 446.789 273.57 450.007 272.155 453.015V445.506C272.159 445.292 272.12 445.08 272.041 444.881C271.962 444.683 271.844 444.502 271.694 444.349C271.545 444.197 271.367 444.076 271.17 443.993C270.973 443.91 270.762 443.868 270.549 443.868H262.057C261.489 443.862 260.938 444.064 260.507 444.436C260.076 444.808 259.795 445.324 259.716 445.888L259.117 452.359H258.328L257.865 449.629C257.865 449.629 256.205 448.482 255.715 449.192Z" fill="url(#paint31_linear_163_1609)"/>
<path d="M263.909 451.566C264.3 451.566 264.617 450.955 264.617 450.201C264.617 449.447 264.3 448.835 263.909 448.835C263.518 448.835 263.201 449.447 263.201 450.201C263.201 450.955 263.518 451.566 263.909 451.566Z" fill="url(#paint32_linear_163_1609)"/>
<path d="M269.76 451.566C270.151 451.566 270.468 450.955 270.468 450.201C270.468 449.447 270.151 448.835 269.76 448.835C269.369 448.835 269.052 449.447 269.052 450.201C269.052 450.955 269.369 451.566 269.76 451.566Z" fill="url(#paint33_linear_163_1609)"/>
<path d="M271.529 447.579L267.936 446.596L268.044 446.105L271.719 446.896L271.529 447.579Z" fill="url(#paint34_linear_163_1609)"/>
<path d="M261.675 447.663L265.16 446.462L265.078 445.971L261.485 446.953L261.675 447.663Z" fill="url(#paint35_linear_163_1609)"/>
<path d="M267.828 453.013H265.922V453.641H267.828V453.013Z" fill="#CE9DAD"/>
<path d="M263.852 455.037L264.995 455.637H268.234L269.269 455.009L269.595 455.091L267.853 457.52H265.703L263.525 455.473L263.852 455.037Z" fill="#AC286B"/>
<path d="M263.855 455.037L265.352 456.456H267.638L269.272 455.009L268.237 455.637H264.998L263.855 455.037Z" fill="#FEFCFD"/>
<path d="M257.81 449.602C257.81 449.602 256.204 448.564 255.769 449.001C255.333 449.438 255.769 451.049 256.341 451.732C256.837 452.289 257.364 452.817 257.919 453.315" fill="#D8A7B5"/>
<path d="M260.777 478.298L260.587 477.697L260.07 476.114L259.362 473.847L258.545 471.117L258.001 469.287V468.523L258.409 466.175L258.709 464.536V463.908V464.536L258.464 466.202L258.11 468.55V469.315L258.681 471.144L259.471 473.875L260.124 476.141L260.587 477.752L260.777 478.298Z" fill="#654ED8"/>
<path d="M270.578 505.278V506.506C270.578 506.506 273.163 506.506 274.606 506.506C274.775 506.465 274.934 506.388 275.07 506.279C275.206 506.171 275.317 506.034 275.395 505.878C275.501 505.717 275.556 505.528 275.554 505.335C275.553 505.142 275.495 504.953 275.388 504.793C275.28 504.633 275.128 504.509 274.95 504.435C274.773 504.361 274.577 504.341 274.388 504.377C273.626 504.377 273.735 505.442 273 505.496C272.265 505.551 272.265 505.196 272.265 505.196" fill="#060B2F"/>
<path d="M247.386 502.381L246.433 503.173C246.433 503.173 247.957 505.276 248.883 506.395C249.014 506.505 249.166 506.585 249.33 506.632C249.495 506.679 249.667 506.692 249.836 506.668C250.027 506.651 250.209 506.581 250.361 506.464C250.513 506.347 250.629 506.189 250.695 506.008C250.761 505.827 250.774 505.632 250.732 505.444C250.691 505.256 250.597 505.084 250.462 504.948C249.917 504.402 249.209 504.948 248.72 504.511C248.612 504.414 248.538 504.284 248.508 504.142C248.479 503.999 248.496 503.851 248.556 503.719" fill="#060B2F"/>
<path d="M265.516 477.263L268.891 485.754L271.096 502.274" stroke="#F9FBFC" stroke-width="0.05" stroke-miterlimit="10"/>
<path d="M265.446 477.613C265.663 477.613 265.839 477.437 265.839 477.22C265.839 477.002 265.663 476.826 265.446 476.826C265.23 476.826 265.054 477.002 265.054 477.22C265.054 477.437 265.23 477.613 265.446 477.613Z" fill="#F9FBFC"/>
<path d="M268.901 486.215C269.118 486.215 269.294 486.039 269.294 485.821C269.294 485.604 269.118 485.428 268.901 485.428C268.684 485.428 268.508 485.604 268.508 485.821C268.508 486.039 268.684 486.215 268.901 486.215Z" fill="#F9FBFC"/>
<path d="M271.105 502.762C271.322 502.762 271.498 502.586 271.498 502.368C271.498 502.151 271.322 501.974 271.105 501.974C270.888 501.974 270.712 502.151 270.712 502.368C270.712 502.586 270.888 502.762 271.105 502.762Z" fill="#F9FBFC"/>
<path d="M265.951 446.216L267.285 452.059L267.475 456.838L266.033 462.08" stroke="#F9FBFC" stroke-width="0.05" stroke-miterlimit="10"/>
<path d="M268.945 462.761L271.667 463.307L273.463 468.468L279.506 472.7" stroke="#F9FBFC" stroke-width="0.05" stroke-miterlimit="10"/>
<path d="M259.935 461.643L257.458 462.871L256.206 469.779L259.581 477.725" stroke="#F9FBFC" stroke-width="0.05" stroke-miterlimit="10"/>
<path d="M264.562 464.074V473.357" stroke="#F9FBFC" stroke-width="0.05" stroke-miterlimit="10"/>
<path d="M265.935 446.786C266.152 446.786 266.328 446.609 266.328 446.392C266.328 446.174 266.152 445.998 265.935 445.998C265.718 445.998 265.542 446.174 265.542 446.392C265.542 446.609 265.718 446.786 265.935 446.786Z" fill="#F9FBFC"/>
<path d="M267.269 452.437C267.485 452.437 267.661 452.261 267.661 452.043C267.661 451.826 267.485 451.649 267.269 451.649C267.052 451.649 266.876 451.826 266.876 452.043C266.876 452.261 267.052 452.437 267.269 452.437Z" fill="#F9FBFC"/>
<path d="M267.459 457.217C267.676 457.217 267.852 457.04 267.852 456.823C267.852 456.605 267.676 456.429 267.459 456.429C267.242 456.429 267.066 456.605 267.066 456.823C267.066 457.04 267.242 457.217 267.459 457.217Z" fill="#F9FBFC"/>
<path d="M266.07 462.347C266.286 462.347 266.462 462.171 266.462 461.953C266.462 461.736 266.286 461.559 266.07 461.559C265.853 461.559 265.677 461.736 265.677 461.953C265.677 462.171 265.853 462.347 266.07 462.347Z" fill="#F9FBFC"/>
<path d="M257.468 463.223C257.685 463.223 257.861 463.047 257.861 462.829C257.861 462.612 257.685 462.435 257.468 462.435C257.251 462.435 257.075 462.612 257.075 462.829C257.075 463.047 257.251 463.223 257.468 463.223Z" fill="#F9FBFC"/>
<path d="M256.243 470.185C256.46 470.185 256.636 470.009 256.636 469.792C256.636 469.574 256.46 469.398 256.243 469.398C256.026 469.398 255.851 469.574 255.851 469.792C255.851 470.009 256.026 470.185 256.243 470.185Z" fill="#F9FBFC"/>
<path d="M259.593 478.185C259.81 478.185 259.986 478.009 259.986 477.791C259.986 477.574 259.81 477.397 259.593 477.397C259.377 477.397 259.201 477.574 259.201 477.791C259.201 478.009 259.377 478.185 259.593 478.185Z" fill="#F9FBFC"/>
<path d="M260.138 461.94C260.355 461.94 260.53 461.764 260.53 461.546C260.53 461.329 260.355 461.152 260.138 461.152C259.921 461.152 259.745 461.329 259.745 461.546C259.745 461.764 259.921 461.94 260.138 461.94Z" fill="#F9FBFC"/>
<path d="M264.548 473.707C264.765 473.707 264.94 473.531 264.94 473.313C264.94 473.096 264.765 472.92 264.548 472.92C264.331 472.92 264.155 473.096 264.155 473.313C264.155 473.531 264.331 473.707 264.548 473.707Z" fill="#F9FBFC"/>
<path d="M264.548 464.204C264.765 464.204 264.94 464.028 264.94 463.811C264.94 463.593 264.765 463.417 264.548 463.417C264.331 463.417 264.155 463.593 264.155 463.811C264.155 464.028 264.331 464.204 264.548 464.204Z" fill="#F9FBFC"/>
<path d="M268.63 463.113C268.847 463.113 269.022 462.936 269.022 462.719C269.022 462.501 268.847 462.325 268.63 462.325C268.413 462.325 268.237 462.501 268.237 462.719C268.237 462.936 268.413 463.113 268.63 463.113Z" fill="#F9FBFC"/>
<path d="M271.541 463.658C271.758 463.658 271.934 463.482 271.934 463.265C271.934 463.047 271.758 462.871 271.541 462.871C271.324 462.871 271.148 463.047 271.148 463.265C271.148 463.482 271.324 463.658 271.541 463.658Z" fill="#F9FBFC"/>
<path d="M273.474 468.874C273.691 468.874 273.867 468.697 273.867 468.48C273.867 468.262 273.691 468.086 273.474 468.086C273.257 468.086 273.081 468.262 273.081 468.48C273.081 468.697 273.257 468.874 273.474 468.874Z" fill="#F9FBFC"/>
<path d="M279.545 473.133C279.762 473.133 279.938 472.957 279.938 472.74C279.938 472.522 279.762 472.346 279.545 472.346C279.328 472.346 279.152 472.522 279.152 472.74C279.152 472.957 279.328 473.133 279.545 473.133Z" fill="#F9FBFC"/>
<path d="M703.545 235.554H378.396V504.213H703.545V235.554Z" stroke="#F8FAFB" stroke-width="0.53" stroke-miterlimit="10"/>
<path d="M703.545 241.205C706.266 241.205 708.472 238.992 708.472 236.262C708.472 233.533 706.266 231.32 703.545 231.32C700.824 231.32 698.619 233.533 698.619 236.262C698.619 238.992 700.824 241.205 703.545 241.205Z" fill="white"/>
<path d="M378.806 241.205C381.527 241.205 383.732 238.992 383.732 236.262C383.732 233.533 381.527 231.32 378.806 231.32C376.085 231.32 373.879 233.533 373.879 236.262C373.879 238.992 376.085 241.205 378.806 241.205Z" fill="white"/>
<path d="M703.545 509.563C706.266 509.563 708.472 507.351 708.472 504.621C708.472 501.892 706.266 499.679 703.545 499.679C700.824 499.679 698.619 501.892 698.619 504.621C698.619 507.351 700.824 509.563 703.545 509.563Z" fill="white"/>
<path d="M378.806 509.563C381.527 509.563 383.732 507.351 383.732 504.621C383.732 501.892 381.527 499.679 378.806 499.679C376.085 499.679 373.879 501.892 373.879 504.621C373.879 507.351 376.085 509.563 378.806 509.563Z" fill="white"/>
<path d="M850.564 365.665H836.11V389.419H850.564V365.665Z" fill="#D8A7B5"/>
<g style="mix-blend-mode:multiply" opacity="0.5">
<path d="M850.564 365.665V369.76C847.842 370.743 843.079 375.467 840.765 375.412C839.022 375.393 837.354 374.698 836.11 373.474V367.822L846.644 365.665H850.564Z" fill="#D7CFBB"/>
</g>
<path d="M856.742 351.52C856.742 360.995 845.5 372.928 837.688 372.818C831.754 372.818 828.243 360.995 828.243 351.52C828.243 342.045 834.639 334.372 842.533 334.372C850.427 334.372 856.742 342.045 856.742 351.52Z" fill="#D8A7B5"/>
<path d="M832.599 384.614C833.451 385.611 834.009 386.827 834.211 388.124C834.413 389.421 834.25 390.749 833.742 391.959C829.414 403.046 813.164 446.024 804.834 443.294C795.062 440.099 812.538 402.499 818.145 393.844C822.8 386.635 828.244 379.863 832.599 384.614Z" fill="#D8A7B5"/>
<path d="M809.025 440.262C808.521 441.122 807.806 441.839 806.949 442.346C806.092 442.852 805.12 443.131 804.125 443.156C794.707 443.647 761.117 445.067 759.293 441.408C757.197 437.149 805.785 432.807 807.337 434.773C808.453 436.275 810.331 437.831 809.025 440.262Z" fill="#D8A7B5"/>
<path d="M810.958 407.85L799.825 432.425L773.067 436.056L773.965 443.729C773.965 443.729 805.487 445.094 809.515 442.664C813.544 440.234 826.093 414.403 826.093 414.403L810.958 407.85Z" fill="#D8A7B5"/>
<path d="M773.23 436.849L773.012 436.003L769.882 434.392C769.042 433.958 768.104 433.751 767.16 433.791L763.322 434.802C763.322 434.802 762.696 435.867 764.955 435.867C765.702 435.999 766.404 436.318 766.996 436.795L764.764 437.123L759.321 438.269C758.548 438.432 757.86 438.871 757.385 439.503C756.909 440.136 756.678 440.92 756.735 441.71C756.965 442.414 757.384 443.041 757.945 443.523C758.507 444.004 759.19 444.322 759.919 444.44L763.512 445.478C765.242 445.904 767.043 445.95 768.793 445.614L773.747 443.621L773.23 436.849Z" fill="#D8A7B5"/>
<path d="M830.555 405.829C829.657 407.877 828.16 411.427 826.282 415.578L809.949 407.55C810.222 406.894 822.607 377.049 830.964 381.555C839.32 386.06 833.958 397.993 830.555 405.829Z" fill="url(#paint36_linear_163_1609)"/>
<path d="M862.541 512.295C862.949 539 858.758 560.708 853.15 560.79C847.543 560.871 842.697 539.327 842.262 512.623C841.826 485.918 846.073 464.155 851.653 464.155C857.233 464.155 862.106 485.617 862.541 512.295Z" fill="#D8A7B5"/>
<path d="M831.183 512.46C828.624 539.028 822.036 560.135 816.456 559.616C810.876 559.098 808.453 537.089 811.012 510.466C813.571 483.844 820.158 462.764 825.711 463.31C831.264 463.856 833.741 486.001 831.183 512.46Z" fill="#D8A7B5"/>
<path d="M849.283 552.979C858.674 538.179 886.683 604.86 890.739 623.1C894.795 641.34 883.853 625.175 868.963 599.59C854.073 574.004 845.689 558.822 849.283 552.979Z" fill="#D8A7B5"/>
<path d="M814.332 551.698C827.943 540.775 833.196 612.78 831.155 631.43C829.113 650.079 823.968 631.184 818.089 602.158C812.209 573.132 808.97 556.012 814.332 551.698Z" fill="#D8A7B5"/>
<path d="M840.437 508.882C840.437 508.882 840.437 546.1 845.31 559.343C850.182 572.586 883.419 625.231 883.419 625.231L892.81 620.562C892.81 620.562 878.655 571.084 862.867 553.199C862.867 553.199 874.953 465.193 852.496 461.971C837.008 459.76 840.437 508.882 840.437 508.882Z" fill="#D8A7B5"/>
<path d="M883.417 625.258C883.417 625.258 883.989 627.524 881.131 628.835C878.273 630.146 885.431 631.92 885.431 631.92L894.278 624.63L893.788 622.145L892.808 620.589L883.417 625.258Z" fill="#D8A7B5"/>
<path d="M810.578 499.979C810.578 499.979 806.821 538.507 808.291 554.59C809.761 570.673 824.624 636.07 824.624 636.07L835.512 633.995C835.512 633.995 835.076 589.541 825.957 556.72C825.957 556.72 846.699 465.438 825.957 461.014C812.02 458.01 810.578 499.979 810.578 499.979Z" fill="#D8A7B5"/>
<path d="M835.43 633.913V637.708L825.331 642.459L817.683 641.149L821.766 639.21C821.766 639.21 824.487 637.626 824.487 635.988C824.487 634.35 835.43 633.913 835.43 633.913Z" fill="#D8A7B5"/>
<path d="M835.673 635.169C835.673 635.169 828.405 643.36 822.063 639.21C822.063 639.21 813.108 641.64 813.407 644.398C813.707 647.155 819.858 645.763 819.858 645.763L836.734 643.551C837.186 640.713 836.818 637.804 835.673 635.169Z" fill="url(#paint37_linear_163_1609)"/>
<path d="M893.789 622.116C893.789 622.116 888.345 631.536 881.132 628.806C881.132 628.806 872.83 632.983 873.701 635.605C874.572 638.226 880.261 635.605 880.261 635.605L896.402 630.144C896.3 627.275 895.394 624.493 893.789 622.116Z" fill="url(#paint38_linear_163_1609)"/>
<path d="M862.895 450.801C870.267 461.602 873.479 474.72 871.932 487.718C869.02 509.289 867.55 529.195 873.565 551.258C876.587 562.18 882.358 577.69 882.358 577.69C882.358 577.69 838.315 596.558 810.659 587.738C807.157 572.247 805.025 556.476 804.289 540.609C803.636 517.727 812.7 468.987 815.177 451.921C817.654 434.855 862.895 450.801 862.895 450.801Z" fill="url(#paint39_linear_163_1609)"/>
<path d="M817.029 436.002C816.595 441.503 815.84 446.973 814.769 452.386C824.1 453.711 833.521 454.286 842.943 454.106C849.768 454.025 856.548 452.986 863.086 451.02C862.359 444.072 862.249 437.072 862.759 430.104C862.977 426.036 863.548 421.039 864.229 415.769C864.909 410.499 865.644 404.492 866.162 399.167C866.887 393.834 866.933 388.429 866.298 383.084C865.209 377.623 850.619 375.357 850.619 375.357C850.619 375.357 841.609 382.92 837.635 380.654C835.811 379.616 836.165 375.548 836.165 375.548C830.013 376.476 827.454 378.087 825.712 380.026C819.805 386.579 812.102 401.87 812.102 411.373C812.129 422.595 818.281 424.015 817.029 436.002Z" fill="white"/>
<path d="M831.863 344.776C833.393 346.521 835.241 347.957 837.307 349.008C839.588 350.276 841.943 351.406 844.357 352.394C851.353 355.125 850.346 365.801 850.346 365.801C853.838 363.174 856.297 359.397 857.292 355.134C858.288 350.871 857.756 346.392 855.79 342.482C850.618 330.222 833.306 333.69 831.945 339.506C830.238 340.414 828.907 341.9 828.189 343.7C827.471 345.5 827.413 347.497 828.025 349.336C828.025 349.336 828.842 345.54 831.863 344.776Z" fill="url(#paint40_linear_163_1609)"/>
<path d="M855.301 339.615C855.301 339.615 886.986 320.774 898.5 343.356C910.014 365.937 893.41 374.238 923.489 394.089C923.489 394.089 905.469 428.767 883.856 413.367C862.243 397.967 878.411 359.466 871.742 352.121C865.073 344.776 859.276 348.162 859.276 348.162" fill="url(#paint41_linear_163_1609)"/>
<path d="M854.212 339.67C855.926 342.412 857.022 345.497 857.424 348.708L859.574 348.435C859.574 348.435 857.505 340.407 855.709 338.988L854.212 339.67Z" fill="url(#paint42_linear_163_1609)"/>
<path d="M817.185 439.513L765.415 440.03L765.44 442.568L817.211 442.051L817.185 439.513Z" fill="url(#paint43_linear_163_1609)"/>
<path d="M751.863 442.776L800.043 442.284L786.134 409.49L737.954 409.955L751.863 442.776Z" fill="url(#paint44_linear_163_1609)"/>
<path d="M750.502 442.776L798.683 442.312L784.773 409.49L736.593 409.982L750.502 442.776Z" fill="url(#paint45_linear_163_1609)"/>
<path d="M768.026 430.629C769.457 430.036 769.897 427.804 769.008 425.644C768.119 423.483 766.238 422.212 764.806 422.805C763.375 423.397 762.936 425.629 763.825 427.79C764.714 429.95 766.595 431.221 768.026 430.629Z" fill="url(#paint46_linear_163_1609)"/>
<path d="M861.751 381.392C862.968 381.939 864.004 382.823 864.737 383.94C865.47 385.058 865.87 386.362 865.888 387.7C866.651 399.578 870.625 447.089 861.941 448.127C851.734 449.356 851.053 406.24 852.55 396.028C853.748 387.372 855.817 378.935 861.751 381.392Z" fill="#D8A7B5"/>
<path d="M868.992 407.523C868.992 407.523 871.387 445.587 863.548 448.481C855.708 451.376 812.183 439.47 812.183 439.47L814.687 433.19H853.367L851.271 408.069L868.992 407.523Z" fill="#D8A7B5"/>
<path d="M864.747 445.805C863.915 446.761 862.853 447.487 861.661 447.913C860.469 448.338 859.188 448.449 857.941 448.235C846.073 446.624 806.903 440.589 805.515 435.592C803.909 429.776 862.46 435.729 863.93 438.569C865.046 440.726 866.951 443.074 864.747 445.805Z" fill="#D8A7B5"/>
<path d="M803.689 431.963C804.07 433.847 802.409 435.977 805.621 438.407C808.833 440.837 815.094 438.98 815.094 438.98L815.42 433.164C814.694 432.827 814.038 432.355 813.488 431.772C812.683 430.812 811.685 430.033 810.559 429.488C809.433 428.942 808.205 428.641 806.955 428.604C803.417 428.604 798.19 429.314 798 430.434C797.809 431.553 803.417 430.488 803.689 431.963Z" fill="#D8A7B5"/>
<path d="M869.943 408.233L850.89 408.943C850.672 405.557 849.502 377.952 859.872 377.952C869.181 377.952 869.862 398.431 869.943 408.233Z" fill="url(#paint47_linear_163_1609)"/>
<path d="M110.493 385.569C100.966 391.686 113.215 449.109 120.592 446.106C133.386 447.089 127.751 378.852 110.493 385.569Z" fill="#D8A7B5"/>
<path d="M127.371 419.619L128.841 440.781L146.997 444.276L146.398 454.734C146.398 454.734 118.279 455.144 115.203 448.044C112.128 440.945 109.406 421.503 109.406 421.503L127.371 419.619Z" fill="#D8A7B5"/>
<path d="M99.6597 376.532C126.064 379.863 125.329 403.1 127.479 419.674L108.942 422.186L99.6597 376.532Z" fill="url(#paint48_linear_163_1609)"/>
<path d="M115.583 448.29C121.926 456.099 168.609 456.208 169.589 453.068C172.665 449.3 106.002 431.388 115.583 448.29Z" fill="#D8A7B5"/>
<path d="M158.974 449.357L158.321 448.892L159.872 447.91L162.594 446.326C163.3 445.919 164.095 445.694 164.908 445.671L168.446 446.435C168.446 446.435 169.045 447.363 167.004 447.445C166.336 447.598 165.718 447.917 165.207 448.374L167.222 448.565L172.121 449.411C172.825 449.518 173.466 449.879 173.923 450.428C174.379 450.976 174.619 451.673 174.598 452.387C174.438 453.049 174.099 453.654 173.619 454.135C173.139 454.617 172.536 454.957 171.876 455.118L168.691 456.183C167.149 456.653 165.522 456.775 163.928 456.538L159.382 454.954L158.974 449.357Z" fill="#D8A7B5"/>
<path d="M101.728 458.012C85.0414 458.667 93.3981 474.204 96.6645 487.884C102.599 509.401 99.5499 537.361 108.26 540.338C131.398 547.191 123.259 464.893 116.808 461.152C111.988 459.28 106.892 458.219 101.728 458.012Z" fill="#D8A7B5"/>
<path d="M117.518 533.102C101.185 521.552 103.2 599.454 107.718 621.299C112.237 643.143 116.701 628.262 119.586 593.256C122.472 558.25 123.942 537.635 117.518 533.102Z" fill="#D8A7B5"/>
<path d="M105.242 619.114L104.779 627.305L118.117 627.633L117.735 619.715L105.242 619.114Z" fill="#D8A7B5"/>
<path d="M118.414 627.442C121.252 631.91 124.955 635.763 129.302 638.773C137.713 645.19 139.918 643.798 140.19 646.201C140.462 648.603 103.47 646.501 103.47 646.501L104.64 626.868C109.238 626.816 113.836 627.008 118.414 627.442Z" fill="url(#paint49_linear_163_1609)"/>
<path d="M83.8984 458.421C67.5661 455.145 67.5661 472.866 67.5661 486.956C68.3555 509.237 63.2925 535.095 71.0503 540.01C91.9829 552.052 97.917 467.487 92.5273 462.381C90.0775 460.005 89.2336 460.251 83.8984 458.421Z" fill="#D8A7B5"/>
<path d="M79.8151 533.102C63.4828 521.552 65.4971 599.454 70.0157 621.299C74.5343 643.143 78.9985 628.262 81.8838 593.256C84.7692 558.25 86.2391 537.635 79.8151 533.102Z" fill="#D8A7B5"/>
<path d="M68.0032 621.597L67.9487 629.598L80.7691 629.707L80.7419 622.635L68.0032 621.597Z" fill="#D8A7B5"/>
<path d="M67.8376 629.489C67.6743 632.656 64.3807 643.469 64.2991 646.227C84.6592 646.745 84.0876 650.841 80.7941 629.544L67.8376 629.489Z" fill="url(#paint50_linear_163_1609)"/>
<path d="M70.78 459.048C70.78 459.048 65.3359 468.332 65.9075 498.149C66.4519 532.226 66.1525 540.227 66.1525 542.739C66.1525 545.251 67.7858 623.127 67.7858 623.127H80.906C82.512 621.734 95.85 499.132 95.85 499.132C95.85 499.132 98.5721 528.185 99.4159 539.189C100.151 548.719 101.621 615.181 105.051 621.898C105.051 621.898 118.144 622.362 118.307 622.198C120.212 620.15 127.29 485.479 121.029 460.877L70.78 459.048Z" fill="url(#paint51_linear_163_1609)"/>
<path d="M122.116 464.593C122.306 467.897 95.5487 467.815 79.7064 465.903C73.0374 465.111 68.301 463.965 68.301 462.627C69.4123 443.97 68.417 425.247 65.334 406.814C62.367 386.062 61.5503 377.324 83.1634 374.566L99.6318 376.232C133.385 382.239 116.236 415.006 122.116 464.593Z" fill="url(#paint52_linear_163_1609)"/>
<path style="mix-blend-mode:multiply" d="M79.7074 465.902C73.0384 465.11 68.302 463.963 68.302 462.625C69.4133 443.968 68.4179 425.245 65.335 406.813L73.8005 405.911C71.9028 417.38 70.9921 428.992 71.0785 440.617C71.5957 455.116 72.2762 463.308 79.7074 465.902Z" fill="url(#paint53_linear_163_1609)"/>
<path d="M99.6852 371.589V380.982C98.9502 389.611 85.4489 380.3 83.9518 376.75C82.9174 374.456 84.469 373.31 84.4962 368.558L84.3873 363.125C68.3 337.485 95.1394 327.027 105.401 345.24C105.483 360.121 109.321 374.047 99.6852 371.589Z" fill="#D8A7B5"/>
<path d="M67.8663 382.238C56.9781 383.166 39.8565 440.563 47.5599 441.3C58.1758 447.935 85.7502 384.231 67.8663 382.238Z" fill="#D8A7B5"/>
<path d="M49.0034 413.176C49.0034 413.176 41.4361 435.84 45.3014 441.765C49.1668 447.69 91.5762 448.154 91.5762 448.154L93.8083 436.713L62.8859 430.324L66.4517 421.013L49.0034 413.176Z" fill="#D8A7B5"/>
<path d="M83.4086 374.566C83.4086 374.566 65.7697 375.44 61.6322 381.256C57.4947 387.072 47.8042 414.405 47.8042 414.405L66.8585 421.586L73.9086 405.886L83.4086 374.566Z" fill="url(#paint54_linear_163_1609)"/>
<path d="M109.131 339.996C109.261 341.326 109.013 342.664 108.415 343.858C107.818 345.052 106.896 346.051 105.756 346.741C104.567 347.333 103.258 347.641 101.932 347.641C100.605 347.641 99.2956 347.333 98.1071 346.741C95.5756 345.703 92.9079 344.229 90.1859 345.567C86.4023 347.451 89.3148 353.403 89.3148 356.489C88.6616 356.789 87.8449 357.144 87.1916 357.39C86.8378 355.205 86.1573 353.158 84.7146 353.212C82.7003 353.212 84.7146 362.933 84.4424 363.042C82.6283 360.74 81.2366 358.133 80.3321 355.342C80.0327 354.468 79.7605 353.567 79.5427 352.611C78.1 346.632 78.5628 337.266 85.749 335.3C88.7737 334.624 91.7407 333.711 94.6228 332.569C97.3449 331.259 100.257 329.839 103.361 330.986C105.048 331.819 106.478 333.099 107.495 334.686C108.511 336.274 109.077 338.11 109.131 339.996Z" fill="url(#paint55_linear_163_1609)"/>
<path d="M160.077 448.147L105.53 447.602L105.503 450.278L160.05 450.822L160.077 448.147Z" fill="#1B3689"/>
<path d="M174.354 450.938L123.615 450.447L138.259 415.878L189.026 416.369L174.354 450.938Z" fill="#1B3689"/>
<path d="M175.794 450.938L125.028 450.447L139.699 415.878L190.466 416.397L175.794 450.938Z" fill="url(#paint56_linear_163_1609)"/>
<path d="M161.816 435.199C162.757 432.913 162.291 430.552 160.777 429.925C159.262 429.297 157.272 430.642 156.331 432.928C155.39 435.214 155.856 437.576 157.37 438.203C158.885 438.83 160.875 437.485 161.816 435.199Z" fill="url(#paint57_linear_163_1609)"/>
<path d="M45.301 437.669C45.3753 438.642 45.6971 439.58 46.2356 440.393C46.7741 441.205 47.5114 441.866 48.3769 442.311C61.9872 449.684 121.491 449.001 119.722 444.851C119.776 441.711 44.6749 422.733 45.301 437.669Z" fill="#D8A7B5"/>
<path d="M120.485 443.104C119.805 444.442 120.485 446.408 117.763 447.527C115.041 448.646 110.523 445.861 110.523 445.861L111.421 441.547C112.091 441.403 112.734 441.154 113.327 440.81C114.124 440.294 115.018 439.946 115.954 439.787C116.889 439.627 117.848 439.659 118.77 439.882C121.492 440.674 125.167 442.339 125.058 443.24C124.949 444.141 121.03 442.066 120.485 443.104Z" fill="#D8A7B5"/>
<path d="M886.739 119.969H646.056C642.658 119.969 639.904 122.732 639.904 126.141V282.274C639.904 285.682 642.658 288.445 646.056 288.445H886.739C890.137 288.445 892.891 285.682 892.891 282.274V126.141C892.891 122.732 890.137 119.969 886.739 119.969Z" fill="url(#paint58_linear_163_1609)"/>
<path d="M646.029 119.969H886.739C888.357 119.984 889.903 120.637 891.044 121.786C892.186 122.936 892.829 124.491 892.836 126.113V145.227H639.904V126.113C639.911 124.486 640.559 122.927 641.706 121.777C642.853 120.626 644.407 119.977 646.029 119.969Z" fill="url(#paint59_linear_163_1609)"/>
<path d="M838.914 136.189C840.913 136.189 842.534 134.563 842.534 132.557C842.534 130.552 840.913 128.926 838.914 128.926C836.915 128.926 835.294 130.552 835.294 132.557C835.294 134.563 836.915 136.189 838.914 136.189Z" fill="white"/>
<path d="M856.305 136.189C858.305 136.189 859.926 134.563 859.926 132.557C859.926 130.552 858.305 128.926 856.305 128.926C854.306 128.926 852.685 130.552 852.685 132.557C852.685 134.563 854.306 136.189 856.305 136.189Z" fill="white"/>
<path d="M873.672 136.189C875.672 136.189 877.293 134.563 877.293 132.557C877.293 130.552 875.672 128.926 873.672 128.926C871.673 128.926 870.052 130.552 870.052 132.557C870.052 134.563 871.673 136.189 873.672 136.189Z" fill="white"/>
<path style="mix-blend-mode:screen" d="M864.798 172.122H663.448V176.354H864.798V172.122Z" fill="url(#paint60_linear_163_1609)"/>
<path style="mix-blend-mode:screen" d="M864.798 201.258H663.448V205.49H864.798V201.258Z" fill="url(#paint61_linear_163_1609)"/>
<path style="mix-blend-mode:screen" d="M864.798 230.393H663.448V234.625H864.798V230.393Z" fill="url(#paint62_linear_163_1609)"/>
<path style="mix-blend-mode:screen" d="M864.798 259.529H663.448V263.761H864.798V259.529Z" fill="url(#paint63_linear_163_1609)"/>
<path style="mix-blend-mode:multiply" d="M750.908 172.122H663.448V176.354H750.908V172.122Z" fill="url(#paint64_linear_163_1609)"/>
<path style="mix-blend-mode:multiply" d="M829.357 201.258H663.448V205.49H829.357V201.258Z" fill="url(#paint65_linear_163_1609)"/>
<path style="mix-blend-mode:multiply" d="M783.872 230.393H663.448V234.625H783.872V230.393Z" fill="url(#paint66_linear_163_1609)"/>
<path style="mix-blend-mode:multiply" d="M810.684 259.529H663.448V263.761H810.684V259.529Z" fill="url(#paint67_linear_163_1609)"/>
<path d="M757.85 168.602H748.949C748.303 168.602 747.779 169.127 747.779 169.776V178.704C747.779 179.353 748.303 179.878 748.949 179.878H757.85C758.496 179.878 759.02 179.353 759.02 178.704V169.776C759.02 169.127 758.496 168.602 757.85 168.602Z" fill="url(#paint68_linear_163_1609)"/>
<path d="M834.964 197.736H826.063C825.417 197.736 824.893 198.262 824.893 198.91V207.839C824.893 208.487 825.417 209.013 826.063 209.013H834.964C835.61 209.013 836.134 208.487 836.134 207.839V198.91C836.134 198.262 835.61 197.736 834.964 197.736Z" fill="url(#paint69_linear_163_1609)"/>
<path d="M788.227 226.869H779.326C778.68 226.869 778.156 227.395 778.156 228.043V236.972C778.156 237.621 778.68 238.146 779.326 238.146H788.227C788.873 238.146 789.397 237.621 789.397 236.972V228.043C789.397 227.395 788.873 226.869 788.227 226.869Z" fill="url(#paint70_linear_163_1609)"/>
<path d="M819.342 256.006H810.441C809.795 256.006 809.271 256.532 809.271 257.181V266.109C809.271 266.758 809.795 267.283 810.441 267.283H819.342C819.988 267.283 820.512 266.758 820.512 266.109V257.181C820.512 256.532 819.988 256.006 819.342 256.006Z" fill="url(#paint71_linear_163_1609)"/>
<path d="M479.06 58.0388H374.397C372.412 58.0388 370.804 59.6525 370.804 61.6431V142.249C370.804 144.24 372.412 145.853 374.397 145.853H479.06C481.044 145.853 482.653 144.24 482.653 142.249V61.6431C482.653 59.6525 481.044 58.0388 479.06 58.0388Z" fill="url(#paint72_linear_163_1609)"/>
<path d="M452.001 100.172L411.034 76.4165C410.724 76.24 410.373 76.1482 410.016 76.1499C409.66 76.1517 409.31 76.2471 409.002 76.4266C408.694 76.6061 408.437 76.8634 408.259 77.173C408.081 77.4827 407.986 77.8337 407.985 78.1913V125.73C407.986 126.088 408.081 126.439 408.259 126.749C408.437 127.058 408.694 127.315 409.002 127.495C409.31 127.674 409.66 127.77 410.016 127.772C410.373 127.773 410.724 127.682 411.034 127.505L452.001 103.722C452.305 103.537 452.556 103.277 452.731 102.966C452.906 102.655 452.997 102.304 452.997 101.947C452.997 101.59 452.906 101.239 452.731 100.929C452.556 100.618 452.305 100.357 452.001 100.172Z" fill="white"/>
<defs>
<linearGradient id="paint0_linear_163_1609" x1="474.977" y1="34.9293" x2="474.977" y2="588.139" gradientUnits="userSpaceOnUse">
<stop stop-color="#E2F4FF"/>
<stop offset="1" stop-color="#D7ECFF"/>
</linearGradient>
<linearGradient id="paint1_linear_163_1609" x1="130.855" y1="83.1049" x2="201.837" y2="300.873" gradientUnits="userSpaceOnUse">
<stop offset="0.09" stop-color="#374492"/>
<stop offset="1" stop-color="#014DAE"/>
</linearGradient>
<linearGradient id="paint2_linear_163_1609" x1="129.084" y1="192.056" x2="203.205" y2="192.056" gradientUnits="userSpaceOnUse">
<stop offset="0.09" stop-color="#374492"/>
<stop offset="1" stop-color="#014DAE"/>
</linearGradient>
<linearGradient id="paint3_linear_163_1609" x1="404.911" y1="619.331" x2="536.168" y2="619.331" gradientUnits="userSpaceOnUse">
<stop offset="0.09" stop-color="#374492"/>
<stop offset="1" stop-color="#014DAE"/>
</linearGradient>
<linearGradient id="paint4_linear_163_1609" x1="151.814" y1="391.004" x2="789.291" y2="391.004" gradientUnits="userSpaceOnUse">
<stop offset="0.09" stop-color="#374492"/>
<stop offset="1" stop-color="#014DAE"/>
</linearGradient>
<linearGradient id="paint5_linear_163_1609" x1="151.786" y1="372.6" x2="789.288" y2="372.6" gradientUnits="userSpaceOnUse">
<stop offset="0.09" stop-color="#374492"/>
<stop offset="1" stop-color="#014DAE"/>
</linearGradient>
<linearGradient id="paint6_linear_163_1609" x1="470.538" y1="208.384" x2="470.538" y2="543.859" gradientUnits="userSpaceOnUse">
<stop stop-color="#43D4C3"/>
<stop offset="1" stop-color="#5A98FE"/>
</linearGradient>
<linearGradient id="paint7_linear_163_1609" x1="363.507" y1="640.031" x2="577.569" y2="640.031" gradientUnits="userSpaceOnUse">
<stop offset="0.09" stop-color="#374492"/>
<stop offset="1" stop-color="#014DAE"/>
</linearGradient>
<linearGradient id="paint8_linear_163_1609" x1="190.577" y1="370.443" x2="750.503" y2="370.443" gradientUnits="userSpaceOnUse">
<stop stop-color="#43D4C3"/>
<stop offset="1" stop-color="#5A98FE"/>
</linearGradient>
<linearGradient id="paint9_linear_163_1609" x1="508.266" y1="364.518" x2="592.867" y2="364.518" gradientUnits="userSpaceOnUse">
<stop stop-color="#9972FF"/>
<stop offset="1" stop-color="#7F85FF"/>
</linearGradient>
<linearGradient id="paint10_linear_163_1609" x1="507.993" y1="285.413" x2="574.493" y2="285.413" gradientUnits="userSpaceOnUse">
<stop stop-color="#294698"/>
<stop offset="1" stop-color="#0E4BA6"/>
</linearGradient>
<linearGradient id="paint11_linear_163_1609" x1="535.189" y1="304.363" x2="539.599" y2="304.363" gradientUnits="userSpaceOnUse">
<stop stop-color="#294698"/>
<stop offset="1" stop-color="#0E4BA6"/>
</linearGradient>
<linearGradient id="paint12_linear_163_1609" x1="553.752" y1="304.363" x2="558.162" y2="304.363" gradientUnits="userSpaceOnUse">
<stop stop-color="#294698"/>
<stop offset="1" stop-color="#0E4BA6"/>
</linearGradient>
<linearGradient id="paint13_linear_163_1609" x1="550.133" y1="293.686" x2="562.164" y2="293.686" gradientUnits="userSpaceOnUse">
<stop stop-color="#294698"/>
<stop offset="1" stop-color="#0E4BA6"/>
</linearGradient>
<linearGradient id="paint14_linear_163_1609" x1="529.636" y1="293.577" x2="541.34" y2="293.577" gradientUnits="userSpaceOnUse">
<stop stop-color="#294698"/>
<stop offset="1" stop-color="#0E4BA6"/>
</linearGradient>
<linearGradient id="paint15_linear_163_1609" x1="204.269" y1="269.002" x2="333.348" y2="269.002" gradientUnits="userSpaceOnUse">
<stop stop-color="#43D4C3"/>
<stop offset="1" stop-color="#5A98FE"/>
</linearGradient>
<linearGradient id="paint16_linear_163_1609" x1="204.269" y1="369.923" x2="333.348" y2="369.923" gradientUnits="userSpaceOnUse">
<stop stop-color="#43D4C3"/>
<stop offset="1" stop-color="#5A98FE"/>
</linearGradient>
<linearGradient id="paint17_linear_163_1609" x1="204.269" y1="470.845" x2="333.348" y2="470.845" gradientUnits="userSpaceOnUse">
<stop stop-color="#43D4C3"/>
<stop offset="1" stop-color="#5A98FE"/>
</linearGradient>
<linearGradient id="paint18_linear_163_1609" x1="254.734" y1="267.447" x2="281.409" y2="267.447" gradientUnits="userSpaceOnUse">
<stop stop-color="#9972FF"/>
<stop offset="1" stop-color="#7F85FF"/>
</linearGradient>
<linearGradient id="paint19_linear_163_1609" x1="254.653" y1="242.516" x2="275.612" y2="242.516" gradientUnits="userSpaceOnUse">
<stop stop-color="#294698"/>
<stop offset="1" stop-color="#0E4BA6"/>
</linearGradient>
<linearGradient id="paint20_linear_163_1609" x1="263.228" y1="248.498" x2="264.617" y2="248.498" gradientUnits="userSpaceOnUse">
<stop stop-color="#294698"/>
<stop offset="1" stop-color="#0E4BA6"/>
</linearGradient>
<linearGradient id="paint21_linear_163_1609" x1="269.079" y1="248.498" x2="270.468" y2="248.498" gradientUnits="userSpaceOnUse">
<stop stop-color="#294698"/>
<stop offset="1" stop-color="#0E4BA6"/>
</linearGradient>
<linearGradient id="paint22_linear_163_1609" x1="267.936" y1="245.11" x2="271.719" y2="245.11" gradientUnits="userSpaceOnUse">
<stop stop-color="#294698"/>
<stop offset="1" stop-color="#0E4BA6"/>
</linearGradient>
<linearGradient id="paint23_linear_163_1609" x1="261.485" y1="245.081" x2="265.16" y2="245.081" gradientUnits="userSpaceOnUse">
<stop stop-color="#294698"/>
<stop offset="1" stop-color="#0E4BA6"/>
</linearGradient>
<linearGradient id="paint24_linear_163_1609" x1="254.734" y1="366.455" x2="281.41" y2="366.455" gradientUnits="userSpaceOnUse">
<stop stop-color="#9972FF"/>
<stop offset="1" stop-color="#7F85FF"/>
</linearGradient>
<linearGradient id="paint25_linear_163_1609" x1="254.653" y1="341.526" x2="275.612" y2="341.526" gradientUnits="userSpaceOnUse">
<stop stop-color="#294698"/>
<stop offset="1" stop-color="#0E4BA6"/>
</linearGradient>
<linearGradient id="paint26_linear_163_1609" x1="263.228" y1="347.505" x2="264.617" y2="347.505" gradientUnits="userSpaceOnUse">
<stop stop-color="#294698"/>
<stop offset="1" stop-color="#0E4BA6"/>
</linearGradient>
<linearGradient id="paint27_linear_163_1609" x1="269.079" y1="347.505" x2="270.468" y2="347.505" gradientUnits="userSpaceOnUse">
<stop stop-color="#294698"/>
<stop offset="1" stop-color="#0E4BA6"/>
</linearGradient>
<linearGradient id="paint28_linear_163_1609" x1="267.936" y1="344.147" x2="271.719" y2="344.147" gradientUnits="userSpaceOnUse">
<stop stop-color="#294698"/>
<stop offset="1" stop-color="#0E4BA6"/>
</linearGradient>
<linearGradient id="paint29_linear_163_1609" x1="261.485" y1="344.119" x2="265.16" y2="344.119" gradientUnits="userSpaceOnUse">
<stop stop-color="#294698"/>
<stop offset="1" stop-color="#0E4BA6"/>
</linearGradient>
<linearGradient id="paint30_linear_163_1609" x1="254.734" y1="469.178" x2="281.41" y2="469.178" gradientUnits="userSpaceOnUse">
<stop stop-color="#9972FF"/>
<stop offset="1" stop-color="#7F85FF"/>
</linearGradient>
<linearGradient id="paint31_linear_163_1609" x1="254.653" y1="444.25" x2="275.612" y2="444.25" gradientUnits="userSpaceOnUse">
<stop stop-color="#294698"/>
<stop offset="1" stop-color="#0E4BA6"/>
</linearGradient>
<linearGradient id="paint32_linear_163_1609" x1="263.228" y1="450.201" x2="264.617" y2="450.201" gradientUnits="userSpaceOnUse">
<stop stop-color="#294698"/>
<stop offset="1" stop-color="#0E4BA6"/>
</linearGradient>
<linearGradient id="paint33_linear_163_1609" x1="269.079" y1="450.201" x2="270.468" y2="450.201" gradientUnits="userSpaceOnUse">
<stop stop-color="#294698"/>
<stop offset="1" stop-color="#0E4BA6"/>
</linearGradient>
<linearGradient id="paint34_linear_163_1609" x1="267.936" y1="446.842" x2="271.719" y2="446.842" gradientUnits="userSpaceOnUse">
<stop stop-color="#294698"/>
<stop offset="1" stop-color="#0E4BA6"/>
</linearGradient>
<linearGradient id="paint35_linear_163_1609" x1="261.485" y1="446.817" x2="265.16" y2="446.817" gradientUnits="userSpaceOnUse">
<stop stop-color="#294698"/>
<stop offset="1" stop-color="#0E4BA6"/>
</linearGradient>
<linearGradient id="paint36_linear_163_1609" x1="810.058" y1="398.348" x2="835.482" y2="398.348" gradientUnits="userSpaceOnUse">
<stop stop-color="#E2F4FF"/>
<stop offset="1" stop-color="#D7ECFF"/>
</linearGradient>
<linearGradient id="paint37_linear_163_1609" x1="835.078" y1="621.252" x2="836.045" y2="629.928" gradientUnits="userSpaceOnUse">
<stop offset="0.09" stop-color="#374492"/>
<stop offset="1" stop-color="#014DAE"/>
</linearGradient>
<linearGradient id="paint38_linear_163_1609" x1="885.877" y1="630.82" x2="888.601" y2="639.141" gradientUnits="userSpaceOnUse">
<stop offset="0.09" stop-color="#374492"/>
<stop offset="1" stop-color="#014DAE"/>
</linearGradient>
<linearGradient id="paint39_linear_163_1609" x1="882.358" y1="517.099" x2="804.262" y2="517.099" gradientUnits="userSpaceOnUse">
<stop stop-color="#9972FF"/>
<stop offset="1" stop-color="#7F85FF"/>
</linearGradient>
<linearGradient id="paint40_linear_163_1609" x1="839.566" y1="349.527" x2="888.238" y2="352.729" gradientUnits="userSpaceOnUse">
<stop offset="0.09" stop-color="#374492"/>
<stop offset="1" stop-color="#014DAE"/>
</linearGradient>
<linearGradient id="paint41_linear_163_1609" x1="839.35" y1="371.562" x2="893.52" y2="375.144" gradientUnits="userSpaceOnUse">
<stop offset="0.09" stop-color="#374492"/>
<stop offset="1" stop-color="#014DAE"/>
</linearGradient>
<linearGradient id="paint42_linear_163_1609" x1="854.212" y1="343.848" x2="859.574" y2="343.848" gradientUnits="userSpaceOnUse">
<stop stop-color="#9972FF"/>
<stop offset="1" stop-color="#7F85FF"/>
</linearGradient>
<linearGradient id="paint43_linear_163_1609" x1="765.395" y1="441.092" x2="817.195" y2="441.092" gradientUnits="userSpaceOnUse">
<stop stop-color="#43D4C3"/>
<stop offset="1" stop-color="#5A98FE"/>
</linearGradient>
<linearGradient id="paint44_linear_163_1609" x1="737.954" y1="426.119" x2="800.043" y2="426.119" gradientUnits="userSpaceOnUse">
<stop stop-color="#43D4C3"/>
<stop offset="1" stop-color="#5A98FE"/>
</linearGradient>
<linearGradient id="paint45_linear_163_1609" x1="736.593" y1="426.147" x2="798.683" y2="426.147" gradientUnits="userSpaceOnUse">
<stop offset="0.09" stop-color="#374492"/>
<stop offset="1" stop-color="#014DAE"/>
</linearGradient>
<linearGradient id="paint46_linear_163_1609" x1="759.738" y1="424.931" x2="765.807" y2="424.932" gradientUnits="userSpaceOnUse">
<stop stop-color="#E2F4FF"/>
<stop offset="1" stop-color="#D7ECFF"/>
</linearGradient>
<linearGradient id="paint47_linear_163_1609" x1="850.672" y1="393.434" x2="869.97" y2="393.434" gradientUnits="userSpaceOnUse">
<stop stop-color="#E2F4FF"/>
<stop offset="1" stop-color="#D7ECFF"/>
</linearGradient>
<linearGradient id="paint48_linear_163_1609" x1="113.569" y1="381.638" x2="113.569" y2="457.383" gradientUnits="userSpaceOnUse">
<stop stop-color="#9972FF"/>
<stop offset="1" stop-color="#7F85FF"/>
</linearGradient>
<linearGradient id="paint49_linear_163_1609" x1="103.415" y1="637.108" x2="140.136" y2="637.108" gradientUnits="userSpaceOnUse">
<stop stop-color="#294698"/>
<stop offset="1" stop-color="#0E4BA6"/>
</linearGradient>
<linearGradient id="paint50_linear_163_1609" x1="82.5361" y1="638.172" x2="64.2991" y2="638.172" gradientUnits="userSpaceOnUse">
<stop stop-color="#294698"/>
<stop offset="1" stop-color="#0E4BA6"/>
</linearGradient>
<linearGradient id="paint51_linear_163_1609" x1="65.7442" y1="541.073" x2="123.479" y2="541.073" gradientUnits="userSpaceOnUse">
<stop offset="0.09" stop-color="#374492"/>
<stop offset="1" stop-color="#014DAE"/>
</linearGradient>
<linearGradient id="paint52_linear_163_1609" x1="92.9355" y1="381.638" x2="92.9355" y2="457.384" gradientUnits="userSpaceOnUse">
<stop stop-color="#9972FF"/>
<stop offset="1" stop-color="#7F85FF"/>
</linearGradient>
<linearGradient id="paint53_linear_163_1609" x1="74.7532" y1="405.966" x2="70.3435" y2="465.217" gradientUnits="userSpaceOnUse">
<stop stop-color="#E2F4FF"/>
<stop offset="1" stop-color="#D7ECFF"/>
</linearGradient>
<linearGradient id="paint54_linear_163_1609" x1="65.5792" y1="381.638" x2="65.5792" y2="457.384" gradientUnits="userSpaceOnUse">
<stop stop-color="#9972FF"/>
<stop offset="1" stop-color="#7F85FF"/>
</linearGradient>
<linearGradient id="paint55_linear_163_1609" x1="78.8894" y1="346.877" x2="109.159" y2="346.877" gradientUnits="userSpaceOnUse">
<stop stop-color="#294698"/>
<stop offset="1" stop-color="#0E4BA6"/>
</linearGradient>
<linearGradient id="paint56_linear_163_1609" x1="190.466" y1="433.408" x2="125.028" y2="433.408" gradientUnits="userSpaceOnUse">
<stop offset="0.09" stop-color="#374492"/>
<stop offset="1" stop-color="#014DAE"/>
</linearGradient>
<linearGradient id="paint57_linear_163_1609" x1="155.851" y1="433.834" x2="162.302" y2="433.834" gradientUnits="userSpaceOnUse">
<stop stop-color="#E2F4FF"/>
<stop offset="1" stop-color="#D7ECFF"/>
</linearGradient>
<linearGradient id="paint58_linear_163_1609" x1="766.397" y1="129.09" x2="766.397" y2="273.399" gradientUnits="userSpaceOnUse">
<stop stop-color="#9972FF"/>
<stop offset="1" stop-color="#7F85FF"/>
</linearGradient>
<linearGradient id="paint59_linear_163_1609" x1="639.904" y1="132.557" x2="892.891" y2="132.557" gradientUnits="userSpaceOnUse">
<stop offset="0.09" stop-color="#374492"/>
<stop offset="1" stop-color="#014DAE"/>
</linearGradient>
<linearGradient id="paint60_linear_163_1609" x1="663.448" y1="174.252" x2="864.771" y2="174.252" gradientUnits="userSpaceOnUse">
<stop stop-color="#9972FF"/>
<stop offset="1" stop-color="#7F85FF"/>
</linearGradient>
<linearGradient id="paint61_linear_163_1609" x1="663.448" y1="203.388" x2="864.771" y2="203.388" gradientUnits="userSpaceOnUse">
<stop stop-color="#9972FF"/>
<stop offset="1" stop-color="#7F85FF"/>
</linearGradient>
<linearGradient id="paint62_linear_163_1609" x1="663.448" y1="232.522" x2="864.771" y2="232.522" gradientUnits="userSpaceOnUse">
<stop stop-color="#9972FF"/>
<stop offset="1" stop-color="#7F85FF"/>
</linearGradient>
<linearGradient id="paint63_linear_163_1609" x1="663.448" y1="261.658" x2="864.771" y2="261.658" gradientUnits="userSpaceOnUse">
<stop stop-color="#9972FF"/>
<stop offset="1" stop-color="#7F85FF"/>
</linearGradient>
<linearGradient id="paint64_linear_163_1609" x1="663.448" y1="174.252" x2="750.908" y2="174.252" gradientUnits="userSpaceOnUse">
<stop stop-color="#9972FF"/>
<stop offset="1" stop-color="#7F85FF"/>
</linearGradient>
<linearGradient id="paint65_linear_163_1609" x1="663.448" y1="203.388" x2="829.33" y2="203.388" gradientUnits="userSpaceOnUse">
<stop stop-color="#9972FF"/>
<stop offset="1" stop-color="#7F85FF"/>
</linearGradient>
<linearGradient id="paint66_linear_163_1609" x1="663.448" y1="232.522" x2="783.872" y2="232.522" gradientUnits="userSpaceOnUse">
<stop stop-color="#9972FF"/>
<stop offset="1" stop-color="#7F85FF"/>
</linearGradient>
<linearGradient id="paint67_linear_163_1609" x1="663.448" y1="261.658" x2="810.657" y2="261.658" gradientUnits="userSpaceOnUse">
<stop stop-color="#9972FF"/>
<stop offset="1" stop-color="#7F85FF"/>
</linearGradient>
<linearGradient id="paint68_linear_163_1609" x1="747.779" y1="174.254" x2="759.02" y2="174.254" gradientUnits="userSpaceOnUse">
<stop stop-color="#294698"/>
<stop offset="1" stop-color="#0E4BA6"/>
</linearGradient>
<linearGradient id="paint69_linear_163_1609" x1="824.893" y1="203.388" x2="836.134" y2="203.388" gradientUnits="userSpaceOnUse">
<stop stop-color="#294698"/>
<stop offset="1" stop-color="#0E4BA6"/>
</linearGradient>
<linearGradient id="paint70_linear_163_1609" x1="778.156" y1="232.521" x2="789.397" y2="232.521" gradientUnits="userSpaceOnUse">
<stop stop-color="#294698"/>
<stop offset="1" stop-color="#0E4BA6"/>
</linearGradient>
<linearGradient id="paint71_linear_163_1609" x1="809.271" y1="261.659" x2="820.512" y2="261.659" gradientUnits="userSpaceOnUse">
<stop stop-color="#294698"/>
<stop offset="1" stop-color="#0E4BA6"/>
</linearGradient>
<linearGradient id="paint72_linear_163_1609" x1="370.804" y1="101.946" x2="482.653" y2="101.946" gradientUnits="userSpaceOnUse">
<stop stop-color="#9972FF"/>
<stop offset="1" stop-color="#7F85FF"/>
</linearGradient>
</defs>
</svg>
