<svg width="215" height="439" viewBox="0 0 215 439" fill="none" xmlns="http://www.w3.org/2000/svg">
<path fill-rule="evenodd" clip-rule="evenodd" d="M213.848 100.212H212.696V152.123H213.848V151.811H213.962H214.394H214.568C214.629 151.811 214.75 151.624 214.75 151.561V100.774C214.75 100.649 214.629 100.462 214.568 100.462H214.394H213.962H213.848V100.212Z" fill="#151618"/>
<path fill-rule="evenodd" clip-rule="evenodd" d="M0.749814 162.691H1.90194V129.707H0.749814V130.134H0.204129C0.143491 130.134 -0.0384242 130.259 0.0222142 130.384V162.181C0.0222142 162.306 0.143491 162.493 0.204129 162.493H0.749814V162.691Z" fill="#151618"/>
<path fill-rule="evenodd" clip-rule="evenodd" d="M0.749817 120.309H1.90195V87.326H0.749817V87.6559H0.378645H0.204132C0.143494 87.6559 0.0222168 87.7808 0.0222168 87.9058V119.702C0.0222168 119.827 0.143494 120.015 0.204132 120.015H0.378645H0.749817V120.309Z" fill="#151618"/>
<path fill-rule="evenodd" clip-rule="evenodd" d="M1.02416 73.9742H2.17629V56.6704H1.02416V57.1088H0.689192H0.514679C0.45404 57.1088 0.332764 57.2337 0.332764 57.3587V73.4755C0.332764 73.6005 0.45404 73.7879 0.514679 73.7879H0.689192H1.02416V73.9742Z" fill="#151618"/>
<rect x="1.74512" width="211.335" height="439" rx="42.486" fill="#EDEDED"/>
<path fill-rule="evenodd" clip-rule="evenodd" d="M187.636 0H27.1894C13.1369 0 1.74512 11.3767 1.74512 25.4106V413.589C1.74512 427.623 13.1369 439 27.1894 439H187.636C201.689 439 213.08 427.623 213.08 413.589V25.4106C213.08 11.3767 201.689 0 187.636 0ZM3.54177 25.4106C3.54177 12.3677 14.1292 1.79428 27.1894 1.79428H187.636C200.696 1.79428 211.284 12.3677 211.284 25.4106V413.589C211.284 426.632 200.696 437.206 187.636 437.206H27.1894C14.1292 437.206 3.54177 426.632 3.54177 413.589V25.4106Z" fill="#151618"/>
<path d="M188.805 7.48486C179.952 7.48486 165.238 7.48486 164.365 7.48486C162.246 7.48486 160.874 9.05256 160.375 11.8744C158.692 21.9077 153.205 22.5974 151.584 22.5974C150.213 22.5974 64.6745 22.5974 63.2406 22.5974C61.6196 22.5974 56.0708 21.8449 54.4498 11.8744C54.0134 9.05256 52.6418 7.48486 50.4597 7.48486C49.5245 7.48486 34.8732 7.48486 26.0201 7.48486C17.1671 7.48486 9.24915 16.891 9.24915 25.8582C9.24915 34.8255 9.24915 403.735 9.24915 414.396C9.24915 425.495 20.4714 431.515 25.8331 431.515C28.7634 431.515 186.062 431.515 188.992 431.515C194.354 431.515 205.576 425.495 205.576 414.396C205.576 403.735 205.576 30.9376 205.576 25.8582C205.638 16.891 197.658 7.48486 188.805 7.48486Z" fill="white"/>
<rect x="87.4373" y="202.753" width="40.7242" height="33.4932" rx="4" fill="white"/>
<path fill-rule="evenodd" clip-rule="evenodd" d="M125.766 202.753H89.8328C88.5098 202.753 87.4373 203.824 87.4373 205.146V233.854C87.4373 235.175 88.5098 236.246 89.8328 236.246H125.766C127.089 236.246 128.161 235.175 128.161 233.854V205.146C128.161 203.824 127.089 202.753 125.766 202.753ZM89.8328 233.854V205.146H125.766V233.854H89.8328Z" fill="#7B808C"/>
<path fill-rule="evenodd" clip-rule="evenodd" d="M94.025 212.622C94.025 215.099 96.036 217.107 98.5167 217.107C100.997 217.107 103.008 215.099 103.008 212.622C103.008 210.144 100.997 208.136 98.5167 208.136C96.036 208.136 94.025 210.144 94.025 212.622ZM100.613 212.622C100.613 213.778 99.6743 214.715 98.5167 214.715C97.359 214.715 96.4206 213.778 96.4206 212.622C96.4206 211.466 97.359 210.528 98.5167 210.528C99.6743 210.528 100.613 211.466 100.613 212.622Z" fill="#7B808C"/>
<path d="M96.0661 231.115C95.5963 231.58 94.8379 231.577 94.3722 231.108C93.9065 230.639 93.9097 229.881 94.3795 229.416L104.231 219.662L109.783 224.486C110.282 224.919 110.335 225.675 109.901 226.173C109.467 226.672 108.71 226.724 108.211 226.291L104.337 222.926L96.0661 231.115Z" fill="#7B808C"/>
<path d="M105.053 231.111C104.585 231.578 103.827 231.579 103.359 231.111C102.891 230.644 102.891 229.887 103.359 229.42L119.123 213.675L127.754 221.237C128.251 221.673 128.3 222.429 127.864 222.926C127.428 223.422 126.671 223.471 126.174 223.036L119.23 216.951L105.053 231.111Z" fill="#7B808C"/>
<path fill-rule="evenodd" clip-rule="evenodd" d="M206.175 25.8582C206.241 16.354 197.806 6.88672 188.805 6.88672H164.365C161.934 6.88672 160.335 8.66316 159.785 11.7704C159.055 16.1227 157.573 18.9402 155.582 20.5314C154.246 21.5992 152.858 21.9993 151.584 21.9993H63.2406C61.9823 21.9993 60.5647 21.5845 59.2197 20.5081C57.2196 18.9075 55.7429 16.0958 55.041 11.7785C54.5602 8.66972 52.9554 6.88672 50.4597 6.88672H26.0202C17.0402 6.88672 8.65027 16.327 8.65027 25.8582V414.396C8.65027 419.651 11.0759 424.189 15.1471 427.577C18.502 430.369 22.7717 432.113 25.8331 432.113H188.992C192.053 432.113 196.323 430.369 199.678 427.577C203.749 424.189 206.175 419.651 206.175 414.396V25.8582ZM164.365 8.0829H188.805C197.11 8.0829 205.039 16.982 204.977 25.854L204.977 27.4091V414.396C204.977 419.27 202.725 423.485 198.911 426.658C195.76 429.28 191.754 430.917 188.992 430.917H25.8331C23.071 430.917 19.0651 429.28 15.9139 426.658C12.1004 423.485 9.84804 419.27 9.84804 414.396V25.8582C9.84804 16.9579 17.7357 8.0829 26.0202 8.0829H50.4597C52.2888 8.0829 53.4584 9.38246 53.858 11.9657C54.6054 16.5634 56.2227 19.6425 58.4707 21.4416C60.0479 22.7038 61.7283 23.1955 63.2406 23.1955H151.584C153.111 23.1955 154.761 22.7199 156.331 21.4653C158.569 19.6763 160.191 16.5936 160.966 11.9732C161.423 9.38741 162.597 8.0829 164.365 8.0829Z" fill="#151618"/>
<path fill-rule="evenodd" clip-rule="evenodd" d="M123.885 16.1485C125.916 16.1485 127.563 14.5419 127.563 12.56C127.563 10.5781 125.916 8.97144 123.885 8.97144C121.853 8.97144 120.206 10.5781 120.206 12.56C120.206 14.5419 121.853 16.1485 123.885 16.1485Z" fill="#151618"/>
<rect x="87.4374" y="10.9287" width="26.4158" height="3.26232" rx="1.63116" fill="#151618"/>
</svg>
