<svg width="494" height="500" viewBox="0 0 494 500" fill="none" xmlns="http://www.w3.org/2000/svg">
<path opacity="0.15" d="M57.2471 430.426C67.3893 441.069 76.9841 447.932 84.5655 453.355C173.683 517.096 279.132 498.516 301.544 493.978C334.638 487.278 398.608 474.326 444.857 420.11C514.828 338.085 503.933 208.858 449.658 123.553C439.73 107.95 387.29 21.3455 280.704 7.45773C216.2 -0.948204 141.009 16.0042 86.5573 61.4794C-27.7411 156.936 -19.6043 349.776 57.2471 430.426Z" fill="url(#paint0_linear_181_1817)"/>
<path d="M156.249 483.287C156.673 483.23 157.081 483.089 157.449 482.873C157.817 482.656 158.138 482.368 158.392 482.026C165.914 471.921 220.608 392.841 147.818 320.555C78.7176 251.933 47.3951 237.844 43.2286 197.525C42.743 192.817 36.3567 191.687 34.2552 195.931C18.5541 227.654 -5.90889 301.68 75.0461 350.266C164.348 403.863 157.029 462.616 152.711 479.312C152.578 479.82 152.572 480.354 152.695 480.864C152.818 481.375 153.065 481.848 153.415 482.241C153.765 482.634 154.206 482.935 154.7 483.117C155.195 483.3 155.726 483.358 156.248 483.287H156.249Z" fill="url(#paint1_linear_181_1817)"/>
<path d="M145.173 484.79C146.162 484.659 147.081 484.212 147.794 483.517C148.507 482.821 148.975 481.915 149.128 480.932C151.261 467.181 156.496 415.796 118.52 402.17C76.714 387.169 42.963 425.981 12.2327 395.603C10.6157 394.005 7.8969 395.398 8.28263 397.635C11.0196 413.503 23.201 450.258 77.4042 457.654C135.42 465.57 141.949 472.204 140.777 480.434C140.698 481.027 140.757 481.63 140.95 482.197C141.143 482.763 141.465 483.278 141.891 483.699C142.317 484.121 142.835 484.439 143.404 484.628C143.973 484.818 144.579 484.873 145.173 484.79V484.79Z" fill="url(#paint2_linear_181_1817)"/>
<path opacity="0.47" d="M45.2518 238.634C45.9571 241.561 46.8848 244.431 48.0271 247.218C49.1398 249.998 50.3957 252.719 51.7898 255.37C54.5345 260.699 57.8281 265.74 61.4342 270.542C68.6952 280.123 77.4799 288.54 87.1624 295.676C92.012 299.2 97.0512 302.456 102.258 305.431C107.231 308.318 112.016 311.514 116.587 314.999C125.747 321.993 134.072 330.01 141.401 338.893C156.021 356.619 166.397 378.01 169.813 400.786C171.534 412.201 171.6 423.803 170.008 435.237C168.456 446.708 165.176 457.941 160.851 468.771C160.741 469.043 160.743 469.347 160.854 469.618C160.966 469.889 161.178 470.106 161.448 470.223C161.717 470.34 162.021 470.348 162.297 470.246C162.572 470.143 162.796 469.938 162.922 469.673C167.98 458.972 171.759 447.593 173.851 435.844C176.021 424.048 176.364 411.991 174.868 400.091C173.415 388.174 170.042 376.501 165.185 365.511C160.315 354.517 153.88 344.248 146.364 334.88C138.85 325.499 130.133 317.107 120.6 309.775C115.824 306.104 110.82 302.737 105.619 299.693C100.517 296.774 95.6727 293.809 90.9814 290.433C81.6166 283.765 72.9628 276.067 65.518 267.282C61.7577 262.909 58.3155 258.273 55.2176 253.41C52.1606 248.542 49.3044 243.407 47.2484 238.096L47.2217 238.027C47.1274 237.784 46.944 237.585 46.7086 237.472C46.4732 237.358 46.2034 237.338 45.9535 237.415C45.7037 237.492 45.4925 237.66 45.3626 237.887C45.2327 238.113 45.1939 238.38 45.2538 238.634H45.2518Z" fill="white"/>
<path opacity="0.47" d="M147.584 475.463C147.407 474.965 147.462 474.502 147.478 474.027L147.523 472.61L147.556 469.777C147.552 467.889 147.51 466.002 147.429 464.115C147.26 460.342 146.938 456.573 146.431 452.823C145.399 445.337 143.697 437.871 140.665 430.84C137.667 423.857 133.127 417.184 126.537 412.824C123.243 410.677 119.571 409.171 115.715 408.386C111.88 407.58 107.94 407.461 104.087 407.798C88.9847 409.544 74.1818 412.43 59.3402 414.774C51.9473 415.873 44.4506 416.853 37.1923 415.864C35.3929 415.608 33.6179 415.204 31.8854 414.656C30.166 414.082 28.5066 413.343 26.9307 412.449C23.7744 410.653 20.9991 408.197 18.5193 405.471L18.5116 405.463C18.3494 405.281 18.1214 405.171 17.8776 405.156C17.6338 405.142 17.3943 405.225 17.2117 405.386C17.0291 405.548 16.9184 405.775 16.904 406.018C16.8895 406.261 16.9725 406.5 17.1346 406.682C19.6475 409.567 22.5195 412.233 25.8756 414.241C27.5558 415.242 29.3301 416.078 31.1731 416.736C33.0208 417.366 34.9178 417.841 36.8447 418.157C44.5745 419.286 52.2378 418.326 59.7149 417.304C67.2137 416.24 74.6187 414.855 82.0493 413.656C89.4569 412.454 96.951 411.292 104.328 410.429C107.97 410.078 111.652 410.163 115.202 410.877C118.758 411.567 122.151 412.922 125.201 414.872C131.333 418.764 135.781 424.958 138.802 431.662C141.859 438.4 143.674 445.695 144.826 453.055C145.393 456.742 145.781 460.461 146.016 464.19C146.132 466.055 146.208 467.921 146.244 469.791L146.263 472.593L146.245 473.992C146.233 474.455 146.254 474.931 146.025 475.371C145.96 475.496 145.927 475.636 145.929 475.777C145.931 475.919 145.968 476.057 146.038 476.181C146.107 476.304 146.206 476.408 146.326 476.484C146.445 476.56 146.582 476.605 146.724 476.615C146.865 476.624 147.007 476.599 147.136 476.541C147.265 476.483 147.378 476.393 147.464 476.281C147.55 476.168 147.606 476.036 147.628 475.897C147.65 475.757 147.637 475.614 147.59 475.481L147.584 475.463Z" fill="white"/>
<path d="M226.493 5.67775C249.246 5.4985 272.197 9.09584 292.503 17.4943C339.771 37.0445 379.886 88.7745 364.187 141.614C359.088 158.778 361.767 177.716 344.613 185.175C335.331 189.211 310.056 191.613 300.445 188.432C274.903 179.979 258.113 156.842 272.005 131.184C276.454 122.968 282.212 115.462 286.053 106.946C289.895 98.4306 291.646 88.3231 287.729 79.841C280.041 63.1917 254.502 57.8999 237.94 58.3984C218.393 58.9879 200.68 68.6261 190.16 85.1601C177.049 105.767 173.728 130.831 175.647 154.751C177.7 180.345 188.526 199.891 204.751 219.526C218.719 236.43 234.102 252.657 243.386 272.507C251.909 290.73 254.694 310.922 255.079 330.857C255.153 334.721 274.431 371.136 274.348 382.26C274.336 383.831 252.484 389.038 250.908 389.056C242.681 389.147 219.377 389.407 210.8 389.502C209.953 389.513 209.136 389.188 208.529 388.598C207.922 388.009 207.575 387.203 207.563 386.358C206.953 332.234 190.252 280.633 147.976 244.284C132.593 231.057 116.026 220.286 104.065 203.592C87.0158 179.797 78.6051 156.38 81.0324 127.013C83.2492 100.192 92.1088 73.3571 109.647 52.5474C128.495 30.1816 156.084 16.2143 184.758 10.187C198.485 7.30833 212.466 5.79782 226.493 5.67775Z" fill="url(#paint3_linear_181_1817)"/>
<path d="M184.53 450.177C184.53 475.065 198.369 497.085 223.336 497.085C228.73 497.085 247.073 497.134 251.87 495.407C269.275 489.139 269.338 475.81 269.338 456.298C269.338 431.409 260.907 406.932 235.939 406.932C210.972 406.932 184.53 425.288 184.53 450.177Z" fill="url(#paint4_linear_181_1817)"/>
<path d="M248.111 0.00636777C270.864 -0.17289 293.815 3.42445 314.121 11.8229C361.389 31.3731 401.503 83.104 385.805 135.942C380.706 153.107 368.914 174.714 351.76 182.173C342.479 186.209 331.674 185.941 322.063 182.761C296.521 174.307 279.731 151.17 293.623 125.513C298.072 117.296 303.83 109.79 307.671 101.274C311.513 92.759 313.264 82.6515 309.347 74.1694C301.659 57.5201 276.12 52.2283 259.558 52.7268C240.009 53.3164 222.298 62.9545 211.778 79.4885C198.667 100.095 195.346 125.159 197.265 149.079C199.318 174.674 210.144 194.22 226.368 213.854C240.337 230.758 255.72 246.986 265.003 266.835C273.527 285.058 276.312 305.25 276.697 325.185C276.771 329.049 275.467 369.4 275.384 380.525C275.379 381.28 275.076 382.003 274.542 382.537C274.007 383.072 273.283 383.376 272.526 383.384C264.299 383.476 240.996 383.735 232.419 383.831C231.571 383.841 230.754 383.516 230.148 382.926C229.541 382.337 229.193 381.531 229.182 380.687C228.57 326.563 211.87 274.962 169.594 238.612C154.211 225.385 137.644 214.614 125.683 197.92C108.634 174.125 100.223 150.709 102.651 121.341C104.867 94.5207 113.728 67.6855 131.265 46.8758C150.113 24.5102 177.702 10.5431 206.376 4.5156C220.103 1.63702 234.084 0.126508 248.111 0.00636777Z" fill="url(#paint5_linear_181_1817)"/>
<path d="M245.751 495.691C270.718 495.691 290.958 475.515 290.958 450.627C290.958 425.738 270.718 405.562 245.751 405.562C220.783 405.562 200.543 425.738 200.543 450.627C200.543 475.515 220.783 495.691 245.751 495.691Z" fill="url(#paint6_linear_181_1817)"/>
<path d="M370.841 130.766C370.973 130.766 371.101 130.721 371.204 130.638C371.307 130.556 371.378 130.441 371.407 130.312C374.575 116.053 375.039 93.7227 359.265 68.3206C343.868 43.5269 322.269 26.9366 295.07 19.0113C265.995 10.5399 231.475 12.3529 192.467 24.4017C192.393 24.4235 192.325 24.4596 192.265 24.5079C192.206 24.5563 192.156 24.616 192.12 24.6835C192.084 24.7511 192.061 24.8251 192.054 24.9014C192.047 24.9777 192.055 25.0546 192.077 25.1278C192.1 25.201 192.137 25.2689 192.186 25.3277C192.236 25.3864 192.296 25.4348 192.365 25.4701C192.433 25.5053 192.507 25.5267 192.584 25.533C192.661 25.5393 192.738 25.5303 192.811 25.5067C231.598 13.526 265.892 11.7144 294.745 20.1213C321.661 27.9638 343.036 44.3858 358.278 68.9294C373.848 94.0011 373.395 116.012 370.274 130.062C370.257 130.137 370.256 130.213 370.269 130.288C370.282 130.363 370.31 130.434 370.351 130.498C370.392 130.562 370.445 130.618 370.508 130.661C370.57 130.705 370.641 130.736 370.715 130.752C370.756 130.761 370.798 130.766 370.841 130.766Z" fill="white"/>
<path d="M361.331 153.709C361.423 153.709 361.513 153.687 361.594 153.646C361.676 153.605 361.747 153.545 361.8 153.471C361.938 153.284 365.195 148.798 368.225 140.895C368.254 140.823 368.269 140.747 368.268 140.67C368.267 140.593 368.251 140.516 368.22 140.446C368.19 140.375 368.145 140.311 368.089 140.257C368.033 140.204 367.967 140.162 367.895 140.135C367.822 140.107 367.745 140.095 367.668 140.097C367.591 140.1 367.515 140.118 367.444 140.15C367.374 140.183 367.311 140.229 367.259 140.286C367.207 140.343 367.167 140.41 367.141 140.482C364.166 148.242 360.896 152.745 360.864 152.79C360.8 152.876 360.762 152.978 360.754 153.084C360.745 153.191 360.766 153.297 360.814 153.393C360.863 153.488 360.937 153.568 361.028 153.624C361.119 153.68 361.224 153.709 361.331 153.709L361.331 153.709Z" fill="white"/>
<path d="M230.627 421.42C230.718 421.42 230.808 421.398 230.889 421.357C235.493 419.021 240.588 417.811 245.754 417.827C245.831 417.828 245.908 417.814 245.979 417.786C246.051 417.758 246.116 417.715 246.171 417.661C246.226 417.607 246.27 417.543 246.299 417.472C246.329 417.402 246.344 417.326 246.344 417.249C246.344 417.172 246.329 417.096 246.299 417.025C246.27 416.954 246.226 416.89 246.171 416.836C246.116 416.782 246.051 416.74 245.979 416.711C245.908 416.683 245.831 416.669 245.754 416.67C240.406 416.654 235.13 417.907 230.364 420.325C230.248 420.384 230.155 420.481 230.101 420.599C230.047 420.716 230.033 420.849 230.064 420.975C230.094 421.101 230.166 421.214 230.268 421.294C230.371 421.375 230.497 421.419 230.627 421.419V421.42Z" fill="white"/>
<path d="M264.476 478.881C264.592 478.881 264.704 478.846 264.8 478.782C269.665 475.51 273.601 471.041 276.224 465.807C278.848 460.574 280.071 454.754 279.775 448.91C279.479 443.067 277.674 437.4 274.535 432.456C271.396 427.513 267.03 423.461 261.859 420.694C261.792 420.658 261.718 420.636 261.642 420.628C261.566 420.621 261.49 420.628 261.417 420.65C261.344 420.672 261.276 420.708 261.217 420.756C261.158 420.804 261.109 420.863 261.073 420.93C261.037 420.997 261.014 421.07 261.007 421.146C260.999 421.221 261.007 421.298 261.029 421.37C261.05 421.443 261.087 421.511 261.135 421.57C261.183 421.629 261.242 421.677 261.309 421.713C266.305 424.386 270.523 428.299 273.555 433.075C276.587 437.85 278.33 443.325 278.616 448.969C278.902 454.613 277.721 460.235 275.186 465.291C272.652 470.346 268.851 474.663 264.151 477.823C264.048 477.893 263.97 477.993 263.928 478.11C263.887 478.227 263.884 478.354 263.921 478.472C263.957 478.591 264.031 478.695 264.131 478.768C264.231 478.842 264.352 478.881 264.476 478.881V478.881Z" fill="white"/>
<g opacity="0.3">
<path opacity="0.3" d="M396.136 84.3091C396.364 84.5902 396.695 84.7694 397.056 84.8072C397.417 84.845 397.778 84.7384 398.06 84.5108C399.201 83.5899 400.399 82.7048 401.62 81.8798C401.917 81.6796 402.123 81.3714 402.194 81.0214C402.265 80.6714 402.196 80.3076 402.001 80.0082L401.986 79.9858C401.885 79.8375 401.756 79.7105 401.606 79.6119C401.456 79.5134 401.288 79.4453 401.112 79.4115C400.935 79.3777 400.754 79.3788 400.578 79.4149C400.402 79.451 400.235 79.5212 400.086 79.6217C398.8 80.49 397.539 81.4218 396.338 82.3912C396.075 82.6031 395.9 82.9044 395.847 83.237C395.794 83.5696 395.866 83.9101 396.05 84.1928C396.077 84.2331 396.105 84.2719 396.136 84.3091ZM407.844 78.2715C409.167 77.6206 410.53 77.02 411.897 76.4859C412.066 76.4218 412.22 76.3249 412.351 76.2008C412.482 76.0768 412.588 75.9281 412.661 75.7633C412.734 75.5985 412.774 75.4209 412.777 75.2407C412.781 75.0606 412.749 74.8814 412.683 74.7137C412.617 74.5459 412.519 74.3928 412.393 74.2633C412.267 74.1338 412.117 74.0304 411.951 73.9591C411.785 73.8878 411.606 73.85 411.426 73.8479C411.245 73.8458 411.065 73.8794 410.898 73.9468C409.459 74.5086 408.025 75.1408 406.633 75.8254C406.308 75.9855 406.06 76.2679 405.943 76.6105C405.827 76.953 405.852 77.3277 406.012 77.652C406.036 77.7005 406.063 77.7476 406.093 77.7929C406.275 78.0725 406.554 78.2755 406.877 78.3637C407.2 78.4519 407.544 78.4191 407.844 78.2715ZM418.763 74.3393C420.194 73.9987 421.656 73.717 423.112 73.5006C423.291 73.4754 423.463 73.4152 423.618 73.3235C423.774 73.2317 423.909 73.1102 424.017 72.966C424.125 72.8217 424.203 72.6576 424.248 72.4831C424.292 72.3085 424.301 72.127 424.274 71.949C424.247 71.7709 424.186 71.5999 424.092 71.4458C423.999 71.2917 423.876 71.1575 423.731 71.0509C423.585 70.9444 423.42 70.8676 423.244 70.8251C423.069 70.7825 422.887 70.775 422.708 70.8029C421.176 71.0308 419.635 71.328 418.128 71.6863C417.775 71.7702 417.47 71.9904 417.28 72.2985C417.09 72.6066 417.031 72.9773 417.115 73.3291C417.199 73.6809 417.42 73.985 417.729 74.1745C418.038 74.3639 418.41 74.4232 418.763 74.3393ZM430.29 72.94C431.762 72.9273 433.252 72.9784 434.719 73.0912C434.898 73.1049 435.078 73.0834 435.249 73.0278C435.42 72.9722 435.578 72.8836 435.715 72.767C435.851 72.6505 435.963 72.5084 436.044 72.3486C436.126 72.1889 436.175 72.0148 436.189 71.8363C436.202 71.6577 436.181 71.4782 436.125 71.3079C436.069 71.1377 435.98 70.9801 435.863 70.8441C435.746 70.7081 435.604 70.5963 435.444 70.5153C435.283 70.4342 435.109 70.3854 434.93 70.3716C433.385 70.253 431.816 70.1996 430.266 70.2123C429.905 70.2181 429.561 70.366 429.309 70.6236C429.057 70.8812 428.917 71.2277 428.92 71.5876C428.923 71.9476 429.069 72.2917 429.325 72.545C429.582 72.7983 429.929 72.9403 430.29 72.94ZM441.841 74.1355C443.277 74.4485 444.719 74.8269 446.128 75.2613C446.3 75.3158 446.481 75.3359 446.661 75.3202C446.841 75.3046 447.016 75.2537 447.176 75.1703C447.336 75.0869 447.478 74.9727 447.594 74.8344C447.709 74.6961 447.796 74.5363 447.849 74.3643C447.903 74.1923 447.921 74.0115 447.904 73.8323C447.887 73.6531 447.835 73.479 447.75 73.3201C447.665 73.1613 447.549 73.0207 447.409 72.9066C447.27 72.7925 447.109 72.7072 446.936 72.6554C445.454 72.1986 443.936 71.8003 442.426 71.4712C442.25 71.4325 442.068 71.4288 441.891 71.4602C441.714 71.4916 441.545 71.5575 441.394 71.6541C441.242 71.7507 441.111 71.8762 441.008 72.0233C440.905 72.1705 440.833 72.3364 440.794 72.5115C440.756 72.6867 440.753 72.8677 440.784 73.0442C440.816 73.2207 440.883 73.3892 440.98 73.54C441.077 73.6909 441.203 73.8211 441.351 73.9233C441.499 74.0255 441.666 74.0976 441.841 74.1355ZM452.84 77.8492C454.172 78.4714 455.494 79.1587 456.769 79.8917C457.083 80.0658 457.453 80.1098 457.799 80.0143C458.146 79.9188 458.44 79.6914 458.62 79.3812C458.799 79.071 458.849 78.7029 458.759 78.3563C458.668 78.0098 458.444 77.7127 458.136 77.529C456.794 76.7573 455.403 76.0342 454 75.3792C453.671 75.2257 453.295 75.2087 452.954 75.3318C452.613 75.4549 452.335 75.708 452.181 76.0356C452.027 76.3631 452.01 76.7382 452.133 77.0783C452.256 77.4184 452.51 77.6957 452.839 77.8492H452.84ZM483.674 118.098C483.851 118.071 484.022 118.01 484.176 117.917C484.33 117.825 484.464 117.703 484.571 117.559C484.677 117.415 484.754 117.251 484.798 117.077C484.841 116.903 484.849 116.723 484.823 116.546C484.591 115.02 484.29 113.484 483.928 111.98C483.843 111.628 483.621 111.324 483.312 111.136C483.002 110.947 482.631 110.888 482.278 110.973C481.925 111.057 481.62 111.278 481.431 111.586C481.241 111.895 481.183 112.265 481.267 112.617C481.612 114.045 481.897 115.503 482.117 116.953C482.143 117.13 482.205 117.3 482.298 117.454C482.39 117.607 482.512 117.741 482.657 117.847C482.802 117.953 482.966 118.03 483.14 118.073C483.315 118.116 483.496 118.125 483.674 118.098ZM462.733 83.897C463.893 84.7987 465.027 85.7613 466.105 86.7592C466.236 86.8811 466.391 86.9759 466.559 87.0383C466.728 87.1006 466.907 87.1293 467.086 87.1227C467.266 87.1161 467.442 87.0743 467.606 86.9997C467.769 86.9251 467.916 86.8191 468.038 86.6879C468.16 86.5566 468.255 86.4027 468.318 86.2348C468.381 86.0669 468.409 85.8884 468.403 85.7094C468.396 85.5304 468.354 85.3545 468.279 85.1917C468.204 85.0289 468.098 84.8824 467.967 84.7605C466.832 83.71 465.637 82.696 464.416 81.7466C464.13 81.5242 463.767 81.4242 463.407 81.4686C463.047 81.5131 462.719 81.6983 462.496 81.9835C462.273 82.2688 462.172 82.6307 462.217 82.9897C462.261 83.3487 462.447 83.6753 462.733 83.8977V83.897ZM480.875 106.544C481.212 106.411 481.483 106.15 481.628 105.818C481.772 105.487 481.779 105.111 481.646 104.775C481.078 103.34 480.441 101.91 479.751 100.525C479.672 100.365 479.561 100.221 479.426 100.104C479.29 99.9859 479.133 99.8958 478.963 99.8387C478.792 99.7815 478.612 99.7583 478.433 99.7704C478.254 99.7825 478.079 99.8297 477.918 99.9093C477.757 99.9889 477.613 100.099 477.495 100.234C477.377 100.369 477.287 100.526 477.229 100.696C477.172 100.865 477.149 101.045 477.161 101.223C477.173 101.402 477.22 101.577 477.3 101.737C477.955 103.053 478.561 104.412 479.1 105.776C479.233 106.112 479.495 106.382 479.828 106.526C480.161 106.67 480.537 106.676 480.875 106.544ZM471.02 91.9957C471.947 93.1325 472.838 94.3242 473.666 95.5382C473.868 95.8362 474.18 96.0425 474.534 96.1121C474.888 96.1818 475.256 96.1091 475.556 95.91C475.857 95.7109 476.066 95.4015 476.139 95.0491C476.212 94.6968 476.142 94.3301 475.945 94.0288C475.939 94.0208 475.934 94.0125 475.928 94.0048C475.057 92.7263 474.119 91.4717 473.144 90.275C472.923 90.0046 472.606 89.8289 472.259 89.784C471.912 89.739 471.561 89.8283 471.278 90.0335C470.995 90.2386 470.802 90.544 470.738 90.8869C470.674 91.2298 470.744 91.5841 470.934 91.877C470.961 91.9175 470.99 91.9571 471.021 91.9957H471.02Z" fill="url(#paint7_linear_181_1817)"/>
<path opacity="0.3" d="M482.889 127.051C482.737 126.818 482.661 126.544 482.67 126.266C482.692 125.564 482.7 124.849 482.693 124.141C482.69 123.961 482.723 123.783 482.79 123.616C482.857 123.448 482.956 123.296 483.082 123.167C483.208 123.038 483.358 122.936 483.524 122.865C483.69 122.795 483.868 122.757 484.049 122.756C484.229 122.754 484.408 122.788 484.575 122.856C484.742 122.923 484.895 123.023 485.023 123.15C485.151 123.276 485.253 123.427 485.323 123.592C485.393 123.758 485.429 123.936 485.429 124.116C485.436 124.86 485.428 125.612 485.405 126.352C485.395 126.642 485.293 126.922 485.114 127.15C484.934 127.379 484.685 127.544 484.405 127.622C484.124 127.7 483.826 127.687 483.553 127.584C483.28 127.481 483.048 127.295 482.889 127.051V127.051Z" fill="url(#paint8_linear_181_1817)"/>
</g>
<g opacity="0.3">
<path opacity="0.3" d="M465.404 164.801C465.227 164.529 465.153 164.203 465.195 163.882C465.237 163.561 465.393 163.265 465.634 163.047C466.157 162.576 466.679 162.086 467.185 161.59C467.444 161.337 467.794 161.196 468.156 161.199C468.519 161.203 468.866 161.349 469.12 161.607C469.374 161.865 469.515 162.214 469.512 162.575C469.509 162.937 469.362 163.283 469.103 163.536C468.57 164.058 468.02 164.574 467.469 165.071C467.322 165.203 467.148 165.303 466.959 165.362C466.77 165.421 466.57 165.438 466.374 165.412C466.178 165.387 465.989 165.319 465.821 165.214C465.654 165.108 465.511 164.968 465.404 164.802V164.801Z" fill="url(#paint9_linear_181_1817)"/>
<path opacity="0.3" d="M386.513 156.631C386.618 156.776 386.751 156.899 386.904 156.993C387.057 157.087 387.227 157.15 387.404 157.179C387.581 157.207 387.763 157.201 387.937 157.159C388.112 157.118 388.277 157.043 388.423 156.938C388.569 156.833 388.692 156.701 388.786 156.548C388.881 156.396 388.944 156.227 388.973 156.05C389.001 155.873 388.995 155.692 388.953 155.518C388.912 155.344 388.836 155.179 388.731 155.034C387.889 153.872 387.084 152.655 386.328 151.405C386.139 151.099 385.836 150.879 385.485 150.794C385.135 150.709 384.765 150.766 384.455 150.951C384.146 151.137 383.924 151.437 383.835 151.786C383.747 152.135 383.801 152.504 383.984 152.814C384.312 153.355 384.647 153.889 384.99 154.416C385.48 155.166 385.992 155.912 386.513 156.631ZM382.374 146.916C382.539 146.845 382.689 146.743 382.814 146.614C382.939 146.486 383.038 146.334 383.104 146.167C383.17 146.001 383.203 145.823 383.201 145.644C383.198 145.465 383.16 145.288 383.089 145.123C382.515 143.795 381.991 142.429 381.531 141.062C381.475 140.891 381.386 140.733 381.268 140.597C381.15 140.461 381.007 140.349 380.846 140.269C380.684 140.188 380.509 140.14 380.329 140.127C380.149 140.114 379.968 140.137 379.797 140.194C379.626 140.251 379.468 140.341 379.333 140.459C379.197 140.578 379.086 140.721 379.006 140.882C378.926 141.044 378.878 141.219 378.867 141.398C378.855 141.578 378.879 141.758 378.937 141.928C379.42 143.367 379.972 144.805 380.576 146.203C380.607 146.274 380.644 146.342 380.686 146.407C380.862 146.677 381.128 146.876 381.437 146.969C381.746 147.062 382.078 147.043 382.374 146.916ZM391.28 162.344C392.331 163.441 393.444 164.509 394.588 165.517C394.722 165.638 394.879 165.731 395.05 165.79C395.22 165.85 395.401 165.876 395.581 165.865C395.762 165.855 395.938 165.809 396.101 165.731C396.264 165.652 396.409 165.542 396.529 165.407C396.648 165.272 396.74 165.115 396.799 164.944C396.857 164.774 396.881 164.593 396.869 164.414C396.857 164.234 396.809 164.058 396.729 163.897C396.648 163.735 396.537 163.592 396.4 163.474C395.314 162.517 394.257 161.503 393.259 160.461C393.008 160.203 392.664 160.054 392.303 160.047C391.943 160.041 391.594 160.176 391.333 160.425C391.072 160.673 390.92 161.014 390.91 161.374C390.9 161.734 391.033 162.082 391.28 162.345V162.344ZM378.657 135.822C378.834 135.789 379.002 135.722 379.153 135.624C379.303 135.526 379.433 135.4 379.534 135.252C379.636 135.104 379.707 134.938 379.744 134.763C379.781 134.587 379.783 134.407 379.75 134.231C379.482 132.812 379.273 131.364 379.127 129.928C379.109 129.75 379.056 129.577 378.971 129.42C378.886 129.262 378.77 129.123 378.631 129.009C378.492 128.896 378.332 128.811 378.16 128.76C377.988 128.708 377.807 128.691 377.628 128.709C377.45 128.727 377.276 128.78 377.118 128.865C376.96 128.95 376.82 129.065 376.706 129.204C376.593 129.342 376.508 129.502 376.456 129.673C376.404 129.845 376.387 130.025 376.405 130.203C376.559 131.715 376.779 133.239 377.061 134.733C377.094 134.909 377.161 135.077 377.259 135.227C377.357 135.377 377.484 135.506 377.633 135.607C377.781 135.709 377.948 135.78 378.124 135.816C378.299 135.853 378.481 135.855 378.657 135.822V135.822ZM400.495 170.041C401.762 170.88 403.083 171.677 404.421 172.41C404.739 172.584 405.113 172.625 405.462 172.524C405.81 172.423 406.104 172.189 406.279 171.872C406.453 171.555 406.495 171.181 406.393 170.834C406.292 170.487 406.056 170.194 405.738 170.02C404.468 169.324 403.213 168.567 402.01 167.77C401.86 167.668 401.692 167.597 401.515 167.561C401.338 167.525 401.155 167.524 400.978 167.559C400.8 167.594 400.631 167.663 400.481 167.763C400.331 167.863 400.202 167.992 400.101 168.142C400.001 168.293 399.932 168.461 399.898 168.638C399.863 168.815 399.864 168.997 399.901 169.174C399.938 169.35 400.009 169.518 400.111 169.667C400.213 169.816 400.344 169.943 400.495 170.041ZM411.181 175.536C412.604 176.081 414.068 176.572 415.53 176.995C415.703 177.047 415.885 177.064 416.064 177.045C416.244 177.027 416.418 176.973 416.577 176.887C416.736 176.801 416.876 176.684 416.989 176.544C417.102 176.404 417.186 176.242 417.237 176.07C417.287 175.897 417.303 175.715 417.283 175.537C417.262 175.358 417.207 175.184 417.119 175.027C417.031 174.87 416.913 174.731 416.772 174.619C416.63 174.508 416.468 174.425 416.294 174.376C414.904 173.973 413.514 173.507 412.161 172.99C411.822 172.86 411.445 172.87 411.114 173.018C410.783 173.165 410.523 173.437 410.394 173.775C410.264 174.112 410.274 174.488 410.421 174.818C410.569 175.148 410.842 175.407 411.181 175.536ZM422.814 178.58C424.324 178.803 425.86 178.964 427.378 179.06C427.559 179.073 427.74 179.05 427.911 178.993C428.082 178.936 428.24 178.845 428.376 178.727C428.512 178.608 428.623 178.464 428.703 178.303C428.783 178.141 428.83 177.966 428.841 177.786C428.853 177.606 428.828 177.426 428.77 177.256C428.711 177.086 428.619 176.929 428.499 176.794C428.379 176.66 428.234 176.55 428.071 176.472C427.909 176.393 427.732 176.348 427.552 176.338C426.108 176.247 424.649 176.093 423.214 175.882C423.036 175.854 422.854 175.862 422.679 175.905C422.504 175.948 422.339 176.025 422.194 176.132C422.049 176.239 421.926 176.373 421.833 176.527C421.74 176.681 421.679 176.852 421.652 177.03C421.626 177.208 421.635 177.389 421.679 177.564C421.724 177.738 421.802 177.902 421.91 178.046C422.018 178.19 422.153 178.311 422.309 178.403C422.464 178.495 422.636 178.555 422.814 178.58ZM434.836 179.021C436.358 178.91 437.893 178.732 439.397 178.492C439.575 178.464 439.745 178.401 439.898 178.307C440.051 178.214 440.184 178.091 440.289 177.946C440.395 177.801 440.47 177.636 440.512 177.462C440.554 177.288 440.561 177.107 440.532 176.93C440.504 176.754 440.441 176.584 440.347 176.431C440.253 176.279 440.13 176.146 439.984 176.041C439.839 175.936 439.674 175.861 439.499 175.819C439.324 175.778 439.143 175.771 438.966 175.799C437.537 176.026 436.08 176.195 434.634 176.301C434.454 176.312 434.278 176.36 434.116 176.439C433.954 176.519 433.809 176.63 433.691 176.766C433.572 176.902 433.482 177.06 433.425 177.231C433.367 177.402 433.345 177.583 433.358 177.762C433.372 177.942 433.42 178.117 433.502 178.278C433.584 178.439 433.697 178.582 433.834 178.699C433.971 178.816 434.131 178.904 434.303 178.96C434.475 179.015 434.656 179.036 434.836 179.021L434.836 179.021ZM446.669 176.817C448.125 176.374 449.582 175.864 450.998 175.3C451.335 175.165 451.604 174.903 451.747 174.571C451.89 174.238 451.895 173.863 451.761 173.527C451.626 173.191 451.363 172.922 451.029 172.78C450.696 172.637 450.319 172.632 449.982 172.767C448.637 173.303 447.254 173.788 445.871 174.208C445.524 174.313 445.233 174.552 445.062 174.871C444.892 175.19 444.855 175.564 444.961 175.91C445.067 176.256 445.306 176.546 445.627 176.716C445.947 176.886 446.322 176.922 446.669 176.817ZM457.715 172.082C458.691 171.531 459.662 170.943 460.601 170.335C460.941 170.115 461.277 169.891 461.611 169.665C461.761 169.565 461.889 169.437 461.989 169.287C462.088 169.137 462.157 168.969 462.19 168.793C462.224 168.616 462.222 168.435 462.184 168.259C462.146 168.084 462.074 167.917 461.97 167.77C461.869 167.622 461.74 167.496 461.589 167.397C461.439 167.299 461.271 167.232 461.094 167.198C460.918 167.165 460.736 167.167 460.561 167.203C460.385 167.24 460.218 167.311 460.069 167.412C459.753 167.627 459.433 167.839 459.11 168.049C458.217 168.627 457.294 169.186 456.366 169.71C456.21 169.798 456.073 169.916 455.962 170.057C455.851 170.198 455.77 170.36 455.722 170.532C455.674 170.705 455.661 170.885 455.683 171.063C455.705 171.241 455.761 171.412 455.85 171.568C455.864 171.593 455.879 171.617 455.894 171.64C456.084 171.931 456.378 172.138 456.716 172.22C457.054 172.303 457.411 172.253 457.714 172.082L457.715 172.082Z" fill="url(#paint10_linear_181_1817)"/>
<path opacity="0.3" d="M376.386 123.532C376.232 123.297 376.156 123.02 376.166 122.74C376.193 122.002 376.236 121.251 376.294 120.507C376.322 120.147 376.493 119.812 376.769 119.577C377.044 119.342 377.402 119.225 377.764 119.253C378.126 119.281 378.461 119.451 378.697 119.726C378.933 120.001 379.05 120.358 379.022 120.718C378.967 121.425 378.926 122.138 378.9 122.839C378.89 123.129 378.787 123.407 378.607 123.635C378.426 123.862 378.178 124.027 377.898 124.104C377.617 124.181 377.32 124.167 377.048 124.064C376.776 123.961 376.544 123.775 376.386 123.532Z" fill="url(#paint11_linear_181_1817)"/>
</g>
<path d="M393.545 107.595C393.586 107.468 393.665 107.358 393.772 107.279C393.878 107.199 394.007 107.155 394.14 107.152L401.92 106.982C403.814 103.83 406.211 101.008 409.017 98.6251L407.906 90.9518C407.887 90.8205 407.91 90.6866 407.971 90.5687C408.032 90.4508 408.128 90.3548 408.247 90.2941L416.547 86.036C416.665 85.9752 416.799 85.9528 416.931 85.9718C417.063 85.9908 417.185 86.0504 417.281 86.1421L422.9 91.5019C426.475 90.6108 430.173 90.307 433.846 90.6022L438.507 84.3898C438.587 84.2836 438.698 84.2049 438.824 84.1645C438.951 84.1241 439.087 84.1242 439.214 84.1647L448.104 87.004C448.23 87.0445 448.341 87.1234 448.421 87.2297C448.501 87.336 448.545 87.4645 448.548 87.5971L448.719 95.3529C451.88 97.2407 454.712 99.63 457.102 102.427L464.799 101.32C464.931 101.301 465.065 101.323 465.184 101.384C465.302 101.445 465.398 101.541 465.459 101.659L469.731 109.933C469.792 110.051 469.814 110.185 469.795 110.316C469.776 110.447 469.716 110.569 469.625 110.665L464.248 116.266C465.142 119.83 465.446 123.516 465.15 127.178L471.382 131.824C471.489 131.903 471.568 132.014 471.608 132.14C471.649 132.267 471.649 132.402 471.608 132.529L468.76 141.39C468.719 141.517 468.64 141.627 468.534 141.706C468.427 141.786 468.298 141.83 468.165 141.833L460.385 142.003C458.491 145.155 456.094 147.977 453.289 150.36L454.399 158.033C454.418 158.164 454.395 158.298 454.334 158.416C454.273 158.534 454.177 158.63 454.059 158.691L445.759 162.949C445.64 163.01 445.506 163.032 445.374 163.013C445.243 162.994 445.12 162.935 445.024 162.843L439.405 157.483C435.83 158.374 432.132 158.678 428.459 158.383L423.797 164.595C423.717 164.701 423.606 164.78 423.48 164.821C423.353 164.861 423.217 164.861 423.09 164.82L414.2 161.981C414.074 161.94 413.963 161.861 413.883 161.755C413.804 161.649 413.759 161.52 413.756 161.388L413.585 153.632C410.424 151.744 407.592 149.355 405.202 146.558L397.505 147.665C397.373 147.684 397.239 147.662 397.12 147.601C397.002 147.54 396.906 147.444 396.845 147.326L392.573 139.052C392.512 138.934 392.49 138.8 392.509 138.669C392.528 138.538 392.588 138.416 392.68 138.32L398.057 132.719C397.163 129.155 396.858 125.469 397.154 121.807L390.922 117.161C390.815 117.082 390.736 116.971 390.696 116.845C390.655 116.718 390.655 116.583 390.696 116.456L393.545 107.595Z" fill="url(#paint12_linear_181_1817)"/>
<path opacity="0.56" d="M424.113 130.679C425.719 132.493 427.969 133.615 430.388 133.81C432.808 134.004 435.209 133.256 437.087 131.722C438.964 130.188 440.172 127.988 440.456 125.585C440.74 123.182 440.078 120.763 438.609 118.836C437.141 116.909 434.98 115.625 432.581 115.254C430.182 114.883 427.733 115.454 425.747 116.846C423.762 118.238 422.395 120.343 421.935 122.719C421.475 125.095 421.956 127.556 423.279 129.585C423.53 129.97 423.808 130.335 424.113 130.679ZM438.331 124.943C438.226 126.598 437.549 128.167 436.415 129.381C435.28 130.595 433.758 131.379 432.109 131.6C430.459 131.821 428.784 131.465 427.368 130.592C425.952 129.72 424.884 128.385 424.344 126.816C423.805 125.246 423.829 123.538 424.411 121.984C424.993 120.43 426.098 119.124 427.537 118.291C428.976 117.458 430.661 117.148 432.304 117.414C433.947 117.679 435.446 118.505 436.547 119.75C436.783 120.016 436.998 120.299 437.193 120.597C438.033 121.885 438.432 123.41 438.331 124.944V124.943Z" fill="white"/>
<path opacity="0.56" d="M412.02 137.106C411.589 136.445 411.192 135.763 410.83 135.062C410.715 134.84 410.604 134.616 410.497 134.39C409.967 133.28 409.528 132.129 409.182 130.948L409.168 130.9C409.155 130.855 409.142 130.809 409.129 130.764C409.104 130.674 409.08 130.586 409.055 130.497C409.025 130.386 409.031 130.268 409.073 130.16C409.114 130.053 409.188 129.961 409.285 129.898C409.358 129.851 409.44 129.822 409.526 129.813C409.612 129.803 409.699 129.815 409.779 129.846C409.86 129.876 409.932 129.926 409.99 129.99C410.048 130.053 410.09 130.13 410.112 130.213C411.282 134.541 413.753 138.407 417.194 141.292C420.634 144.177 424.879 145.942 429.356 146.35C433.512 146.735 437.692 145.925 441.401 144.016C442.072 143.672 442.725 143.294 443.357 142.884C446.111 141.091 448.427 138.705 450.132 135.901C451.838 133.097 452.891 129.947 453.212 126.683C453.534 123.419 453.116 120.126 451.991 117.044C450.865 113.963 449.06 111.173 446.708 108.88C444.357 106.586 441.519 104.849 438.404 103.794C435.289 102.74 431.976 102.397 428.71 102.789C425.444 103.181 422.308 104.299 419.533 106.061C416.758 107.822 414.415 110.182 412.678 112.966C412.601 113.089 412.479 113.177 412.337 113.21C412.196 113.243 412.047 113.218 411.924 113.142C411.801 113.066 411.713 112.944 411.68 112.803C411.647 112.662 411.671 112.514 411.748 112.391C413.952 108.86 417.076 105.991 420.785 104.088C432.097 98.284 446.038 102.74 451.858 114.012C454.469 119.073 455.107 124.918 453.648 130.419C452.188 135.92 448.735 140.687 443.955 143.799C443.291 144.229 442.606 144.625 441.902 144.987C436.825 147.591 430.961 148.226 425.441 146.771C419.922 145.315 415.14 141.872 412.019 137.106L412.02 137.106Z" fill="white"/>
<g opacity="0.3">
<path opacity="0.3" d="M340.381 64.7527C340.282 64.6001 340.235 64.4195 340.247 64.238C340.259 64.0565 340.33 63.8838 340.449 63.7457C340.916 63.2029 341.406 62.6667 341.905 62.1524C342.063 61.9981 342.274 61.9111 342.495 61.9102C342.715 61.9092 342.928 61.9943 343.086 62.1472C343.245 62.3002 343.337 62.5089 343.343 62.7287C343.35 62.9486 343.269 63.1622 343.12 63.3239C342.644 63.814 342.177 64.3249 341.731 64.8427C341.646 64.9423 341.539 65.0207 341.417 65.0716C341.296 65.1224 341.165 65.1444 341.034 65.1357C340.903 65.127 340.776 65.0879 340.662 65.0214C340.549 64.955 340.453 64.8631 340.382 64.7531L340.381 64.7527Z" fill="url(#paint13_linear_181_1817)"/>
<path opacity="0.3" d="M345.098 60.3139C345.239 60.4879 345.443 60.599 345.666 60.6229C345.889 60.6467 346.112 60.5814 346.287 60.4412C347.208 59.7023 348.166 59.0103 349.158 58.3677C349.366 58.2327 349.576 58.0996 349.789 57.9685C349.979 57.8507 350.115 57.6623 350.166 57.4448C350.217 57.2273 350.179 56.9985 350.061 56.8087C349.938 56.6247 349.749 56.4942 349.533 56.4438C349.317 56.3933 349.09 56.4267 348.897 56.5371C348.675 56.6748 348.455 56.8142 348.237 56.9552C347.197 57.6288 346.193 58.3546 345.227 59.1296C345.064 59.2602 344.955 59.4464 344.922 59.6522C344.889 59.8579 344.933 60.0687 345.047 60.2437C345.063 60.2675 345.08 60.2908 345.098 60.3139ZM353.566 55.939C354.865 55.3398 356.2 54.8207 357.563 54.3844C357.771 54.3121 357.943 54.1615 358.041 53.9648C358.139 53.7681 358.157 53.5409 358.089 53.3316C358.022 53.1224 357.875 52.9476 357.681 52.8446C357.486 52.7417 357.258 52.7186 357.047 52.7804C355.618 53.2375 354.219 53.7818 352.857 54.4101C352.756 54.4565 352.666 54.5223 352.59 54.6036C352.515 54.685 352.457 54.7803 352.418 54.8842C352.38 54.9881 352.363 55.0985 352.367 55.209C352.372 55.3196 352.398 55.4282 352.445 55.5286C352.462 55.5652 352.482 55.6006 352.504 55.6344C352.615 55.8039 352.783 55.9279 352.978 55.9838C353.173 56.0398 353.382 56.0238 353.566 55.939ZM361.723 53.3345C363.131 53.0712 364.553 52.895 365.982 52.8068C366.203 52.7898 366.409 52.6867 366.555 52.5198C366.7 52.3529 366.774 52.1356 366.761 51.9148C366.747 51.694 366.647 51.4874 366.481 51.3397C366.316 51.1919 366.099 51.1149 365.878 51.1252C364.379 51.2178 362.887 51.4027 361.411 51.6787C361.195 51.7235 361.004 51.8513 360.881 52.0347C360.758 52.218 360.711 52.4422 360.752 52.6592C360.793 52.8761 360.918 53.0684 361.099 53.1947C361.281 53.321 361.505 53.3712 361.723 53.3345ZM370.273 52.8075C371.702 52.896 373.123 53.072 374.53 53.3345C374.749 53.3715 374.973 53.3214 375.155 53.1951C375.337 53.0689 375.461 52.8765 375.502 52.6594C375.543 52.4423 375.497 52.2179 375.374 52.0345C375.25 51.8511 375.059 51.7233 374.842 51.6787C373.367 51.4034 371.876 51.2189 370.377 51.1261C370.157 51.1171 369.941 51.1948 369.777 51.3424C369.613 51.4901 369.513 51.6959 369.499 51.9159C369.486 52.1358 369.559 52.3524 369.704 52.5191C369.848 52.6857 370.053 52.7893 370.273 52.8075ZM378.693 54.3773C380.057 54.8096 381.393 55.3244 382.694 55.9189C382.796 55.9686 382.906 55.9976 383.019 56.0041C383.132 56.0106 383.245 55.9944 383.351 55.9567C383.457 55.919 383.555 55.8603 383.638 55.7843C383.722 55.7082 383.789 55.6163 383.836 55.514C383.883 55.4116 383.909 55.3009 383.912 55.1884C383.916 55.0758 383.897 54.9637 383.856 54.8587C383.815 54.7537 383.753 54.658 383.675 54.5771C383.596 54.4961 383.502 54.4317 383.398 54.3877C382.035 53.7646 380.634 53.2248 379.205 52.7713C378.991 52.7036 378.759 52.7233 378.56 52.8261C378.361 52.9288 378.211 53.1061 378.143 53.3191C378.075 53.5321 378.095 53.7632 378.198 53.9616C378.301 54.1601 378.479 54.3096 378.693 54.3773ZM386.475 57.9368C387.692 58.686 388.86 59.5096 389.975 60.4028C390.15 60.5383 390.371 60.5997 390.591 60.574C390.812 60.5482 391.013 60.4373 391.152 60.2652C391.29 60.093 391.356 59.8734 391.334 59.6536C391.312 59.4338 391.204 59.2314 391.034 59.09C389.865 58.1531 388.639 57.2892 387.363 56.5033C387.172 56.3859 386.942 56.3489 386.724 56.4003C386.506 56.4518 386.317 56.5875 386.2 56.7777C386.082 56.9679 386.045 57.1969 386.096 57.4144C386.148 57.6318 386.284 57.8199 386.475 57.9373V57.9368ZM393.145 63.2833C394.14 64.3084 395.071 65.3937 395.932 66.5333C395.999 66.6216 396.083 66.696 396.178 66.7521C396.274 66.8083 396.38 66.8451 396.49 66.8604C396.6 66.8758 396.712 66.8694 396.819 66.8417C396.927 66.8139 397.028 66.7654 397.116 66.6987C397.205 66.6321 397.279 66.5487 397.336 66.4533C397.392 66.358 397.429 66.2525 397.444 66.1429C397.46 66.0333 397.453 65.9217 397.426 65.8146C397.398 65.7075 397.349 65.6069 397.282 65.5185C396.378 64.3242 395.402 63.1863 394.358 62.1113C394.201 61.9563 393.989 61.8687 393.768 61.8675C393.547 61.8663 393.334 61.9514 393.176 62.1048C393.017 62.2581 392.925 62.4674 392.919 62.6877C392.913 62.908 392.994 63.1218 393.144 63.2833H393.145ZM401.319 74.3794C401.525 74.2922 401.688 74.127 401.772 73.92C401.856 73.713 401.854 73.4812 401.767 73.2755C401.258 72.0792 400.686 70.9106 400.053 69.7748C399.958 69.6016 399.86 69.4308 399.762 69.2601C399.649 69.0667 399.465 68.9257 399.248 68.868C399.032 68.8104 398.801 68.8409 398.607 68.9528C398.413 69.0647 398.271 69.2489 398.213 69.4648C398.156 69.6807 398.186 69.9107 398.298 70.1041C398.391 70.2636 398.483 70.4248 398.574 70.5899C399.179 71.6742 399.725 72.7899 400.211 73.9321C400.231 73.978 400.254 74.0219 400.281 74.0635C400.39 74.229 400.553 74.3512 400.743 74.4088C400.932 74.4665 401.136 74.4558 401.319 74.3787V74.3794Z" fill="url(#paint14_linear_181_1817)"/>
</g>
<g opacity="0.3">
<path opacity="0.3" d="M337.83 107.689C338.65 108.912 339.544 110.084 340.506 111.2C340.578 111.285 340.666 111.354 340.765 111.405C340.864 111.455 340.973 111.486 341.084 111.495C341.195 111.503 341.307 111.49 341.412 111.455C341.518 111.421 341.616 111.366 341.701 111.293C341.785 111.221 341.855 111.132 341.905 111.033C341.955 110.934 341.985 110.826 341.993 110.715C342.001 110.604 341.987 110.493 341.951 110.388C341.916 110.282 341.86 110.185 341.787 110.101C340.869 109.037 340.017 107.919 339.235 106.752C339.109 106.571 338.917 106.447 338.701 106.405C338.484 106.363 338.259 106.407 338.075 106.528C337.89 106.649 337.761 106.838 337.714 107.053C337.667 107.268 337.706 107.493 337.824 107.679L337.83 107.689ZM336.732 104.25C336.932 104.149 337.083 103.973 337.152 103.761C337.222 103.549 337.204 103.318 337.103 103.119C336.466 101.866 335.906 100.577 335.423 99.2573C335.347 99.0473 335.189 98.8763 334.986 98.7819C334.783 98.6875 334.551 98.6775 334.34 98.7539C334.129 98.8304 333.958 98.9872 333.863 99.1897C333.768 99.3922 333.758 99.624 333.835 99.834C334.34 101.217 334.928 102.568 335.596 103.88C335.646 103.979 335.715 104.067 335.799 104.139C335.884 104.211 335.981 104.266 336.087 104.301C336.192 104.335 336.304 104.348 336.414 104.34C336.525 104.331 336.633 104.301 336.732 104.25ZM343.592 114.363C344.685 115.353 345.836 116.275 347.041 117.126C347.224 117.256 347.451 117.307 347.672 117.27C347.893 117.232 348.09 117.108 348.219 116.926C348.349 116.744 348.4 116.518 348.363 116.297C348.325 116.077 348.201 115.881 348.018 115.752C346.869 114.94 345.77 114.06 344.727 113.116C344.646 113.037 344.55 112.976 344.444 112.935C344.338 112.894 344.225 112.874 344.112 112.878C343.998 112.881 343.887 112.907 343.784 112.955C343.681 113.002 343.588 113.07 343.512 113.154C343.436 113.237 343.377 113.336 343.34 113.442C343.302 113.549 343.287 113.662 343.294 113.775C343.302 113.888 343.332 113.998 343.383 114.099C343.434 114.2 343.505 114.29 343.592 114.363H343.592ZM333.592 96.2332C333.81 96.183 334 96.0484 334.118 95.8591C334.237 95.6698 334.276 95.4411 334.226 95.2234C333.91 93.8554 333.678 92.4694 333.531 91.0733C333.522 90.9612 333.49 90.852 333.438 90.7522C333.386 90.6524 333.315 90.564 333.228 90.4921C333.142 90.4202 333.041 90.3663 332.933 90.3337C332.826 90.301 332.712 90.2902 332.6 90.3019C332.488 90.3136 332.379 90.3476 332.28 90.4018C332.182 90.456 332.095 90.5294 332.025 90.6176C331.955 90.7058 331.903 90.8071 331.873 90.9155C331.843 91.0238 331.835 91.1371 331.85 91.2486C332.004 92.713 332.247 94.1667 332.579 95.6015C332.629 95.8192 332.764 96.008 332.954 96.1265C333.144 96.2449 333.373 96.2833 333.592 96.2332ZM350.799 119.45C352.098 120.148 353.439 120.767 354.813 121.304C354.916 121.345 355.026 121.364 355.137 121.362C355.248 121.36 355.358 121.336 355.459 121.292C355.561 121.248 355.653 121.184 355.73 121.104C355.807 121.024 355.867 120.93 355.908 120.827C355.948 120.724 355.968 120.614 355.966 120.504C355.964 120.393 355.94 120.284 355.895 120.182C355.851 120.081 355.787 119.989 355.707 119.913C355.627 119.836 355.533 119.776 355.429 119.735C354.119 119.224 352.84 118.633 351.601 117.966C351.404 117.86 351.173 117.837 350.958 117.901C350.743 117.965 350.563 118.111 350.456 118.308C350.35 118.505 350.326 118.736 350.39 118.95C350.455 119.164 350.602 119.344 350.799 119.45ZM359.021 122.665C360.45 123.032 361.9 123.314 363.364 123.509C363.582 123.531 363.801 123.468 363.974 123.332C364.146 123.196 364.259 122.999 364.288 122.782C364.317 122.565 364.26 122.345 364.129 122.169C363.998 121.993 363.803 121.875 363.586 121.839C362.19 121.653 360.807 121.384 359.443 121.033C359.228 120.981 359.001 121.016 358.811 121.13C358.621 121.244 358.483 121.427 358.428 121.641C358.373 121.855 358.404 122.082 358.515 122.273C358.625 122.465 358.807 122.605 359.021 122.664V122.665ZM367.778 123.825C369.255 123.841 370.732 123.768 372.2 123.606C372.42 123.578 372.621 123.466 372.759 123.292C372.897 123.118 372.96 122.897 372.936 122.676C372.911 122.456 372.801 122.254 372.628 122.115C372.455 121.975 372.235 121.909 372.013 121.931C370.614 122.086 369.206 122.156 367.798 122.14C367.574 122.137 367.358 122.224 367.197 122.38C367.037 122.536 366.946 122.749 366.943 122.973C366.941 123.139 366.988 123.302 367.079 123.44C367.155 123.557 367.259 123.653 367.381 123.72C367.503 123.787 367.64 123.823 367.779 123.825H367.778Z" fill="url(#paint15_linear_181_1817)"/>
<path opacity="0.3" d="M331.795 87.2743C331.704 87.1333 331.656 86.9682 331.66 86.8002C331.673 86.0792 331.708 85.3557 331.763 84.6491C331.77 84.5378 331.8 84.429 331.849 84.3291C331.899 84.2291 331.968 84.1401 332.053 84.067C332.137 83.9939 332.236 83.9383 332.342 83.9034C332.448 83.8685 332.56 83.855 332.672 83.8636C332.783 83.8723 332.892 83.9029 332.992 83.9537C333.091 84.0046 333.18 84.0747 333.252 84.1599C333.324 84.2451 333.379 84.3437 333.412 84.4501C333.446 84.5565 333.458 84.6685 333.448 84.7796C333.395 85.4534 333.362 86.1439 333.349 86.8317C333.346 87.012 333.284 87.1864 333.174 87.3293C333.064 87.4722 332.91 87.576 332.736 87.6256C332.563 87.6751 332.377 87.6677 332.208 87.6045C332.038 87.5412 331.894 87.4255 331.795 87.2743Z" fill="url(#paint16_linear_181_1817)"/>
</g>
<path d="M343.237 76.0008C343.264 75.9163 343.317 75.8423 343.388 75.7892C343.46 75.7361 343.546 75.7065 343.635 75.7045L348.841 75.5903C350.109 73.4815 351.713 71.5928 353.59 69.9986L352.847 64.8641C352.834 64.7762 352.849 64.6865 352.89 64.6076C352.931 64.5287 352.995 64.4645 353.075 64.4238L358.629 61.5745C358.708 61.534 358.798 61.5191 358.886 61.5319C358.974 61.5448 359.056 61.5847 359.12 61.6462L362.88 65.2332C365.272 64.6369 367.746 64.4335 370.205 64.631L373.323 60.474C373.377 60.403 373.451 60.3503 373.536 60.3232C373.621 60.2962 373.712 60.2962 373.797 60.3233L379.745 62.2234C379.83 62.2506 379.904 62.3034 379.957 62.3745C380.011 62.4456 380.04 62.5316 380.042 62.6203L380.157 67.81C382.272 69.0733 384.167 70.6722 385.766 72.5435L390.917 71.803C391.005 71.7902 391.095 71.8053 391.174 71.8459C391.254 71.8866 391.318 71.9508 391.359 72.0297L394.218 77.5663C394.259 77.6453 394.273 77.7349 394.261 77.8228C394.248 77.9106 394.208 77.9923 394.146 78.0564L390.548 81.8045C391.146 84.1893 391.35 86.6555 391.152 89.1058L395.322 92.2149C395.393 92.2681 395.446 92.3421 395.473 92.4266C395.5 92.5112 395.5 92.602 395.473 92.6865L393.567 98.6164C393.54 98.7008 393.487 98.7747 393.415 98.8278C393.344 98.8809 393.258 98.9105 393.169 98.9125L387.962 99.0265C386.695 101.135 385.091 103.024 383.214 104.618L383.957 109.753C383.97 109.841 383.955 109.93 383.914 110.009C383.873 110.088 383.809 110.152 383.73 110.193L378.175 113.042C378.095 113.082 378.006 113.097 377.917 113.084C377.829 113.071 377.747 113.031 377.683 112.97L373.924 109.383C371.532 109.979 369.057 110.183 366.599 109.985L363.481 114.142C363.427 114.213 363.353 114.266 363.268 114.293C363.183 114.32 363.092 114.32 363.007 114.293L357.059 112.393C356.974 112.366 356.9 112.313 356.847 112.242C356.793 112.171 356.764 112.085 356.762 111.996L356.647 106.806C354.532 105.543 352.637 103.945 351.038 102.074L345.887 102.814C345.799 102.827 345.709 102.812 345.63 102.771C345.55 102.73 345.486 102.666 345.445 102.587L342.587 97.05C342.547 96.971 342.532 96.8814 342.545 96.7936C342.557 96.7058 342.597 96.6241 342.659 96.5601L346.257 92.8122C345.659 90.4272 345.455 87.961 345.653 85.5106L341.483 82.4016C341.412 82.3484 341.359 82.2744 341.332 82.1899C341.305 82.1053 341.305 82.0145 341.332 81.93L343.237 76.0008Z" fill="url(#paint17_linear_181_1817)"/>
<path opacity="0.56" d="M363.605 91.52C364.697 92.7519 366.225 93.5141 367.868 93.6465C369.511 93.7788 371.142 93.2709 372.418 92.2295C373.694 91.1881 374.514 89.6944 374.708 88.0622C374.902 86.43 374.454 84.7865 373.457 83.477C372.461 82.1676 370.994 81.2941 369.365 81.0403C367.736 80.7865 366.072 81.1721 364.722 82.116C363.372 83.0598 362.442 84.4886 362.127 86.1019C361.812 87.7151 362.136 89.3874 363.032 90.7671C363.205 91.0316 363.396 91.2832 363.605 91.52ZM371.509 90.8221C371.046 91.2292 370.507 91.5413 369.923 91.7407C369.339 91.9401 368.721 92.0229 368.105 91.9843C367.489 91.9457 366.886 91.7865 366.332 91.5157C365.777 91.245 365.282 90.8681 364.874 90.4064C364.049 89.4741 363.63 88.2533 363.708 87.0127C363.786 85.7721 364.355 84.6133 365.291 83.7912C366.226 82.9691 367.451 82.551 368.695 82.629C369.94 82.707 371.102 83.2746 371.927 84.207C372.079 84.3794 372.219 84.5626 372.344 84.7552C372.957 85.6987 373.209 86.8298 373.056 87.9431C372.903 89.0563 372.354 90.0779 371.509 90.8221Z" fill="white"/>
<path opacity="0.56" d="M355.192 95.9954C354.9 95.5485 354.63 95.0834 354.379 94.5999C353.883 93.6393 353.486 92.631 353.194 91.5905L353.156 91.4503C353.123 91.3424 353.113 91.2291 353.125 91.1171C353.137 91.005 353.172 90.8966 353.227 90.7982C353.282 90.6997 353.356 90.6133 353.445 90.544C353.534 90.4746 353.636 90.4238 353.746 90.3945C353.855 90.3652 353.969 90.358 354.081 90.3734C354.193 90.3888 354.3 90.4264 354.397 90.484C354.495 90.5416 354.579 90.618 354.646 90.7088C354.713 90.7996 354.761 90.9028 354.787 91.0124C355.051 91.987 355.418 92.9309 355.882 93.8282C355.907 93.8774 355.933 93.9266 355.959 93.9753C357.056 96.0575 358.659 97.8317 360.623 99.1354C361.691 99.8435 362.85 100.405 364.068 100.805L364.098 100.815C364.13 100.825 364.16 100.835 364.19 100.844C365.969 101.418 367.844 101.634 369.707 101.48C371.569 101.326 373.383 100.805 375.043 99.9482C375.477 99.7257 375.9 99.4814 376.309 99.2161C378.092 98.0553 379.591 96.5103 380.695 94.695C381.8 92.8798 382.481 90.8406 382.689 88.7279C382.898 86.6151 382.627 84.4827 381.899 82.4879C381.17 80.4931 380.002 78.6868 378.479 77.2022C376.957 75.7176 375.12 74.5926 373.103 73.9101C371.087 73.2276 368.942 73.005 366.828 73.2589C364.713 73.5127 362.683 74.2364 360.887 75.3766C359.09 76.5169 357.574 78.0445 356.448 79.8469C356.383 79.9522 356.295 80.0417 356.191 80.1088C356.03 80.213 355.838 80.2593 355.647 80.2402C355.456 80.221 355.277 80.1376 355.14 80.0037C355.003 79.8697 354.915 79.6932 354.892 79.5031C354.869 79.3131 354.912 79.1209 355.013 78.9582C356.272 76.9414 357.968 75.232 359.978 73.9561C361.988 72.6802 364.259 71.8703 366.625 71.5861C368.99 71.302 371.39 71.5508 373.646 72.3143C375.902 73.0778 377.958 74.3364 379.661 75.9974C381.364 77.6584 382.672 79.6793 383.487 81.9112C384.302 84.143 384.605 86.5288 384.371 88.8926C384.138 91.2564 383.376 93.5379 382.14 95.5688C380.905 97.5997 379.228 99.3282 377.233 100.627C376.775 100.924 376.302 101.197 375.816 101.446C372.311 103.239 368.263 103.675 364.454 102.668C360.645 101.661 357.346 99.2843 355.192 95.9954Z" fill="white"/>
<path d="M169.249 153.174L193.822 178.23L164.346 170.381L169.249 153.174Z" fill="url(#paint18_linear_181_1817)"/>
<path d="M23.0378 163.545L162.661 170.3C163.51 170.341 164.36 170.21 165.157 169.914C165.954 169.618 166.683 169.164 167.299 168.579C167.915 167.994 168.406 167.29 168.741 166.511C169.076 165.731 169.249 164.892 169.249 164.044V106.784C169.249 103.79 168.08 100.914 165.989 98.7648C163.899 96.6155 161.051 95.3618 158.05 95.2692L32.2134 91.3879C27.7134 91.388 23.3977 93.17 20.2157 96.342C17.0337 99.5139 15.2461 103.816 15.2461 108.302V155.393C15.2463 157.489 16.0555 159.505 17.506 161.023C18.9566 162.54 20.9373 163.444 23.0378 163.545Z" fill="url(#paint19_linear_181_1817)"/>
<path opacity="0.85" d="M158.486 168.001C160.773 167.998 162.965 167.089 164.581 165.476C166.198 163.862 167.105 161.676 167.105 159.395V107.789C167.105 101.707 162.214 96.7954 155.968 96.6075L34.1311 92.9392C24.8967 92.9392 17.3911 100.244 17.3911 109.222V153.715C17.3911 157.997 20.8315 161.513 25.2236 161.72L158.064 167.992C158.205 167.998 158.346 168.001 158.486 168.001ZM34.1219 93.5426L155.95 97.2102C161.866 97.3882 166.5 102.035 166.5 107.788V159.396C166.5 160.479 166.28 161.551 165.852 162.546C165.425 163.541 164.799 164.44 164.013 165.187C163.227 165.934 162.297 166.515 161.279 166.893C160.262 167.272 159.178 167.441 158.093 167.389L25.252 161.118L25.2378 161.419L25.252 161.118C21.1835 160.926 17.9964 157.675 17.9964 153.716V109.223C17.9964 100.576 25.2297 93.5426 34.1219 93.5426Z" fill="white"/>
<path opacity="0.94" d="M34.5276 103.98L146.172 108.145C147.269 108.186 148.132 108.91 148.095 109.758L148.053 110.737C148.017 111.576 147.113 112.222 146.028 112.182L34.3795 108.119C33.2825 108.079 32.4177 107.354 32.4542 106.506L32.5005 105.426C32.5366 104.585 33.4418 103.94 34.5276 103.98Z" fill="white"/>
<path opacity="0.94" d="M44.5194 132.156L156.165 136.299C157.262 136.34 158.123 137.089 158.086 137.968L158.042 138.982C158.005 139.851 157.1 140.521 156.015 140.482L44.365 136.442C43.268 136.403 42.4049 135.654 42.4421 134.774L42.4901 133.656C42.5273 132.785 43.4336 132.115 44.5194 132.156Z" fill="white"/>
<path opacity="0.94" d="M31.4762 143.943L155.937 148.627C157.16 148.673 158.123 149.434 158.085 150.321L158.041 151.344C158.003 152.223 156.998 152.895 155.788 152.85L31.3234 148.272C30.1006 148.227 29.1344 147.466 29.1725 146.578L29.221 145.449C29.2586 144.57 30.266 143.897 31.4762 143.943Z" fill="white"/>
<path opacity="0.94" d="M95.7401 120.592L156.592 122.361C157.19 122.379 157.637 123.196 157.588 124.183L157.531 125.32C157.483 126.296 156.967 127.071 156.376 127.055L95.5178 125.403C94.9197 125.387 94.4723 124.569 94.5212 123.582L94.5833 122.327C94.6318 121.35 95.1485 120.575 95.7401 120.592Z" fill="white"/>
<path opacity="0.94" d="M28.691 118.497L86.2073 120.14C86.7719 120.157 87.1918 120.973 87.1424 121.96L87.0857 123.097C87.037 124.073 86.5463 124.848 85.9888 124.834L28.4666 123.308C27.9012 123.293 27.4808 122.476 27.53 121.488L27.5926 120.234C27.6408 119.256 28.1316 118.481 28.691 118.497Z" fill="white"/>
<path d="M381.252 479.366C381.252 479.366 382.403 485.861 382.968 492.291C383.018 492.887 382.947 493.487 382.758 494.055C382.57 494.623 382.268 495.147 381.871 495.596C381.473 496.044 380.989 496.408 380.447 496.665C379.905 496.921 379.316 497.066 378.717 497.09C370.128 497.447 351.757 498.14 345.164 497.847C344.934 497.835 344.71 497.77 344.511 497.655C344.311 497.54 344.142 497.379 344.018 497.186C343.893 496.993 343.817 496.773 343.795 496.544C343.773 496.316 343.806 496.085 343.892 495.872C344.199 495.102 344.792 494.48 345.547 494.133L375.894 480.23L381.252 479.366Z" fill="url(#paint20_linear_181_1817)"/>
<path d="M382.196 475.549L381.271 483.317C381.271 483.317 375.955 485.784 372.325 483.007L374.526 474.348L382.196 475.549Z" fill="url(#paint21_linear_181_1817)"/>
<path d="M381.499 329.502C381.899 331.53 383.643 430.739 373.005 475.197C372.918 475.547 372.96 475.917 373.123 476.239C373.286 476.561 373.559 476.814 373.893 476.952C376.661 478.02 379.59 478.613 382.557 478.708C383.134 478.727 383.702 478.553 384.17 478.216C384.638 477.878 384.98 477.395 385.143 476.842C388.184 466.527 402.756 414.846 404.657 365.476C406.781 310.31 404.657 363.598 404.657 363.598L403.411 329.498L381.499 329.502Z" fill="url(#paint22_linear_181_1817)"/>
<path d="M416.159 482.755C416.159 482.755 417.991 486.034 419.764 494.746C419.841 495.117 419.839 495.5 419.758 495.87C419.677 496.24 419.519 496.589 419.294 496.894C419.069 497.199 418.783 497.454 418.453 497.641C418.123 497.829 417.757 497.945 417.379 497.983C414.543 498.261 410.177 498.618 406.679 498.594C406.299 498.593 405.922 498.512 405.576 498.356C405.229 498.2 404.919 497.972 404.666 497.688C404.414 497.405 404.224 497.071 404.11 496.709C403.995 496.347 403.959 495.965 404.003 495.589C404.39 492.408 405.597 487.191 409.326 483.124L416.159 482.755Z" fill="url(#paint23_linear_181_1817)"/>
<path d="M417.77 472.762L415.609 484.51C415.609 484.51 413.473 486.094 409.247 484.946L410.278 472.306L417.77 472.762Z" fill="url(#paint24_linear_181_1817)"/>
<path d="M423.607 332.542C432.308 384.886 421.719 461.913 418.149 476.988C418.044 477.44 417.807 477.85 417.468 478.168C417.129 478.486 416.703 478.696 416.245 478.773C414.651 479.037 412.027 479.252 409.439 478.503C409.005 478.376 408.621 478.116 408.342 477.76C408.063 477.404 407.903 476.97 407.885 476.518C407.406 464.33 408.269 389.504 400.162 359.932C399.751 358.435 398.832 357.125 397.563 356.227L381.828 345.076L380.621 327.051L423.607 332.542Z" fill="url(#paint25_linear_181_1817)"/>
<path d="M368.165 233.364C394.24 232.933 423.009 240.188 423.009 240.188C430.781 285.395 424.368 337.538 424.368 337.538C404.182 342.815 381.411 334.312 381.411 334.312C378.056 315.416 362.402 262.238 362.402 262.238C349.662 260.662 339.168 256.998 330.525 252.154C337.117 244.537 340.225 234.844 341.575 229.114C350.794 231.971 360.123 233.496 368.165 233.364Z" fill="url(#paint26_linear_181_1817)"/>
<path d="M291.148 195.08C293.709 191.997 296.951 193.455 296.951 193.455C300.788 209.612 320.907 222.713 341.577 229.116C340.227 234.846 337.119 244.538 330.527 252.156C296.224 232.929 291.148 195.08 291.148 195.08Z" fill="url(#paint27_linear_181_1817)"/>
<path d="M291.768 195.863C291.5 196.712 294.603 198.005 296.431 194.532C296.495 192.867 297.51 185.734 296.512 184.378C291.197 177.154 280.892 168.1 280.892 168.1C279.151 169.813 280.586 171.496 280.586 171.496L285.585 176.687C284.539 178.571 283.264 180.16 282.666 182.439C282.228 184.178 282.478 186.018 283.365 187.578C284.242 189.154 285.439 191.202 286.571 192.806C288.713 195.84 291.768 195.863 291.768 195.863Z" fill="url(#paint28_linear_181_1817)"/>
<path d="M287.771 180.054L292.326 183.904L293.757 187.736L289.695 192.228C289.695 192.228 288.329 184.623 287.314 182.977C286.299 181.331 286.826 180.535 287.771 180.054Z" fill="url(#paint29_linear_181_1817)"/>
<path d="M413.008 265.355L423.009 240.187C423.009 240.187 447.364 256.683 451.369 277.598C446.768 277.936 438.394 279.129 430.197 283.255C428.396 273.379 413.008 265.355 413.008 265.355Z" fill="url(#paint30_linear_181_1817)"/>
<path d="M391.726 289.037C391.726 289.037 419.07 304.442 428.297 291.288C430.212 288.557 430.67 285.842 430.198 283.254C438.395 279.129 446.769 277.936 451.37 277.598C452.578 283.903 451.94 290.609 448.223 297.386C432.062 326.856 388.108 295.758 388.108 295.758L391.726 289.037Z" fill="url(#paint31_linear_181_1817)"/>
<path d="M395.013 308.526L380.089 256.574C380.007 256.286 379.841 256.029 379.613 255.835C379.384 255.64 379.102 255.518 378.804 255.483C376.1 255.169 368.266 254.286 359.219 253.523C348.323 252.605 335.669 251.86 328.108 252.494C327.86 252.513 327.62 252.593 327.41 252.726C327.2 252.86 327.026 253.042 326.903 253.258C326.78 253.474 326.712 253.716 326.705 253.964C326.697 254.212 326.751 254.458 326.861 254.681C331.161 263.352 348.848 298.627 357.705 310.183C357.849 310.372 358.036 310.525 358.249 310.629C358.463 310.734 358.698 310.787 358.936 310.785L393.561 310.464C393.796 310.462 394.027 310.406 394.236 310.3C394.446 310.194 394.628 310.041 394.768 309.853C394.909 309.666 395.004 309.448 395.047 309.218C395.089 308.988 395.077 308.751 395.013 308.526Z" fill="url(#paint32_linear_181_1817)"/>
<path d="M357.668 249.02L346.849 247.223C346.717 247.201 346.581 247.213 346.456 247.259C346.33 247.305 346.218 247.382 346.131 247.483C346.044 247.584 345.985 247.706 345.959 247.837C345.933 247.967 345.942 248.103 345.983 248.229L347.055 251.465C347.1 251.603 347.184 251.725 347.296 251.818C347.408 251.911 347.545 251.97 347.689 251.989L358.101 253.376C358.226 253.392 358.352 253.378 358.47 253.335C358.589 253.292 358.694 253.221 358.779 253.128C358.863 253.036 358.924 252.924 358.955 252.802C358.987 252.681 358.988 252.554 358.96 252.432L358.297 249.607C358.262 249.458 358.184 249.323 358.072 249.219C357.96 249.114 357.819 249.045 357.668 249.02Z" fill="url(#paint33_linear_181_1817)"/>
<path d="M365.769 258.15L364.878 253.522C364.835 253.296 364.719 253.09 364.549 252.935C364.378 252.779 364.162 252.683 363.933 252.66L342.079 250.449C341.909 250.432 341.736 250.456 341.577 250.518C341.417 250.581 341.275 250.681 341.163 250.81C341.05 250.938 340.97 251.092 340.929 251.258C340.888 251.424 340.887 251.597 340.927 251.763L342.317 257.53C342.371 257.755 342.496 257.956 342.675 258.104C342.853 258.251 343.074 258.337 343.306 258.349L364.661 259.421C364.824 259.429 364.986 259.4 365.135 259.337C365.285 259.273 365.418 259.177 365.525 259.054C365.632 258.932 365.709 258.787 365.752 258.63C365.794 258.474 365.8 258.31 365.769 258.15Z" fill="url(#paint34_linear_181_1817)"/>
<path d="M391.406 295.976C391.406 295.976 393.485 287.455 392.647 284.432C391.809 281.409 390.183 277.522 384.768 278.386C379.353 279.249 372.964 281.523 372.964 281.523C372.964 281.523 373.287 285.461 377.403 284.191L374.851 286.159C374.851 286.159 375.215 289.312 378.692 287.628L376.318 290.239C376.318 290.239 377.811 292.828 380.369 291.168C382.928 289.507 384.152 297.002 391.406 295.976Z" fill="url(#paint35_linear_181_1817)"/>
<path d="M394.576 212.26L402.872 236.177C402.94 236.369 402.937 236.578 402.865 236.768C402.793 236.958 402.656 237.116 402.478 237.215C400.217 238.461 392.069 242.064 382.25 235.858C381.743 235.542 381.313 235.119 380.989 234.618C380.665 234.117 380.455 233.551 380.376 232.96L377.689 212.26H394.576Z" fill="url(#paint36_linear_181_1817)"/>
<path d="M376.525 190.115C376.525 190.115 367.414 207.211 368.582 214.116C369.749 221.022 381.041 220.526 390.9 214.917L397.79 196.459L376.525 190.115Z" fill="url(#paint37_linear_181_1817)"/>
<path d="M390.463 205.852C390.369 205.811 390.285 205.75 390.217 205.673C390.149 205.597 390.099 205.506 390.069 205.408C390.04 205.31 390.032 205.206 390.047 205.105C390.062 205.004 390.099 204.907 390.155 204.821C390.885 203.71 392.253 201.442 392.691 199.457C392.691 199.457 394.328 198.411 388.522 197.026C382.716 195.641 374.057 193.49 372.237 188.563C370.463 183.76 375.125 171.681 382.563 181.306C382.629 181.391 382.713 181.461 382.81 181.51C382.907 181.558 383.013 181.583 383.121 181.584C383.23 181.585 383.336 181.561 383.434 181.514C383.531 181.467 383.617 181.398 383.683 181.313C384.902 179.731 388.108 176.448 392.559 178.438C396.724 180.301 397.193 183.344 397.136 184.877C397.131 184.982 397.151 185.087 397.193 185.184C397.235 185.281 397.298 185.367 397.378 185.436C397.459 185.505 397.553 185.555 397.655 185.582C397.757 185.61 397.864 185.614 397.968 185.594C400.074 185.194 405.127 184.85 407.486 190.017C409.428 194.274 408.166 196.683 407.016 197.861C406.931 197.948 406.869 198.055 406.838 198.172C406.806 198.289 406.805 198.412 406.836 198.53C406.866 198.647 406.926 198.755 407.011 198.842C407.095 198.929 407.201 198.993 407.318 199.028C408.702 199.45 410.489 200.62 410.31 203.852C410.062 208.32 405.051 207.927 403.624 207.723C403.509 207.706 403.392 207.717 403.282 207.755C403.173 207.794 403.075 207.859 402.996 207.944C401.773 209.294 396.261 215.025 390.295 215.715C390.175 215.728 390.055 215.71 389.944 215.664C389.834 215.617 389.737 215.544 389.662 215.45C389.587 215.357 389.538 215.246 389.518 215.128C389.497 215.01 389.507 214.889 389.547 214.776L392.128 207.295C392.185 207.127 392.178 206.944 392.107 206.781C392.036 206.619 391.906 206.489 391.744 206.417L390.463 205.852Z" fill="url(#paint38_linear_181_1817)"/>
<path d="M389.427 206.913C389.427 206.913 395.914 202.477 396.388 206.213C396.862 209.949 390.546 211.624 387.418 210.231L389.427 206.913Z" fill="url(#paint39_linear_181_1817)"/>
<defs>
<linearGradient id="paint0_linear_181_1817" x1="-64.2159" y1="645.985" x2="375.602" y2="98.0266" gradientUnits="userSpaceOnUse">
<stop stop-color="#B37CFF"/>
<stop offset="1" stop-color="#F895E7"/>
</linearGradient>
<linearGradient id="paint1_linear_181_1817" x1="-488702" y1="342338" x2="-104683" y2="517875" gradientUnits="userSpaceOnUse">
<stop stop-color="#B37CFF"/>
<stop offset="1" stop-color="#F895E7"/>
</linearGradient>
<linearGradient id="paint2_linear_181_1817" x1="-477329" y1="176669" x2="-347775" y2="344750" gradientUnits="userSpaceOnUse">
<stop stop-color="#B37CFF"/>
<stop offset="1" stop-color="#F895E7"/>
</linearGradient>
<linearGradient id="paint3_linear_181_1817" x1="-382.624" y1="-338.977" x2="537.586" y2="447.861" gradientUnits="userSpaceOnUse">
<stop stop-color="#CB236D"/>
<stop offset="1" stop-color="#4C246D"/>
</linearGradient>
<linearGradient id="paint4_linear_181_1817" x1="477020" y1="-90920.5" x2="19737.4" y2="275741" gradientUnits="userSpaceOnUse">
<stop stop-color="#CB236D"/>
<stop offset="1" stop-color="#4C246D"/>
</linearGradient>
<linearGradient id="paint5_linear_181_1817" x1="24286.3" y1="872037" x2="1.69116e+06" y2="-447930" gradientUnits="userSpaceOnUse">
<stop stop-color="#CB236D"/>
<stop offset="1" stop-color="#4C246D"/>
</linearGradient>
<linearGradient id="paint6_linear_181_1817" x1="80656.8" y1="273739" x2="482036" y2="-152652" gradientUnits="userSpaceOnUse">
<stop stop-color="#CB236D"/>
<stop offset="1" stop-color="#4C246D"/>
</linearGradient>
<linearGradient id="paint7_linear_181_1817" x1="-138293" y1="-83006" x2="-117336" y2="-50642.1" gradientUnits="userSpaceOnUse">
<stop stop-color="#B37CFF"/>
<stop offset="1" stop-color="#F895E7"/>
</linearGradient>
<linearGradient id="paint8_linear_181_1817" x1="-6470.41" y1="1556.42" x2="-6432.42" y2="1615.08" gradientUnits="userSpaceOnUse">
<stop stop-color="#B37CFF"/>
<stop offset="1" stop-color="#F895E7"/>
</linearGradient>
<linearGradient id="paint9_linear_181_1817" x1="-7107.47" y1="416.557" x2="-7066.63" y2="479.633" gradientUnits="userSpaceOnUse">
<stop stop-color="#B37CFF"/>
<stop offset="1" stop-color="#F895E7"/>
</linearGradient>
<linearGradient id="paint10_linear_181_1817" x1="-142791" y1="-57484.2" x2="-121980" y2="-25344" gradientUnits="userSpaceOnUse">
<stop stop-color="#B37CFF"/>
<stop offset="1" stop-color="#F895E7"/>
</linearGradient>
<linearGradient id="paint11_linear_181_1817" x1="-9107.59" y1="1845.59" x2="-9068.75" y2="1905.57" gradientUnits="userSpaceOnUse">
<stop stop-color="#B37CFF"/>
<stop offset="1" stop-color="#F895E7"/>
</linearGradient>
<linearGradient id="paint12_linear_181_1817" x1="709.7" y1="117719" x2="54403.3" y2="-1435.33" gradientUnits="userSpaceOnUse">
<stop stop-color="#B37CFF"/>
<stop offset="1" stop-color="#F895E7"/>
</linearGradient>
<linearGradient id="paint13_linear_181_1817" x1="-7269.45" y1="-1197.44" x2="-7248.65" y2="-1165.33" gradientUnits="userSpaceOnUse">
<stop stop-color="#B37CFF"/>
<stop offset="1" stop-color="#F895E7"/>
</linearGradient>
<linearGradient id="paint14_linear_181_1817" x1="-91530" y1="-68540.1" x2="-84042.9" y2="-56977.5" gradientUnits="userSpaceOnUse">
<stop stop-color="#B37CFF"/>
<stop offset="1" stop-color="#F895E7"/>
</linearGradient>
<linearGradient id="paint15_linear_181_1817" x1="-93905" y1="-25894.1" x2="-87735.2" y2="-16365.9" gradientUnits="userSpaceOnUse">
<stop stop-color="#B37CFF"/>
<stop offset="1" stop-color="#F895E7"/>
</linearGradient>
<linearGradient id="paint16_linear_181_1817" x1="-7105.52" y1="1792.08" x2="-7087.12" y2="1820.49" gradientUnits="userSpaceOnUse">
<stop stop-color="#B37CFF"/>
<stop offset="1" stop-color="#F895E7"/>
</linearGradient>
<linearGradient id="paint17_linear_181_1817" x1="12034.8" y1="83947" x2="47963.2" y2="4216.49" gradientUnits="userSpaceOnUse">
<stop stop-color="#B37CFF"/>
<stop offset="1" stop-color="#F895E7"/>
</linearGradient>
<linearGradient id="paint18_linear_181_1817" x1="265.851" y1="319.052" x2="-209.353" y2="-478.733" gradientUnits="userSpaceOnUse">
<stop stop-color="#FDF53F"/>
<stop offset="1" stop-color="#D93C65"/>
</linearGradient>
<linearGradient id="paint19_linear_181_1817" x1="236152" y1="150064" x2="366914" y2="-276962" gradientUnits="userSpaceOnUse">
<stop stop-color="#FDF53F"/>
<stop offset="1" stop-color="#D93C65"/>
</linearGradient>
<linearGradient id="paint20_linear_181_1817" x1="346.125" y1="470.39" x2="456.872" y2="591.234" gradientUnits="userSpaceOnUse">
<stop stop-color="#2B3582"/>
<stop offset="1" stop-color="#150E42"/>
</linearGradient>
<linearGradient id="paint21_linear_181_1817" x1="382.196" y1="479.338" x2="372.325" y2="479.338" gradientUnits="userSpaceOnUse">
<stop stop-color="#F9B776"/>
<stop offset="1" stop-color="#F47960"/>
</linearGradient>
<linearGradient id="paint22_linear_181_1817" x1="240428" y1="278449" x2="195670" y2="291719" gradientUnits="userSpaceOnUse">
<stop stop-color="#2B3582"/>
<stop offset="1" stop-color="#150E42"/>
</linearGradient>
<linearGradient id="paint23_linear_181_1817" x1="113904" y1="40030.5" x2="104115" y2="50675.3" gradientUnits="userSpaceOnUse">
<stop stop-color="#2B3582"/>
<stop offset="1" stop-color="#150E42"/>
</linearGradient>
<linearGradient id="paint24_linear_181_1817" x1="59280.4" y1="35352.4" x2="59684.3" y2="35352.4" gradientUnits="userSpaceOnUse">
<stop stop-color="#F9B776"/>
<stop offset="1" stop-color="#F47960"/>
</linearGradient>
<linearGradient id="paint25_linear_181_1817" x1="336819" y1="273075" x2="277778" y2="297474" gradientUnits="userSpaceOnUse">
<stop stop-color="#2B3582"/>
<stop offset="1" stop-color="#150E42"/>
</linearGradient>
<linearGradient id="paint26_linear_181_1817" x1="57227.7" y1="162994" x2="155223" y2="15343.7" gradientUnits="userSpaceOnUse">
<stop stop-color="#FDF53F"/>
<stop offset="1" stop-color="#D93C65"/>
</linearGradient>
<linearGradient id="paint27_linear_181_1817" x1="-177738" y1="54232.8" x2="-171303" y2="69935.7" gradientUnits="userSpaceOnUse">
<stop stop-color="#F9B776"/>
<stop offset="1" stop-color="#F47960"/>
</linearGradient>
<linearGradient id="paint28_linear_181_1817" x1="-60226" y1="27283.9" x2="-56309.1" y2="33877" gradientUnits="userSpaceOnUse">
<stop stop-color="#F9B776"/>
<stop offset="1" stop-color="#F47960"/>
</linearGradient>
<linearGradient id="paint29_linear_181_1817" x1="-23653.5" y1="13827.2" x2="-24757.4" y2="12547.9" gradientUnits="userSpaceOnUse">
<stop stop-color="#F9B776"/>
<stop offset="1" stop-color="#F47960"/>
</linearGradient>
<linearGradient id="paint30_linear_181_1817" x1="16381.9" y1="59520.8" x2="54419.7" y2="1147.92" gradientUnits="userSpaceOnUse">
<stop stop-color="#FDF53F"/>
<stop offset="1" stop-color="#D93C65"/>
</linearGradient>
<linearGradient id="paint31_linear_181_1817" x1="429095" y1="53513.7" x2="451743" y2="53513.7" gradientUnits="userSpaceOnUse">
<stop stop-color="#F9B776"/>
<stop offset="1" stop-color="#F47960"/>
</linearGradient>
<linearGradient id="paint32_linear_181_1817" x1="-58523" y1="71318.3" x2="-49063.7" y2="101454" gradientUnits="userSpaceOnUse">
<stop stop-color="#2B3582"/>
<stop offset="1" stop-color="#150E42"/>
</linearGradient>
<linearGradient id="paint33_linear_181_1817" x1="849.791" y1="1551.33" x2="881.495" y2="1634.82" gradientUnits="userSpaceOnUse">
<stop stop-color="#53D8FF"/>
<stop offset="1" stop-color="#3840F7"/>
</linearGradient>
<linearGradient id="paint34_linear_181_1817" x1="112598" y1="77968.3" x2="111953" y2="82664.1" gradientUnits="userSpaceOnUse">
<stop stop-color="#53D8FF"/>
<stop offset="1" stop-color="#3840F7"/>
</linearGradient>
<linearGradient id="paint35_linear_181_1817" x1="140463" y1="28809.2" x2="142662" y2="28809.2" gradientUnits="userSpaceOnUse">
<stop stop-color="#F9B776"/>
<stop offset="1" stop-color="#F47960"/>
</linearGradient>
<linearGradient id="paint36_linear_181_1817" x1="176755" y1="34390.5" x2="180295" y2="34390.5" gradientUnits="userSpaceOnUse">
<stop stop-color="#F9B776"/>
<stop offset="1" stop-color="#F47960"/>
</linearGradient>
<linearGradient id="paint37_linear_181_1817" x1="-53644.7" y1="69817.8" x2="-49150.8" y2="67061.3" gradientUnits="userSpaceOnUse">
<stop stop-color="#F9B776"/>
<stop offset="1" stop-color="#F47960"/>
</linearGradient>
<linearGradient id="paint38_linear_181_1817" x1="-61174.7" y1="84036.8" x2="-68754.9" y2="90058.8" gradientUnits="userSpaceOnUse">
<stop stop-color="#2B3582"/>
<stop offset="1" stop-color="#150E42"/>
</linearGradient>
<linearGradient id="paint39_linear_181_1817" x1="-9990.87" y1="14901.3" x2="-9189.62" y2="14300.7" gradientUnits="userSpaceOnUse">
<stop stop-color="#F9B776"/>
<stop offset="1" stop-color="#F47960"/>
</linearGradient>
</defs>
</svg>
